<?xml version="1.0" encoding="utf-8"?>
<!-- Generator: Adobe Illustrator 16.0.0, SVG Export Plug-In . SVG Version: 6.00 Build 0)  -->
<!DOCTYPE svg PUBLIC "-//W3C//DTD SVG 1.1//EN" "http://www.w3.org/Graphics/SVG/1.1/DTD/svg11.dtd">
<svg version="1.1" id="Layer_1" xmlns="http://www.w3.org/2000/svg" xmlns:xlink="http://www.w3.org/1999/xlink" x="0px" y="0px"
	 width="79.896px" height="88.254px" viewBox="0 0 79.896 88.254" enable-background="new 0 0 79.896 88.254" xml:space="preserve">
<g id="Hair12">
	<path fill="#5A4A42" d="M39.949,3.227c-9.554,0-17.299,6.978-17.299,15.585v15.727v13.289v2.443c0,1.295,0.496,2.471,1.302,3.357
		c-0.806,0.891-1.302,2.064-1.302,3.359s0.496,2.471,1.302,3.359c-0.806,0.889-1.302,2.063-1.302,3.358
		c0,1.294,0.496,2.47,1.302,3.358c-0.806,0.89-1.302,2.064-1.302,3.359c0,1.294,0.496,2.471,1.302,3.359
		c-0.806,0.889-1.302,2.062-1.302,3.357c0,2.769,2.243,5.012,5.01,5.012c2.77,0,5.01-2.243,5.01-5.012
		c0-1.295-0.494-2.471-1.301-3.357c0.807-0.891,1.301-2.065,1.301-3.359c0-1.295-0.494-2.472-1.301-3.359
		c0.807-0.891,1.301-2.064,1.301-3.358c0-1.295-0.494-2.472-1.301-3.358c0.807-0.891,1.301-2.064,1.301-3.359
		s-0.494-2.471-1.301-3.359c0.807-0.889,1.301-2.062,1.301-3.357h3.539v-2.443h7.48v2.443h3.537
		c0.001,1.295,0.496,2.471,1.302,3.357c-0.806,0.891-1.302,2.064-1.302,3.359s0.496,2.471,1.302,3.359
		c-0.806,0.889-1.302,2.063-1.302,3.358c0,1.294,0.496,2.47,1.302,3.358c-0.806,0.89-1.302,2.064-1.302,3.359
		c0,1.294,0.496,2.471,1.302,3.359c-0.806,0.889-1.302,2.062-1.302,3.357c0,2.769,2.244,5.012,5.011,5.012s5.009-2.243,5.009-5.012
		c0-1.295-0.494-2.471-1.301-3.357c0.807-0.891,1.301-2.065,1.301-3.359c0-1.295-0.494-2.472-1.301-3.359
		c0.807-0.891,1.301-2.064,1.301-3.358c0-1.295-0.495-2.472-1.301-3.358c0.806-0.891,1.301-2.064,1.301-3.359
		s-0.495-2.471-1.301-3.359c0.806-0.889,1.301-2.062,1.301-3.357v-2.443V34.539V18.812C57.246,10.205,49.502,3.227,39.949,3.227z"/>
</g>
<g id="Skin12">
	<path fill="#F7D6B8" d="M52.229,35.201c-0.089,0.007-1.445-0.2-1.445-0.2c-2.021-0.718-3.771-3.247-4.881-6.814
		c-3.459,4.285-8.751,7.028-14.688,7.028c-0.938,0-1.861-0.07-2.766-0.203v0.108c-2.865,0.089-5.162,2.435-5.162,5.321
		c0,2.886,2.297,5.231,5.162,5.321v4.243c0,5.558,5,10.062,11.166,10.062c6.168,0,11.168-4.504,11.168-10.062v-4.26
		c0.163,0.016,0.327,0.024,0.494,0.024c2.944,0,5.33-2.388,5.33-5.331C56.608,37.823,54.719,35.65,52.229,35.201z"/>
</g>
<g id="Mouth12">
	<path fill="#EBA77D" d="M39.948,53.917c3.115,0,5.641-2.526,5.641-5.642H34.307C34.307,51.391,36.833,53.917,39.948,53.917z"/>
</g>
<g id="Eyes">
	<circle fill="#5A4A42" cx="32.638" cy="41.053" r="1.659"/>
	<circle fill="#5A4A42" cx="47.26" cy="41.053" r="1.659"/>
</g>
</svg>
