<?xml version="1.0" encoding="utf-8"?>
<!-- Generator: Adobe Illustrator 16.0.0, SVG Export Plug-In . SVG Version: 6.00 Build 0)  -->
<!DOCTYPE svg PUBLIC "-//W3C//DTD SVG 1.1//EN" "http://www.w3.org/Graphics/SVG/1.1/DTD/svg11.dtd">
<svg version="1.1" id="Layer_1" xmlns="http://www.w3.org/2000/svg" xmlns:xlink="http://www.w3.org/1999/xlink" x="0px" y="0px"
	 width="79.896px" height="88.254px" viewBox="0 0 79.896 88.254" enable-background="new 0 0 79.896 88.254" xml:space="preserve">
<g id="Hair9">
	<path fill="#5A4A42" d="M39.802,6.025c-12.764,0-23.107,10.346-23.107,23.11v15.73l0,0c0,2.769,2.243,5.01,5.011,5.01
		c2.769,0,5.01-2.241,5.01-5.01h26.183c0,2.769,2.239,5.01,5.01,5.01c2.767,0,5.011-2.241,5.011-5.01l0,0V29.136
		C62.911,16.371,52.565,6.025,39.802,6.025z"/>
</g>
<g id="Skin9">
	<path fill="#F7D6B8" d="M56.68,34.329c0,0,0,0-0.002,0l0,0c-3.797-1.387-6.971-4.245-8.982-7.69
		c-4.742,4.983-11.433,8.524-18.856,8.524c-2.219,0-4.367-0.286-6.426-0.81v0.002c-2.703,0.258-4.814,2.533-4.814,5.304
		c0,2.855,2.243,5.179,5.064,5.317c1.378,8.08,8.41,14.231,16.883,14.231c8.476,0,15.505-6.151,16.886-14.231
		c0.082,0.004,0.164,0.013,0.25,0.013c2.941,0,5.326-2.386,5.326-5.33C62.009,36.716,59.624,34.329,56.68,34.329z"/>
</g>
<g id="Mouth9">
	<path fill="#EBA77D" d="M39.803,52.698c3.112,0,5.642-2.525,5.642-5.644H34.161C34.161,50.171,36.688,52.698,39.803,52.698z"/>
</g>
<g id="Eyes">
	<circle fill="#5A4A42" cx="29.493" cy="40.464" r="1.659"/>
	<circle fill="#5A4A42" cx="50.114" cy="40.464" r="1.659"/>
</g>
</svg>
