<?xml version="1.0" encoding="utf-8"?>
<!-- Generator: Adobe Illustrator 16.0.0, SVG Export Plug-In . SVG Version: 6.00 Build 0)  -->
<!DOCTYPE svg PUBLIC "-//W3C//DTD SVG 1.1//EN" "http://www.w3.org/Graphics/SVG/1.1/DTD/svg11.dtd">
<svg version="1.1" id="Layer_1" xmlns="http://www.w3.org/2000/svg" xmlns:xlink="http://www.w3.org/1999/xlink" x="0px" y="0px"
	 width="79.896px" height="88.254px" viewBox="0 0 79.896 88.254" enable-background="new 0 0 79.896 88.254" xml:space="preserve">
<g id="Hair5">
	<path fill="#5A4A42" d="M39.947,5.765c-12.763,0-23.109,10.346-23.109,23.109v15.731l0,0c0,1.295,0.496,2.472,1.304,3.359
		c-0.809,0.89-1.304,2.062-1.304,3.356c0,1.298,0.496,2.474,1.304,3.361c-0.809,0.889-1.304,2.062-1.304,3.357
		c0,1.293,0.495,2.47,1.304,3.357c-0.809,0.891-1.304,2.063-1.304,3.358s0.495,2.472,1.304,3.359
		c-0.809,0.889-1.304,2.062-1.304,3.356c0,2.771,2.243,5.01,5.013,5.01c2.767,0,5.01-2.239,5.01-5.01
		c0-1.296-0.495-2.473-1.301-3.356c0.806-0.892,1.301-2.064,1.301-3.359s-0.495-2.471-1.301-3.358
		c0.806-0.892,1.301-2.064,1.301-3.357c0-1.295-0.495-2.473-1.301-3.357c0.806-0.893,1.301-2.063,1.301-3.361
		c0-1.295-0.495-2.471-1.301-3.356c0.806-0.891,1.301-2.063,1.301-3.359h26.18c0,1.295,0.494,2.472,1.301,3.359
		c-0.807,0.89-1.301,2.062-1.301,3.356c0,1.298,0.494,2.474,1.301,3.361c-0.807,0.889-1.301,2.062-1.301,3.357
		c0,1.293,0.494,2.469,1.301,3.357c-0.807,0.891-1.301,2.063-1.301,3.358s0.494,2.472,1.301,3.359
		c-0.807,0.889-1.301,2.062-1.301,3.356c0,2.771,2.242,5.01,5.01,5.01c2.771,0,5.013-2.239,5.013-5.01
		c0-1.296-0.494-2.473-1.304-3.356c0.81-0.892,1.304-2.064,1.304-3.359s-0.494-2.471-1.304-3.358
		c0.81-0.892,1.304-2.064,1.304-3.357c0-1.295-0.494-2.473-1.304-3.357c0.81-0.893,1.304-2.063,1.304-3.361
		c0-1.295-0.496-2.471-1.304-3.356c0.808-0.891,1.304-2.063,1.304-3.359l0,0V28.874C63.057,16.111,52.712,5.765,39.947,5.765z"/>
</g>
<g id="Skin5">
	<path fill="#F7D6B8" d="M56.823,34.034L56.823,34.034v-0.003c-2.084,0.544-4.266,0.842-6.52,0.842
		c-7.357,0-13.99-3.519-18.69-8.458c-2.021,3.46-5.225,6.141-9.055,7.5v0.146c-2.703,0.258-4.818,2.533-4.818,5.303
		c0,2.854,2.246,5.179,5.066,5.315c1.378,8.08,8.406,14.232,16.884,14.232c8.474,0,15.505-6.152,16.882-14.23
		c0.084,0.004,0.166,0.012,0.25,0.012c2.943,0,5.33-2.387,5.33-5.329C62.153,36.422,59.766,34.034,56.823,34.034z"/>
</g>
<g id="Mouth5">
	<path fill="#EBA77D" d="M39.295,52.436c3.114,0,5.644-2.521,5.644-5.641H33.652C33.652,49.911,36.179,52.436,39.295,52.436z"/>
</g>
<g id="Eyes">
	<circle fill="#5A4A42" cx="29.493" cy="40.464" r="1.659"/>
	<circle fill="#5A4A42" cx="50.114" cy="40.464" r="1.659"/>
</g>
</svg>
