<?xml version="1.0" encoding="utf-8"?>
<!-- Generator: Adobe Illustrator 16.0.0, SVG Export Plug-In . SVG Version: 6.00 Build 0)  -->
<!DOCTYPE svg PUBLIC "-//W3C//DTD SVG 1.1//EN" "http://www.w3.org/Graphics/SVG/1.1/DTD/svg11.dtd">
<svg version="1.1" id="Layer_1" xmlns="http://www.w3.org/2000/svg" xmlns:xlink="http://www.w3.org/1999/xlink" x="0px" y="0px"
	 width="79.896px" height="88.254px" viewBox="0 0 79.896 88.254" enable-background="new 0 0 79.896 88.254" xml:space="preserve">
<g id="Hair4">
	<path fill="#5A4A42" d="M39.948,6.025c-12.764,0-23.109,10.346-23.109,23.11v15.73l0,0c0,2.769,2.243,5.01,5.013,5.01
		c2.767,0,5.01-2.241,5.01-5.01h26.18c0,2.769,2.24,5.01,5.01,5.01c2.769,0,5.013-2.241,5.013-5.01l0,0V29.136
		C63.057,16.371,52.712,6.025,39.948,6.025z"/>
</g>
<g id="Skin4">
	<path fill="#F7D6B8" d="M56.823,34.294L56.823,34.294v-0.003c-2.084,0.543-4.266,0.842-6.52,0.842
		c-7.357,0-13.99-3.519-18.69-8.458c-2.021,3.46-5.225,6.141-9.055,7.5v0.146c-2.703,0.258-4.818,2.533-4.818,5.304
		c0,2.855,2.246,5.18,5.066,5.316c1.378,8.082,8.406,14.23,16.884,14.23c8.474,0,15.505-6.148,16.882-14.229
		c0.084,0.002,0.166,0.012,0.25,0.012c2.943,0,5.33-2.387,5.33-5.33S59.766,34.294,56.823,34.294z"/>
</g>
<g id="Mouth4">
	<path fill="#EBA77D" d="M39.295,52.698c3.114,0,5.644-2.525,5.644-5.644H33.652C33.652,50.171,36.179,52.698,39.295,52.698z"/>
</g>
<g id="Eyes">
	<circle fill="#5A4A42" cx="29.493" cy="40.464" r="1.659"/>
	<circle fill="#5A4A42" cx="50.114" cy="40.464" r="1.659"/>
</g>
</svg>
