<?xml version="1.0" encoding="utf-8"?>
<!-- Generator: Adobe Illustrator 16.0.0, SVG Export Plug-In . SVG Version: 6.00 Build 0)  -->
<!DOCTYPE svg PUBLIC "-//W3C//DTD SVG 1.1//EN" "http://www.w3.org/Graphics/SVG/1.1/DTD/svg11.dtd">
<svg version="1.1" id="Layer_1" xmlns="http://www.w3.org/2000/svg" xmlns:xlink="http://www.w3.org/1999/xlink" x="0px" y="0px"
	 width="79.896px" height="88.254px" viewBox="0 0 79.896 88.254" enable-background="new 0 0 79.896 88.254" xml:space="preserve">
<g id="Hair8">
	<path fill="#5A4A42" d="M74.99,28.95c0.468-0.854,0.829-1.785,1.056-2.783c1.31-5.767-2.311-11.501-8.078-12.808
		c-2.316-0.524-4.634-0.253-6.653,0.635C57.592,5.745,49.303,0,39.667,0c-9.561,0-17.794,5.654-21.556,13.798
		c-1.906-0.729-4.041-0.924-6.182-0.439C6.162,14.666,2.545,20.4,3.851,26.167c0.226,0.998,0.587,1.93,1.055,2.783
		c-3.672,2.369-5.661,6.857-4.64,11.367c1.002,4.424,4.608,7.582,8.842,8.221C7.854,50.77,7.39,53.454,8,56.146
		c1.309,5.769,7.041,9.386,12.812,8.078c5.768-1.309,9.385-7.041,8.078-12.811c-1.005-4.424-4.611-7.581-8.845-8.221
		c0.72-1.275,1.173-2.699,1.32-4.189h37.167c0.146,1.49,0.604,2.914,1.32,4.189c-4.23,0.641-7.844,3.797-8.846,8.221
		c-1.307,5.77,2.312,11.502,8.078,12.811c5.771,1.308,11.502-2.312,12.812-8.078c0.606-2.692,0.146-5.377-1.108-7.608
		c4.23-0.642,7.84-3.797,8.842-8.221C80.651,35.807,78.663,31.318,74.99,28.95z"/>
</g>
<g id="Skin8">
	<path fill="#F7D6B8" d="M57.044,36.358c0,0,0,0-0.002,0l0,0c-3.795-1.387-6.969-4.245-8.98-7.69
		c-4.742,4.983-11.435,8.524-18.857,8.524c-2.219,0-4.369-0.286-6.426-0.81v0.002c-2.703,0.258-4.816,2.533-4.816,5.304
		c0,2.855,2.245,5.179,5.066,5.317c1.378,8.08,8.41,14.233,16.883,14.233c8.474,0,15.505-6.152,16.884-14.233
		c0.082,0.004,0.164,0.013,0.25,0.013c2.943,0,5.328-2.386,5.328-5.33C62.372,38.745,59.987,36.358,57.044,36.358z"/>
</g>
<g id="Mouth8">
	<path fill="#EBA77D" d="M39.732,53.732c3.114,0,5.641-2.524,5.641-5.645H34.089C34.089,51.208,36.616,53.732,39.732,53.732z"/>
</g>
<g id="Eyes">
	<circle fill="#5A4A42" cx="29.493" cy="40.464" r="1.659"/>
	<circle fill="#5A4A42" cx="50.114" cy="40.464" r="1.659"/>
</g>
</svg>
