<?xml version="1.0" encoding="utf-8"?>
<!-- Generator: Adobe Illustrator 16.0.0, SVG Export Plug-In . SVG Version: 6.00 Build 0)  -->
<!DOCTYPE svg PUBLIC "-//W3C//DTD SVG 1.1//EN" "http://www.w3.org/Graphics/SVG/1.1/DTD/svg11.dtd">
<svg version="1.1" id="Layer_1" xmlns="http://www.w3.org/2000/svg" xmlns:xlink="http://www.w3.org/1999/xlink" x="0px" y="0px"
	 width="79.896px" height="88.254px" viewBox="0 0 79.896 88.254" enable-background="new 0 0 79.896 88.254" xml:space="preserve">
<g id="Hair7">
	<path fill="#5A4A42" d="M63.684,58.622V31.371c0-13.111-10.625-23.737-23.735-23.737S16.213,18.26,16.213,31.371v27.251H63.684z"/>
</g>
<g id="Skin7">
	<path fill="#F7D6B8" d="M57.044,36.358c0,0,0,0-0.002,0l0,0c-3.795-1.387-6.969-4.245-8.98-7.69
		c-4.742,4.983-11.435,8.524-18.857,8.524c-2.219,0-4.369-0.286-6.426-0.81v0.002c-2.703,0.258-4.816,2.533-4.816,5.304
		c0,2.855,2.245,5.179,5.066,5.317c1.378,8.08,8.41,14.233,16.883,14.233c8.474,0,15.505-6.152,16.884-14.233
		c0.082,0.004,0.164,0.013,0.25,0.013c2.943,0,5.328-2.386,5.328-5.33C62.372,38.745,59.987,36.358,57.044,36.358z"/>
</g>
<g id="Mouth7">
	<path fill="#EBA77D" d="M39.951,54.143c3.114,0,5.642-2.522,5.642-5.643H34.307C34.307,51.618,36.835,54.143,39.951,54.143z"/>
</g>
<g id="Eyes">
	<circle fill="#5A4A42" cx="29.493" cy="40.464" r="1.659"/>
	<circle fill="#5A4A42" cx="50.114" cy="40.464" r="1.659"/>
</g>
</svg>
