<?xml version="1.0" encoding="utf-8"?>
<!-- Generator: Adobe Illustrator 16.0.0, SVG Export Plug-In . SVG Version: 6.00 Build 0)  -->
<!DOCTYPE svg PUBLIC "-//W3C//DTD SVG 1.1//EN" "http://www.w3.org/Graphics/SVG/1.1/DTD/svg11.dtd">
<svg version="1.1" id="Layer_1" xmlns="http://www.w3.org/2000/svg" xmlns:xlink="http://www.w3.org/1999/xlink" x="0px" y="0px"
	 width="79.896px" height="88.254px" viewBox="0 0 79.896 88.254" enable-background="new 0 0 79.896 88.254" xml:space="preserve">
<g id="Hair10">
	<path fill="#5A4A42" d="M39.802,5.765c-12.763,0-23.107,10.346-23.107,23.109v15.731l0,0c0,1.295,0.496,2.472,1.302,3.359
		c-0.807,0.89-1.302,2.062-1.302,3.356c0,1.298,0.496,2.474,1.302,3.361c-0.807,0.889-1.302,2.062-1.302,3.357
		c0,1.293,0.495,2.47,1.302,3.357c-0.807,0.891-1.302,2.063-1.302,3.358s0.495,2.472,1.302,3.359
		c-0.807,0.889-1.302,2.062-1.302,3.356c0,2.771,2.243,5.01,5.011,5.01c2.769,0,5.01-2.239,5.01-5.01
		c0-1.296-0.494-2.473-1.301-3.356c0.807-0.892,1.301-2.064,1.301-3.359s-0.494-2.471-1.301-3.358
		c0.807-0.892,1.301-2.064,1.301-3.357c0-1.295-0.494-2.473-1.301-3.357c0.807-0.893,1.301-2.063,1.301-3.361
		c0-1.295-0.494-2.471-1.301-3.356c0.807-0.891,1.301-2.063,1.301-3.359h26.183c0,1.295,0.494,2.472,1.301,3.359
		c-0.807,0.89-1.301,2.062-1.301,3.356c0,1.298,0.494,2.474,1.301,3.361c-0.807,0.889-1.301,2.062-1.301,3.357
		c0,1.293,0.494,2.469,1.301,3.357c-0.807,0.891-1.301,2.063-1.301,3.358s0.494,2.472,1.301,3.359
		c-0.807,0.889-1.301,2.062-1.301,3.356c0,2.771,2.242,5.01,5.01,5.01c2.769,0,5.011-2.239,5.011-5.01
		c0-1.296-0.494-2.473-1.302-3.356c0.808-0.892,1.302-2.064,1.302-3.359s-0.494-2.471-1.302-3.358
		c0.808-0.892,1.302-2.064,1.302-3.357c0-1.295-0.494-2.473-1.302-3.357c0.808-0.893,1.302-2.063,1.302-3.361
		c0-1.295-0.496-2.471-1.302-3.356c0.806-0.891,1.302-2.063,1.302-3.359l0,0V28.874C62.912,16.111,52.566,5.765,39.802,5.765z"/>
</g>
<g id="Skin10">
	<path fill="#F7D6B8" d="M56.68,34.237c0,0,0,0-0.002,0l0,0c-3.797-1.387-6.971-4.245-8.982-7.69
		c-4.742,4.983-11.433,8.524-18.857,8.524c-2.219,0-4.367-0.286-6.426-0.81v0.002c-2.703,0.258-4.814,2.533-4.814,5.304
		c0,2.855,2.243,5.179,5.064,5.317c1.378,8.08,8.41,14.233,16.883,14.233c8.476,0,15.505-6.152,16.886-14.233
		c0.082,0.005,0.163,0.013,0.25,0.013c2.941,0,5.326-2.386,5.326-5.33C62.009,36.624,59.624,34.237,56.68,34.237z"/>
</g>
<g id="Mouth10">
	<path fill="#EBA77D" d="M39.803,52.436c3.112,0,5.642-2.521,5.642-5.641H34.161C34.161,49.911,36.688,52.436,39.803,52.436z"/>
</g>
<g id="Eyes">
	<circle fill="#5A4A42" cx="29.493" cy="40.464" r="1.659"/>
	<circle fill="#5A4A42" cx="50.114" cy="40.464" r="1.659"/>
</g>
</svg>
