<?xml version="1.0" encoding="utf-8"?>
<!-- Generator: Adobe Illustrator 16.0.0, SVG Export Plug-In . SVG Version: 6.00 Build 0)  -->
<!DOCTYPE svg PUBLIC "-//W3C//DTD SVG 1.1//EN" "http://www.w3.org/Graphics/SVG/1.1/DTD/svg11.dtd">
<svg version="1.1" id="Layer_1" xmlns="http://www.w3.org/2000/svg" xmlns:xlink="http://www.w3.org/1999/xlink" x="0px" y="0px"
	 width="79.896px" height="88.254px" viewBox="0 0 79.896 88.254" enable-background="new 0 0 79.896 88.254" xml:space="preserve">
<g id="Hair3">
	<path fill="#5A4A42" d="M74.99,28.95c0.468-0.854,0.829-1.785,1.056-2.783c1.309-5.767-2.311-11.501-8.078-12.808
		c-2.317-0.524-4.634-0.253-6.654,0.635C57.592,5.745,49.303,0,39.667,0c-9.561,0-17.794,5.654-21.556,13.798
		c-1.906-0.729-4.041-0.924-6.182-0.439C6.162,14.666,2.545,20.4,3.851,26.167c0.226,0.998,0.587,1.93,1.055,2.783
		c-3.672,2.369-5.661,6.857-4.64,11.367c1.002,4.424,4.609,7.582,8.842,8.221C7.854,50.77,7.39,53.454,8,56.146
		c1.308,5.769,7.041,9.386,12.811,8.078c5.768-1.308,9.385-7.041,8.078-12.81c-1.004-4.424-4.611-7.581-8.844-8.221
		c0.719-1.275,1.173-2.699,1.32-4.189h37.167c0.146,1.49,0.604,2.914,1.32,4.189c-4.23,0.641-7.843,3.797-8.845,8.221
		c-1.307,5.769,2.312,11.502,8.078,12.81c5.77,1.308,11.502-2.312,12.811-8.078c0.607-2.692,0.146-5.377-1.108-7.608
		c4.23-0.642,7.84-3.797,8.842-8.221C80.651,35.807,78.663,31.318,74.99,28.95z"/>
</g>
<g id="Skin3">
	<path fill="#F7D6B8" d="M57.26,35.33L57.26,35.33v-0.004c-2.084,0.545-4.267,0.843-6.521,0.843c-7.356,0-13.989-3.519-18.689-8.458
		c-2.021,3.46-5.225,6.141-9.055,7.5v0.146c-2.703,0.258-4.818,2.532-4.818,5.303c0,2.855,2.246,5.18,5.066,5.316
		c1.378,8.082,8.409,14.233,16.884,14.233c8.477,0,15.505-6.151,16.883-14.231c0.085,0.004,0.166,0.013,0.25,0.013
		c2.943,0,5.33-2.387,5.33-5.331C62.591,37.718,60.204,35.33,57.26,35.33z"/>
</g>
<g id="Mouth3">
	<path fill="#EBA77D" d="M39.732,53.732c3.114,0,5.641-2.524,5.641-5.644H34.089C34.089,51.208,36.616,53.732,39.732,53.732z"/>
</g>
<g id="Eyes">
	<g id="Eyes_1_">
		<circle fill="#5A4A42" cx="29.493" cy="40.464" r="1.659"/>
		<circle fill="#5A4A42" cx="50.114" cy="40.464" r="1.659"/>
	</g>
</g>
</svg>
