<?xml version="1.0" encoding="utf-8"?>
<!-- Generator: Adobe Illustrator 16.0.0, SVG Export Plug-In . SVG Version: 6.00 Build 0)  -->
<!DOCTYPE svg PUBLIC "-//W3C//DTD SVG 1.1//EN" "http://www.w3.org/Graphics/SVG/1.1/DTD/svg11.dtd">
<svg version="1.1" id="Layer_1" xmlns="http://www.w3.org/2000/svg" xmlns:xlink="http://www.w3.org/1999/xlink" x="0px" y="0px"
	 width="79.896px" height="88.254px" viewBox="0 0 79.896 88.254" enable-background="new 0 0 79.896 88.254" xml:space="preserve">
<g id="Hair1">
	<path fill="#5A4A42" d="M63.684,52.3c0,13.109-10.627,23.736-23.735,23.736l0,0c-13.111,0-23.737-10.627-23.737-23.736V31.955
		c0-13.111,10.626-23.737,23.737-23.737l0,0c13.108,0,23.735,10.626,23.735,23.737V52.3z"/>
</g>
<g id="Skin1">
	<path fill="#F7D6B8" d="M57.478,36.323L57.478,36.323V36.32c-2.084,0.544-4.27,0.842-6.521,0.842
		c-7.354,0-13.989-3.519-18.688-8.458c-2.021,3.46-5.228,6.141-9.058,7.5v0.146c-2.703,0.258-4.815,2.533-4.815,5.304
		c0,2.856,2.246,5.179,5.063,5.317c1.378,8.082,8.409,14.233,16.887,14.233c8.475,0,15.505-6.151,16.883-14.231
		c0.084,0.002,0.166,0.012,0.25,0.012c2.94,0,5.33-2.385,5.33-5.331C62.808,38.711,60.422,36.323,57.478,36.323z"/>
</g>
<g id="Mouth1">
	<path fill="#EBA77D" d="M39.95,54.727c3.114,0,5.641-2.522,5.641-5.643H34.306C34.306,52.201,36.834,54.727,39.95,54.727z"/>
</g>
<g id="Eyes">
	<circle fill="#5A4A42" cx="29.638" cy="41.053" r="1.659"/>
	<circle fill="#5A4A42" cx="50.26" cy="41.053" r="1.659"/>
</g>
</svg>
