<?xml version="1.0" encoding="utf-8"?>
<!-- Generator: Adobe Illustrator 16.0.0, SVG Export Plug-In . SVG Version: 6.00 Build 0)  -->
<!DOCTYPE svg PUBLIC "-//W3C//DTD SVG 1.1//EN" "http://www.w3.org/Graphics/SVG/1.1/DTD/svg11.dtd">
<svg version="1.1" id="Layer_1" xmlns="http://www.w3.org/2000/svg" xmlns:xlink="http://www.w3.org/1999/xlink" x="0px" y="0px"
	 width="79.896px" height="88.254px" viewBox="0 0 79.896 88.254" enable-background="new 0 0 79.896 88.254" xml:space="preserve">
<g id="Hair14">
	<path fill="#5A4A42" d="M65.878,32.216c0-4.521-3.665-8.187-8.187-8.187c-0.24,0-0.479,0.013-0.711,0.033V19.85
		c0-8.608-7.745-15.586-17.298-15.586c-9.555,0-17.3,6.978-17.3,15.586v4.184c-0.061-0.002-0.117-0.005-0.18-0.005
		c-4.521,0-8.187,3.666-8.187,8.187c0,2.515,1.135,4.764,2.92,6.266c-1.404,1.47-2.271,3.46-2.271,5.653
		c0,3.457,2.145,6.411,5.173,7.612c-0.073,0.444-0.114,0.901-0.114,1.367c0,4.521,3.665,8.187,8.187,8.187
		c4.522,0,8.188-3.665,8.188-8.187c0-1.556-0.437-3.011-1.188-4.249h10.073c-0.753,1.238-1.188,2.693-1.188,4.249
		c0,4.521,3.665,8.187,8.188,8.187c4.521,0,8.187-3.665,8.187-8.187c0-0.466-0.041-0.923-0.114-1.367
		c3.027-1.201,5.173-4.155,5.173-7.612c0-2.193-0.864-4.184-2.271-5.653C64.742,36.979,65.878,34.73,65.878,32.216z"/>
</g>
<g id="Skin14">
	<path fill="#F7D6B8" d="M52.229,35.201c-0.089,0.007-1.445-0.2-1.445-0.2c-2.021-0.718-3.771-3.247-4.881-6.814
		c-3.459,4.285-8.751,7.028-14.688,7.028c-0.938,0-1.861-0.07-2.766-0.203v0.108c-2.865,0.089-5.162,2.435-5.162,5.321
		c0,2.886,2.297,5.231,5.162,5.321v4.243c0,5.558,5,10.062,11.166,10.062c6.168,0,11.168-4.504,11.168-10.062v-4.26
		c0.163,0.016,0.327,0.024,0.494,0.024c2.944,0,5.33-2.388,5.33-5.331C56.608,37.823,54.719,35.65,52.229,35.201z"/>
</g>
<g id="Mouth14">
	<path fill="#EBA77D" d="M39.948,53.917c3.115,0,5.641-2.526,5.641-5.642H34.307C34.307,51.391,36.833,53.917,39.948,53.917z"/>
</g>
<g id="Eyes">
	<circle fill="#5A4A42" cx="32.638" cy="41.053" r="1.659"/>
	<circle fill="#5A4A42" cx="47.26" cy="41.053" r="1.659"/>
</g>
</svg>
