<?xml version="1.0" encoding="utf-8"?>
<!-- Generator: Adobe Illustrator 16.0.0, SVG Export Plug-In . SVG Version: 6.00 Build 0)  -->
<!DOCTYPE svg PUBLIC "-//W3C//DTD SVG 1.1//EN" "http://www.w3.org/Graphics/SVG/1.1/DTD/svg11.dtd">
<svg version="1.1" id="Layer_1" xmlns="http://www.w3.org/2000/svg" xmlns:xlink="http://www.w3.org/1999/xlink" x="0px" y="0px"
	 width="79.896px" height="88.254px" viewBox="0 0 79.896 88.254" enable-background="new 0 0 79.896 88.254" xml:space="preserve">
<g id="Hair15">
	<path fill="#5A4A42" d="M57.246,19.508c0-8.607-7.745-15.585-17.298-15.585c-9.554,0-17.298,6.978-17.298,15.585v29.016h0.009
		c-0.003,0.061-0.009,0.115-0.009,0.177c0,2.069,1.679,3.751,3.751,3.751c2.071,0,3.751-1.682,3.751-3.751
		c0-0.062-0.006-0.116-0.009-0.177h19.607c-0.003,0.061-0.009,0.115-0.009,0.177c0,2.069,1.679,3.751,3.751,3.751
		c2.071,0,3.751-1.682,3.751-3.751c0-0.062-0.006-0.116-0.009-0.177h0.009L57.246,19.508L57.246,19.508z"/>
</g>
<g id="Skin15">
	<path fill="#F7D6B8" d="M52.229,35.201c-0.089,0.007-1.445-0.2-1.445-0.2c-2.021-0.718-3.771-3.247-4.881-6.814
		c-3.459,4.285-8.751,7.028-14.688,7.028c-0.938,0-1.861-0.07-2.766-0.203v0.108c-2.865,0.089-5.162,2.435-5.162,5.321
		c0,2.886,2.297,5.231,5.162,5.321v4.243c0,5.558,5,10.062,11.166,10.062c6.168,0,11.168-4.504,11.168-10.062v-4.26
		c0.163,0.016,0.327,0.024,0.494,0.024c2.944,0,5.33-2.388,5.33-5.331C56.608,37.823,54.719,35.65,52.229,35.201z"/>
</g>
<g id="Mouth15">
	<path fill="#EBA77D" d="M39.948,53.917c3.115,0,5.641-2.526,5.641-5.642H34.307C34.307,51.391,36.833,53.917,39.948,53.917z"/>
</g>
<g id="Eyes">
	<circle fill="#5A4A42" cx="32.638" cy="41.053" r="1.659"/>
	<circle fill="#5A4A42" cx="47.26" cy="41.053" r="1.659"/>
</g>
</svg>
