<?xml version="1.0" encoding="utf-8"?>
<!-- Generator: Adobe Illustrator 16.0.0, SVG Export Plug-In . SVG Version: 6.00 Build 0)  -->
<!DOCTYPE svg PUBLIC "-//W3C//DTD SVG 1.1//EN" "http://www.w3.org/Graphics/SVG/1.1/DTD/svg11.dtd">
<svg version="1.1" id="Layer_1" xmlns="http://www.w3.org/2000/svg" xmlns:xlink="http://www.w3.org/1999/xlink" x="0px" y="0px"
	 width="79.896px" height="88.254px" viewBox="0 0 79.896 88.254" enable-background="new 0 0 79.896 88.254" xml:space="preserve">
<g id="Hair2">
	<path fill="#5A4A42" d="M63.684,58.622V31.371c0-13.111-10.625-23.737-23.735-23.737S16.213,18.26,16.213,31.371v27.251H63.684z"/>
</g>
<g id="Skin2">
	<path fill="#F7D6B8" d="M57.479,35.739L57.479,35.739v-0.003c-2.084,0.543-4.269,0.843-6.521,0.843
		c-7.354,0-13.99-3.519-18.688-8.458c-2.021,3.46-5.228,6.141-9.058,7.5v0.146c-2.7,0.258-4.815,2.532-4.815,5.305
		c0,2.854,2.246,5.18,5.063,5.316c1.378,8.082,8.409,14.232,16.887,14.232c8.475,0,15.506-6.15,16.883-14.23
		c0.084,0.002,0.166,0.012,0.25,0.012c2.94,0,5.33-2.386,5.33-5.329C62.809,38.129,60.423,35.739,57.479,35.739z"/>
</g>
<g id="Mouth2">
	<path fill="#EBA77D" d="M39.951,54.143c3.114,0,5.642-2.522,5.642-5.643H34.307C34.307,51.618,36.835,54.143,39.951,54.143z"/>
</g>
<g id="Eyes">
	<circle fill="#5A4A42" cx="29.493" cy="40.464" r="1.659"/>
	<circle fill="#5A4A42" cx="50.114" cy="40.464" r="1.659"/>
</g>
</svg>
