<?xml version="1.0" encoding="iso-8859-1"?>
<!-- Generator: Adobe Illustrator 16.0.0, SVG Export Plug-In . SVG Version: 6.00 Build 0)  -->
<!DOCTYPE svg PUBLIC "-//W3C//DTD SVG 1.1//EN" "http://www.w3.org/Graphics/SVG/1.1/DTD/svg11.dtd">
<svg version="1.1" id="Layer_1" xmlns="http://www.w3.org/2000/svg" xmlns:xlink="http://www.w3.org/1999/xlink" x="0px" y="0px"
	 width="146.5px" height="138.5px" viewBox="0 0 146.5 138.5" style="enable-background:new 0 0 146.5 138.5;" xml:space="preserve"
	>
<path style="fill:#FFFFFF;" d="M2,37v96.212c0,1.264,1.024,2.288,2.288,2.288h137.507c1.264,0,2.288-1.024,2.288-2.288V37H2z"/>
<path style="fill:#EC4343;" d="M144.083,2.288c0-1.264-1.024-2.288-2.288-2.288H4.288C3.024,0,2,1.024,2,2.288V37h142.083V2.288z"/>
<g>
	<path style="fill:#6B6B6B;" d="M71.253,102.342v12.052H27.256l22.361-24.321c3.194-3.485,6.244-8.422,6.244-13.432
		c0-3.484-2.469-7.114-6.244-7.114c-3.848,0-5.953,2.977-5.953,6.679c0,0.727,0.072,1.524,0.218,2.323H28.2
		c0.436-12.56,8.422-21.054,21.345-21.054c11.471,0,21.127,7.55,21.127,19.457c0,7.841-3.268,12.414-8.857,17.496l-8.494,7.914
		H71.253z"/>
	<path style="fill:#6B6B6B;" d="M86.352,71.704V59.652h22.071v54.741h-14.23V71.704H86.352z"/>
</g>
<g>
	<path style="fill:#FDFDFE;" d="M23.604,17.199c-0.733-0.611-1.671-1.02-2.649-1.02c-0.734,0-1.713,0.429-1.713,1.284
		c0,0.897,1.08,1.244,1.773,1.468l1.02,0.307c2.141,0.632,3.792,1.712,3.792,4.199c0,1.528-0.367,3.099-1.591,4.138
		c-1.202,1.02-2.812,1.448-4.362,1.448c-1.937,0-3.832-0.652-5.402-1.754l1.713-3.221c0.999,0.877,2.181,1.59,3.547,1.59
		c0.938,0,1.937-0.469,1.937-1.549c0-1.121-1.569-1.509-2.426-1.754c-2.508-0.713-4.158-1.365-4.158-4.342
		c0-3.119,2.222-5.157,5.3-5.157c1.55,0,3.445,0.489,4.812,1.264L23.604,17.199z"/>
	<path style="fill:#FDFDFE;" d="M31.715,16.629v2.568h4.505v3.384h-4.505v2.65h4.749v3.384h-8.745V13.244h8.745v3.385H31.715z"/>
	<path style="fill:#FDFDFE;" d="M38.927,13.244h6.116c3.302,0,5.585,1.529,5.585,5.056c0,3.629-1.957,5.219-5.442,5.219h-2.264
		v5.097h-3.995V13.244z M42.922,20.298h0.673c1.448,0,2.875,0,2.875-1.876c0-1.937-1.325-1.957-2.875-1.957h-0.673V20.298z"/>
	<path style="fill:#FDFDFE;" d="M58.514,28.615h-3.996V16.629h-3.303v-3.385h10.601v3.385h-3.302V28.615z"/>
	<path style="fill:#FDFDFE;" d="M67.256,16.629v2.568h4.505v3.384h-4.505v2.65h4.749v3.384H63.26V13.244h8.745v3.385H67.256z"/>
	<path style="fill:#FDFDFE;" d="M76.16,13.244h3.934l3.119,8.216l3.303-8.216h3.976l2.323,15.371h-3.995l-1.121-8.848h-0.041
		l-3.689,8.848h-1.591l-3.526-8.848H78.81l-1.284,8.848h-3.975L76.16,13.244z"/>
	<path style="fill:#FDFDFE;" d="M94.501,28.615V13.244h5.708c2.731,0,4.566,1.061,4.566,3.996c0,1.386-0.448,2.507-1.692,3.139
		v0.041c2.202,0.285,3.14,1.773,3.14,3.914c0,3.221-2.752,4.281-5.565,4.281H94.501z M98.496,19.278h0.449
		c1.06,0,2.16-0.184,2.16-1.488c0-1.406-1.243-1.487-2.323-1.487h-0.286V19.278z M98.496,25.558h0.51
		c1.183,0,3.181,0.061,3.181-1.631c0-1.855-1.978-1.672-3.282-1.672h-0.408V25.558z"/>
	<path style="fill:#FDFDFE;" d="M112.293,16.629v2.568h4.505v3.384h-4.505v2.65h4.749v3.384h-8.745V13.244h8.745v3.385H112.293z"/>
	<path style="fill:#FDFDFE;" d="M132.288,28.615h-4.975l-3.771-5.912h-0.04v5.912h-3.996V13.244h5.973
		c3.038,0,5.342,1.447,5.342,4.729c0,2.12-1.183,3.955-3.364,4.343L132.288,28.615z M123.502,20.135h0.387
		c1.305,0,2.772-0.244,2.772-1.916s-1.468-1.916-2.772-1.916h-0.387V20.135z"/>
</g>
</svg>
