<?xml version="1.0" encoding="utf-8"?>
<!-- Generator: Adobe Illustrator 16.0.0, SVG Export Plug-In . SVG Version: 6.00 Build 0)  -->
<!DOCTYPE svg PUBLIC "-//W3C//DTD SVG 1.1//EN" "http://www.w3.org/Graphics/SVG/1.1/DTD/svg11.dtd">
<svg version="1.1" id="Ground" xmlns="http://www.w3.org/2000/svg" xmlns:xlink="http://www.w3.org/1999/xlink" x="0px" y="0px"
	 width="197.586px" height="132px" viewBox="0 0 197.586 132" enable-background="new 0 0 197.586 132" xml:space="preserve">
<g>
	<rect x="155.477" y="45.775" fill="#A0A09F" width="23.812" height="1"/>
	<rect x="155.477" y="42.368" fill="#A0A09F" width="23.812" height="1"/>
	<rect x="155.477" y="52.588" fill="#A0A09F" width="23.812" height="1"/>
	<rect x="155.477" y="49.182" fill="#A0A09F" width="23.812" height="1"/>
	<rect x="155.477" y="58.867" fill="#A0A09F" width="23.812" height="1"/>
	<rect x="155.477" y="55.461" fill="#A0A09F" width="23.812" height="1"/>
	<rect x="93.741" y="56.101" fill="#A0A09F" width="23.812" height="1"/>
	<rect x="93.741" y="52.588" fill="#A0A09F" width="23.812" height="1"/>
	<rect x="93.741" y="63.125" fill="#A0A09F" width="23.812" height="1"/>
	<rect x="93.741" y="59.613" fill="#A0A09F" width="23.812" height="1"/>
	<rect x="93.741" y="45.881" fill="#A0A09F" width="6.408" height="1"/>
	<rect x="93.741" y="42.368" fill="#A0A09F" width="6.408" height="1"/>
	<rect x="93.741" y="49.393" fill="#A0A09F" width="6.408" height="1"/>
	<rect x="110.913" y="45.881" fill="#A0A09F" width="6.408" height="1"/>
	<rect x="110.913" y="42.368" fill="#A0A09F" width="6.408" height="1"/>
	<rect x="110.913" y="49.393" fill="#A0A09F" width="6.408" height="1"/>
	<rect x="93.741" y="70.15" fill="#A0A09F" width="23.812" height="1"/>
	<rect x="93.741" y="66.638" fill="#A0A09F" width="23.812" height="1"/>
	<rect x="93.741" y="77.175" fill="#A0A09F" width="23.812" height="1"/>
	<rect x="93.741" y="73.662" fill="#A0A09F" width="23.812" height="1"/>
	<rect x="93.741" y="84.199" fill="#A0A09F" width="23.812" height="1"/>
	<rect x="93.741" y="80.688" fill="#A0A09F" width="23.812" height="1"/>
	<rect x="93.741" y="91.225" fill="#A0A09F" width="23.812" height="1"/>
	<rect x="93.741" y="87.711" fill="#A0A09F" width="23.812" height="1"/>
	<rect x="93.741" y="98.248" fill="#A0A09F" width="23.812" height="1"/>
	<rect x="93.741" y="94.736" fill="#A0A09F" width="23.812" height="1"/>
	<rect x="93.741" y="105.273" fill="#A0A09F" width="23.812" height="1"/>
	<rect x="93.741" y="101.761" fill="#A0A09F" width="23.812" height="1"/>
	<rect x="93.741" y="112.298" fill="#A0A09F" width="23.812" height="1"/>
	<rect x="93.741" y="108.785" fill="#A0A09F" width="23.812" height="1"/>
	<rect x="125.793" y="84.199" fill="#A0A09F" width="21.613" height="1"/>
	<rect x="125.793" y="80.688" fill="#A0A09F" width="21.613" height="1"/>
	<rect x="125.793" y="91.225" fill="#A0A09F" width="21.613" height="1"/>
	<rect x="125.793" y="87.711" fill="#A0A09F" width="21.613" height="1"/>
	<rect x="125.793" y="98.248" fill="#A0A09F" width="21.613" height="1"/>
	<rect x="125.793" y="94.736" fill="#A0A09F" width="21.613" height="1"/>
	<rect x="125.793" y="105.273" fill="#A0A09F" width="21.613" height="1"/>
	<rect x="125.793" y="101.761" fill="#A0A09F" width="21.613" height="1"/>
	<rect x="125.793" y="112.298" fill="#A0A09F" width="21.613" height="1"/>
	<rect x="125.793" y="108.785" fill="#A0A09F" width="21.613" height="1"/>
	<rect x="155.477" y="98.106" fill="#A0A09F" width="23.812" height="1"/>
	<rect x="155.477" y="104.386" fill="#A0A09F" width="23.812" height="1"/>
	<rect x="155.477" y="100.979" fill="#A0A09F" width="23.812" height="1"/>
	<rect x="155.477" y="110.665" fill="#A0A09F" width="23.812" height="1"/>
	<rect x="155.477" y="107.258" fill="#A0A09F" width="23.812" height="1"/>
	<rect x="155.477" y="71.67" fill="#A0A09F" width="23.812" height="1"/>
	<rect x="155.477" y="68.264" fill="#A0A09F" width="23.812" height="1"/>
	<rect x="155.477" y="78.483" fill="#A0A09F" width="23.812" height="1"/>
	<rect x="155.477" y="75.076" fill="#A0A09F" width="23.812" height="1"/>
	<rect x="155.477" y="84.763" fill="#A0A09F" width="23.812" height="1"/>
	<rect x="155.477" y="81.355" fill="#A0A09F" width="23.812" height="1"/>
	<rect x="155.477" y="88.139" fill="#A0A09F" width="23.812" height="1"/>
	<path fill="#A0A09F" d="M74.788,89.652h-5.75v10.572h5.75V89.652z M73.788,99.225h-3.75v-8.572h3.75V99.225z"/>
	<path fill="#A0A09F" d="M69.038,113.941h7.473v-9.215h-7.473V113.941z M70.038,105.727h5.473v7.215h-5.473V105.727z"/>
	<path fill="#A0A09F" d="M80.38,100.225h5.75V89.652h-5.75V100.225z M81.38,90.652h3.75v8.572h-3.75V90.652z"/>
	<path fill="#A0A09F" d="M55.339,91.01h-5.75v10.572h5.75V91.01z M54.339,100.582h-3.75V92.01h3.75V100.582z"/>
	<path fill="#A0A09F" d="M40.596,101.582h5.75V91.01h-5.75V101.582z M41.596,92.01h3.75v8.572h-3.75V92.01z"/>
	<path fill="#A0A09F" d="M64.331,91.01h-5.75v10.572h5.75V91.01z M63.331,100.582h-3.75V92.01h3.75V100.582z"/>
	<path fill="#A0A09F" d="M40.596,114.62h5.75v-10.572h-5.75V114.62z M41.596,105.048h3.75v8.572h-3.75V105.048z"/>
	<path fill="#A0A09F" d="M64.331,104.048h-5.75v10.572h5.75V104.048z M63.331,113.62h-3.75v-8.572h3.75V113.62z"/>
	<path fill="#A0A09F" d="M55.339,77.402h-5.75v10.572h5.75V77.402z M54.339,86.975h-3.75v-8.572h3.75V86.975z"/>
	<path fill="#A0A09F" d="M40.596,87.975h5.75V77.402h-5.75V87.975z M41.596,78.402h3.75v8.572h-3.75V78.402z"/>
	<path fill="#A0A09F" d="M64.331,77.402h-5.75v10.572h5.75V77.402z M63.331,86.975h-3.75v-8.572h3.75V86.975z"/>
	<path fill="#A0A09F" d="M67.911,126.548c0.26-0.226,0.42-0.521,0.42-0.851c0-0.109-0.021-0.214-0.055-0.314
		c0.791-0.111,1.373-0.627,1.373-1.266c0-0.641-0.584-1.156-1.377-1.268c0.031-0.1,0.053-0.203,0.053-0.312
		c0-0.118-0.025-0.229-0.062-0.338c0.73-0.143,1.258-0.635,1.258-1.242c0-0.605-0.525-1.098-1.254-1.242
		c0.035-0.104,0.059-0.212,0.059-0.325c0-0.328-0.158-0.62-0.414-0.845h20.807h97.449v-1h-0.756v-81.64h-2.869h-29.959h-2.869
		v35.197h-10.975v-3.206h-11.008v3.206h-4.236V39.398h-0.199l-14.07-26.507l-0.441-0.266h-6.266l-0.441,0.266L87.999,39.398h-0.201
		v41.564H67.093V75.02H67.2v-6.834H37.726v5.602v1.232v42.525H20.001v-11.701h4.336c0.276,0,0.5-0.224,0.5-0.5v-1.592
		c0-0.277-0.224-0.5-0.5-0.5h-4.283v-0.078h5.479c0.276,0,0.5-0.223,0.5-0.5v-1.592c0-0.276-0.224-0.5-0.5-0.5h-5.531v-0.543
		c0.704-0.156,1.206-0.624,1.206-1.2c0-0.091-0.014-0.18-0.037-0.265c0.221-0.014,0.407-0.168,0.457-0.385l0.925-4.123
		c0.016-0.067,0.012-0.137-0.001-0.203c0.014-0.094,0.008-0.188-0.032-0.276l-0.882-1.943c0.095-0.119,0.164-0.253,0.164-0.425
		c0-0.559-0.598-0.814-1.202-0.933l0.278-0.795h-2.754l0.278,0.795c-0.604,0.119-1.2,0.374-1.2,0.933
		c0,0.172,0.069,0.306,0.164,0.425l-0.882,1.943c-0.04,0.089-0.046,0.183-0.032,0.276c-0.013,0.066-0.017,0.136-0.001,0.203
		l0.925,4.123c0.05,0.217,0.236,0.371,0.457,0.385c-0.023,0.085-0.037,0.174-0.037,0.265c0,0.576,0.502,1.044,1.206,1.2v2.135h-5.35
		c-0.276,0-0.5,0.225-0.5,0.5v1.593c0,0.276,0.224,0.5,0.5,0.5h5.35v12.778h-6.159v0.713c-0.529,0.216-0.886,0.635-0.886,1.132
		c0,0.124,0.028,0.239,0.069,0.353c-0.666,0.172-1.136,0.643-1.136,1.215c0,0.117,0.026,0.229,0.063,0.336
		c-0.73,0.145-1.259,0.637-1.259,1.244c0,0.127,0.03,0.248,0.074,0.363c-0.67,0.172-1.143,0.643-1.143,1.217
		c0,0.109,0.022,0.213,0.054,0.313c-0.79,0.112-1.372,0.628-1.372,1.267c0,0.651,0.606,1.172,1.422,1.27v0.581h181.548v-1H67.911z
		 M20.056,104.252h3.781v0.592h-3.781V104.252z M20.13,101.582h4.902v0.592H20.13V101.582z M20.119,91.219
		c-0.359,0.043-0.875,0.043-1.234,0C19.244,91.176,19.759,91.176,20.119,91.219z M20.817,92.255l0.472,1.038h-3.574l0.472-1.038
		h1.315H20.817z M17.564,94.457h3.875l-0.7,3.123h-1.237h-1.237L17.564,94.457z M18.795,98.842c0.015-0.063,0.254-0.262,0.706-0.262
		s0.691,0.198,0.706,0.256c-0.015,0.063-0.255,0.262-0.706,0.262S18.81,98.899,18.795,98.842z M14.152,103.767v-0.593h4.85v0.593
		H14.152z M49.802,117.418v-9.559c0-1.468,1.193-2.662,2.662-2.662c1.467,0,2.66,1.194,2.656,2.73v9.49H49.802z M58.138,124.406
		c-0.447,0-0.695-0.217-0.695-0.289s0.248-0.291,0.695-0.291c0.449,0,0.695,0.219,0.695,0.291S58.587,124.406,58.138,124.406z
		 M50.912,124.406c-0.281,0-0.473-0.084-0.584-0.166c0.005-0.041,0.016-0.081,0.016-0.123c0-0.043-0.011-0.082-0.016-0.123
		c0.111-0.082,0.303-0.168,0.584-0.168c0.448,0,0.695,0.219,0.695,0.291S51.36,124.406,50.912,124.406z M41.302,124.406
		c-0.448,0-0.695-0.217-0.695-0.289s0.247-0.291,0.695-0.291s0.695,0.219,0.695,0.291S41.75,124.406,41.302,124.406z
		 M34.076,124.406c-0.281,0-0.473-0.084-0.584-0.166c0.005-0.041,0.016-0.081,0.016-0.123c0-0.043-0.011-0.082-0.016-0.123
		c0.111-0.082,0.303-0.168,0.584-0.168c0.448,0,0.695,0.219,0.695,0.291S34.524,124.406,34.076,124.406z M24.466,124.406
		c-0.448,0-0.695-0.217-0.695-0.289s0.247-0.291,0.695-0.291s0.695,0.219,0.695,0.291S24.915,124.406,24.466,124.406z
		 M17.24,124.406c-0.281,0-0.473-0.084-0.584-0.166c0.005-0.041,0.016-0.081,0.016-0.123c0-0.043-0.011-0.082-0.016-0.123
		c0.111-0.082,0.303-0.168,0.584-0.168c0.448,0,0.695,0.219,0.695,0.291S17.688,124.406,17.24,124.406z M39.283,122.537
		c0-0.072,0.247-0.291,0.695-0.291s0.695,0.219,0.695,0.291s-0.247,0.289-0.695,0.289S39.283,122.609,39.283,122.537z
		 M41.173,121.246c-0.448,0-0.695-0.217-0.695-0.289s0.247-0.291,0.695-0.291s0.695,0.219,0.695,0.291
		S41.622,121.246,41.173,121.246z M38.283,122.537c0,0.072-0.247,0.289-0.695,0.289s-0.695-0.217-0.695-0.289
		s0.247-0.291,0.695-0.291S38.283,122.465,38.283,122.537z M35.837,122.537c0,0.072-0.247,0.289-0.695,0.289
		s-0.695-0.217-0.695-0.289s0.247-0.291,0.695-0.291S35.837,122.465,35.837,122.537z M29.792,122.537
		c0-0.072,0.247-0.291,0.695-0.291c0.281,0,0.473,0.086,0.584,0.168c-0.005,0.041-0.016,0.08-0.016,0.123
		c0,0.042,0.011,0.082,0.016,0.123c-0.111,0.082-0.303,0.166-0.584,0.166C30.04,122.826,29.792,122.609,29.792,122.537z
		 M32.167,122.414c0.111-0.082,0.303-0.168,0.584-0.168c0.448,0,0.695,0.219,0.695,0.291s-0.247,0.289-0.695,0.289
		c-0.281,0-0.473-0.084-0.584-0.166c0.005-0.041,0.016-0.081,0.016-0.123C32.183,122.494,32.172,122.455,32.167,122.414z
		 M28.792,122.537c0,0.072-0.247,0.289-0.695,0.289s-0.695-0.217-0.695-0.289s0.247-0.291,0.695-0.291
		S28.792,122.465,28.792,122.537z M41.673,122.537c0-0.072,0.247-0.291,0.695-0.291s0.695,0.219,0.695,0.291
		s-0.247,0.289-0.695,0.289S41.673,122.609,41.673,122.537z M56.118,122.537c0-0.072,0.248-0.291,0.695-0.291
		c0.449,0,0.695,0.219,0.695,0.291s-0.246,0.289-0.695,0.289C56.366,122.826,56.118,122.609,56.118,122.537z M46.628,122.537
		c0-0.072,0.247-0.291,0.695-0.291c0.281,0,0.473,0.086,0.584,0.168c-0.005,0.041-0.016,0.08-0.016,0.123
		c0,0.042,0.011,0.082,0.016,0.123c-0.111,0.082-0.303,0.166-0.584,0.166C46.875,122.826,46.628,122.609,46.628,122.537z
		 M45.628,122.537c0,0.072-0.247,0.289-0.695,0.289s-0.695-0.217-0.695-0.289s0.247-0.291,0.695-0.291
		S45.628,122.465,45.628,122.537z M53.173,121.246c-0.447,0-0.695-0.217-0.695-0.289s0.248-0.291,0.695-0.291
		c0.449,0,0.695,0.219,0.695,0.291S53.622,121.246,53.173,121.246z M49.003,122.414c0.111-0.082,0.303-0.168,0.584-0.168
		c0.448,0,0.695,0.219,0.695,0.291s-0.247,0.289-0.695,0.289c-0.281,0-0.473-0.084-0.584-0.166c0.005-0.041,0.016-0.081,0.016-0.123
		C49.019,122.494,49.008,122.455,49.003,122.414z M51.978,122.246c0.449,0,0.695,0.219,0.695,0.291s-0.246,0.289-0.695,0.289
		c-0.448,0-0.695-0.217-0.695-0.289S51.53,122.246,51.978,122.246z M54.423,122.246c0.449,0,0.695,0.219,0.695,0.291
		s-0.246,0.289-0.695,0.289c-0.447,0-0.695-0.217-0.695-0.289S53.976,122.246,54.423,122.246z M58.009,121.246
		c-0.447,0-0.695-0.217-0.695-0.289s0.248-0.291,0.695-0.291c0.449,0,0.695,0.219,0.695,0.291S58.458,121.246,58.009,121.246z
		 M55.618,121.246c-0.447,0-0.695-0.217-0.695-0.289s0.248-0.291,0.695-0.291c0.449,0,0.695,0.219,0.695,0.291
		S56.067,121.246,55.618,121.246z M51.478,120.957c0,0.072-0.247,0.289-0.695,0.289c-0.281,0-0.473-0.084-0.584-0.166
		c0.005-0.041,0.016-0.081,0.016-0.123c0-0.043-0.011-0.082-0.016-0.123c0.111-0.082,0.303-0.168,0.584-0.168
		C51.231,120.666,51.478,120.885,51.478,120.957z M49.103,121.08c-0.111,0.082-0.303,0.166-0.584,0.166
		c-0.448,0-0.695-0.217-0.695-0.289s0.247-0.291,0.695-0.291c0.281,0,0.473,0.086,0.584,0.168c-0.005,0.041-0.016,0.08-0.016,0.123
		C49.087,120.999,49.098,121.039,49.103,121.08z M46.128,121.246c-0.448,0-0.695-0.217-0.695-0.289s0.247-0.291,0.695-0.291
		s0.695,0.219,0.695,0.291S46.577,121.246,46.128,121.246z M58.509,122.537c0-0.072,0.248-0.291,0.695-0.291
		c0.449,0,0.695,0.219,0.695,0.291s-0.246,0.289-0.695,0.289C58.757,122.826,58.509,122.609,58.509,122.537z M62.384,122.436
		c-0.004,0.034-0.014,0.066-0.014,0.102s0.01,0.066,0.014,0.102c-0.104,0.087-0.309,0.188-0.615,0.188
		c-0.447,0-0.695-0.217-0.695-0.289s0.248-0.291,0.695-0.291C62.075,122.246,62.28,122.348,62.384,122.436z M63.452,122.639
		c0.002-0.035,0.012-0.066,0.012-0.102s-0.01-0.067-0.012-0.102c0.104-0.088,0.307-0.189,0.613-0.189
		c0.449,0,0.695,0.219,0.695,0.291s-0.246,0.289-0.695,0.289C63.759,122.826,63.556,122.726,63.452,122.639z M63.579,121.059
		c-0.104,0.087-0.309,0.188-0.615,0.188c-0.447,0-0.695-0.217-0.695-0.289s0.248-0.291,0.695-0.291c0.307,0,0.512,0.102,0.615,0.189
		c-0.004,0.034-0.014,0.066-0.014,0.102S63.575,121.023,63.579,121.059z M64.647,121.059c0.002-0.035,0.012-0.066,0.012-0.102
		s-0.01-0.067-0.012-0.102c0.104-0.088,0.307-0.189,0.613-0.189c0.449,0,0.695,0.219,0.695,0.291s-0.246,0.289-0.695,0.289
		C64.954,121.246,64.751,121.146,64.647,121.059z M60.399,121.246c-0.447,0-0.695-0.217-0.695-0.289s0.248-0.291,0.695-0.291
		c0.449,0,0.695,0.219,0.695,0.291S60.849,121.246,60.399,121.246z M54.423,119.68c-0.447,0-0.695-0.218-0.695-0.29
		s0.248-0.29,0.695-0.29c0.449,0,0.695,0.218,0.695,0.29S54.872,119.68,54.423,119.68z M51.978,119.68
		c-0.448,0-0.695-0.218-0.695-0.29s0.247-0.29,0.695-0.29c0.449,0,0.695,0.218,0.695,0.29S52.427,119.68,51.978,119.68z
		 M43.564,121.246c-0.448,0-0.695-0.217-0.695-0.289s0.247-0.291,0.695-0.291s0.695,0.219,0.695,0.291
		S44.012,121.246,43.564,121.246z M39.478,120.957c0,0.072-0.247,0.289-0.695,0.289s-0.695-0.217-0.695-0.289
		s0.247-0.291,0.695-0.291S39.478,120.885,39.478,120.957z M36.337,121.246c-0.448,0-0.695-0.217-0.695-0.289
		s0.247-0.291,0.695-0.291s0.695,0.219,0.695,0.291S36.786,121.246,36.337,121.246z M33.947,121.246
		c-0.281,0-0.473-0.084-0.584-0.166c0.005-0.041,0.016-0.081,0.016-0.123c0-0.043-0.011-0.082-0.016-0.123
		c0.111-0.082,0.303-0.168,0.584-0.168c0.448,0,0.695,0.219,0.695,0.291S34.395,121.246,33.947,121.246z M32.267,121.08
		c-0.111,0.082-0.303,0.166-0.584,0.166c-0.448,0-0.695-0.217-0.695-0.289s0.247-0.291,0.695-0.291c0.281,0,0.473,0.086,0.584,0.168
		c-0.005,0.041-0.016,0.08-0.016,0.123C32.251,120.999,32.262,121.039,32.267,121.08z M29.292,121.246
		c-0.448,0-0.695-0.217-0.695-0.289s0.247-0.291,0.695-0.291s0.695,0.219,0.695,0.291S29.741,121.246,29.292,121.246z
		 M22.447,122.537c0-0.072,0.247-0.291,0.695-0.291s0.695,0.219,0.695,0.291s-0.247,0.289-0.695,0.289
		S22.447,122.609,22.447,122.537z M21.447,122.537c0,0.072-0.247,0.289-0.695,0.289s-0.695-0.217-0.695-0.289
		s0.247-0.291,0.695-0.291S21.447,122.465,21.447,122.537z M19.001,122.537c0,0.072-0.247,0.289-0.695,0.289
		s-0.695-0.217-0.695-0.289s0.247-0.291,0.695-0.291S19.001,122.465,19.001,122.537z M16.611,122.537
		c0,0.072-0.247,0.289-0.695,0.289c-0.281,0-0.473-0.084-0.584-0.166c0.005-0.041,0.016-0.081,0.016-0.123
		c0-0.043-0.011-0.082-0.016-0.123c0.111-0.082,0.303-0.168,0.584-0.168C16.364,122.246,16.611,122.465,16.611,122.537z
		 M24.837,122.537c0-0.072,0.247-0.291,0.695-0.291s0.695,0.219,0.695,0.291s-0.247,0.289-0.695,0.289
		S24.837,122.609,24.837,122.537z M24.337,121.246c-0.448,0-0.695-0.217-0.695-0.289s0.247-0.291,0.695-0.291
		s0.695,0.219,0.695,0.291S24.786,121.246,24.337,121.246z M21.947,121.246c-0.448,0-0.695-0.217-0.695-0.289
		s0.247-0.291,0.695-0.291s0.695,0.219,0.695,0.291S22.395,121.246,21.947,121.246z M19.501,121.246
		c-0.448,0-0.695-0.217-0.695-0.289s0.247-0.291,0.695-0.291s0.695,0.219,0.695,0.291S19.95,121.246,19.501,121.246z
		 M17.111,121.246c-0.281,0-0.473-0.084-0.584-0.166c0.005-0.041,0.016-0.081,0.016-0.123c0-0.043-0.011-0.082-0.016-0.123
		c0.111-0.082,0.303-0.168,0.584-0.168c0.448,0,0.695,0.219,0.695,0.291S17.559,121.246,17.111,121.246z M14.976,123.826
		c0.281,0,0.473,0.086,0.584,0.168c-0.005,0.041-0.016,0.08-0.016,0.123c0,0.042,0.011,0.082,0.016,0.123
		c-0.111,0.082-0.303,0.166-0.584,0.166c-0.448,0-0.695-0.217-0.695-0.289S14.528,123.826,14.976,123.826z M19.63,123.826
		c0.448,0,0.695,0.219,0.695,0.291s-0.247,0.289-0.695,0.289s-0.695-0.217-0.695-0.289S19.182,123.826,19.63,123.826z
		 M22.076,123.826c0.448,0,0.695,0.219,0.695,0.291s-0.247,0.289-0.695,0.289s-0.695-0.217-0.695-0.289
		S21.627,123.826,22.076,123.826z M29.421,123.826c0.448,0,0.695,0.219,0.695,0.291s-0.247,0.289-0.695,0.289
		s-0.695-0.217-0.695-0.289S28.973,123.826,29.421,123.826z M31.812,123.826c0.281,0,0.473,0.086,0.584,0.168
		c-0.005,0.041-0.016,0.08-0.016,0.123c0,0.042,0.011,0.082,0.016,0.123c-0.111,0.082-0.303,0.166-0.584,0.166
		c-0.448,0-0.695-0.217-0.695-0.289S31.364,123.826,31.812,123.826z M36.466,123.826c0.448,0,0.695,0.219,0.695,0.291
		s-0.247,0.289-0.695,0.289s-0.695-0.217-0.695-0.289S36.018,123.826,36.466,123.826z M38.912,123.826
		c0.448,0,0.695,0.219,0.695,0.291s-0.247,0.289-0.695,0.289s-0.695-0.217-0.695-0.289S38.463,123.826,38.912,123.826z
		 M46.257,123.826c0.448,0,0.695,0.219,0.695,0.291s-0.247,0.289-0.695,0.289s-0.695-0.217-0.695-0.289
		S45.809,123.826,46.257,123.826z M48.648,123.826c0.281,0,0.473,0.086,0.584,0.168c-0.005,0.041-0.016,0.08-0.016,0.123
		c0,0.042,0.011,0.082,0.016,0.123c-0.111,0.082-0.303,0.166-0.584,0.166c-0.448,0-0.695-0.217-0.695-0.289
		S48.2,123.826,48.648,123.826z M53.302,123.826c0.449,0,0.695,0.219,0.695,0.291s-0.246,0.289-0.695,0.289
		c-0.447,0-0.695-0.217-0.695-0.289S52.854,123.826,53.302,123.826z M55.747,123.826c0.449,0,0.695,0.219,0.695,0.291
		s-0.246,0.289-0.695,0.289c-0.447,0-0.695-0.217-0.695-0.289S55.3,123.826,55.747,123.826z M63.093,123.826
		c0.307,0,0.512,0.102,0.615,0.189c-0.004,0.034-0.014,0.066-0.014,0.102s0.01,0.066,0.014,0.102
		c-0.104,0.087-0.309,0.188-0.615,0.188c-0.447,0-0.695-0.217-0.695-0.289S62.646,123.826,63.093,123.826z M64.065,119.68
		c-0.307,0-0.51-0.102-0.613-0.189c0.002-0.033,0.012-0.066,0.012-0.101s-0.01-0.067-0.012-0.101
		c0.104-0.088,0.307-0.189,0.613-0.189c0.449,0,0.695,0.218,0.695,0.29S64.515,119.68,64.065,119.68z M62.384,119.49
		c-0.104,0.088-0.309,0.189-0.615,0.189c-0.447,0-0.695-0.218-0.695-0.29s0.248-0.29,0.695-0.29c0.307,0,0.512,0.102,0.615,0.189
		c-0.004,0.033-0.014,0.066-0.014,0.101S62.38,119.457,62.384,119.49z M59.204,119.68c-0.447,0-0.695-0.218-0.695-0.29
		s0.248-0.29,0.695-0.29c0.449,0,0.695,0.218,0.695,0.29S59.653,119.68,59.204,119.68z M56.813,119.68
		c-0.447,0-0.695-0.218-0.695-0.29s0.248-0.29,0.695-0.29c0.449,0,0.695,0.218,0.695,0.29S57.263,119.68,56.813,119.68z
		 M49.587,119.68c-0.281,0-0.473-0.086-0.584-0.167c0.005-0.041,0.016-0.081,0.016-0.123s-0.011-0.082-0.016-0.123
		c0.111-0.082,0.303-0.167,0.584-0.167c0.448,0,0.695,0.218,0.695,0.29S50.036,119.68,49.587,119.68z M47.908,119.513
		c-0.111,0.081-0.303,0.167-0.584,0.167c-0.448,0-0.695-0.218-0.695-0.29s0.247-0.29,0.695-0.29c0.281,0,0.473,0.085,0.584,0.167
		c-0.005,0.041-0.016,0.081-0.016,0.123S47.903,119.472,47.908,119.513z M44.933,119.68c-0.448,0-0.695-0.218-0.695-0.29
		s0.247-0.29,0.695-0.29s0.695,0.218,0.695,0.29S45.381,119.68,44.933,119.68z M42.369,119.68c-0.448,0-0.695-0.218-0.695-0.29
		s0.247-0.29,0.695-0.29s0.695,0.218,0.695,0.29S42.817,119.68,42.369,119.68z M39.978,119.68c-0.448,0-0.695-0.218-0.695-0.29
		s0.247-0.29,0.695-0.29s0.695,0.218,0.695,0.29S40.426,119.68,39.978,119.68z M26.728,121.246c-0.448,0-0.695-0.217-0.695-0.289
		s0.247-0.291,0.695-0.291s0.695,0.219,0.695,0.291S27.176,121.246,26.728,121.246z M14.847,120.666
		c0.281,0,0.473,0.086,0.584,0.168c-0.005,0.041-0.016,0.08-0.016,0.123c0,0.042,0.011,0.082,0.016,0.123
		c-0.111,0.082-0.303,0.166-0.584,0.166c-0.28,0-0.471-0.084-0.582-0.165c0.005-0.042,0.016-0.081,0.016-0.124
		s-0.011-0.083-0.016-0.125C14.376,120.751,14.567,120.666,14.847,120.666z M14.236,122.66c-0.111,0.082-0.303,0.166-0.584,0.166
		c-0.28,0-0.471-0.084-0.582-0.165c0.005-0.042,0.016-0.081,0.016-0.124s-0.011-0.083-0.016-0.125
		c0.111-0.081,0.302-0.166,0.582-0.166c0.281,0,0.473,0.086,0.584,0.168c-0.005,0.041-0.016,0.08-0.016,0.123
		C14.22,122.579,14.231,122.619,14.236,122.66z M13.281,124.117c0,0.072-0.247,0.289-0.695,0.289c-0.281,0-0.473-0.084-0.584-0.166
		c0.005-0.041,0.016-0.081,0.016-0.123c0-0.043-0.011-0.082-0.016-0.123c0.111-0.082,0.303-0.168,0.584-0.168
		C13.034,123.826,13.281,124.045,13.281,124.117z M26.857,123.826c0.448,0,0.695,0.219,0.695,0.291s-0.247,0.289-0.695,0.289
		s-0.695-0.217-0.695-0.289S26.409,123.826,26.857,123.826z M43.693,123.826c0.448,0,0.695,0.219,0.695,0.291
		s-0.247,0.289-0.695,0.289s-0.695-0.217-0.695-0.289S43.245,123.826,43.693,123.826z M60.528,123.826
		c0.449,0,0.695,0.219,0.695,0.291s-0.246,0.289-0.695,0.289c-0.447,0-0.695-0.217-0.695-0.289S60.081,123.826,60.528,123.826z
		 M64.776,124.016c0.104-0.088,0.307-0.189,0.613-0.189c0.449,0,0.695,0.219,0.695,0.291s-0.246,0.289-0.695,0.289
		c-0.307,0-0.51-0.101-0.613-0.188c0.002-0.035,0.012-0.066,0.012-0.102S64.778,124.05,64.776,124.016z M37.587,119.68
		c-0.448,0-0.695-0.218-0.695-0.29s0.247-0.29,0.695-0.29s0.695,0.218,0.695,0.29S38.036,119.68,37.587,119.68z M35.142,119.68
		c-0.448,0-0.695-0.218-0.695-0.29s0.247-0.29,0.695-0.29s0.695,0.218,0.695,0.29S35.59,119.68,35.142,119.68z M32.751,119.68
		c-0.281,0-0.473-0.086-0.584-0.167c0.005-0.041,0.016-0.081,0.016-0.123s-0.011-0.082-0.016-0.123
		c0.111-0.082,0.303-0.167,0.584-0.167c0.448,0,0.695,0.218,0.695,0.29S33.2,119.68,32.751,119.68z M31.072,119.513
		c-0.111,0.081-0.303,0.167-0.584,0.167c-0.448,0-0.695-0.218-0.695-0.29s0.247-0.29,0.695-0.29c0.281,0,0.473,0.085,0.584,0.167
		c-0.005,0.041-0.016,0.081-0.016,0.123S31.067,119.472,31.072,119.513z M28.097,119.68c-0.448,0-0.695-0.218-0.695-0.29
		s0.247-0.29,0.695-0.29s0.695,0.218,0.695,0.29S28.545,119.68,28.097,119.68z M25.533,119.68c-0.448,0-0.695-0.218-0.695-0.29
		s0.247-0.29,0.695-0.29s0.695,0.218,0.695,0.29S25.981,119.68,25.533,119.68z M23.142,119.68c-0.448,0-0.695-0.218-0.695-0.29
		s0.247-0.29,0.695-0.29s0.695,0.218,0.695,0.29S23.59,119.68,23.142,119.68z M20.751,119.68c-0.448,0-0.695-0.218-0.695-0.29
		s0.247-0.29,0.695-0.29s0.695,0.218,0.695,0.29S21.2,119.68,20.751,119.68z M18.306,119.68c-0.448,0-0.695-0.218-0.695-0.29
		s0.247-0.29,0.695-0.29s0.695,0.218,0.695,0.29S18.754,119.68,18.306,119.68z M15.916,119.68c-0.281,0-0.473-0.086-0.584-0.167
		c0.005-0.041,0.016-0.081,0.016-0.123s-0.011-0.082-0.016-0.123c0.111-0.082,0.303-0.167,0.584-0.167
		c0.448,0,0.695,0.218,0.695,0.29S16.364,119.68,15.916,119.68z M10.683,125.574c0.111-0.082,0.303-0.168,0.584-0.168
		c0.448,0,0.695,0.219,0.695,0.291s-0.247,0.289-0.695,0.289c-0.281,0-0.473-0.084-0.584-0.166c0.005-0.041,0.016-0.081,0.016-0.123
		C10.699,125.654,10.688,125.615,10.683,125.574z M13.658,125.406c0.281,0,0.473,0.086,0.584,0.168
		c-0.005,0.041-0.016,0.08-0.016,0.123c0,0.042,0.011,0.082,0.016,0.123c-0.111,0.082-0.303,0.166-0.584,0.166
		c-0.448,0-0.695-0.217-0.695-0.289S13.209,125.406,13.658,125.406z M15.337,125.574c0.111-0.082,0.303-0.168,0.584-0.168
		c0.448,0,0.695,0.219,0.695,0.291s-0.247,0.289-0.695,0.289c-0.281,0-0.473-0.084-0.584-0.166c0.005-0.041,0.016-0.081,0.016-0.123
		C15.353,125.654,15.342,125.615,15.337,125.574z M18.312,125.406c0.448,0,0.695,0.219,0.695,0.291s-0.247,0.289-0.695,0.289
		s-0.695-0.217-0.695-0.289S17.864,125.406,18.312,125.406z M20.757,125.406c0.448,0,0.695,0.219,0.695,0.291
		s-0.247,0.289-0.695,0.289s-0.695-0.217-0.695-0.289S20.309,125.406,20.757,125.406z M23.148,125.406
		c0.448,0,0.695,0.219,0.695,0.291s-0.247,0.289-0.695,0.289s-0.695-0.217-0.695-0.289S22.7,125.406,23.148,125.406z
		 M25.539,125.406c0.448,0,0.695,0.219,0.695,0.291s-0.247,0.289-0.695,0.289s-0.695-0.217-0.695-0.289
		S25.09,125.406,25.539,125.406z M28.103,125.406c0.448,0,0.695,0.219,0.695,0.291s-0.247,0.289-0.695,0.289
		s-0.695-0.217-0.695-0.289S27.655,125.406,28.103,125.406z M30.494,125.406c0.281,0,0.473,0.086,0.584,0.168
		c-0.005,0.041-0.016,0.08-0.016,0.123c0,0.042,0.011,0.082,0.016,0.123c-0.111,0.082-0.303,0.166-0.584,0.166
		c-0.448,0-0.695-0.217-0.695-0.289S30.045,125.406,30.494,125.406z M32.173,125.574c0.111-0.082,0.303-0.168,0.584-0.168
		c0.448,0,0.695,0.219,0.695,0.291s-0.247,0.289-0.695,0.289c-0.281,0-0.473-0.084-0.584-0.166c0.005-0.041,0.016-0.081,0.016-0.123
		C32.189,125.654,32.178,125.615,32.173,125.574z M35.148,125.406c0.448,0,0.695,0.219,0.695,0.291s-0.247,0.289-0.695,0.289
		s-0.695-0.217-0.695-0.289S34.7,125.406,35.148,125.406z M37.593,125.406c0.448,0,0.695,0.219,0.695,0.291
		s-0.247,0.289-0.695,0.289s-0.695-0.217-0.695-0.289S37.145,125.406,37.593,125.406z M39.984,125.406
		c0.448,0,0.695,0.219,0.695,0.291s-0.247,0.289-0.695,0.289s-0.695-0.217-0.695-0.289S39.536,125.406,39.984,125.406z
		 M42.375,125.406c0.448,0,0.695,0.219,0.695,0.291s-0.247,0.289-0.695,0.289s-0.695-0.217-0.695-0.289
		S41.926,125.406,42.375,125.406z M44.939,125.406c0.448,0,0.695,0.219,0.695,0.291s-0.247,0.289-0.695,0.289
		s-0.695-0.217-0.695-0.289S44.491,125.406,44.939,125.406z M47.33,125.406c0.281,0,0.473,0.086,0.584,0.168
		c-0.005,0.041-0.016,0.08-0.016,0.123c0,0.042,0.011,0.082,0.016,0.123c-0.111,0.082-0.303,0.166-0.584,0.166
		c-0.448,0-0.695-0.217-0.695-0.289S46.881,125.406,47.33,125.406z M49.009,125.574c0.111-0.082,0.303-0.168,0.584-0.168
		c0.448,0,0.695,0.219,0.695,0.291s-0.247,0.289-0.695,0.289c-0.281,0-0.473-0.084-0.584-0.166c0.005-0.041,0.016-0.081,0.016-0.123
		C49.025,125.654,49.014,125.615,49.009,125.574z M51.984,125.406c0.449,0,0.695,0.219,0.695,0.291s-0.246,0.289-0.695,0.289
		c-0.448,0-0.695-0.217-0.695-0.289S51.536,125.406,51.984,125.406z M54.429,125.406c0.449,0,0.695,0.219,0.695,0.291
		s-0.246,0.289-0.695,0.289c-0.447,0-0.695-0.217-0.695-0.289S53.981,125.406,54.429,125.406z M56.819,125.406
		c0.449,0,0.695,0.219,0.695,0.291s-0.246,0.289-0.695,0.289c-0.447,0-0.695-0.217-0.695-0.289S56.372,125.406,56.819,125.406z
		 M59.21,125.406c0.449,0,0.695,0.219,0.695,0.291s-0.246,0.289-0.695,0.289c-0.447,0-0.695-0.217-0.695-0.289
		S58.763,125.406,59.21,125.406z M61.774,125.406c0.307,0,0.512,0.102,0.615,0.189c-0.004,0.034-0.014,0.066-0.014,0.102
		s0.01,0.066,0.014,0.102c-0.104,0.087-0.309,0.188-0.615,0.188c-0.447,0-0.695-0.217-0.695-0.289S61.327,125.406,61.774,125.406z
		 M63.458,125.596c0.104-0.088,0.307-0.189,0.613-0.189c0.449,0,0.695,0.219,0.695,0.291s-0.246,0.289-0.695,0.289
		c-0.307,0-0.51-0.101-0.613-0.188c0.002-0.035,0.012-0.066,0.012-0.102S63.46,125.63,63.458,125.596z M66.636,125.406
		c0.449,0,0.695,0.219,0.695,0.291s-0.246,0.289-0.695,0.289c-0.447,0-0.695-0.217-0.695-0.289S66.188,125.406,66.636,125.406z
		 M66.63,122.826c-0.447,0-0.695-0.217-0.695-0.289s0.248-0.291,0.695-0.291c0.449,0,0.695,0.219,0.695,0.291
		S67.079,122.826,66.63,122.826z M66.63,119.68c-0.447,0-0.695-0.218-0.695-0.29s0.248-0.29,0.695-0.29
		c0.449,0,0.695,0.218,0.695,0.29S67.079,119.68,66.63,119.68z M65.349,118.545h-0.002H65.349L65.349,118.545z M60.487,118.545
		h-0.002H60.487L60.487,118.545z M43.651,118.545L43.651,118.545L43.651,118.545L43.651,118.545z M13.652,119.1
		c0.281,0,0.473,0.085,0.584,0.167c-0.005,0.041-0.016,0.081-0.016,0.123s0.011,0.082,0.016,0.123
		c-0.111,0.081-0.303,0.167-0.584,0.167c-0.448,0-0.695-0.218-0.695-0.29S13.204,119.1,13.652,119.1z M68.649,124.117
		c0,0.072-0.246,0.289-0.695,0.289c-0.447,0-0.695-0.217-0.695-0.289s0.248-0.291,0.695-0.291
		C68.403,123.826,68.649,124.045,68.649,124.117z M68.521,120.957c0,0.072-0.246,0.289-0.695,0.289
		c-0.447,0-0.695-0.217-0.695-0.289s0.248-0.291,0.695-0.291C68.274,120.666,68.521,120.885,68.521,120.957z M79.2,117.418v-9.559
		c0-1.468,1.193-2.662,2.66-2.662c1.469,0,2.662,1.194,2.658,2.73v9.49H79.2z M85.519,117.545l0.004-9.686
		c0-2.02-1.643-3.662-3.662-3.662c-2.018,0-3.66,1.643-3.66,3.662v9.686H67.097V86.267h20.621v31.278H85.519z M104.29,18.053h2.715
		v21.345v1v8.384h-2.715v-8.384v-1V18.053z M108.004,18.127l11.291,21.271h-11.291V18.127z M103.29,39.398H91.999l11.291-21.255
		V39.398z M91.667,40.398h11.623v9.384h4.715v-9.384h11.621v76.723H91.667V40.398z M153.583,93.453h27.959v1.482h-27.959V93.453z
		 M153.583,64.27h27.959v1h-27.959V64.27z M181.542,63.27h-27.959V39.801h27.959V63.27z M181.542,92.453h-27.959V66.27h27.959
		V92.453z M153.583,95.936h27.959v21.186h-27.959V95.936z M149.713,117.121h-26.219V76.916h26.219V117.121z M184.411,36.905v80.216
		h-1.869V94.936v-1.482V65.27v-1V38.801v-1.896H184.411z M181.542,36.905v1.896h-27.959v-1.896H181.542z M150.713,36.905h1.869
		v1.896V64.27v1v28.184v1.482v22.186h-1.869V71.103V36.905z M122.487,71.103v46.019h-1.861V40.398h1.869v30.704H122.487z
		 M102.819,13.625h5.664l13.682,25.773h-1.539h-0.199l-11.719-22.08l-0.441-0.266h-0.262h-4.715h-0.254l-0.441,0.266l-11.726,22.08
		h-0.201H89.13L102.819,13.625z M88.798,40.398h1.869v76.723h-1.869V86.267v-5.304V40.398z M67.097,81.963h20.701v3.304H67.097
		V81.963z M38.726,69.186H66.2v4.602H38.726V69.186z M38.726,75.02h27.367v42.525H56.12l0.004-9.686c0-2.02-1.643-3.662-3.66-3.662
		c-2.019,0-3.662,1.643-3.662,3.662v9.686H38.726V75.02z M26.816,118.545L26.816,118.545h-0.002H26.816z M12.585,120.666
		c0.28,0,0.471,0.085,0.582,0.166c-0.005,0.042-0.016,0.082-0.016,0.125s0.011,0.082,0.016,0.124
		c-0.111,0.081-0.302,0.165-0.582,0.165c-0.448,0-0.695-0.217-0.695-0.289S12.137,120.666,12.585,120.666z M11.39,122.246
		c0.28,0,0.471,0.085,0.582,0.166c-0.005,0.042-0.016,0.082-0.016,0.125s0.011,0.082,0.016,0.124
		c-0.111,0.081-0.302,0.165-0.582,0.165c-0.448,0-0.695-0.217-0.695-0.289S10.942,122.246,11.39,122.246z M10.322,123.826
		c0.281,0,0.473,0.086,0.584,0.168c-0.005,0.041-0.016,0.08-0.016,0.123c0,0.042,0.011,0.082,0.016,0.123
		c-0.111,0.082-0.303,0.166-0.584,0.166c-0.448,0-0.695-0.217-0.695-0.289S9.874,123.826,10.322,123.826z M8.308,125.697
		c0-0.072,0.247-0.291,0.695-0.291c0.281,0,0.473,0.086,0.584,0.168c-0.005,0.041-0.016,0.08-0.016,0.123
		c0,0.042,0.011,0.082,0.016,0.123c-0.111,0.082-0.303,0.166-0.584,0.166C8.555,125.986,8.308,125.77,8.308,125.697z
		 M26.813,126.548c0.003-0.003,0.005-0.005,0.008-0.007c0.003,0.002,0.005,0.004,0.008,0.007H26.813z M43.649,126.548
		c0.003-0.003,0.005-0.005,0.008-0.007c0.003,0.002,0.005,0.004,0.008,0.007H43.649z M60.485,126.548
		c0.002-0.003,0.004-0.005,0.008-0.007c0.002,0.002,0.004,0.004,0.008,0.007H60.485z M65.347,126.548
		c0.002-0.003,0.004-0.005,0.008-0.007c0.002,0.002,0.004,0.004,0.008,0.007H65.347z"/>
	<rect x="176.208" y="120.863" fill="#A0A09F" width="4.189" height="1"/>
	<rect x="167.338" y="120.863" fill="#A0A09F" width="4.188" height="1"/>
	<rect x="158.467" y="120.863" fill="#A0A09F" width="4.189" height="1"/>
	<rect x="149.598" y="120.863" fill="#A0A09F" width="4.188" height="1"/>
	<rect x="140.727" y="120.863" fill="#A0A09F" width="4.189" height="1"/>
	<rect x="131.858" y="120.863" fill="#A0A09F" width="4.188" height="1"/>
	<rect x="122.987" y="120.863" fill="#A0A09F" width="4.189" height="1"/>
	<rect x="114.118" y="120.863" fill="#A0A09F" width="4.188" height="1"/>
	<rect x="105.247" y="120.863" fill="#A0A09F" width="4.189" height="1"/>
	<rect x="96.378" y="120.863" fill="#A0A09F" width="4.187" height="1"/>
	<rect x="87.507" y="120.863" fill="#A0A09F" width="4.189" height="1"/>
	<rect x="78.638" y="120.863" fill="#A0A09F" width="4.188" height="1"/>
	<rect x="69.767" y="120.863" fill="#A0A09F" width="4.189" height="1"/>
</g>
</svg>
