<?xml version="1.0" encoding="utf-8"?>
<!-- Generator: Adobe Illustrator 15.1.0, SVG Export Plug-In . SVG Version: 6.00 Build 0)  -->
<svg version="1.2" baseProfile="tiny" id="Layer_1" xmlns="http://www.w3.org/2000/svg" xmlns:xlink="http://www.w3.org/1999/xlink"
	 x="0px" y="0px" width="191px" height="132px" viewBox="0 0 191 132" xml:space="preserve">
<path fill="#A09F9F" d="M180.156,114.436h-34.213V40.784h34.213V114.436z M146.943,113.436h32.213V41.784h-32.213V113.436z"/>
<path fill="#A09F9F" d="M176.523,41.696h-26.947V29.279h26.947V41.696z M150.576,40.696h24.947V30.279h-24.947V40.696z"/>
<path fill="#A09F9F" d="M174.688,114.436h-23.274V40.784h23.274V114.436z M152.412,113.436h21.275V41.784h-21.275V113.436z"/>
<path fill="#A09F9F" d="M30.437,114.436H12.859V66.484h17.577L30.437,114.436L30.437,114.436z M13.859,113.436h15.577V67.484H13.859
	V113.436z"/>
<path fill="#A09F9F" d="M172.251,41.696H153.85V29.279h18.401V41.696z M154.85,40.696h16.401V30.279H154.85V40.696z"/>
<path fill="#A09F9F" d="M125.167,114.436h-71.25V65.763h71.25V114.436z M54.917,113.436h69.25V66.764h-69.25V113.436z"/>
<path fill="#A09F9F" d="M40.902,96.115h-5.75V85.543h5.75V96.115z M36.152,95.115h3.75v-8.572h-3.75V95.115z"/>
<path fill="#A09F9F" d="M42.624,109.832h-7.472v-9.215h7.472V109.832z M36.152,108.832h5.472v-7.215h-5.472V108.832z"/>
<path fill="#A09F9F" d="M52.244,96.115h-5.75V85.543h5.75V96.115z M47.494,95.115h3.75v-8.572h-3.75V95.115z"/>
<path fill="#A09F9F" d="M64.417,87.807h-5.75v-7.283h5.75V87.807z M59.667,86.807h3.75v-5.283h-3.75V86.807z"/>
<path fill="#A09F9F" d="M64.417,114.199h-5.75V102.88h5.75V114.199z M59.667,113.199h3.75v-9.319h-3.75V113.199z"/>
<path fill="#A09F9F" d="M75.192,87.807h-5.75v-7.283h5.75V87.807z M70.442,86.807h3.75v-5.283h-3.75V86.807z"/>
<path fill="#A09F9F" d="M85.967,87.807h-5.75v-7.283h5.75V87.807z M81.217,86.807h3.75v-5.283h-3.75V86.807z"/>
<path fill="#A09F9F" d="M96.742,87.807h-5.75v-7.283h5.75V87.807z M91.992,86.807h3.75v-5.283h-3.75V86.807z"/>
<path fill="#A09F9F" d="M107.518,87.807h-5.75v-7.283h5.75V87.807z M102.768,86.807h3.75v-5.283h-3.75V86.807z"/>
<path fill="#A09F9F" d="M118.292,87.807h-5.75v-7.283h5.75V87.807z M113.542,86.807h3.75v-5.283h-3.75V86.807z"/>
<path fill="#A09F9F" d="M64.417,77.432h-5.75v-7.285h5.75V77.432z M59.667,76.432h3.75v-5.285h-3.75V76.432z"/>
<path fill="#A09F9F" d="M75.192,77.432h-5.75v-7.285h5.75V77.432z M70.442,76.432h3.75v-5.285h-3.75V76.432z"/>
<path fill="#A09F9F" d="M85.967,77.432h-5.75v-7.285h5.75V77.432z M81.217,76.432h3.75v-5.285h-3.75V76.432z"/>
<path fill="#A09F9F" d="M96.742,77.432h-5.75v-7.285h5.75V77.432z M91.992,76.432h3.75v-5.285h-3.75V76.432z"/>
<path fill="#A09F9F" d="M107.518,77.432h-5.75v-7.285h5.75V77.432z M102.768,76.432h3.75v-5.285h-3.75V76.432z"/>
<path fill="#A09F9F" d="M118.292,77.432h-5.75v-7.285h5.75V77.432z M113.542,76.432h3.75v-5.285h-3.75V76.432z"/>
<path fill="#A09F9F" d="M64.417,100.171h-5.75v-7.515h5.75V100.171z M59.667,99.171h3.75v-5.515h-3.75V99.171z"/>
<path fill="#A09F9F" d="M75.192,100.171h-5.75v-7.515h5.75V100.171z M70.442,99.171h3.75v-5.515h-3.75V99.171z"/>
<path fill="#A09F9F" d="M85.967,100.171h-5.75v-7.515h5.75V100.171z M81.217,99.171h3.75v-5.515h-3.75V99.171z"/>
<path fill="#A09F9F" d="M96.742,100.171h-5.75v-7.515h5.75V100.171z M91.992,99.171h3.75v-5.515h-3.75V99.171z"/>
<polygon fill="#A09F9F" points="96.583,92.221 90.854,92.221 93.56,89.882 "/>
<polygon fill="#A09F9F" points="107.352,92.221 101.623,92.221 104.328,89.882 "/>
<polygon fill="#A09F9F" points="118.119,92.221 112.391,92.221 115.096,89.882 "/>
<polygon fill="#A09F9F" points="75.047,92.221 69.318,92.221 72.023,89.882 "/>
<polygon fill="#A09F9F" points="64.279,92.221 58.551,92.221 61.256,89.882 "/>
<polygon fill="#A09F9F" points="85.815,92.221 80.087,92.221 82.792,89.882 "/>
<path fill="#A09F9F" d="M107.518,100.171h-5.75v-7.515h5.75V100.171z M102.768,99.171h3.75v-5.515h-3.75V99.171z"/>
<path fill="#A09F9F" d="M118.292,100.171h-5.75v-7.515h5.75V100.171z M113.542,99.171h3.75v-5.515h-3.75V99.171z"/>
<path fill="#A09F9F" d="M51.632,114.309h-7.318v-10.56c0-2.019,1.643-3.661,3.661-3.661s3.661,1.643,3.661,3.661L51.632,114.309z
	 M45.313,113.309h5.318v-9.49c0.004-1.536-1.189-2.73-2.657-2.73c-1.468,0-2.661,1.194-2.661,2.661V113.309z"/>
<path fill="#A09F9F" d="M30.498,67.527H12.917V51.496h17.581V67.527z M13.917,66.527h15.581V52.496H13.917V66.527z"/>
<path fill="#A09F9F" d="M33.607,52.289H10.393l11.542-16.46L33.607,52.289z M12.314,51.289h19.357l-9.733-13.725L12.314,51.289z"/>
<path fill="#A09F9F" d="M21.996,65.608c-3.361,0-6.097-2.735-6.097-6.097c0-3.362,2.735-6.097,6.097-6.097
	c3.362,0,6.098,2.735,6.098,6.097C28.094,62.873,25.358,65.608,21.996,65.608z M21.996,54.414c-2.811,0-5.097,2.287-5.097,5.097
	c0,2.81,2.286,5.097,5.097,5.097s5.098-2.287,5.098-5.097C27.094,56.701,24.807,54.414,21.996,54.414z"/>
<rect x="17.861" y="78.811" fill="#A09F9F" width="7.902" height="1"/>
<rect x="17.861" y="73.7" fill="#A09F9F" width="7.902" height="1"/>
<rect x="17.861" y="89.03" fill="#A09F9F" width="7.902" height="1"/>
<rect x="17.861" y="83.92" fill="#A09F9F" width="7.902" height="1"/>
<rect x="153.529" y="52.56" fill="#A09F9F" width="18.902" height="1"/>
<rect x="153.529" y="47.45" fill="#A09F9F" width="18.902" height="1"/>
<rect x="16.713" y="42.95" fill="#A09F9F" width="10.537" height="1"/>
<rect x="21.497" y="26.25" fill="#A09F9F" width="1" height="25.151"/>
<rect x="25.731" y="42.75" fill="#A09F9F" width="1" height="8.651"/>
<rect x="17.394" y="42.75" fill="#A09F9F" width="1" height="8.651"/>
<rect x="153.529" y="62.78" fill="#A09F9F" width="18.902" height="1"/>
<rect x="153.529" y="57.67" fill="#A09F9F" width="18.902" height="1"/>
<rect x="153.529" y="74.061" fill="#A09F9F" width="18.902" height="1"/>
<rect x="153.529" y="68.95" fill="#A09F9F" width="18.902" height="1"/>
<rect x="153.529" y="84.28" fill="#A09F9F" width="18.902" height="1"/>
<rect x="153.529" y="79.17" fill="#A09F9F" width="18.902" height="1"/>
<rect x="153.529" y="94.561" fill="#A09F9F" width="18.902" height="1"/>
<rect x="153.529" y="89.45" fill="#A09F9F" width="18.902" height="1"/>
<rect x="153.529" y="104.78" fill="#A09F9F" width="18.902" height="1"/>
<rect x="153.529" y="99.67" fill="#A09F9F" width="18.902" height="1"/>
<rect x="176.184" y="52.56" fill="#A09F9F" width="1.346" height="1"/>
<rect x="176.184" y="47.45" fill="#A09F9F" width="1.346" height="1"/>
<rect x="176.184" y="62.78" fill="#A09F9F" width="1.346" height="1"/>
<rect x="176.184" y="57.67" fill="#A09F9F" width="1.346" height="1"/>
<rect x="176.184" y="74.061" fill="#A09F9F" width="1.346" height="1"/>
<rect x="176.184" y="68.95" fill="#A09F9F" width="1.346" height="1"/>
<rect x="176.184" y="84.28" fill="#A09F9F" width="1.346" height="1"/>
<rect x="176.184" y="79.17" fill="#A09F9F" width="1.346" height="1"/>
<rect x="176.184" y="94.561" fill="#A09F9F" width="1.346" height="1"/>
<rect x="176.184" y="89.45" fill="#A09F9F" width="1.346" height="1"/>
<rect x="176.184" y="104.78" fill="#A09F9F" width="1.346" height="1"/>
<rect x="176.184" y="99.67" fill="#A09F9F" width="1.346" height="1"/>
<rect x="148.404" y="52.56" fill="#A09F9F" width="1.346" height="1"/>
<rect x="148.404" y="47.45" fill="#A09F9F" width="1.346" height="1"/>
<rect x="148.404" y="62.78" fill="#A09F9F" width="1.346" height="1"/>
<rect x="148.404" y="57.67" fill="#A09F9F" width="1.346" height="1"/>
<rect x="148.404" y="74.061" fill="#A09F9F" width="1.346" height="1"/>
<rect x="148.404" y="68.95" fill="#A09F9F" width="1.346" height="1"/>
<rect x="148.404" y="84.28" fill="#A09F9F" width="1.346" height="1"/>
<rect x="148.404" y="79.17" fill="#A09F9F" width="1.346" height="1"/>
<rect x="148.404" y="94.561" fill="#A09F9F" width="1.346" height="1"/>
<rect x="148.404" y="89.45" fill="#A09F9F" width="1.346" height="1"/>
<rect x="148.404" y="104.78" fill="#A09F9F" width="1.346" height="1"/>
<rect x="148.404" y="99.67" fill="#A09F9F" width="1.346" height="1"/>
<path fill="#A09F9F" d="M54.831,114.436H32.21V81.157h22.621V114.436z M33.21,113.436h20.621V82.157H33.21V113.436z"/>
<path fill="#A09F9F" d="M54.912,81.898H32.21v-5.304h22.702V81.898z M33.21,80.898h20.702v-3.304H33.21V80.898z"/>
<path fill="#A09F9F" d="M132.951,96.115h-5.75V85.543h5.75V96.115z M128.201,95.115h3.75v-8.572h-3.75V95.115z"/>
<path fill="#A09F9F" d="M134.673,109.832h-7.472v-9.215h7.472V109.832z M128.201,108.832h5.472v-7.215h-5.472V108.832z"/>
<path fill="#A09F9F" d="M144.293,96.115h-5.75V85.543h5.75V96.115z M139.543,95.115h3.75v-8.572h-3.75V95.115z"/>
<path fill="#A09F9F" d="M143.682,114.309h-7.318v-10.56c0-2.019,1.643-3.661,3.66-3.661c2.019,0,3.662,1.643,3.662,3.661
	L143.682,114.309z M137.361,113.309h5.318v-9.49c0.004-1.536-1.188-2.73-2.656-2.73c-1.469,0-2.662,1.194-2.662,2.661V113.309z"/>
<path fill="#A09F9F" d="M119.507,114.199h-7.317v-7.875c0-2.02,1.643-3.661,3.66-3.661c2.019,0,3.662,1.644,3.662,3.661
	L119.507,114.199z M113.188,113.199h5.318v-6.807c0.004-1.537-1.189-2.73-2.656-2.73c-1.469,0-2.662,1.193-2.662,2.661V113.199z"/>
<path fill="#A09F9F" d="M108.67,114.199h-7.318v-7.875c0-2.02,1.644-3.661,3.662-3.661c2.018,0,3.66,1.644,3.66,3.661
	L108.67,114.199z M102.352,113.199h5.318v-6.807c0.004-1.537-1.189-2.73-2.656-2.73c-1.469,0-2.662,1.193-2.662,2.661V113.199z"/>
<path fill="#A09F9F" d="M97.372,114.199h-7.318v-7.875c0-2.02,1.643-3.661,3.661-3.661s3.661,1.644,3.661,3.661L97.372,114.199z
	 M91.054,113.199h5.318v-6.807c0.004-1.537-1.189-2.73-2.657-2.73c-1.468,0-2.661,1.193-2.661,2.661V113.199z"/>
<path fill="#A09F9F" d="M86.304,114.199h-7.318v-7.875c0-2.02,1.643-3.661,3.661-3.661s3.661,1.644,3.661,3.661L86.304,114.199z
	 M79.985,113.199h5.318v-6.807c0.004-1.537-1.189-2.73-2.657-2.73s-2.661,1.193-2.661,2.661V113.199z"/>
<path fill="#A09F9F" d="M76.273,114.199h-7.318v-7.875c0-2.02,1.643-3.661,3.661-3.661c2.018,0,3.661,1.644,3.661,3.661
	L76.273,114.199z M69.955,113.199h5.318v-6.807c0.004-1.537-1.189-2.73-2.657-2.73c-1.468,0-2.661,1.193-2.661,2.661V113.199z"/>
<path fill="#A09F9F" d="M146.88,114.436h-22.621V81.157h22.621V114.436z M125.259,113.436h20.621V82.157h-20.621V113.436z"/>
<path fill="#A09F9F" d="M146.872,81.898h-22.613v-5.304h22.613V81.898z M125.259,80.898h20.613v-3.304h-20.613V80.898z"/>
<path fill="#A09F9F" d="M33.232,114.436H10.064V66.484h23.168V114.436z M11.064,113.436h21.168V67.484H11.064V113.436z"/>
<path fill="#A09F9F" d="M33.216,67.527H10.064V51.496h23.151L33.216,67.527L33.216,67.527z M11.064,66.527h21.151V52.496H11.064
	V66.527z"/>
<path fill="#A09F9F" d="M30.378,70.018H12.974v-3.565h17.404V70.018z M13.974,69.018h15.404v-1.565H13.974V69.018z"/>
<path fill="#A09F9F" d="M30.378,96.805H12.974v-3.565h17.404V96.805z M13.974,95.805h15.404v-1.565H13.974V95.805z"/>
<rect x="3.961" y="122.364" fill="#A09F9F" width="181.549" height="1"/>
<rect x="171.439" y="116.68" fill="#A09F9F" width="4.188" height="1"/>
<rect x="162.568" y="116.68" fill="#A09F9F" width="4.188" height="1"/>
<rect x="153.699" y="116.68" fill="#A09F9F" width="4.188" height="1"/>
<rect x="144.829" y="116.68" fill="#A09F9F" width="4.188" height="1"/>
<rect x="135.959" y="116.68" fill="#A09F9F" width="4.188" height="1"/>
<rect x="127.089" y="116.68" fill="#A09F9F" width="4.188" height="1"/>
<rect x="118.219" y="116.68" fill="#A09F9F" width="4.188" height="1"/>
<rect x="109.35" y="116.68" fill="#A09F9F" width="4.188" height="1"/>
<rect x="100.479" y="116.68" fill="#A09F9F" width="4.188" height="1"/>
<rect x="91.608" y="116.68" fill="#A09F9F" width="4.188" height="1"/>
<rect x="82.738" y="116.68" fill="#A09F9F" width="4.188" height="1"/>
<rect x="73.868" y="116.68" fill="#A09F9F" width="4.188" height="1"/>
<rect x="64.998" y="116.68" fill="#A09F9F" width="4.188" height="1"/>
<rect x="56.128" y="116.68" fill="#A09F9F" width="4.188" height="1"/>
<rect x="47.258" y="116.68" fill="#A09F9F" width="4.188" height="1"/>
<rect x="38.388" y="116.68" fill="#A09F9F" width="4.188" height="1"/>
<rect x="29.518" y="116.68" fill="#A09F9F" width="4.188" height="1"/>
<rect x="20.647" y="116.68" fill="#A09F9F" width="4.188" height="1"/>
<rect x="11.777" y="116.68" fill="#A09F9F" width="4.188" height="1"/>
</svg>
