<?xml version="1.0" encoding="utf-8"?>
<!-- Generator: Adobe Illustrator 16.0.0, SVG Export Plug-In . SVG Version: 6.00 Build 0)  -->
<!DOCTYPE svg PUBLIC "-//W3C//DTD SVG 1.1//EN" "http://www.w3.org/Graphics/SVG/1.1/DTD/svg11.dtd">
<svg version="1.1" id="Ground" xmlns="http://www.w3.org/2000/svg" xmlns:xlink="http://www.w3.org/1999/xlink" x="0px" y="0px"
	 width="197.586px" height="132px" viewBox="0 0 197.586 132" enable-background="new 0 0 197.586 132" xml:space="preserve">
<g>
	<path fill="#A0A09F" d="M121.311,63.205c4.252,0,8.139,1.579,11.114,4.18c4.774-8.515,6.473-19.166-1.587-26.805
		c-10.162-9.63-29.248-2.07-29.248,6.06c0-8.13-19.083-15.69-29.244-6.06c-11.581,10.973-3.025,28.168,5.869,36.299
		c8.893,8.131,23.375,19.057,23.375,19.057s2.77-2.088,6.628-5.119c-2.388-2.918-3.822-6.643-3.822-10.699
		C104.396,70.791,111.983,63.205,121.311,63.205z"/>
	<path fill="#A0A09F" d="M121.311,66.891c-7.309,0-13.23,5.92-13.23,13.227c0,3.199,1.133,6.133,3.022,8.42
		c2.427,2.939,6.098,4.811,10.208,4.811c7.306,0,13.228-5.922,13.228-13.23c0-3.762-1.572-7.154-4.097-9.562
		C128.069,68.285,124.852,66.891,121.311,66.891z M123.179,86.957v1.23c0,0.396-0.198,0.594-0.595,0.594h-2.225
		c-0.379,0.023-0.596-0.197-0.596-0.572v-1.312c-1.89-0.553-2.51-2.002-2.733-3.17c-0.039-0.221-0.068-0.434-0.09-0.623
		c-0.018-0.34,0.158-0.561,0.479-0.639l1.568-0.369l0.538-0.125c0.356-0.08,0.555,0.057,0.612,0.453
		c0.102,0.916,0.4,1.455,1.472,1.432c1.114-0.021,1.37-0.674,1.272-1.074c-0.184-0.803-1.525-1.031-2.855-1.564
		c-1.399-0.559-2.788-1.449-2.827-3.699c-0.021-0.477,0.039-3.059,2.723-3.812v-1.232c0-0.396,0.216-0.596,0.595-0.596h2.225
		c0.397,0,0.596,0.199,0.596,0.596v1.271c1.464,0.422,2.171,1.375,2.513,2.295c0.174,0.469,0.256,0.926,0.289,1.301
		c0.039,0.357-0.119,0.557-0.455,0.635l-2.105,0.516c-0.162,0.043-0.285,0.033-0.386-0.018c-0.134-0.068-0.217-0.221-0.253-0.436
		c-0.158-0.775-0.573-1.273-1.449-1.252c-0.714,0.018-0.991,0.516-0.895,0.895c0.123,0.58,1.018,0.873,2.07,1.258
		c1.673,0.621,3.754,1.486,3.79,4.184C126.479,83.598,126.179,86.24,123.179,86.957z"/>
</g>
</svg>
