<?xml version="1.0" encoding="utf-8"?>
<!-- Generator: Adobe Illustrator 16.0.0, SVG Export Plug-In . SVG Version: 6.00 Build 0)  -->
<!DOCTYPE svg PUBLIC "-//W3C//DTD SVG 1.1//EN" "http://www.w3.org/Graphics/SVG/1.1/DTD/svg11.dtd">
<svg version="1.1" xmlns="http://www.w3.org/2000/svg" xmlns:xlink="http://www.w3.org/1999/xlink" x="0px" y="0px" width="167px"
	 height="104px" viewBox="0 0 167 104" enable-background="new 0 0 167 104" xml:space="preserve">
<g id="Laptop">
	<g>
		<path fill="#FFFFFF" d="M142.703,11.062H99.34H27.062c-1.949,0-3.528,1.58-3.528,3.528v77.331c0,1.949,1.579,3.528,3.528,3.528
			h111.152h4.488c1.948,0,3.528-1.579,3.528-3.528v-77.33C146.23,12.643,144.652,11.062,142.703,11.062z"/>
		<path fill="#FFFFFF" d="M142.883,10.6H99.126H26.883c-2.143,0-3.881,1.737-3.881,3.881v77.794c0,2.144,1.738,3.882,3.881,3.882
			H138.54h4.343c2.143,0,3.881-1.738,3.881-3.882V14.48C146.764,12.337,145.025,10.6,142.883,10.6z M146.23,91.922
			c0,1.949-1.578,3.528-3.527,3.528h-4.488H27.062c-1.949,0-3.528-1.579-3.528-3.528V14.591c0-1.948,1.579-3.528,3.528-3.528H99.34
			h43.363c1.949,0,3.527,1.58,3.527,3.528V91.922z"/>
	</g>
	<polygon fill="#FFFFFF" points="101.772,15.892 27.347,15.892 27.347,88.074 135.024,88.074 136.306,88.074 142.836,88.074 
		142.836,15.892 104.06,15.892 	"/>
	<path fill="#A4A4A4" d="M142.703,11.062h-41.076H99.34H27.062c-1.949,0-3.528,1.58-3.528,3.528v77.331
		c0,1.949,1.579,3.528,3.528,3.528h111.152h1.279h3.209c1.948,0,3.528-1.579,3.528-3.528v-77.33
		C146.23,12.643,144.652,11.062,142.703,11.062z M142.628,88.074h-6.53h-1.281H27.139V15.892h74.425h2.287h38.776V88.074z"/>
	<circle fill="#BBBDBF" cx="84.883" cy="13.629" r="0.738"/>
	<path fill="#C9C8C8" d="M9.031,96.1c0,0,2.724,1.89,10.293,1.89c2.271,0,128.961,0,131.232,0c7.569,0,10.293-1.89,10.293-1.89
		H9.031z"/>
	<rect x="9.031" y="93.241" fill="#E6E6E5" width="151.889" height="2.858"/>
	<path fill="#DBDADA" d="M74.443,93.241c0,0,0.321,0.888,0.597,1.209c0.274,0.321,0.825,0.55,1.146,0.55H94
		c0.32,0,0.871-0.229,1.146-0.55c0.274-0.321,0.596-1.209,0.596-1.209H74.443z"/>
	<g>
		<path fill="#BDCCD4" d="M41.274,48.111l1.46,0.64l-3.24,4.2l3.4,4.36l-1.44,0.66l-3.92-5.021L41.274,48.111z"/>
		<path fill="#FF7BAC" d="M50.154,51.732v-3.783h2.548v9.803h-2.548v-4.018h-3.68v4.018h-2.548v-9.803h2.548v3.783H50.154z"/>
		<path fill="#FF7BAC" d="M58.144,57.752h-2.548v-7.645H53.49v-2.158h6.76v2.158h-2.105V57.752z"/>
		<path fill="#FF7BAC" d="M61.766,47.949h2.509l1.989,5.239l2.106-5.239h2.535l1.481,9.803h-2.548l-0.715-5.643h-0.026l-2.353,5.643
			h-1.015l-2.249-5.643h-0.025l-0.819,5.643h-2.535L61.766,47.949z"/>
		<path fill="#FF7BAC" d="M76.038,55.594h3.056v2.158H73.49v-9.803h2.548V55.594z"/>
		<path fill="#BDCCD4" d="M85.467,52.951l-3.92,5.021l-1.44-0.66l3.4-4.36l-3.24-4.2l1.46-0.64L85.467,52.951z"/>
		<path fill="#79C843" d="M89.75,49.082h1.951v2.353h2.352v1.95h-2.352v2.367H89.75v-2.367h-2.354v-1.95h2.354V49.082z"/>
		<path fill="#BDCCD4" d="M96.562,51.948c0.26,0,0.91,0.052,0.91-0.689V47.97c0-1.391,1-1.989,1.469-1.989h1.262v1.56h-0.326
			c-0.598,0-0.598,0.403-0.598,0.767v2.925c0,1.105-0.846,1.313-1.248,1.378v0.025c0.402,0.053,1.248,0.144,1.248,1.521v2.887
			c0,0.377,0,0.767,0.598,0.767h0.326v1.56h-1.262c-0.469,0-1.469-0.598-1.469-1.963v-3.289c0-0.91-0.65-0.818-0.91-0.818V51.948z"
			/>
		<path fill="#3FA9F5" d="M108.133,51.238c-0.52-0.702-1.365-1.079-2.236-1.079c-1.561,0-2.613,1.196-2.613,2.718
			c0,1.547,1.066,2.664,2.652,2.664c0.832,0,1.664-0.402,2.197-1.039v3.055c-0.846,0.26-1.457,0.455-2.25,0.455
			c-1.363,0-2.664-0.52-3.678-1.443c-1.08-0.975-1.574-2.249-1.574-3.705c0-1.339,0.508-2.626,1.443-3.588
			c0.963-0.988,2.354-1.586,3.73-1.586c0.82,0,1.574,0.182,2.328,0.494V51.238z"/>
		<path fill="#3FA9F5" d="M114.953,50.471c-0.467-0.39-1.064-0.65-1.689-0.65c-0.469,0-1.092,0.273-1.092,0.819
			c0,0.572,0.689,0.793,1.131,0.936l0.65,0.195c1.365,0.403,2.418,1.092,2.418,2.678c0,0.975-0.234,1.977-1.014,2.639
			c-0.768,0.65-1.795,0.924-2.783,0.924c-1.234,0-2.443-0.416-3.445-1.118l1.094-2.054c0.637,0.559,1.391,1.014,2.262,1.014
			c0.598,0,1.234-0.299,1.234-0.988c0-0.715-1-0.962-1.547-1.117c-1.6-0.455-2.652-0.871-2.652-2.77
			c0-1.989,1.418-3.289,3.381-3.289c0.988,0,2.197,0.312,3.068,0.806L114.953,50.471z"/>
		<path fill="#3FA9F5" d="M122.707,50.471c-0.469-0.39-1.066-0.65-1.689-0.65c-0.469,0-1.094,0.273-1.094,0.819
			c0,0.572,0.689,0.793,1.133,0.936l0.648,0.195c1.365,0.403,2.418,1.092,2.418,2.678c0,0.975-0.232,1.977-1.014,2.639
			c-0.766,0.65-1.793,0.924-2.781,0.924c-1.236,0-2.445-0.416-3.445-1.118l1.092-2.054c0.637,0.559,1.391,1.014,2.262,1.014
			c0.598,0,1.236-0.299,1.236-0.988c0-0.715-1.002-0.962-1.549-1.117c-1.598-0.455-2.65-0.871-2.65-2.77
			c0-1.989,1.416-3.289,3.379-3.289c0.988,0,2.197,0.312,3.068,0.806L122.707,50.471z"/>
		<path fill="#BDCCD4" d="M128.307,53.301c-0.262,0-0.91-0.092-0.91,0.818v3.289c0,1.365-1.002,1.963-1.469,1.963h-1.262v-1.56
			h0.324c0.598,0,0.598-0.39,0.598-0.767v-2.887c0-1.378,0.846-1.469,1.248-1.521v-0.025c-0.402-0.064-1.248-0.273-1.248-1.378
			v-2.925c0-0.364,0-0.767-0.598-0.767h-0.324v-1.56h1.262c0.467,0,1.469,0.598,1.469,1.989v3.289c0,0.741,0.648,0.689,0.91,0.689
			V53.301z"/>
	</g>
</g>
<g id="cursor">
	<rect x="130.212" y="45.113" fill="#A4A4A4" width="1.039" height="15.025"/>
</g>
</svg>
