<?xml version="1.0" encoding="utf-8"?>
<!-- Generator: Adobe Illustrator 16.0.0, SVG Export Plug-In . SVG Version: 6.00 Build 0)  -->
<!DOCTYPE svg PUBLIC "-//W3C//DTD SVG 1.1//EN" "http://www.w3.org/Graphics/SVG/1.1/DTD/svg11.dtd">
<svg version="1.1" xmlns="http://www.w3.org/2000/svg" xmlns:xlink="http://www.w3.org/1999/xlink" x="0px" y="0px" width="100px"
	 height="64px" viewBox="0 0 100 64" enable-background="new 0 0 100 64" xml:space="preserve">
<g id="Text">
	<g>
		<g>
			<path fill="#BCCBD3" d="M17.949,16.821c-0.014,0.903-0.053,1.462-0.115,1.678c-0.063,0.215-0.221,0.322-0.472,0.322
				c-0.056,0-0.259-0.033-0.608-0.1c-0.042,0-0.105-0.008-0.189-0.025h-0.147c-0.475,0-0.713,0.211-0.713,0.634
				c0,0.491,0.29,0.736,0.87,0.736h0.104c0.207,0,0.531-0.027,0.973-0.083c0.441-0.055,0.772-0.083,0.993-0.083
				c0.263,0,0.635,0.028,1.118,0.083s0.835,0.083,1.056,0.083c0.566,0,0.849-0.225,0.849-0.674c0-0.463-0.231-0.695-0.692-0.695
				c-0.056,0-0.168,0.012-0.336,0.035c-0.266,0.06-0.44,0.089-0.524,0.089c-0.363,0-0.552-0.353-0.566-1.059v-6.457
				c0-1.951,0.048-3.459,0.146-4.526c0.014-0.068,0.021-0.172,0.021-0.311c0-0.401-0.16-0.602-0.478-0.602
				c-0.139,0-0.346,0.024-0.623,0.073c-0.277,0.048-0.485,0.073-0.624,0.073c-0.152,0-0.339-0.016-0.561-0.048l-0.499-0.073
				c-0.111-0.016-0.243-0.024-0.395-0.024c-0.554,0-0.831,0.232-0.831,0.695c0,0.45,0.235,0.675,0.707,0.675
				c0.097,0,0.221-0.014,0.374-0.042c0.318-0.055,0.499-0.083,0.54-0.083c0.291,0,0.484,0.16,0.582,0.479
				c0.028,0.139,0.048,0.417,0.062,0.833v6.937L17.949,16.821z M28.433,13.59c-0.353,0.221-1.111,0.394-2.275,0.519
				c-0.817,0.097-1.36,0.176-1.63,0.239c-0.271,0.062-0.592,0.197-0.966,0.404c-0.983,0.541-1.475,1.385-1.475,2.533
				c0,0.927,0.335,1.667,1.007,2.221c0.671,0.553,1.568,0.831,2.69,0.831c1.51,0,2.618-0.519,3.324-1.557
				c0.263,0.982,0.962,1.473,2.098,1.473c1.385,0,2.091-0.664,2.119-1.993v-1.287c0-0.664-0.225-0.996-0.675-0.996
				c-0.423,0-0.634,0.22-0.634,0.66v1.011c0,0.879-0.243,1.319-0.727,1.319c-0.388,0-0.624-0.241-0.707-0.725
				c-0.028-0.124-0.042-0.518-0.042-1.18v-4.185c0-2.416-1.26-3.625-3.781-3.625c-1.094,0-2.025,0.276-2.794,0.83
				s-1.153,1.218-1.153,1.993c0,0.359,0.121,0.664,0.363,0.914c0.242,0.249,0.543,0.374,0.904,0.374c0.304,0,0.557-0.09,0.758-0.271
				c0.2-0.179,0.301-0.408,0.301-0.685c0-0.332-0.097-0.567-0.291-0.706c-0.125-0.083-0.187-0.152-0.187-0.208
				c0-0.152,0.104-0.297,0.312-0.436c0.54-0.345,1.122-0.518,1.745-0.518c0.706,0,1.257,0.163,1.651,0.487
				c0.395,0.325,0.592,0.772,0.592,1.339C28.963,12.96,28.786,13.369,28.433,13.59z M28.879,16.123
				c-0.014,0.886-0.287,1.581-0.82,2.086c-0.533,0.505-1.264,0.757-2.191,0.757c-0.651,0-1.167-0.152-1.548-0.457
				c-0.381-0.304-0.571-0.72-0.571-1.246c0-1.01,0.786-1.591,2.359-1.744c0.869-0.083,1.472-0.18,1.81-0.291
				c0.338-0.111,0.659-0.305,0.962-0.581V16.123z M38.444,20.337c1.395,0,2.458-0.491,3.19-1.475v0.458
				c0,0.498,0.187,0.747,0.561,0.747c0.125,0,0.27-0.021,0.436-0.062c0.277-0.027,0.437-0.041,0.478-0.041
				c0.138,0,0.35,0.017,0.633,0.051c0.284,0.035,0.495,0.052,0.634,0.052c0.623,0,0.935-0.231,0.935-0.695
				c0-0.449-0.261-0.674-0.783-0.674c-0.085,0-0.24,0.01-0.466,0.031c-0.099,0.021-0.24,0.031-0.423,0.031
				c-0.268,0-0.438-0.111-0.508-0.333c-0.071-0.221-0.113-0.79-0.127-1.705v-5.51c0-0.361,0.014-0.887,0.042-1.581
				c0.042-0.984,0.062-1.518,0.062-1.601c0.014-0.692,0.027-1.06,0.042-1.103V6.699c0-0.554-0.194-0.832-0.582-0.832
				c-0.125,0-0.305,0.018-0.54,0.052c-0.236,0.035-0.416,0.052-0.541,0.052c-0.014,0-0.242-0.021-0.686-0.062
				c-0.291-0.027-0.492-0.042-0.602-0.042c-0.693,0-1.039,0.232-1.039,0.695c0,0.45,0.256,0.675,0.769,0.675
				c0.11,0,0.266-0.024,0.467-0.073c0.201-0.048,0.356-0.072,0.467-0.072c0.318,0,0.512,0.214,0.582,0.644
				c0.028,0.124,0.042,0.464,0.042,1.017v2.097c-0.678-1.065-1.703-1.598-3.074-1.598c-1.413,0-2.542,0.501-3.386,1.504
				c-0.845,1.004-1.267,2.343-1.267,4.018c0,1.66,0.428,3.003,1.284,4.027C35.902,19.825,37.035,20.337,38.444,20.337z
				 M36.252,11.722c0.553-0.733,1.319-1.101,2.298-1.101c0.728,0,1.372,0.229,1.931,0.685c0.476,0.388,0.777,0.928,0.903,1.619
				c0.07,0.333,0.104,0.962,0.104,1.89c0,0.72-0.028,1.308-0.084,1.764c-0.084,0.72-0.377,1.298-0.881,1.734
				c-0.504,0.436-1.133,0.653-1.889,0.653c-0.994,0-1.778-0.376-2.351-1.131c-0.574-0.754-0.861-1.788-0.861-3.104
				C35.423,13.458,35.699,12.455,36.252,11.722z M47.389,18.801c-0.112,0-0.276-0.018-0.493-0.052
				c-0.217-0.035-0.381-0.052-0.493-0.052c-0.475,0-0.712,0.225-0.712,0.674c0,0.464,0.278,0.695,0.833,0.695
				c0.181,0,0.542-0.034,1.084-0.103c0.445-0.056,0.848-0.083,1.209-0.083c0.223,0,0.56,0.031,1.011,0.094
				c0.452,0.062,0.789,0.093,1.011,0.093c0.264,0,0.483-0.068,0.657-0.204c0.173-0.136,0.261-0.3,0.261-0.491
				c0-0.449-0.264-0.674-0.79-0.674c-0.139,0-0.243,0.012-0.312,0.035c-0.277,0.06-0.45,0.089-0.52,0.089
				c-0.305,0-0.492-0.312-0.561-0.934c-0.014-0.125-0.021-0.533-0.021-1.225v-2.699c0-0.595,0.005-1.176,0.017-1.744
				c0.011-0.748,0.022-1.176,0.033-1.287c0-0.055,0.006-0.138,0.017-0.249c0.011-0.111,0.017-0.193,0.017-0.25
				c0-0.539-0.201-0.809-0.603-0.809c-0.111,0-0.28,0.018-0.509,0.051c-0.229,0.035-0.398,0.053-0.509,0.053
				c-0.125,0-0.409-0.028-0.852-0.083c-0.111-0.014-0.298-0.021-0.561-0.021c-0.61,0-0.914,0.235-0.914,0.706
				c0,0.442,0.251,0.664,0.754,0.664c0.098,0,0.248-0.024,0.451-0.073s0.36-0.073,0.472-0.073c0.349,0,0.558,0.436,0.628,1.308
				v5.314C47.927,18.358,47.725,18.801,47.389,18.801z M48.475,8.525c0.318,0,0.592-0.114,0.82-0.343s0.343-0.501,0.343-0.82
				s-0.114-0.589-0.343-0.81s-0.502-0.332-0.82-0.332c-0.319,0-0.592,0.111-0.821,0.332s-0.343,0.492-0.343,0.81
				s0.114,0.591,0.343,0.82S48.156,8.525,48.475,8.525z M56.579,20.337c1.163,0,2.202-0.35,3.116-1.049
				c0.914-0.698,1.371-1.498,1.371-2.397c0-0.526-0.258-0.789-0.771-0.789c-0.36,0-0.59,0.166-0.688,0.497l-0.188,0.603
				c-0.152,0.512-0.482,0.935-0.989,1.267c-0.507,0.333-1.065,0.498-1.676,0.498c-0.931,0-1.708-0.348-2.333-1.043
				c-0.625-0.696-0.938-1.565-0.938-2.609c0-0.111,0.027-0.191,0.083-0.239c0.056-0.049,0.174-0.073,0.354-0.073h6.624
				c0.333,0,0.535-0.058,0.604-0.176c0.07-0.117,0.104-0.438,0.104-0.962c0-1.337-0.423-2.441-1.267-3.309
				c-0.846-0.869-1.919-1.303-3.22-1.303c-1.468,0-2.659,0.525-3.573,1.578c-0.914,1.052-1.371,2.422-1.371,4.11
				c0,1.647,0.429,2.958,1.288,3.934C53.968,19.849,55.125,20.337,56.579,20.337z M54.67,11.462c0.64-0.56,1.349-0.841,2.127-0.841
				c0.751,0,1.403,0.27,1.96,0.81c0.555,0.54,0.834,1.177,0.834,1.91c0,0.194-0.146,0.292-0.438,0.292H54.17
				c-0.306,0-0.458-0.097-0.458-0.292C53.712,12.649,54.031,12.022,54.67,11.462z M62.289,19.651c0,0.567,0.257,0.851,0.77,0.851
				c0.471,0,0.706-0.249,0.706-0.747v-0.395c0.843,0.65,1.837,0.976,2.982,0.976c1.229,0,2.224-0.309,2.983-0.924
				c0.759-0.616,1.139-1.422,1.139-2.418c0-1.633-1.181-2.609-3.543-2.927l-1.209-0.166c-1.223-0.166-1.834-0.692-1.834-1.578
				c0-0.484,0.217-0.889,0.647-1.214c0.431-0.325,0.967-0.488,1.606-0.488c0.626,0,1.172,0.149,1.639,0.446
				c0.466,0.298,0.706,0.654,0.72,1.069v0.685c0.014,0.443,0.239,0.664,0.675,0.664c0.45,0,0.676-0.263,0.676-0.789
				c0-0.167-0.018-0.408-0.053-0.727c-0.034-0.318-0.051-0.561-0.051-0.727c0-0.277,0.022-0.553,0.068-0.831
				c0.023-0.332,0.035-0.54,0.035-0.623c0-0.443-0.229-0.664-0.686-0.664c-0.443,0-0.665,0.255-0.665,0.768v0.083
				c-0.621-0.484-1.394-0.727-2.319-0.727c-1.173,0-2.125,0.301-2.857,0.903c-0.73,0.602-1.097,1.387-1.097,2.356
				c0,1.024,0.374,1.741,1.122,2.149s1.834,0.688,3.262,0.84c1.495,0.152,2.243,0.699,2.243,1.64c0,0.526-0.222,0.962-0.665,1.308
				c-0.443,0.346-1.004,0.519-1.683,0.519c-0.942,0-1.718-0.186-2.327-0.56s-0.921-0.858-0.934-1.454
				c-0.015-0.595-0.06-0.961-0.136-1.1c-0.076-0.139-0.26-0.208-0.55-0.208c-0.443,0-0.666,0.242-0.666,0.726
				c0,0.167,0.028,0.395,0.084,0.686c0.055,0.291,0.083,0.602,0.083,0.934c0,0.194-0.015,0.388-0.042,0.582
				C62.331,19.389,62.289,19.749,62.289,19.651z M16.678,38.83c0.207,0,0.531-0.027,0.973-0.084
				c0.441-0.055,0.772-0.082,0.993-0.082c0.263,0,0.635,0.027,1.118,0.082c0.483,0.057,0.835,0.084,1.056,0.084
				c0.566,0,0.849-0.225,0.849-0.676c0-0.463-0.231-0.695-0.692-0.695c-0.056,0-0.168,0.014-0.336,0.037
				c-0.266,0.059-0.44,0.088-0.524,0.088c-0.363,0-0.552-0.352-0.566-1.059v-6.456c0-1.952,0.048-3.459,0.146-4.526
				c0.014-0.069,0.021-0.173,0.021-0.312c0-0.401-0.16-0.602-0.478-0.602c-0.139,0-0.346,0.024-0.623,0.073
				c-0.277,0.049-0.485,0.073-0.624,0.073c-0.152,0-0.339-0.016-0.561-0.049l-0.499-0.073c-0.111-0.016-0.243-0.024-0.395-0.024
				c-0.554,0-0.831,0.232-0.831,0.696c0,0.45,0.235,0.675,0.707,0.675c0.097,0,0.221-0.014,0.374-0.042
				c0.318-0.055,0.499-0.083,0.54-0.083c0.291,0,0.484,0.16,0.582,0.479c0.028,0.139,0.048,0.417,0.062,0.833v6.937l-0.021,1.459
				c-0.014,0.904-0.053,1.463-0.115,1.678c-0.063,0.215-0.221,0.322-0.472,0.322c-0.056,0-0.259-0.033-0.608-0.1
				c-0.042,0-0.105-0.008-0.189-0.025h-0.147c-0.475,0-0.713,0.213-0.713,0.635c0,0.49,0.29,0.736,0.87,0.736H16.678z M26.574,39.1
				c1.163,0,2.202-0.35,3.116-1.049s1.371-1.498,1.371-2.396c0-0.527-0.257-0.789-0.771-0.789c-0.361,0-0.59,0.166-0.687,0.498
				l-0.188,0.602c-0.153,0.512-0.482,0.934-0.99,1.268c-0.507,0.332-1.065,0.498-1.676,0.498c-0.931,0-1.708-0.348-2.333-1.045
				c-0.625-0.695-0.938-1.564-0.938-2.607c0-0.111,0.027-0.191,0.083-0.24s0.174-0.074,0.354-0.074h6.624
				c0.333,0,0.535-0.059,0.604-0.176s0.104-0.437,0.104-0.961c0-1.337-0.422-2.441-1.267-3.309c-0.845-0.87-1.918-1.304-3.22-1.304
				c-1.468,0-2.659,0.525-3.573,1.577s-1.371,2.422-1.371,4.11c0,1.648,0.429,2.959,1.288,3.936
				C23.963,38.611,25.12,39.1,26.574,39.1z M24.666,30.225c0.639-0.561,1.348-0.841,2.126-0.841c0.75,0,1.403,0.271,1.959,0.81
				c0.556,0.54,0.834,1.177,0.834,1.91c0,0.194-0.146,0.291-0.438,0.291h-4.982c-0.306,0-0.458-0.097-0.458-0.291
				C23.707,31.412,24.026,30.785,24.666,30.225z M33.105,31.75c0.242,0.249,0.543,0.374,0.904,0.374c0.304,0,0.557-0.089,0.758-0.27
				c0.201-0.18,0.301-0.408,0.301-0.685c0-0.333-0.097-0.567-0.291-0.706c-0.125-0.083-0.187-0.152-0.187-0.208
				c0-0.152,0.104-0.297,0.312-0.436c0.54-0.346,1.122-0.52,1.745-0.52c0.706,0,1.257,0.163,1.651,0.488s0.592,0.771,0.592,1.339
				c0,0.595-0.176,1.003-0.529,1.224c-0.354,0.222-1.112,0.395-2.275,0.519c-0.817,0.097-1.361,0.177-1.631,0.239
				c-0.27,0.062-0.592,0.196-0.966,0.405c-0.983,0.539-1.475,1.383-1.475,2.533c0,0.926,0.336,1.668,1.008,2.221
				c0.671,0.553,1.568,0.83,2.69,0.83c1.509,0,2.618-0.52,3.324-1.557c0.263,0.982,0.962,1.475,2.098,1.475
				c1.385,0,2.091-0.666,2.119-1.994v-1.287c0-0.664-0.225-0.996-0.675-0.996c-0.423,0-0.634,0.221-0.634,0.66v1.01
				c0,0.879-0.242,1.32-0.727,1.32c-0.388,0-0.624-0.242-0.707-0.727c-0.028-0.123-0.042-0.518-0.042-1.18v-4.186
				c0-2.416-1.261-3.625-3.781-3.625c-1.094,0-2.025,0.277-2.794,0.83c-0.769,0.554-1.153,1.218-1.153,1.993
				C32.741,31.197,32.862,31.501,33.105,31.75z M38.807,34.885c-0.014,0.887-0.288,1.582-0.82,2.086
				c-0.533,0.506-1.264,0.76-2.192,0.76c-0.651,0-1.167-0.154-1.547-0.457c-0.381-0.305-0.571-0.721-0.571-1.246
				c0-1.01,0.786-1.592,2.359-1.744c0.869-0.082,1.472-0.18,1.81-0.291c0.338-0.109,0.659-0.305,0.962-0.58V34.885z M44.376,28.367
				c-0.596,0-0.893,0.239-0.893,0.716c0,0.437,0.229,0.654,0.686,0.654c0.11,0,0.263-0.017,0.457-0.052s0.346-0.052,0.458-0.052
				c0.374,0,0.582,0.409,0.623,1.225l0.062,4.712v1.059c-0.028,0.637-0.217,0.955-0.566,0.955c-0.056,0-0.154-0.014-0.293-0.041
				l-0.314-0.062c-0.07-0.014-0.175-0.021-0.314-0.021c-0.531,0-0.796,0.215-0.796,0.645c0,0.484,0.284,0.727,0.852,0.727
				l1.163-0.104c0.318-0.027,0.755-0.041,1.309-0.041c0.208,0,0.522,0.023,0.945,0.072c0.422,0.047,0.738,0.072,0.945,0.072h0.083
				c0.568,0,0.852-0.238,0.852-0.717c0-0.436-0.224-0.654-0.671-0.654c-0.112,0-0.245,0.018-0.398,0.055
				c-0.196,0.047-0.384,0.07-0.566,0.07c-0.363,0-0.58-0.395-0.649-1.184c-0.015-0.109-0.021-0.629-0.021-1.557v-1.369
				c0-1.206,0.111-2.104,0.333-2.7c0.36-0.969,1.08-1.453,2.161-1.453c0.526,0,0.966,0.138,1.319,0.415
				c0.353,0.277,0.53,0.616,0.53,1.017c0,0.139-0.042,0.291-0.125,0.457c-0.139-0.041-0.229-0.062-0.27-0.062
				c-0.222,0-0.416,0.087-0.582,0.26c-0.166,0.173-0.249,0.37-0.249,0.591c0,0.277,0.111,0.512,0.333,0.706
				c0.221,0.195,0.491,0.291,0.81,0.291c0.499,0,0.9-0.19,1.205-0.571c0.305-0.381,0.458-0.875,0.458-1.484
				c0-0.858-0.302-1.561-0.904-2.107c-0.603-0.546-1.389-0.819-2.358-0.819c-1.205,0-2.167,0.505-2.888,1.515v-0.57
				c0-0.395-0.18-0.592-0.54-0.592c-0.152,0-0.284,0.018-0.395,0.052c-0.25,0.035-0.429,0.052-0.54,0.052
				c-0.139,0-0.346-0.017-0.624-0.052C44.723,28.384,44.515,28.367,44.376,28.367z M65.74,37.459c-0.083,0-0.225,0.018-0.426,0.053
				s-0.363,0.053-0.488,0.053c-0.305,0-0.492-0.236-0.561-0.707c-0.014-0.109-0.021-0.463-0.021-1.059v-3.945
				c0-0.76-0.097-1.377-0.291-1.847c-0.234-0.567-0.686-1.041-1.35-1.422c-0.664-0.38-1.371-0.57-2.119-0.57
				c-1.385,0-2.492,0.525-3.323,1.577V29c0-0.421-0.201-0.633-0.603-0.633c-0.014,0-0.201,0.018-0.561,0.052
				c-0.166,0.035-0.36,0.052-0.582,0.052l-0.769-0.083c-0.056-0.014-0.125-0.021-0.208-0.021c-0.623,0-0.935,0.232-0.935,0.695
				c0,0.45,0.254,0.675,0.762,0.675c0.099,0,0.243-0.021,0.434-0.062c0.19-0.042,0.335-0.062,0.434-0.062
				c0.226,0,0.384,0.086,0.476,0.26c0.092,0.173,0.152,0.495,0.18,0.965v5.544c-0.015,0.803-0.233,1.203-0.656,1.203
				c-0.184,0-0.37-0.02-0.561-0.062c-0.19-0.041-0.321-0.062-0.392-0.062c-0.451,0-0.677,0.223-0.677,0.664
				c0,0.471,0.291,0.707,0.873,0.707c0.083,0,0.429-0.035,1.039-0.104c0.484-0.057,0.873-0.084,1.163-0.084
				c0.374,0,0.714,0.021,1.019,0.062c0.609,0.084,0.969,0.125,1.08,0.125c0.553,0,0.83-0.225,0.83-0.676
				c0-0.463-0.215-0.695-0.644-0.695c-0.124,0-0.284,0.025-0.478,0.074c-0.194,0.049-0.347,0.072-0.457,0.072
				c-0.222,0-0.374-0.111-0.457-0.332c-0.083-0.223-0.125-0.637-0.125-1.246v-2.762c0-1.3,0.166-2.221,0.497-2.761
				c0.482-0.789,1.276-1.183,2.38-1.183c0.578,0,1.096,0.159,1.552,0.477c0.413,0.291,0.683,0.699,0.807,1.225
				c0.069,0.277,0.104,0.782,0.104,1.516v3.904c-0.028,0.76-0.212,1.141-0.551,1.141c-0.071,0-0.24-0.027-0.509-0.082
				c-0.141-0.029-0.268-0.043-0.381-0.043c-0.48,0-0.72,0.215-0.72,0.645c0,0.484,0.276,0.727,0.831,0.727
				c0.041,0,0.408-0.041,1.101-0.125c0.235-0.027,0.533-0.041,0.894-0.041c0.387,0,0.803,0.027,1.246,0.082
				c0.443,0.057,0.762,0.084,0.955,0.084c0.236,0,0.438-0.07,0.604-0.209c0.166-0.137,0.249-0.311,0.249-0.518
				c0-0.18-0.065-0.332-0.198-0.457C66.076,37.521,65.919,37.459,65.74,37.459z M68.683,25.315
				c-0.229,0.222-0.343,0.491-0.343,0.809c0,0.319,0.114,0.592,0.343,0.82c0.229,0.228,0.502,0.342,0.82,0.342
				s0.592-0.114,0.82-0.342c0.229-0.229,0.344-0.501,0.344-0.82c0-0.318-0.115-0.587-0.344-0.809s-0.502-0.332-0.82-0.332
				S68.912,25.094,68.683,25.315z M71.997,37.459c-0.139,0-0.242,0.014-0.312,0.037c-0.277,0.059-0.45,0.088-0.52,0.088
				c-0.305,0-0.492-0.311-0.561-0.934c-0.014-0.125-0.021-0.533-0.021-1.225v-2.699c0-0.595,0.006-1.176,0.018-1.744
				c0.011-0.748,0.021-1.176,0.033-1.287c0-0.055,0.006-0.138,0.017-0.249c0.011-0.11,0.017-0.193,0.017-0.25
				c0-0.539-0.201-0.809-0.603-0.809c-0.111,0-0.28,0.017-0.509,0.052c-0.229,0.034-0.398,0.052-0.51,0.052
				c-0.124,0-0.408-0.027-0.852-0.083c-0.111-0.014-0.297-0.021-0.561-0.021c-0.609,0-0.914,0.235-0.914,0.706
				c0,0.442,0.252,0.664,0.755,0.664c0.098,0,0.247-0.024,0.45-0.073c0.203-0.048,0.359-0.073,0.473-0.073
				c0.349,0,0.559,0.436,0.628,1.308v5.314c-0.069,0.887-0.272,1.33-0.608,1.33c-0.111,0-0.275-0.018-0.492-0.053
				s-0.381-0.053-0.492-0.053c-0.476,0-0.713,0.227-0.713,0.676c0,0.463,0.277,0.695,0.834,0.695c0.18,0,0.541-0.035,1.084-0.104
				c0.444-0.057,0.848-0.084,1.209-0.084c0.223,0,0.559,0.031,1.011,0.094s0.788,0.094,1.011,0.094c0.264,0,0.482-0.068,0.656-0.205
				s0.262-0.299,0.262-0.49C72.787,37.686,72.523,37.459,71.997,37.459z M85.378,37.459c-0.082,0-0.225,0.018-0.426,0.053
				s-0.363,0.053-0.488,0.053c-0.305,0-0.491-0.236-0.561-0.707c-0.014-0.109-0.021-0.463-0.021-1.059v-3.945
				c0-0.76-0.097-1.377-0.291-1.847c-0.235-0.567-0.686-1.041-1.351-1.422c-0.664-0.38-1.371-0.57-2.119-0.57
				c-1.385,0-2.492,0.525-3.323,1.577V29c0-0.421-0.2-0.633-0.603-0.633c-0.014,0-0.201,0.018-0.561,0.052
				c-0.166,0.035-0.36,0.052-0.582,0.052l-0.769-0.083c-0.056-0.014-0.124-0.021-0.208-0.021c-0.623,0-0.934,0.232-0.934,0.695
				c0,0.45,0.253,0.675,0.762,0.675c0.098,0,0.242-0.021,0.434-0.062c0.189-0.042,0.334-0.062,0.434-0.062
				c0.225,0,0.384,0.086,0.476,0.26c0.092,0.173,0.151,0.495,0.18,0.965v5.544c-0.015,0.803-0.232,1.203-0.655,1.203
				c-0.184,0-0.371-0.02-0.561-0.062c-0.191-0.041-0.322-0.062-0.393-0.062c-0.451,0-0.676,0.223-0.676,0.664
				c0,0.471,0.29,0.707,0.871,0.707c0.084,0,0.43-0.035,1.039-0.104c0.484-0.057,0.873-0.084,1.164-0.084
				c0.373,0,0.713,0.021,1.018,0.062c0.609,0.084,0.969,0.125,1.08,0.125c0.554,0,0.831-0.225,0.831-0.676
				c0-0.463-0.215-0.695-0.644-0.695c-0.125,0-0.285,0.025-0.479,0.074s-0.346,0.072-0.457,0.072c-0.222,0-0.373-0.111-0.457-0.332
				c-0.083-0.223-0.125-0.637-0.125-1.246v-2.762c0-1.3,0.166-2.221,0.497-2.761c0.483-0.789,1.276-1.183,2.38-1.183
				c0.579,0,1.097,0.159,1.552,0.477c0.413,0.291,0.683,0.699,0.808,1.225c0.068,0.277,0.104,0.782,0.104,1.516v3.904
				c-0.029,0.76-0.213,1.141-0.551,1.141c-0.071,0-0.24-0.027-0.509-0.082c-0.142-0.029-0.269-0.043-0.382-0.043
				c-0.479,0-0.72,0.215-0.72,0.645c0,0.484,0.276,0.727,0.831,0.727c0.041,0,0.408-0.041,1.102-0.125
				c0.234-0.027,0.532-0.041,0.893-0.041c0.388,0,0.803,0.027,1.246,0.082c0.443,0.057,0.762,0.084,0.956,0.084
				c0.235,0,0.437-0.07,0.603-0.209c0.166-0.137,0.249-0.311,0.249-0.518c0-0.18-0.065-0.332-0.197-0.457
				S85.558,37.459,85.378,37.459z M95.543,28.346c0,0.208,0.083,0.388,0.249,0.541s0.359,0.228,0.582,0.228
				c0.291,0,0.543-0.118,0.758-0.353s0.322-0.519,0.322-0.851c0-0.512-0.215-0.934-0.645-1.267s-0.963-0.498-1.6-0.498
				c-1.51,0-2.299,0.678-2.367,2.034c-0.457-0.11-0.866-0.166-1.227-0.166c-1.094,0-2.004,0.311-2.731,0.934
				c-0.728,0.623-1.091,1.405-1.091,2.345c0,0.651,0.18,1.218,0.541,1.703c-1.15,0.359-1.725,1.025-1.725,1.994
				c0,0.885,0.574,1.549,1.725,1.992c-1.262,0.471-1.891,1.266-1.891,2.387c0,0.969,0.453,1.73,1.36,2.283
				c0.907,0.555,2.157,0.83,3.749,0.83c1.593,0,2.857-0.293,3.791-0.879c0.936-0.586,1.402-1.383,1.402-2.389
				c0-0.621-0.223-1.18-0.668-1.678c-0.445-0.496-1.051-0.861-1.815-1.096c-0.821-0.248-1.893-0.373-3.214-0.373h-0.752
				c-1.462,0-2.191-0.359-2.191-1.078c0-0.236,0.076-0.439,0.229-0.613c0.154-0.174,0.328-0.26,0.523-0.26
				c0.152,0,0.341,0.049,0.563,0.146c0.821,0.359,1.615,0.539,2.382,0.539c1.086,0,1.99-0.318,2.715-0.955s1.086-1.433,1.086-2.388
				c0-1.19-0.525-2.138-1.578-2.844c0.014-0.914,0.388-1.37,1.121-1.37c0.347,0,0.631,0.138,0.853,0.414
				C95.695,27.896,95.543,28.125,95.543,28.346z M89.064,37.938c0.639-0.332,1.514-0.498,2.626-0.498
				c1.097,0,1.951,0.162,2.562,0.486c0.611,0.326,0.917,0.779,0.917,1.361c0,0.553-0.323,0.996-0.969,1.328
				c-0.646,0.332-1.525,0.498-2.636,0.498c-1.056,0-1.896-0.162-2.521-0.488c-0.625-0.324-0.937-0.771-0.937-1.338
				C88.107,38.719,88.425,38.27,89.064,37.938z M93.351,32.871c-0.436,0.374-1,0.561-1.692,0.561c-0.665,0-1.205-0.187-1.62-0.561
				c-0.416-0.374-0.623-0.864-0.623-1.474v-0.125c0.041-0.539,0.276-0.989,0.705-1.349c0.43-0.36,0.949-0.541,1.559-0.541
				c0.665,0,1.219,0.194,1.662,0.582s0.664,0.879,0.664,1.474C94.005,32.021,93.788,32.498,93.351,32.871z M24.49,53.295
				c-0.292,0-0.514,0.139-0.667,0.416c-0.028,0.068-0.111,0.346-0.25,0.83c-0.167,0.609-0.476,1.086-0.927,1.432
				c-0.452,0.348-0.983,0.52-1.594,0.52c-0.972,0-1.732-0.369-2.281-1.111c-0.548-0.74-0.823-1.76-0.823-3.061
				c0-1.26,0.292-2.27,0.876-3.031s1.355-1.143,2.315-1.143c0.625,0,1.136,0.139,1.533,0.416c0.396,0.277,0.629,0.658,0.698,1.143
				c-0.692,0.082-1.039,0.4-1.039,0.953c0,0.305,0.114,0.561,0.343,0.768c0.229,0.209,0.516,0.312,0.862,0.312
				c0.443,0,0.806-0.166,1.09-0.498c0.284-0.332,0.426-0.754,0.426-1.266c0-0.928-0.367-1.693-1.101-2.295s-1.655-0.902-2.763-0.902
				c-1.482,0-2.669,0.516-3.562,1.547s-1.34,2.404-1.34,4.119c0,1.621,0.433,2.928,1.298,3.924c0.865,0.998,2.004,1.494,3.417,1.494
				c1.302,0,2.361-0.436,3.179-1.307c0.304-0.318,0.567-0.719,0.789-1.203c0.221-0.484,0.333-0.9,0.333-1.246
				c0-0.236-0.077-0.43-0.229-0.582S24.726,53.295,24.49,53.295z M31.078,46.777c-1.482,0-2.663,0.502-3.542,1.504
				c-0.879,1.004-1.319,2.35-1.319,4.039c0,1.688,0.436,3.033,1.309,4.037s2.036,1.504,3.49,1.504c1.496,0,2.693-0.51,3.594-1.535
				c0.9-1.023,1.351-2.381,1.351-4.068c0-1.689-0.437-3.023-1.309-4.008C33.778,47.27,32.587,46.777,31.078,46.777z M33.432,55.381
				c-0.576,0.742-1.372,1.111-2.386,1.111c-0.986,0-1.754-0.369-2.303-1.111c-0.549-0.74-0.823-1.76-0.823-3.061v-0.271
				c0.056-1.244,0.361-2.207,0.917-2.885s1.32-1.018,2.292-1.018c2.112,0,3.168,1.385,3.168,4.152
				C34.297,53.613,34.009,54.641,33.432,55.381z M47.722,56.223c-0.085,0-0.24,0.01-0.465,0.031c-0.099,0.02-0.24,0.031-0.423,0.031
				c-0.268,0-0.438-0.111-0.508-0.332c-0.071-0.223-0.113-0.791-0.127-1.707v-5.51c0-0.359,0.014-0.887,0.042-1.58
				c0.042-0.984,0.062-1.518,0.062-1.602c0.014-0.691,0.027-1.059,0.042-1.102v-0.229c0-0.555-0.194-0.832-0.582-0.832
				c-0.125,0-0.305,0.018-0.54,0.053c-0.236,0.035-0.416,0.051-0.541,0.051c-0.014,0-0.242-0.02-0.686-0.061
				c-0.291-0.029-0.492-0.043-0.602-0.043c-0.693,0-1.039,0.232-1.039,0.695c0,0.451,0.256,0.676,0.769,0.676
				c0.11,0,0.266-0.025,0.467-0.072c0.201-0.049,0.356-0.072,0.467-0.072c0.318,0,0.512,0.213,0.582,0.643
				c0.028,0.125,0.042,0.463,0.042,1.018v2.096c-0.679-1.064-1.703-1.598-3.074-1.598c-1.413,0-2.542,0.502-3.386,1.504
				c-0.845,1.004-1.267,2.344-1.267,4.018c0,1.66,0.428,3.004,1.284,4.027c0.856,1.025,1.989,1.535,3.398,1.535
				c1.395,0,2.458-0.49,3.19-1.473v0.457c0,0.498,0.187,0.746,0.561,0.746c0.125,0,0.27-0.02,0.436-0.061
				c0.277-0.029,0.437-0.043,0.478-0.043c0.138,0,0.35,0.018,0.633,0.053c0.284,0.033,0.495,0.051,0.634,0.051
				c0.623,0,0.935-0.23,0.935-0.695C48.504,56.447,48.243,56.223,47.722,56.223z M44.598,54.105
				c-0.084,0.719-0.378,1.297-0.881,1.732c-0.504,0.436-1.133,0.654-1.889,0.654c-0.994,0-1.778-0.377-2.351-1.131
				c-0.574-0.754-0.861-1.789-0.861-3.104c0-1.273,0.276-2.277,0.829-3.01c0.553-0.734,1.319-1.102,2.298-1.102
				c0.728,0,1.372,0.229,1.931,0.686c0.476,0.389,0.777,0.928,0.903,1.619c0.07,0.332,0.104,0.963,0.104,1.889
				C44.682,53.061,44.654,53.648,44.598,54.105z M53.533,46.777c-1.468,0-2.659,0.525-3.573,1.578
				c-0.914,1.051-1.371,2.422-1.371,4.109c0,1.646,0.429,2.959,1.288,3.934c0.859,0.977,2.015,1.463,3.469,1.463
				c1.164,0,2.202-0.348,3.116-1.047s1.371-1.498,1.371-2.398c0-0.525-0.258-0.789-0.771-0.789c-0.36,0-0.59,0.166-0.687,0.498
				l-0.188,0.602c-0.153,0.514-0.482,0.936-0.99,1.268c-0.507,0.332-1.065,0.498-1.676,0.498c-0.931,0-1.708-0.348-2.333-1.043
				c-0.625-0.695-0.938-1.564-0.938-2.609c0-0.111,0.027-0.191,0.083-0.24s0.174-0.072,0.354-0.072h6.624
				c0.333,0,0.535-0.059,0.604-0.176c0.07-0.117,0.105-0.438,0.105-0.961c0-1.338-0.424-2.441-1.268-3.311
				C55.908,47.211,54.835,46.777,53.533,46.777z M55.92,51.156h-4.982c-0.306,0-0.458-0.096-0.458-0.289
				c0-0.693,0.319-1.318,0.959-1.879c0.639-0.562,1.348-0.842,2.126-0.842c0.75,0,1.404,0.27,1.959,0.811
				c0.556,0.539,0.834,1.176,0.834,1.91C56.358,51.061,56.212,51.156,55.92,51.156z"/>
		</g>
	</g>
</g>
<g id="Hash">
	<g>
		<g>
			<path fill-rule="evenodd" clip-rule="evenodd" fill="#E2A5CB" d="M12.38,12.966l2.09-2.088c0.199-0.198,0.205-0.513,0.014-0.704
				l-0.173-0.173c-0.19-0.19-0.507-0.184-0.704,0.014l-2.091,2.088l-2.017-2.016L11.589,8c0.198-0.198,0.204-0.513,0.014-0.704
				l-0.174-0.173c-0.19-0.19-0.506-0.185-0.704,0.013l-2.09,2.088L6.4,6.992C6.202,6.795,5.887,6.789,5.696,6.979L5.523,7.152
				C5.332,7.343,5.338,7.658,5.536,7.856l2.234,2.231l-2.017,2.015L3.519,9.871C3.321,9.673,3.005,9.667,2.814,9.857l-0.173,0.173
				c-0.191,0.191-0.185,0.506,0.013,0.704l2.234,2.231l-2.234,2.231c-0.198,0.199-0.204,0.514-0.013,0.705l0.173,0.172
				c0.191,0.191,0.506,0.186,0.705-0.012l2.234-2.232l2.017,2.015l-2.234,2.232c-0.198,0.198-0.204,0.513-0.013,0.703l0.173,0.173
				c0.191,0.191,0.506,0.186,0.705-0.014l2.234-2.231l2.091,2.089c0.198,0.197,0.514,0.203,0.704,0.012l0.174-0.172
				c0.19-0.191,0.185-0.506-0.014-0.704l-2.09-2.088l2.017-2.015l2.091,2.088c0.197,0.198,0.514,0.203,0.704,0.013l0.173-0.173
				c0.191-0.19,0.186-0.506-0.014-0.703L12.38,12.966z M8.635,14.981l-2.017-2.015l2.017-2.015l2.018,2.015L8.635,14.981z"/>
		</g>
	</g>
</g>
</svg>
