<?xml version="1.0" encoding="iso-8859-1"?>
<!-- Generator: Adobe Illustrator 16.0.0, SVG Export Plug-In . SVG Version: 6.00 Build 0)  -->
<!DOCTYPE svg PUBLIC "-//W3C//DTD SVG 1.1//EN" "http://www.w3.org/Graphics/SVG/1.1/DTD/svg11.dtd">
<svg version="1.1" xmlns="http://www.w3.org/2000/svg" xmlns:xlink="http://www.w3.org/1999/xlink" x="0px" y="0px" width="400px"
	 height="291px" viewBox="0 0 400 291" style="enable-background:new 0 0 400 291;" xml:space="preserve">
<g id="Mask">
	<path style="fill:#6F6F6F;" d="M-2-6.5v298h402v-298H-2z M201.5,288.5C122.247,288.5,58,224.253,58,145S122.247,1.5,201.5,1.5
		S345,65.747,345,145S280.753,288.5,201.5,288.5z"/>
</g>
<g id="Shadow">
	<path style="opacity:0.05;" d="M201.5,1.5c-13.337,0-26.247,1.827-38.5,5.231C223.555,23.557,268,79.084,268,145
		c0,65.915-44.445,121.443-105,138.269c12.253,3.404,25.163,5.231,38.5,5.231c79.253,0,143.5-64.247,143.5-143.5
		S280.753,1.5,201.5,1.5z"/>
</g>
</svg>
