<?xml version="1.0" encoding="utf-8"?>
<!-- Generator: Adobe Illustrator 15.1.0, SVG Export Plug-In . SVG Version: 6.00 Build 0)  -->
<svg version="1.2" baseProfile="tiny" id="logo" xmlns="http://www.w3.org/2000/svg" xmlns:xlink="http://www.w3.org/1999/xlink"
	 x="0px" y="0px" width="278px" height="383.315px" viewBox="53 25.949 278 383.315" xml:space="preserve">
<g>
	<path fill="#FFFFFF" d="M71.983,376.764c0,0,50.098,29.248,52.239,30.356c10.351,5.354,21.777,0.714,21.777-14.276V315.21
		l27.05,15.031c10.941,5.856,24.33,6.913,39.114-0.288l101.044-58.873C322.31,265.977,331,252.465,331,239.161V122.552
		c0-16.961-10.422-29.196-17.584-33.438L213.398,31.06c-11.84-6.929-28.049-6.698-39.254,0L73.494,88.658
		C62.529,94.598,53,109.065,53,122.009v222.083C53,356.602,60.564,369.541,71.983,376.764z M240.354,281.432
		c0,0.989-0.569,1.789-1.293,2.207c-0.725,0.42-43.821,25.318-44.734,25.812c-0.914,0.494-1.675,0.533-2.627-0.037
		c-0.952-0.571-42.26-24.366-42.26-24.366c-0.761-0.457-1.371-1.37-1.371-2.36c0,0,0.038-37.5,0.038-39.062
		c0-2.321,2.437-3.196,3.579-2.551c2.094,1.187,39.533,22.839,40.09,23.147c0.685,0.381,1.637,0.457,2.513,0
		c0.633-0.328,39.966-23.086,42.098-24.332c2.144-1.252,3.933,0.728,3.933,2.325C240.314,243.814,240.354,280.441,240.354,281.432z
		 M304,243.32c0,1.143,0.423,1.904,0.004,2.171s-33.898,19.911-33.898,19.911c-1.273,0.686-3.312-0.19-3.312-2.477
		c0-2.283,0.377-87.756,0.377-89.469c0-1.941,2.145-3.236,3.99-2.17c2.054,1.185,32.592,19.53,32.592,19.53
		c1.028,0.609,0.25,1.333,0.25,2.284C304,193.104,304,242.18,304,243.32z M261.331,89.472c0.647,0.38,43.555,25.166,43.555,25.166
		c0.99,0.533,1.408,1.485,1.408,2.284c0,0,0.038,36.815,0.038,39.214c0,2.132-2.438,3.122-3.77,2.36
		c-1.332-0.761-75.931-43.721-77.781-44.849c-1.938-1.18-1.674-3.617,0.021-4.53c1.903-1.028,32.951-19.074,33.864-19.607
		C259.58,88.977,260.686,89.091,261.331,89.472z M148.067,78.622c0-0.875,0.609-1.828,1.447-2.284l43.364-25.013
		c0.724-0.419,1.675-0.381,2.476,0.038l34.035,19.683c1.639,0.952,1.98,3.274,0.229,4.34l-77.59,44.773
		c-1.599,0.914-3.926,0.038-3.926-2.17L148.067,78.622z M148.144,154.766c0-0.647,0.381-1.523,1.142-2.056
		c0.761-0.533,43.44-25.09,43.44-25.09c0.762-0.457,1.75-0.571,2.627-0.038L239.25,152.9c0.762,0.418,1.047,1.637,1.047,2.132
		c0,0.495-0.023,48.784-0.023,49.879c0,1.095-0.403,2.089-1.342,2.607c-0.938,0.523-44.605,25.789-44.605,25.789
		c-0.761,0.381-1.675,0.457-2.551-0.037c-0.876-0.496-41.955-24.213-42.526-24.558c-0.571-0.342-1.142-1.18-1.142-2.056
		C148.105,205.896,148.144,155.413,148.144,154.766z M80,116.884c0-1.066,1.481-1.865,2.547-2.475l34.303-19.493
		c1.904-1.104,4.19-0.038,4.19,2.641c0,0,0.094,266.185,0.094,271.591c0,2.551-2.487,3.008-3.857,2.207
		c-5.787-3.373-35.066-19.684-35.066-19.684c-0.914-0.495-2.21-1.295-2.21-2.17L80,116.884L80,116.884z"/>
</g>
</svg>
