<?xml version="1.0" encoding="utf-8"?>
<!-- Generator: Adobe Illustrator 15.1.0, SVG Export Plug-In . SVG Version: 6.00 Build 0)  -->
<svg version="1.2" baseProfile="tiny" id="Layer_1" xmlns="http://www.w3.org/2000/svg" xmlns:xlink="http://www.w3.org/1999/xlink"
	 x="0px" y="0px" width="649.5px" height="494px" viewBox="-161.75 -123.5 649.5 494" xml:space="preserve">
<g>
	<g>
		<path fill="#BDCCD4" d="M-146.392-105.507l-7.934-11.941h-3.566v16.403h3.11v-11.914l8.016,12.072h3.486v-16.562h-3.112V-105.507z
			 M-124.346-117.448l-6.112,16.403h3.297l1.367-3.884h6.756l1.395,3.884h3.298l-6.032-16.403H-124.346z M-124.934-107.579
			l2.546-7.113l2.519,7.113H-124.934z M-104.521-114.641h5.602v13.596h3.244v-13.596h5.603v-2.808h-14.448V-114.641z
			 M-73.575-117.448h-3.244v16.403h3.244V-117.448z M-51.122-117.843c-4.958,0-8.63,3.57-8.63,8.636
			c0,5.378,3.645,8.557,8.604,8.557c4.958,0,8.604-3.597,8.604-8.662C-42.544-114.692-46.188-117.843-51.122-117.843z
			 M-51.096-103.329c-3.27,0-5.362-2.386-5.362-5.983c0-3.49,2.064-5.853,5.255-5.853c3.27,0,5.388,2.362,5.388,5.958
			C-45.813-105.715-47.905-103.329-51.096-103.329z M-17.279-105.507l-7.937-11.941h-3.563v16.403h3.107v-11.914l8.015,12.072h3.483
			v-16.562h-3.107v11.941H-17.279z M4.765-117.448l-6.11,16.403H1.95l1.368-3.884h6.754l1.395,3.884h3.296L8.73-117.448H4.765z
			 M4.177-107.579l2.546-7.113l2.52,7.113H4.177z M30.778-117.448h-3.27v16.403h10.83v-2.808h-7.561V-117.448z M71.37-117.448
			h-3.271v16.403h10.832v-2.808H71.37V-117.448z M92.398-101.045h11.42v-2.704h-8.204v-4.174h6.73v-2.702h-6.73v-4.12h8.204v-2.703
			h-11.42V-101.045z M120.612-104.929h6.754l1.396,3.884h3.296l-6.032-16.403h-3.966l-6.112,16.403h3.296L120.612-104.929z
			 M124.017-114.692l2.52,7.113h-5.067L124.017-114.692z M157.16-112.463c0-3.018-2.252-4.985-6.487-4.985c0.054,0-5.872,0-5.872,0
			v16.403h3.27v-5.852l2.414-0.158l3.728,6.01h3.725l-4.395-6.693C155.82-108.499,157.16-110.127,157.16-112.463z M150.486-109.471
			l-2.438,0.052v-5.35c0,0,2.09,0,2.117,0c2.334,0,3.646,0.812,3.646,2.518C153.811-110.469,152.498-109.574,150.486-109.471z
			 M182.585-105.507l-7.934-11.941h-3.566v16.403h3.111v-11.914l8.014,12.072h3.486v-16.562h-3.111V-105.507z M221.058-101.045
			h3.242v-13.596h5.602v-2.808h-14.449v2.808h5.605V-101.045z M250.663-117.843c-4.959,0-8.631,3.57-8.631,8.636
			c0,5.378,3.643,8.557,8.604,8.557s8.605-3.597,8.605-8.662C259.241-114.692,255.597-117.843,250.663-117.843z M250.69-103.329
			c-3.27,0-5.363-2.386-5.363-5.983c0-3.49,2.066-5.853,5.254-5.853c3.271,0,5.387,2.362,5.387,5.958
			C255.972-105.715,253.878-103.329,250.69-103.329z M298.081-103.406c-3.377,0-5.492-2.284-5.492-5.906
			c0-3.57,2.17-5.774,5.443-5.774c1.607,0,3.053,0.446,4.396,1.312l1.016-2.782c-1.449-0.786-3.457-1.286-5.412-1.286
			c-5.229,0-8.74,3.386-8.74,8.636c0,5.378,3.512,8.557,8.658,8.557c1.902,0,3.994-0.5,5.336-1.286l-0.619-2.94
			C301.435-104.036,299.8-103.406,298.081-103.406z M333.106-109.311c0-5.38-3.648-8.53-8.576-8.53c-4.961,0-8.633,3.57-8.633,8.637
			c0,5.377,3.645,8.556,8.605,8.556C329.458-100.65,333.106-104.247,333.106-109.311z M324.558-103.329
			c-3.273,0-5.365-2.386-5.365-5.983c0-3.49,2.066-5.853,5.256-5.853c3.27,0,5.387,2.362,5.387,5.958
			C329.835-105.715,327.745-103.329,324.558-103.329z M361.581-109.364c0-4.883-3.318-8.084-9.031-8.084c-1.26,0-5.684,0-5.684,0
			v16.403c0,0,4.746,0,5.469,0C358.288-101.045,361.581-104.299,361.581-109.364z M350.14-114.745h2.225
			c3.832,0,5.951,1.837,5.951,5.538c0,3.646-2.254,5.458-5.791,5.458h-2.385V-114.745L350.14-114.745z M375.319-101.045h11.422
			v-2.704h-8.205v-4.174h6.729v-2.702h-6.729v-4.12h8.205v-2.703h-11.422V-101.045z M431.89-109.364
			c0-4.883-3.324-8.084-9.035-8.084c-1.26,0-5.684,0-5.684,0v16.403c0,0,4.742,0,5.465,0
			C428.589-101.045,431.89-104.299,431.89-109.364z M422.827-103.747h-2.385v-10.998h2.221c3.836,0,5.953,1.837,5.953,5.538
			C428.616-105.559,426.364-103.747,422.827-103.747z M449.78-117.448l-6.113,16.403h3.297l1.367-3.884h6.756l1.393,3.884h3.297
			l-6.031-16.403H449.78z M449.188-107.579l2.547-7.113l2.52,7.113H449.188z M475.39-101.045h3.244v-6.352l5.818-10.052h-3.51
			l-3.891,7.086l-3.963-7.086h-3.541l5.842,10.025V-101.045z M-151.409,351.216c-2.294-0.602-3.79-1.121-3.79-2.453
			c0-1.125,0.854-1.934,2.8-1.934c1.574,0,3.439,0.549,4.91,1.406l0.798-2.689c-1.601-0.885-3.466-1.436-5.734-1.436
			c-3.708,0-5.974,1.934-5.974,4.832c0,3.211,2.773,4.258,5.174,4.91c2.456,0.65,3.708,1.148,3.708,2.504
			c0,1.309-1.282,2.172-3.094,2.172c-2,0-3.761-0.656-5.309-1.566l-0.748,2.742c1.574,0.939,3.788,1.514,6.002,1.514
			c3.921,0,6.349-2.115,6.349-5.092C-146.315,353.021-148.901,351.897-151.409,351.216z M-133.739,360.827h11.363v-2.689h-8.162
			v-4.152h6.694v-2.689h-6.694v-4.1h8.162v-2.693h-11.363V360.827z M-104.252,344.505c-0.025,0-5.388,0-5.388,0v16.322h3.254v-5.064
			l1.895-0.029c4.479-0.025,7.122-2.01,7.122-5.771C-97.369,346.774-99.636,344.505-104.252,344.505z M-104.357,353.071l-2.08,0.051
			v-5.951c0,0,1.76,0,1.974,0c2.562,0,3.842,0.988,3.842,2.895S-101.878,353.021-104.357,353.071z M-86.313,347.298h5.576v13.529
			h3.226v-13.529h5.576v-2.793h-14.376v2.793H-86.313z M-59.867,360.827h11.363v-2.689h-8.162v-4.152h6.694v-2.689h-6.694v-4.1
			h8.162v-2.693h-11.363V360.827z M-22.538,344.505l-4.294,12.852l-4.294-12.852h-4.508l-0.56,16.322h3.067l0.158-13.082
			l4.376,12.85h3.416l4.346-12.85l0.135,13.082h3.146l-0.532-16.322H-22.538z M4.895,352.364c1.92-0.627,2.988-1.801,2.988-3.551
			c0-2.482-1.549-4.309-6.057-4.309h-6.374v16.322h6.482c4.826,0,6.481-1.982,6.481-4.674C8.414,354.222,7.08,352.837,4.895,352.364
			z M-1.35,347.065c0,0,2.936,0,3.068,0c1.894,0,2.907,0.783,2.907,2.168c0,1.41-1.094,2.27-3.174,2.27c-0.054,0-2.802,0-2.802,0
			V347.065z M1.878,358.267c-0.186,0-3.228,0-3.228,0v-4.439c0,0,2.936,0,2.988,0c2.054,0,3.494,0.578,3.494,2.193
			C5.133,357.513,4.066,358.267,1.878,358.267z M20.858,360.827h11.362v-2.689h-8.162v-4.152h6.696v-2.689h-6.696v-4.1h8.162v-2.693
			H20.858V360.827z M57.252,349.466c0-3.002-2.239-4.961-6.453-4.961c0.052,0-5.843,0-5.843,0v16.322h3.254v-5.822l2.4-0.156
			l3.708,5.979h3.708l-4.376-6.66C55.918,353.411,57.252,351.79,57.252,349.466z M50.608,352.442l-2.426,0.055v-5.326
			c0,0,2.082,0,2.107,0c2.322,0,3.628,0.807,3.628,2.506C53.918,351.45,52.61,352.339,50.608,352.442z M83.559,347.298h5.574v13.529
			h3.228v-13.529h5.576v-2.793H83.559V347.298z M126.168,356.938l-3.521-12.434h-3.732l-3.47,12.434l-2.906-12.434h-3.468
			l4.588,16.322h3.307l3.762-12.613l3.68,12.613h3.36l4.588-16.322h-3.309L126.168,356.938z M144.58,360.827h11.362v-2.689h-8.164
			v-4.152h6.696v-2.689h-6.696v-4.1h8.164v-2.693H144.58V360.827z M180.122,356.388l-7.893-11.883h-3.549v16.322h3.096V348.97
			l7.973,12.014h3.469v-16.479h-3.096V356.388L180.122,356.388z M195.284,347.298h5.576v13.529h3.225v-13.529h5.574v-2.793h-14.375
			V347.298z M227.815,351.558l-3.951-7.053h-3.52l5.811,9.977v6.346h3.23v-6.32l5.789-10.002h-3.496L227.815,351.558z
			 M263.155,360.827h3.23v-6.504h6.4v-2.74h-6.4v-4.309h7.867v-2.77h-11.098V360.827z M286.618,360.827h3.229v-16.322h-3.229
			V360.827z M315.632,349.466c0-3.002-2.242-4.961-6.457-4.961c0.055,0-5.844,0-5.844,0v16.322h3.258v-5.822l2.398-0.156
			l3.709,5.979h3.705l-4.375-6.66C314.296,353.411,315.632,351.79,315.632,349.466z M308.987,352.442l-2.43,0.055v-5.326
			c0,0,2.082,0,2.109,0c2.32,0,3.625,0.807,3.625,2.506C312.294,351.45,310.987,352.339,308.987,352.442z M334.769,351.216
			c-2.293-0.602-3.789-1.121-3.789-2.453c0-1.125,0.852-1.934,2.799-1.934c1.572,0,3.443,0.549,4.908,1.406l0.801-2.689
			c-1.602-0.885-3.467-1.436-5.738-1.436c-3.707,0-5.971,1.934-5.971,4.832c0,3.211,2.775,4.258,5.174,4.91
			c2.453,0.65,3.707,1.148,3.707,2.504c0,1.309-1.277,2.172-3.094,2.172c-2,0-3.758-0.656-5.305-1.566l-0.75,2.742
			c1.574,0.939,3.789,1.514,6.004,1.514c3.922,0,6.346-2.115,6.346-5.092C339.86,353.021,337.276,351.897,334.769,351.216z
			 M350.729,347.298h5.578v13.529h3.227v-13.529h5.576v-2.793h-14.381V347.298z M376.062,357.017c-1.307,0-2.213,0.832-2.35,1.959
			c1.652,0.705,2.162,1.172,2.162,1.854c0,0.889-1.014,1.881-2.693,3.031l1.385,1.227c2.133-1.256,4.215-2.926,4.215-5.197
			C378.782,358.296,377.554,357.017,376.062,357.017z M410.37,358.192c3.467-2.119,5.707-3.709,5.707-6.217
			c0-2.35-1.945-3.943-5.012-3.943c-2.029,0-3.922,0.707-5.285,1.697l0.859,2.402c1.303-0.887,2.557-1.436,3.811-1.436
			c1.463,0,2.291,0.73,2.291,1.775c0,1.725-2.852,3.373-6.799,6.033v2.324h10.752l-0.027-2.637H410.37L410.37,358.192z
			 M434.765,348.028c-3.92,0-6.561,2.664-6.561,6.609s2.586,6.582,6.533,6.582c3.975,0,6.641-2.664,6.641-6.609
			C441.378,350.667,438.712,348.028,434.765,348.028z M434.765,358.688c-2.08,0-3.492-1.621-3.492-4.049
			c0-2.455,1.412-4.074,3.492-4.074c2.107,0,3.523,1.623,3.523,4.074C438.288,357.067,436.872,358.688,434.765,358.688z
			 M452.864,352.263l3.094-0.836v9.4h3.121v-12.82l-6.293,1.619L452.864,352.263z M478.913,356.335c1.84-0.68,3.359-2.168,3.359-4.1
			c0-2.508-2.188-4.207-5.494-4.207c-2.158,0-3.92,0.734-5.279,1.723l0.852,2.377c1.199-0.861,2.508-1.463,3.814-1.463
			c1.73,0,2.721,0.762,2.721,2.09c0,1.881-2.404,2.664-4.938,3.188v2.377c0.773-0.131,1.574-0.184,2.293-0.158
			c2.107,0.051,3.336,0.834,3.336,2.375c0,1.723-1.361,2.637-3.387,2.615c-1.572,0-3.146-0.471-4.268-1.178l-0.457,2.637
			c1.285,0.68,3.043,1.098,4.883,1.098c3.572,0,6.48-1.934,6.48-5.25C482.833,358.556,481.528,356.755,478.913,356.335z"/>
	</g>
</g>
</svg>

