<?xml version="1.0" encoding="utf-8"?>
<!-- Generator: Adobe Illustrator 15.1.0, SVG Export Plug-In . SVG Version: 6.00 Build 0)  -->
<svg version="1.2" baseProfile="tiny" id="Layer_1" xmlns="http://www.w3.org/2000/svg" xmlns:xlink="http://www.w3.org/1999/xlink"
	 x="0px" y="0px" width="649.5px" height="494px" viewBox="-161.75 -123.5 649.5 494" xml:space="preserve">
<path fill="none" d="M164.108,170.095c-20.816,0-22,13.221-22,34.881v40.51c0,21.662,1.184,34.879,22,34.879s22-13.217,22-34.879
	v-40.51C186.108,183.315,184.925,170.095,164.108,170.095z"/>
<path fill="none" d="M292.45,175.067h-15.193c-5.344,0-9.148,2.902-9.148,8.527v83.27c0,5.348,3.805,8.205,9.148,8.205h15.193
	c13.502,0,19.658-2.014,19.658-18.889c0-0.283,0-61.611,0-61.891C312.108,176.849,305.952,175.067,292.45,175.067z"/>
<path fill="none" d="M52.339,189.782c-1.408-12.375-6.643-19.688-21.832-19.688c-20.82,0-22.398,13.219-22.398,34.879v40.51
	c0,21.662,1.578,34.877,22.398,34.877c15.47,0,19.775-7.309,21.462-20.25c0.846-5.91,4.998-9.562,10.624-8.156l29.514,6.607v-66.66
	l-28.908,6.605C57.292,199.632,53.185,195.692,52.339,189.782z"/>
<path fill="#3FA9F5" d="M398.108,192.587v-9.008c0-5.629,3.867-8.512,9.211-8.512h68.109c5.623,0,8.68-3.027,8.68-8.371v-31.523
	c0-5.629-3.055-8.107-8.68-8.107H357.226c-5.352,0-9.119,2.475-9.119,8.107v10.459c10,11.088,14,27.189,14,48.654v61.609
	c0,21.469-4,37.629-14,48.785v10.613c0,5.346,3.768,7.775,9.119,7.775h118.203c5.623,0,8.68-2.148,8.68-7.775v-31.523
	c0-5.629-3.055-8.703-8.68-8.703h-68.109c-5.348,0-9.211-2.838-9.211-8.184v-9.004C398.108,252.249,398.108,197.931,398.108,192.587
	z"/>
<path fill="#FF931E" d="M92.108,258.563l-29.47-6.605c-5.626-1.408-9.931,2.246-10.778,8.156
	c-1.686,12.939-5.979,20.25-21.452,20.25c-20.819,0-22.3-13.217-22.3-34.879v-40.51c0-21.66,1.578-34.881,22.398-34.881
	c15.189,0,20.338,7.314,21.745,19.691c0.847,5.906,4.998,9.848,10.906,8.723l28.95-6.605v-1.834c0-6.623,0.91-17.221,4.582-28.115
	c-6.586-19.652-23.314-40.247-66.186-40.247c-66.673,0-70.396,49.794-70.396,68.36v70.324c0,18.566,3.918,68.363,70.59,68.363
	c42.908,0,59.444-20.629,66.019-40.195c-3.688-10.912-4.61-21.535-4.61-28.168v-1.828H92.108z"/>
<path fill="#FF7BAC" d="M163.334,121.709c-42.886,0-59.714,20.603-66.336,40.245c2.62,7.812,3.645,15.48,3.964,21.641
	c0.282,3.945-2.621,7.037-6.558,7.877l-2.296,0.434v66.66l2.318,0.426c3.938,0.844,6.666,3.939,6.384,8.158
	c-0.32,6.068-1.204,13.658-3.809,21.414c6.633,19.629,23.438,40.195,66.288,40.195c29.705,0,46.82-9.895,56.82-22.496V144.21
	C210.108,131.603,193.042,121.709,163.334,121.709z M186.108,245.485c0,21.662-1.184,34.879-22,34.879s-22-13.217-22-34.879v-40.51
	c0-21.66,1.184-34.881,22-34.881s22,13.221,22,34.881V245.485z"/>
<path fill="#FF931E" d="M94.427,258.989l-2.318-0.426v1.83c0,6.635,0.912,17.256,4.6,28.168c2.606-7.756,3.586-15.346,3.906-21.414
	C100.896,262.927,98.362,259.833,94.427,258.989z"/>
<path fill="#F95D1C" d="M94.427,258.989l-2.318-0.426v1.83c0,6.635,0.912,17.256,4.6,28.168c2.606-7.756,3.586-15.346,3.906-21.414
	C100.896,262.927,98.362,259.833,94.427,258.989z"/>
<path fill="#FF931E" d="M92.108,191.903l2.318-0.434c3.938-0.84,6.666-3.934,6.384-7.875c-0.32-6.164-1.599-13.828-4.218-21.641
	c-3.67,10.891-4.484,21.492-4.484,28.115V191.903z"/>
<path fill="#F95D1C" d="M92.108,191.903l2.318-0.434c3.938-0.84,6.666-3.934,6.384-7.875c-0.32-6.164-1.599-13.828-4.218-21.641
	c-3.67,10.891-4.484,21.492-4.484,28.115V191.903z"/>
<path fill="#7AC943" d="M291.606,127.067h-62.732c-5.625,0-8.766,2.797-8.766,8.424v8.713c12,15.686,14,35.57,14,45.865v70.324
	c0,10.291-2,30.18-14,45.865v8.992c0,5.348,3.42,7.816,8.766,7.816h62.732c28.275,0,46.502-5.574,56.502-18.387V145.634
	C338.108,132.892,319.882,127.067,291.606,127.067z M312.108,256.177c0,16.877-6.156,18.891-19.658,18.891h-15.193
	c-5.344,0-9.148-2.859-9.148-8.203v-83.27c0-5.625,3.805-8.529,9.148-8.529h15.193c13.502,0,19.658,1.783,19.658,19.221
	C312.108,194.567,312.108,255.896,312.108,256.177z"/>
<path fill="#3FA9F5" d="M362.108,194.286c0-21.465-4-37.566-14-48.654v159.049c10-11.156,14-27.316,14-48.787V194.286z"/>
<path fill="#1D8540" d="M362.108,194.286c0-21.465-4-37.566-14-48.654v159.049c10-11.156,14-27.316,14-48.787V194.286z"/>
<path fill="#FF7BAC" d="M234.108,190.069c0-10.291-2-30.18-14-45.865v162.053c12-15.686,14-35.572,14-45.865V190.069z"/>
<path fill="#767F3F" d="M234.108,190.069c0-10.291-2-30.18-14-45.865v162.053c12-15.686,14-35.572,14-45.865V190.069z"/>
<g>
	<path id="scroll-indicator" fill="#BDCCD4" d="M407.335,259.446c-2.137-2.137-2.137-4.275,0-6.41l25.406-25.406c2.031-2.035,2.031-4.381,0-6.414
		l-23.836-23.832c-2.135-2.137-2.135-4.277,0-6.412l11.969-11.969c2.141-2.139,4.277-2.139,6.414,0l42.215,42.213
		c2.033,2.033,2.029,4.379,0,6.414l-43.789,43.787c-2.137,2.139-4.379,2.029-6.41,0L407.335,259.446z"/>
</g>
</svg>

