<?xml version="1.0" encoding="utf-8"?>
<!-- Generator: Adobe Illustrator 16.0.0, SVG Export Plug-In . SVG Version: 6.00 Build 0)  -->
<!DOCTYPE svg PUBLIC "-//W3C//DTD SVG 1.1//EN" "http://www.w3.org/Graphics/SVG/1.1/DTD/svg11.dtd">
<svg version="1.1" id="Layer_1" xmlns="http://www.w3.org/2000/svg" xmlns:xlink="http://www.w3.org/1999/xlink" x="0px" y="0px"
	 width="49.718px" height="31.08px" viewBox="0 0 49.718 31.08" enable-background="new 0 0 49.718 31.08" xml:space="preserve">
<path class="bg" fill="#FFFFFF" d="M18.19,23.967H2.924c-1.339,0-2.424-1.085-2.424-2.424V2.924C0.5,1.585,1.585,0.5,2.924,0.5h43.87
	c1.339,0,2.424,1.085,2.424,2.424v18.619c0,1.339-1.085,2.424-2.424,2.424H31.551l-0.062,0.011c-3.651,0-6.607,2.953-6.607,6.603
	h-0.056c0-3.649-2.955-6.603-6.607-6.603L18.19,23.967z"/>
<path class="stroke" fill="#A09F9F" d="M25.381,31.08h-1.056v-0.5c0-3.365-2.74-6.103-6.107-6.103L2.924,24.467C1.312,24.467,0,23.155,0,21.543
	V2.924C0,1.312,1.312,0,2.924,0h43.87c1.612,0,2.924,1.312,2.924,2.924v18.619c0,1.612-1.312,2.924-2.924,2.924H31.551
	c-3.43,0.011-6.17,2.748-6.17,6.113V31.08z M18.314,23.479c2.979,0.039,5.522,1.921,6.538,4.556
	c1.027-2.663,3.614-4.557,6.636-4.557l15.306-0.011c1.061,0,1.924-0.863,1.924-1.924V2.924C48.718,1.863,47.854,1,46.794,1H2.924
	C1.863,1,1,1.863,1,2.924v18.619c0,1.061,0.863,1.924,1.924,1.924L18.314,23.479z"/>
</svg>
