<?xml version="1.0" encoding="iso-8859-1"?>
<!-- Generator: Adobe Illustrator 16.0.0, SVG Export Plug-In . SVG Version: 6.00 Build 0)  -->
<!DOCTYPE svg PUBLIC "-//W3C//DTD SVG 1.1//EN" "http://www.w3.org/Graphics/SVG/1.1/DTD/svg11.dtd">
<svg version="1.1" xmlns="http://www.w3.org/2000/svg" xmlns:xlink="http://www.w3.org/1999/xlink" x="0px" y="0px" width="400px"
	 height="291px" viewBox="0 0 400 291" style="enable-background:new 0 0 400 291;" xml:space="preserve">
<g id="Water">
	<rect y="-0.5" style="fill:#ABD5EF;" width="400" height="292"/>
</g>
<g id="Land">
	<g>
		<polygon style="fill:#39B54A;" points="361,192.5 357,192.5 357,198.768 352.252,194.5 343.666,194.5 337.88,200.5 329.824,200.5 
			324,206.159 324,215.965 324,221.5 328.492,221.5 332.912,221.5 338.248,215.5 344,215.5 344,223.5 349,223.5 349,228.5 
			355.402,228.5 359.685,223.5 362.204,223.5 367,218.801 367,209.813 367,206.551 361,200.8 		"/>
		<polygon style="fill:#39B54A;" points="354.162,238.174 357,235.208 357,232.5 353.017,232.5 		"/>
		<polygon style="fill:#39B54A;" points="373.484,244.738 376.868,248.122 386.684,238.306 383.247,234.869 		"/>
		<polygon style="fill:#39B54A;" points="387,229.5 387,225.463 385.688,224.279 385,232.817 385,235.104 391.11,229.5 		"/>
		<polygon style="fill:#39B54A;" points="249,197.311 249,206.5 254,206.5 254,196.789 256.635,193.981 254.178,191.545 		"/>
		<polygon style="fill:#39B54A;" points="331.323,191.5 336.527,191.5 330.014,184.5 317.177,184.5 319.265,186.5 326.423,186.5 		
			"/>
		<path style="fill:#39B54A;" d="M369.793,54.5h-23.977c-0.202,0-0.385-0.039-0.462,0.147s-0.034,0.532,0.108,0.675l2.048,2.178
			h-8.915l-4.303-4.514c-0.188-0.188-0.52-0.394-0.707-0.206l-4.926,4.72h-11.021c-0.133,0-0.26,0.154-0.354,0.248l-5.306,5.357
			l-6.124-6.291c-0.094-0.094-0.221-0.313-0.354-0.313h-7.73c-0.133,0-0.097,0.245-0.19,0.339L292,62.775v-6.458
			c0-0.133-0.216-0.26-0.31-0.354l-7.659-7.576c-0.195-0.195-0.552-0.195-0.747,0l-17.279,17.42
			c-0.094,0.094-0.005,0.221-0.005,0.354V69.5h-3.819c-0.276,0-0.181,0.528-0.181,0.805v4.94l-4.393,3.255h-6.136
			c-0.276,0-0.472-0.048-0.472,0.228V82.5h-6.412c-0.133,0-0.26,0.372-0.354,0.466l-9.216,9.534H232v-3h2.721
			c0.133,0,0.26,0.014,0.354-0.08l2.181-2.148c0.195-0.195,0.195-0.495,0-0.69l-5.563-5.75c-0.094-0.094-0.221-0.332-0.354-0.332
			h-15.02c-0.133,0-0.26,0.246-0.354,0.34l-7.812,7.903c-0.094,0.094-0.152,0.317-0.152,0.45v6.259l-3.992,4.13
			c-0.094,0.094-0.008,0.221-0.008,0.354v3.929c0,0.276-0.041,0.635,0.236,0.635h5.912l3.576,3.714
			c0.094,0.094,0.221,0.286,0.354,0.286h2.177c0.276,0,0.745-0.637,0.745-0.914v-10.45l4.516-4.637h2.276l-4.583,4.457
			c-0.094,0.094-0.209,0.158-0.209,0.291v4.16c0,0.276,0.35,0.092,0.626,0.092H226v2h-7.405c-0.276,0-0.595-0.037-0.595,0.239v5.761
			h-4.396l-3.812-3.913c-0.144-0.143-0.327-0.236-0.514-0.159c-0.187,0.077-0.277,0.209-0.277,0.412v4.859l-6.063,5.801h-6.745
			c-0.276,0-0.192,0.424-0.192,0.7v2.903c0,0.133-0.102,0.26-0.008,0.354l3.548,3.651l-1.442,1.392h-6.926
			c-0.276,0-0.173,0.171-0.173,0.447v7.033c0,0.133-0.111,0.26-0.017,0.354l3.516,3.809c0.094,0.094,0.139,0.357,0.271,0.357h3.835
			c0.133,0,0.26-0.437,0.354-0.53l8.087-8.47h4.346l4.202,4.374c0.195,0.195,0.512,0.282,0.707,0.086l2.41-2.366
			c0.094-0.094,0.146-0.199,0.146-0.332s-0.053-0.075-0.146-0.169l-4.778-4.593h1.13l7.251,7.052
			c0.094,0.094,0.221-0.052,0.354-0.052h2.817c0.133,0,0.26-0.028,0.354-0.122l3.979-3.929c0.094-0.094,0.184-0.208,0.184-0.341
			V122.5h5.279l5.721,4.998v1.002h-10.474c-0.133,0-0.26,0.161-0.354,0.255l-4.286,4.341c-0.143,0.143-0.186,0.633-0.108,0.82
			s0.26,0.584,0.462,0.584h8.199l3.561,3.12v3.88h-22.365l-5.828-5.84c-0.094-0.094-0.221-0.16-0.354-0.16h-5.721
			c-0.133,0-0.26,0.085-0.354,0.179l-3.788,3.821h-7.203c-0.161,0-0.312,0.02-0.406,0.15l-9.93,13.855
			c-0.062,0.085-0.052,0.158-0.052,0.263v10.238c0,0.133,0.011,0.26,0.104,0.354l8.814,8.915c0.094,0.094,0.2,0.225,0.333,0.225
			h7.445c0.133,0,0.26-0.024,0.354-0.118l2.911-2.882h3.87l6.17,5.983v4.911c0,0.133,0.085,0.26,0.179,0.354l3.821,3.789v5.986
			l-4.766,4.678c-0.094,0.094-0.234,0.221-0.234,0.354v8.552c0,0.133,0.122,0.26,0.216,0.354l11.192,11.025
			c0.094,0.094,0.255,0.015,0.388,0.015h7.416c0.133,0,0.26,0.079,0.354-0.015l7.217-7.079c0.094-0.094,0.218-0.154,0.218-0.287
			v-8.474l6.037-6.222c0.094-0.094-0.037-0.221-0.037-0.354v-11.137l14.611-14.368c0.094-0.094,0.389-0.221,0.389-0.354v-4.08
			c0-0.276-0.483-0.632-0.76-0.632h-8l-13.245-13.18l2.735-2.702l10.962,10.849c0.094,0.094,0.221,0.033,0.354,0.033h8.078
			c0.133,0,0.26,0.077,0.354-0.017l4.899-4.833c0.195-0.195,0.195-0.479,0-0.675l-4.746-4.538c-0.094-0.094-0.221,0.062-0.354,0.062
			h-3.667l-3.598-3.791l1.513-1.61l3.338,3.297c0.094,0.094,0.221,0.104,0.354,0.104h4.547l4.04,3.947
			c0.094,0.094,0.221,0.053,0.354,0.053h6.577l4.224,4.539c0.094,0.094,0.221,0.461,0.354,0.461H280v4.278
			c0,0.133-0.148,0.26-0.055,0.354l7.067,7.194c0.094,0.094,0.12,0.174,0.253,0.174h2.219c0.276,0,0.516-0.278,0.516-0.555v-6.76
			l6.846-6.686H301v2.822c0,0.133,0.031,0.26,0.125,0.354l5.455,5.572c0.094,0.094,0.21,0.252,0.343,0.252h3.86l5.865,5.76
			c0.195,0.195,0.512,0.142,0.707-0.054l2.4-2.329c0.094-0.094,0.244-0.247,0.244-0.38v-6.376c0-0.133-0.014-0.26-0.107-0.354
			l-2.893-2.93V153.5h9.511c0.133,0,0.26,0.169,0.354,0.075l7.774-7.448c0.094-0.094,0.361-0.11,0.361-0.243v-4.791
			c0-0.133-0.183-0.26-0.276-0.354L329,135.146V127.5h1.432l6.25,6.552c0.094,0.094,0.221,0.448,0.354,0.448h3.879
			c0.202,0,0.385-0.231,0.462-0.418s0.034-0.457-0.108-0.6l-5.88-5.908l5.677-5.903c0.094-0.094-0.064-0.234-0.064-0.367v-8.312
			l3.842-3.832c0.094-0.094,0.158-0.221,0.158-0.354v-7.935c0-0.276,0.177-0.372-0.1-0.372H336v-4.255l7.006-7.745h7.633
			c0.276,0,0.361,0.223,0.361-0.053V81.5h4v12.178c0,0.133-0.032,0.26,0.062,0.354l6.69,6.734c0.145,0.144,0.558,0.188,0.742,0.108
			c0.187-0.077,0.506-0.26,0.506-0.462v-9.194c0-0.133-0.229-0.26-0.322-0.354L359,87.361v-4.559l9.499-9.542
			c0.094-0.094,0.125-0.221,0.125-0.354s0.172-0.26,0.078-0.354L364,67.627V62.5h5.793c0.276,0,0.207-0.014,0.207-0.29v-7.533
			C370,54.401,370.069,54.5,369.793,54.5z"/>
		<path style="fill:#39B54A;" d="M353.416,115.5H347.4c-0.215,0-0.406,0.118-0.475,0.322l-0.884,2.584
			c-0.017,0.051-0.042,0.095-0.042,0.149v11.097l-7.115,7.132c-0.104,0.104-0.148,0.248-0.137,0.394s0.092,0.28,0.211,0.366
			l3.464,2.496c0.088,0.063,0.19,0.094,0.293,0.094c0.129,0,0.257-0.05,0.354-0.146l7.747-7.71c0.094-0.094,0.184-0.221,0.184-0.354
			v-7.365l2.848-2.842c0.094-0.094,0.152-0.221,0.152-0.354v-5.401C354,115.685,353.692,115.5,353.416,115.5z"/>
		<path style="fill:#39B54A;" d="M193,103.117v3.892c0,0.133-0.005,0.26,0.089,0.354l2.911,2.969v2.887
			c0,0.276,0.051,0.282,0.328,0.282h4.467c0.272,0,0.495-0.109,0.5-0.381l0.074-3.621c0.002-0.137,0.042-0.241-0.054-0.337
			L198,105.78v-2.663c0-0.276-0.41-0.617-0.686-0.617h-4.102C192.936,102.5,193,102.84,193,103.117z"/>
		<path style="fill:#39B54A;" d="M192.233,109.12l-2.077,1.631c-0.123,0.095-0.157,0.241-0.157,0.396v3.007
			c0,0.276,0.147,0.346,0.424,0.346h3.96c0.276,0,0.616-0.069,0.616-0.346v-2.792c0-0.133-0.11-0.26-0.204-0.354l-1.875-1.846
			C192.743,108.984,192.432,108.967,192.233,109.12z"/>
		<path style="fill:#39B54A;" d="M211.924,65.805c0.097,0.097,0.225,0.146,0.354,0.146c0.111,0,0.222-0.037,0.314-0.111l5.016-3.885
			c0.117-0.095,0.393-0.238,0.393-0.389v-7.398c0-0.276-0.637-0.669-0.913-0.669h-4.601c-0.276,0-0.486,0.393-0.486,0.669V57.5
			h-4.018c-0.133,0-0.26,0.187-0.354,0.28l-1.445,1.512c-0.094,0.094-0.146,0.254-0.146,0.387s0.053,0.277,0.146,0.371
			L211.924,65.805z"/>
		<path style="fill:#39B54A;" d="M241,78.341c0,0.276-0.116,0.159,0.16,0.159h4.043c0.276,0,0.797,0.117,0.797-0.159v-8.562
			l7.111-7.259c0.094-0.094,0.072-0.221,0.072-0.354c0-0.133-0.09-0.26-0.184-0.354l-1.613-1.594
			c-0.082-0.082-0.199-0.133-0.314-0.144L250,59.972c-0.149-0.014-0.3,0.039-0.404,0.144l-8.618,8.788
			c-0.094,0.094,0.022,0.221,0.022,0.354V78.341z"/>
		<path style="fill:#39B54A;" d="M334.899,156.5h-2.039c-0.133,0-0.26-0.047-0.354,0.047s-0.146,0.17-0.146,0.303l0.003,8.982
			c0,0.133,0.053,0.247,0.146,0.341l5.64,5.634c0.094,0.094,0.221,0.144,0.354,0.144s0.26-0.054,0.354-0.147l3.134-3.135
			c0.195-0.195-0.004-0.513-0.199-0.708L335,161.369V156.8C335,156.523,335.176,156.5,334.899,156.5z"/>
		<path style="fill:#39B54A;" d="M329.624,168.384c-0.16,0.026-0.296,0.129-0.367,0.273l-0.311,0.635l-6.693,6.587
			c-0.094,0.094-0.253,0.221-0.253,0.354v6.076c0,0.276,0.437,0.191,0.713,0.191h4.378c0.133,0,0.26,0.102,0.354,0.008l3.204-2.922
			c0.094-0.094,0.352-0.144,0.352-0.276v-4.848l2.146-2.351c0.195-0.195-0.01-0.512-0.205-0.707l-2.881-2.881
			C329.945,168.409,329.783,168.355,329.624,168.384z"/>
		<path style="fill:#39B54A;" d="M319.218,181.793c-0.003-0.136-0.061-0.265-0.16-0.356l-10.57-9.8
			c-0.196-0.184-0.503-0.179-0.693,0.013l-2.206,2.205c-0.094,0.094-0.146,0.221-0.146,0.354s0.053,0.26,0.146,0.354l10.186,10.186
			c0.098,0.098,0.226,0.146,0.354,0.146s0.256-0.049,0.354-0.146l2.591-2.591C319.167,182.061,319.221,181.929,319.218,181.793z"/>
		<path style="fill:#39B54A;" d="M350.938,183.633l2.867,3.769c0.094,0.124,0.158,0.099,0.314,0.099h10.328
			c0.202,0,0.385-0.023,0.462-0.21s0.034-0.398-0.108-0.541l-7.016-7.012c-0.094-0.094-0.221-0.237-0.354-0.237h-6.262
			c-0.276,0-0.17,0.405-0.17,0.682v3.148C351,183.439,350.871,183.546,350.938,183.633z"/>
		<path style="fill:#39B54A;" d="M340.101,177.59c0.143-0.143,0.269-0.477,0.192-0.663c-0.078-0.187-0.177-0.427-0.379-0.427h-5.078
			c-0.114,0-0.225,0.157-0.313,0.229l-2.093,1.545c-0.117,0.096-0.43,0.298-0.43,0.449v4.592c0,0.276,0.711,0.186,0.987,0.186h3.847
			c0.276,0,0.166,0.091,0.166-0.186v-2.791L340.101,177.59z"/>
		<path style="fill:#39B54A;" d="M305.771,50.5h4.067c0.133,0,0.26,0.081,0.354-0.013l4.223-4.155
			c0.146-0.146,0.188-0.335,0.103-0.524c-0.083-0.188-0.256-0.29-0.484-0.278l-8.426,0.472c-0.265,0.015-0.607,0.242-0.607,0.507
			v3.759C305,50.544,305.495,50.5,305.771,50.5z"/>
		<path style="fill:#39B54A;" d="M259.943,43.68l2.31,2.588l3.567,3.327c0.094,0.094,0.221-0.094,0.354-0.094h6.501
			c0.276,0,0.325,0.258,0.325-0.019v-5.315c0-0.276-0.049-0.667-0.325-0.667h-6.604l-5.612-5.529
			c-0.143-0.143-0.161-0.144-0.347-0.066c-0.188,0.077-0.111,0.301-0.111,0.503v4.924C260,43.461,259.854,43.586,259.943,43.68z"/>
		<path style="fill:#39B54A;" d="M164,182.309c0-0.276,0.173-0.809-0.103-0.809h-7.185l-3.411-3.132
			c-0.094-0.094-0.221,0.132-0.354,0.132H146v-2.604c0-0.133,0.171-0.26,0.077-0.354l-3.791-3.898
			c-0.094-0.094-0.109-0.145-0.242-0.145h-4.035l-4.813-4.834c-0.094-0.094-0.221-0.166-0.354-0.166H127v-2.652
			c0-0.276,0.057-0.348-0.219-0.348h-7.588c-0.276,0-0.192,0.071-0.192,0.348v2.652h-6.015L110,163.623v-3.142
			c0-0.276,0.21-0.981-0.066-0.981H105v-3.76l2.152-2.177c0.195-0.195,0.184-0.512-0.012-0.707l-1.927-1.921
			c-0.195-0.195-0.515-0.195-0.71,0l-2.469,2.581c-0.094,0.094-0.035,0.221-0.035,0.354v2.63h-3.24L95,152.893v-6.625l3.559-3.768
			h8.47l4.436,4.645c0.094,0.094,0.221,0.355,0.354,0.355h4.347c0.202,0,0.385-0.166,0.462-0.354
			c0.078-0.186,0.035-0.557-0.108-0.699l-3.792-3.947h1.098c0.133,0,0.26,0.08,0.354-0.014l5.835-5.928
			c0.094-0.094-0.013-0.154-0.013-0.287v-4.858l6.452-5.914h8.234c0.133,0,0.26-0.163,0.354-0.257l4.197-4.252
			c0.143-0.143,0.186-0.176,0.108-0.364c-0.077-0.187-0.26-0.127-0.462-0.127H136v-3.304c0-0.276-0.199-0.696-0.476-0.696H132v-2
			h10.489c0.133,0,0.26-0.149,0.354-0.243l2.933-2.981c0.094-0.094,0.146-0.245,0.146-0.377s0.002-0.271-0.092-0.365l-3.83-3.896
			v-8.218c0-0.202-0.177-0.385-0.363-0.462c-0.187-0.078-0.429,0.038-0.572,0.181l-3.316,3.361H135v-4.046
			c0-0.133,0.084-0.26-0.01-0.354l-3.034-3.278c-0.094-0.094-0.152-0.322-0.285-0.322h-4.232c-0.276,0-0.439,0.575-0.439,0.852
			v7.976l-3.933,4.012c-0.094,0.094-0.067,0.221-0.067,0.354v3.807h-2v-3.414c0-0.133-0.282-0.26-0.376-0.354l-5.562-5.267
			c-0.094-0.094-0.335,0.034-0.468,0.034H111v-5.348l8.094-8.652H122v2.498c0,0.276-0.1,0.502,0.177,0.502h3.691
			c0.276,0,0.132-0.226,0.132-0.502v-5.914l3.801-3.617c0.094-0.094,0.238-0.221,0.238-0.354s-0.007-0.26-0.101-0.354l-2.875-2.897
			c-0.195-0.195-0.555-0.195-0.75,0L123,80.133v-8.808c0-0.276-0.114-0.825-0.39-0.825h-4.408c-0.276,0-0.202,0.548-0.202,0.825
			V78.5h-9.686l-3.427-3.64c-0.094-0.094-0.221-0.36-0.354-0.36H101v-2.796c0-0.133,0.107-0.26,0.014-0.354l-7.594-7.689
			c-0.094-0.094-0.141-0.161-0.273-0.161H80.834L70.413,52.863c-0.094-0.094-0.221-0.363-0.354-0.363h-8.555
			c-0.133,0-0.26,0.284-0.354,0.378l-7.226,7.562C53.831,60.534,54,60.777,54,60.91v5.59h-6.107C47.616,66.5,47,67.203,47,67.479
			V74.5h-4.785C41.938,74.5,42,74.264,42,74.54v7.632c0,0.133-0.09,0.26,0.004,0.354l4.41,4.275l-4.977,4.7H29.222
			C28.946,91.5,29,92.135,29,92.411v5.477c0,0.276-0.054,0.612,0.222,0.612h12.455c0.133,0,0.26,0.008,0.354-0.086l9.975-9.914
			h7.536L67,95.238v3.863c0,0.133,0.034,0.26,0.127,0.354L72,104.346v4.527c0,0.242,0.074,0.45,0.312,0.492l1.688,0.32v3.584
			l-3.831,3.808c-0.094,0.094-0.169,0.221-0.169,0.354v15.072c0,0.133-0.084,0.26,0.01,0.354l4.99,5.127v6.83
			c0,0.133,0.087,0.26,0.181,0.354l6.006,6.087c0.094,0.094,0.238,0.246,0.371,0.246H85v4.248c0,0.133-0.038,0.26,0.056,0.354
			l2.476,2.387c0.094,0.094,0.175,0.012,0.308,0.012h3.791l2.303,2.578c0.094,0.094,0.221,0.422,0.354,0.422h4.178l5.713,5.783
			c0.094,0.094,0.221,0.217,0.354,0.217h3.29l3.657,3.256c0.094,0.094,0.221-0.256,0.354-0.256H116v3.706l-3.997,4.142
			c-0.094,0.094-0.003,0.221-0.003,0.354v6.639c0,0.133-0.165,0.26-0.071,0.354l5.071,5.289v3.563c0,0.133,0.108,0.26,0.202,0.354
			l6.798,6.741v38.685c0,0.133-0.011,0.26,0.083,0.354l7.484,7.517c0.098,0.098,0.21,0.146,0.338,0.146s0.248-0.049,0.345-0.146
			l1.704-1.805c0.094-0.094,0.045-0.221,0.045-0.354v-18.394l3.767-3.144h5.612c0.276,0,0.621-0.653,0.621-0.93v-6.996l5.737-5.621
			c0.094-0.094,0.263-0.221,0.263-0.354v-3.438l6.575-6.662h1.638c0.276,0,0.787-0.49,0.787-0.767v-7.082l5.195-5.537
			c0.094-0.094-0.195-0.221-0.195-0.354V182.309z"/>
		<path style="fill:#39B54A;" d="M144.458,113.856l-4.316,4.426c-0.094,0.094-0.142,0.325-0.142,0.458v1.6
			c0,0.276,0.214,0.16,0.49,0.16h6.631c0.276,0,0.878,0.116,0.878-0.16v-5.921c0-0.276-0.602-0.919-0.878-0.919h-2.311
			C144.678,113.5,144.551,113.762,144.458,113.856z"/>
		<path style="fill:#39B54A;" d="M97.356,64.987c0.098,0.098,0.226,0.146,0.354,0.146s0.256-0.049,0.354-0.146l6.861-6.861
			c0.143-0.143,0.186-0.244,0.108-0.431c-0.077-0.187-0.26-0.195-0.462-0.195h-4.116c-0.133,0-0.26-0.061-0.354,0.033l-4.54,4.487
			l-0.247,0.168c-0.111,0.089-0.18,0.207-0.188,0.349c-0.008,0.142,0.045,0.274,0.146,0.375L97.356,64.987z"/>
		<path style="fill:#39B54A;" d="M114.6,60.872l-3.857,3.857l-4.529-3.923c-0.198-0.172-0.496-0.161-0.681,0.024l-4.786,4.786
			c-0.195,0.195-0.195,0.512,0,0.707l7.399,7.214c0.094,0.094,0.221-0.039,0.354-0.039h4.289c0.276,0,0.211,0.146,0.211-0.13v-4.856
			l4.621-4.477c0.195-0.195,0.268-0.512,0.072-0.707l-2.422-2.458C115.083,60.685,114.788,60.685,114.6,60.872z"/>
		<path style="fill:#39B54A;" d="M183,79.972v-6.946l3.849-3.844c0.094-0.094,0.151-0.221,0.151-0.354v-9.695l6.553-6.426
			c0.094-0.094,0.21-0.221,0.21-0.354s-0.021-0.26-0.115-0.354l-10.664-10.517c-0.094-0.094-0.205,0.016-0.337,0.016h-8.701
			c-0.133,0-0.26-0.288-0.354-0.194L170.06,44.5h-7.885c-0.133,0-0.26,0.23-0.354,0.324l-9.345,9.435l-5.822,0.326
			c-0.267,0.013-0.654,0.277-0.654,0.544v6.708c0,0.276,0.582,0.664,0.858,0.664h5.687L155,64.78v16.633l-3.755,3.656
			C151.151,85.163,151,85.29,151,85.422v6.934c0,0.133,0.146,0.26,0.24,0.354l6.832,6.714c0.094,0.094,0.267,0.076,0.4,0.076h5.426
			c0.276,0,0.103-0.083,0.103-0.359v-7.996l6.529-5.645h7.695c0.133,0,0.26-0.296,0.354-0.39l4.409-4.663
			C183.08,80.354,183,80.104,183,79.972z"/>
		<path style="fill:#39B54A;" d="M183.075,95.178l3.977-4.064c0.094-0.094,0.146-0.265,0.146-0.397s-0.053-0.282-0.146-0.375
			l-0.841-0.853c-0.098-0.098-0.239-0.165-0.37-0.151l-6.487,0.208c-0.27,0.008-0.354,0.227-0.354,0.497v4.607
			c0,0.276-0.036,0.852,0.24,0.852h3.481C182.854,95.5,182.981,95.271,183.075,95.178z"/>
		<path style="fill:#39B54A;" d="M131.026,60.5h11.14c0.276,0,0.834-0.301,0.834-0.577v-4.126L153.377,45.5h7.312
			c0.276,0,0.311-0.639,0.311-0.915v-6.177c0-0.267-0.115-0.418-0.382-0.43L148.936,37.5h-11.717c-0.133,0-0.26-0.017-0.354,0.077
			l-3.766,3.779C133.005,41.45,133,41.542,133,41.675v6.166c0,0.133,0.102,0.26,0.195,0.354L135,49.951V54.5h-3.974
			c-0.276,0-0.026,0.269-0.026,0.545v4.878C131,60.199,130.75,60.5,131.026,60.5z"/>
		<path style="fill:#39B54A;" d="M123.992,71.812c0,0.133,0.025,0.26,0.119,0.354L133,81.082v3.971l-2.835,2.863
			c-0.195,0.195-0.181,0.512,0.014,0.707l8.21,8.203c0.094,0.094,0.224,0.146,0.357,0.146s0.261-0.053,0.355-0.146l5.385-5.385
			c0.195-0.195,0.196-0.512,0-0.707l-3.825-3.825l0.195-0.195l1.735,1.735c0.195,0.195,0.512,0.195,0.707,0l2.523-2.523
			c0.195-0.195,0.195-0.512,0-0.707l-4.288-4.288l1.998-1.998c0.094-0.094,0.146-0.221,0.146-0.354c0-0.133-0.053-0.26-0.147-0.354
			l-12.764-12.69c-0.196-0.195-0.511-0.194-0.706,0.001l-5.923,5.923C124.045,71.552,123.992,71.679,123.992,71.812z"/>
		<path style="fill:#39B54A;" d="M110.795,58.507c0.093,0.138,0.249-0.007,0.415-0.007h5.088c0.276,0,0.702,0.231,0.702-0.045
			v-5.606c0-0.133-0.154-0.26-0.248-0.354l-6.236-6.185c-0.195-0.195-0.537-0.195-0.732,0l-4.108,4.095
			c-0.169,0.169-0.201,0.321-0.067,0.52L110.795,58.507z"/>
		<path style="fill:#39B54A;" d="M120,58.728c0,0.276,0.062,0.772,0.338,0.772h2.848c0.133,0,0.26-0.188,0.354-0.282l3.785-3.853
			c0.142-0.142,0.186-0.389,0.11-0.576c-0.076-0.186-0.256-0.326-0.457-0.329l-6.632-0.094c-0.119,0.001-0.182,0.047-0.276,0.14
			c-0.096,0.094-0.068,0.218-0.068,0.352V58.728z"/>
		<path style="fill:#39B54A;" d="M128.217,64.369c-0.053-0.176-0.199-0.309-0.379-0.346l-4.255-0.871
			c-0.167-0.034-0.335,0.017-0.454,0.136l-5.326,5.326c-0.143,0.143-0.186,0.374-0.108,0.561c0.077,0.187,0.26,0.325,0.462,0.325
			h5.126c0.133,0,0.26-0.069,0.354-0.163l4.455-4.463C128.222,64.744,128.27,64.545,128.217,64.369z"/>
		<path style="fill:#39B54A;" d="M120.979,50.368l3.144,1.274c0.066,0.031,0.138-0.142,0.211-0.142h4.599
			c0.054,0,0.077,0.008,0.099,0.015c-0.017-0.023-0.031-0.063-0.031-0.138v-5.685c0-0.276,0.209-0.192-0.067-0.192h-3.521
			c-0.133,0-0.26-0.101-0.354-0.007l-4.223,4.145c-0.115,0.115-0.167,0.242-0.139,0.402
			C120.726,50.201,120.831,50.299,120.979,50.368z"/>
		<path style="fill:#39B54A;" d="M128.891,155.5h-4.525l-4.185-4.02c-0.094-0.094-0.221,0.02-0.354,0.02h-9.353
			c-0.132,0-0.26-0.15-0.354-0.057l-1.289,1.186c-0.145,0.145-0.187,0.313-0.105,0.502c0.081,0.188,0.283,0.29,0.475,0.275
			l6.283-0.222l4.749,4.959c0.094,0.094,0.221,0.356,0.354,0.356h8.302c0.276,0,0.109-0.656,0.109-0.933v-1.644
			C129,155.647,129.167,155.5,128.891,155.5z"/>
	</g>
</g>
<g id="Ice">
	<path style="fill:#CFEDFF;" d="M0.021,280.5c7.289,0,36.186-7.351,51.031-7.351s17.325,7.835,29.283,7.835
		s13.611-7.835,20.209-7.835s12.919,7.01,19.795,7.01s32.578,4.536,48.661,4.536s12.928-14.021,31-14.021
		c18.073,0,11.611,10.31,20.959,10.31s25.166-10.31,35.676-10.31s23.841,9.897,37.727,9.897s17.216-11.959,29.639-11.959
		s55.588,11.887,76,11.887v11H0L0.021,280.5z"/>
	<path style="fill:#CFEDFF;" d="M-4.098,3.75c6.051,0,66.402,5.216,81.63,5.216s19.717-6.034,27.563-6.034
		s26.038,7.755,42.091,7.755s32.125-7.802,50.006-7.802c17.881,0,31.604,7.779,45.625,7.779s34.046-7.159,49.071-7.159
		s47.194,6.665,64.755,6.665c16.804,0,28.877-5.684,41.628-6.26c0.574-0.026,1.15-0.04,1.729-0.04V-1.5H-4L-4.098,3.75z"/>
</g>
</svg>
