<?xml version="1.0" encoding="utf-8"?>
<!-- Generator: Adobe Illustrator 16.0.0, SVG Export Plug-In . SVG Version: 6.00 Build 0)  -->
<!DOCTYPE svg PUBLIC "-//W3C//DTD SVG 1.1//EN" "http://www.w3.org/Graphics/SVG/1.1/DTD/svg11.dtd">
<svg version="1.1" id="Layer_1" xmlns="http://www.w3.org/2000/svg" xmlns:xlink="http://www.w3.org/1999/xlink" x="0px" y="0px"
	 width="282.62px" height="77.743px" viewBox="0 0 282.62 77.743" enable-background="new 0 0 282.62 77.743" xml:space="preserve">
<g>
	<g>
		<path fill="#FFFFFF" d="M97.195,32.65c2.394-2.251,5.841-3.353,9-3.353c6.702,0,9.479,3.64,9.479,7.564v11.584
			c0,1.579,0.048,2.921,0.192,4.117h-3.83c-0.095-1.149-0.144-2.297-0.144-3.446h-0.095c-1.915,2.921-4.5,4.021-7.947,4.021
			c-4.212,0-7.851-2.396-7.851-6.799c0-5.841,5.601-7.851,12.494-7.851h3.159v-0.957c0-2.346-1.722-4.787-5.41-4.787
			c-3.303,0-4.882,1.388-6.462,2.585L97.195,32.65z M109.355,41.649c-4.069,0-9.047,0.719-9.047,4.355
			c0,2.586,1.915,3.686,4.882,3.686c4.787,0,6.462-3.541,6.462-6.605v-1.436H109.355z"/>
		<path fill="#FFFFFF" d="M121.948,29.874h4.308v3.493h0.096c1.102-2.394,3.973-4.069,6.798-4.069c0.67,0,1.34,0.096,1.914,0.287
			l-0.189,4.645c-0.719-0.192-1.437-0.335-2.107-0.335c-4.211,0-6.51,2.297-6.51,7.275v11.394h-4.308V29.874z"/>
		<path fill="#FFFFFF" d="M153.976,35.905c-1.58-1.676-3.256-2.539-5.649-2.539c-4.691,0-7.084,3.782-7.084,8.043
			c0,4.259,2.873,7.707,7.324,7.707c2.394,0,4.069-0.86,5.504-2.537l3.064,3.064c-2.249,2.487-5.314,3.494-8.617,3.494
			c-6.988,0-11.871-4.835-11.871-11.824c0-6.988,4.788-11.968,11.871-11.968c3.303,0,6.464,1.15,8.713,3.592L153.976,35.905z"/>
		<path fill="#FFFFFF" d="M160.823,16.373h4.31v16.994h0.096c1.101-2.394,3.974-4.069,7.469-4.069c4.403,0,8.232,2.634,8.232,8.666
			v14.6h-4.309V39.158c0-4.259-2.44-5.838-5.17-5.838c-3.591,0-6.318,2.297-6.318,7.562v11.681h-4.31V16.373z"/>
		<path fill="#FFFFFF" d="M188.018,18.576c1.724,0,3.16,1.436,3.16,3.16c0,1.722-1.437,3.159-3.16,3.159s-3.161-1.437-3.161-3.159
			C184.857,20.012,186.294,18.576,188.018,18.576z M185.863,29.874h4.31v22.689h-4.31V29.874z"/>
		<path fill="#FFFFFF" d="M210.137,33.607h-6.177v10.291c0,2.538,0,5.219,3.255,5.219c1.005,0,2.203-0.144,3.064-0.671v3.926
			c-1.006,0.574-3.017,0.767-3.877,0.767c-6.655,0-6.749-4.069-6.749-7.708V33.607h-4.98v-3.733h4.98v-6.368h4.307v6.368h6.177
			V33.607z"/>
		<path fill="#FFFFFF" d="M217.031,42.798c0,3.973,3.687,6.605,7.66,6.605c2.633,0,4.548-1.341,6.223-3.399l3.255,2.49
			c-2.393,3.111-5.696,4.644-10.053,4.644c-7.181,0-11.681-5.172-11.681-11.921c0-6.797,4.931-11.919,11.729-11.919
			c7.993,0,11.056,6.128,11.056,11.968v1.532H217.031z M230.625,39.352c-0.096-3.782-2.202-6.606-6.558-6.606
			c-4.261,0-7.037,3.59-7.037,6.606H230.625z"/>
		<path fill="#FFFFFF" d="M255.667,35.905c-1.582-1.676-3.256-2.539-5.65-2.539c-4.69,0-7.084,3.782-7.084,8.043
			c0,4.259,2.874,7.707,7.324,7.707c2.395,0,4.068-0.86,5.505-2.537l3.063,3.064c-2.249,2.487-5.312,3.494-8.616,3.494
			c-6.99,0-11.871-4.835-11.871-11.824c0-6.988,4.787-11.968,11.871-11.968c3.304,0,6.464,1.15,8.713,3.592L255.667,35.905z"/>
		<path fill="#FFFFFF" d="M262.514,16.373h4.31v16.994h0.097c1.1-2.394,3.973-4.069,7.467-4.069c4.404,0,8.232,2.634,8.232,8.666
			v14.6h-4.307V39.158c0-4.259-2.442-5.838-5.171-5.838c-3.589,0-6.318,2.297-6.318,7.562v11.681h-4.31V16.373z"/>
	</g>
	<g>
		<path fill="#FFFFFF" d="M20.919,40.594c1.317-0.672,2.716-1.279,4.188-1.814c1.248-0.457,2.549-0.857,3.894-1.21
			c3.853-1,8.072-1.555,12.496-1.555c3.713,0,7.278,0.396,10.607,1.114c0.005-0.021,0.013-0.042,0.018-0.064
			c0.352-1.277,0.64-2.55,0.858-3.79c0.253-1.44,0.419-2.884,0.496-4.29c0.006-0.122,0.009-0.237,0.014-0.357
			c-3.8-0.813-7.827-1.255-12.001-1.255c-4.877,0-9.557,0.597-13.903,1.694c-0.979,0.246-1.94,0.517-2.884,0.814
			c-1.892,0.594-3.711,1.284-5.442,2.063c-4.059,1.828-7.637,4.144-10.575,6.826c-1.847,1.687-3.439,3.521-4.738,5.472
			c-2.389,3.588-3.785,7.57-3.933,11.773C0.005,56.264,0,56.514,0,56.768c0,0.25,0.005,0.5,0.013,0.748
			c0.121,3.421,1.069,6.697,2.706,9.732c1.617,2.619,3.673,4.857,6.16,6.6c0.502,0.352,1.02,0.686,1.559,0.996
			c5.892,3.4,12.95,3.707,20.003,1.451c3.161-1.008,6.321-2.541,9.376-4.531c-1.426-1.056-2.832-2.211-4.179-3.445
			c-0.75-0.693-1.501-1.422-2.231-2.173c-0.098-0.1-0.192-0.208-0.289-0.31c-6.01,3.399-12.182,4.326-17.182,2.074
			c-0.404-0.182-0.802-0.384-1.19-0.608c-0.415-0.236-0.811-0.499-1.191-0.777c-1.337-0.976-2.478-2.185-3.417-3.591
			c-0.962-1.95-1.479-4.024-1.479-6.176C8.658,50.225,13.443,44.397,20.919,40.594"/>
		<path fill="#FFFFFF" d="M48.169,64.788c-1.237-0.805-2.463-1.711-3.663-2.719c-1.019-0.854-2.019-1.776-2.994-2.766
			c-2.794-2.838-5.384-6.213-7.597-10.043c-1.856-3.217-3.296-6.503-4.339-9.744c-0.021,0.005-0.042,0.01-0.064,0.016
			c-1.28,0.332-2.528,0.721-3.71,1.152c-1.375,0.499-2.709,1.078-3.963,1.715c-0.108,0.055-0.211,0.11-0.317,0.168
			c1.196,3.695,2.827,7.405,4.915,11.02c2.439,4.225,5.295,7.977,8.418,11.193c0.703,0.725,1.419,1.422,2.148,2.09
			c1.459,1.344,2.967,2.572,4.508,3.681c3.612,2.601,7.406,4.544,11.199,5.745c2.384,0.756,4.768,1.221,7.106,1.369
			c4.302,0.274,8.449-0.511,12.165-2.484c0.22-0.113,0.438-0.234,0.656-0.361c0.217-0.127,0.432-0.256,0.643-0.385
			c2.903-1.814,5.265-4.275,7.075-7.211c1.459-2.707,2.369-5.61,2.635-8.634c0.054-0.61,0.084-1.228,0.084-1.847
			c0-6.807-3.265-13.068-8.745-18.05c-2.455-2.232-5.36-4.204-8.612-5.853c-0.202,1.762-0.499,3.558-0.896,5.341
			c-0.223,0.994-0.48,2.011-0.767,3.016c-0.038,0.136-0.083,0.272-0.121,0.408c5.949,3.505,9.837,8.386,10.385,13.841
			c0.045,0.442,0.07,0.887,0.07,1.336c0,0.477-0.027,0.951-0.078,1.42c-0.176,1.646-0.654,3.238-1.402,4.756
			c-1.208,1.805-2.746,3.293-4.607,4.369C62.641,70.594,55.201,69.364,48.169,64.788"/>
		<path fill="#FFFFFF" d="M55.488,29.088c-0.078,1.476-0.25,2.992-0.521,4.535c-0.231,1.308-0.532,2.635-0.902,3.975
			c-1.058,3.838-2.687,7.77-4.899,11.602c-1.856,3.216-3.981,6.103-6.267,8.63c0.016,0.015,0.03,0.03,0.046,0.047
			c0.927,0.94,1.888,1.828,2.852,2.639c1.121,0.94,2.289,1.805,3.468,2.573c0.1,0.066,0.201,0.127,0.301,0.191
			c2.604-2.885,5.001-6.152,7.088-9.768c2.438-4.224,4.26-8.576,5.485-12.887c0.275-0.969,0.521-1.941,0.736-2.905
			c0.432-1.934,0.743-3.855,0.932-5.743c0.447-4.429,0.233-8.685-0.623-12.571c-0.538-2.443-1.33-4.739-2.37-6.839
			c-1.912-3.862-4.665-7.062-8.23-9.293c-0.212-0.132-0.426-0.261-0.643-0.386c-0.217-0.125-0.436-0.247-0.657-0.363
			C48.262,0.916,44.951,0.102,41.505,0c-3.075,0.09-6.043,0.752-8.795,2.035c-0.556,0.26-1.104,0.541-1.641,0.852
			c-5.894,3.401-9.685,9.361-11.26,16.597c-0.707,3.244-0.96,6.745-0.763,10.384c1.627-0.707,3.329-1.344,5.075-1.892
			c0.972-0.307,1.98-0.592,2.995-0.847c0.137-0.035,0.276-0.065,0.414-0.098c0.059-6.903,2.343-12.711,6.794-15.916
			c0.36-0.259,0.732-0.502,1.121-0.727c0.415-0.239,0.838-0.451,1.27-0.643c1.513-0.669,3.13-1.052,4.818-1.163
			c2.17,0.142,4.226,0.73,6.087,1.806C53.279,13.656,55.935,20.713,55.488,29.088"/>
	</g>
</g>
</svg>
