<?xml version="1.0" encoding="utf-8"?>
<!-- Generator: Adobe Illustrator 16.0.0, SVG Export Plug-In . SVG Version: 6.00 Build 0)  -->
<!DOCTYPE svg PUBLIC "-//W3C//DTD SVG 1.1//EN" "http://www.w3.org/Graphics/SVG/1.1/DTD/svg11.dtd">
<svg version="1.1"
	 id="svg4843" xmlns:svg="http://www.w3.org/2000/svg" sodipodi:docname="drawing.svg" inkscape:version="0.48.2 r9819" xmlns:cc="http://creativecommons.org/ns#" xmlns:dc="http://purl.org/dc/elements/1.1/" xmlns:rdf="http://www.w3.org/1999/02/22-rdf-syntax-ns#" xmlns:sodipodi="http://sodipodi.sourceforge.net/DTD/sodipodi-0.dtd" xmlns:inkscape="http://www.inkscape.org/namespaces/inkscape"
	 xmlns="http://www.w3.org/2000/svg" xmlns:xlink="http://www.w3.org/1999/xlink" x="0px" y="0px" width="1000px"
	 height="167.086px" viewBox="0 0 1000 167.086" enable-background="new 0 0 1000 167.086" xml:space="preserve">
<sodipodi:namedview  fit-margin-bottom="0.5" inkscape:pageshadow="2" inkscape:pageopacity="0.0" inkscape:document-units="px" inkscape:current-layer="g4585" inkscape:window-maximized="1" inkscape:window-width="1920" inkscape:window-x="-8" fit-margin-right="0.5" inkscape:window-y="-8" inkscape:window-height="1028" inkscape:cx="1010.9794" inkscape:zoom="0.35" fit-margin-top="0.5" bordercolor="#666666" borderopacity="1.0" showgrid="false" id="base" pagecolor="#ffffff" fit-margin-left="0.5" inkscape:cy="-454.71711">
	</sodipodi:namedview>
<g id="g3719" transform="translate(1678.0568,77.434471)">
	<path id="path3721" inkscape:connector-curvature="0" fill="#FFFFFF" d="M-1421.394-30.016l-16.447,38.399h33.039L-1421.394-30.016
		z M-1371.083,46.485h-17.815l-9.736-23.158h-45.383l-9.872,23.158h-17.271l42.231-96.652h15.615L-1371.083,46.485z"/>
</g>
<g id="g3723" transform="translate(1702.2941,68.429171)">
	<path id="path3725" inkscape:connector-curvature="0" fill="#FFFFFF" d="M-1239.724,55.495h-17.008v-80.342h-30.439v-15.632h79.246
		l-6.533,15.632h-25.266V55.495z"/>
</g>
<g id="g3727" transform="translate(1740.2972,77.886371)">
	<path id="path3729" inkscape:connector-curvature="0" fill="#FFFFFF" d="M-954.872-34.307h-51.397v24.408h32.92V5.198h-32.92
		v25.503h51.423v15.335h-68.397v-95.974h68.372V-34.307z"/>
</g>
<path id="path3731" inkscape:connector-curvature="0" fill="#FFFFFF" d="M905.929,123.928h-16.082V27.955h16.082V123.928z"/>
<linearGradient id="path4460_1_" gradientUnits="userSpaceOnUse" x1="-298.6479" y1="-2235.7896" x2="247.0545" y2="-2127.0593" gradientTransform="matrix(0.1741 0 0 -0.1741 66.0761 -247.7963)">
	<stop  offset="0" style="stop-color:#2B7A77"/>
	<stop  offset="0.5105" style="stop-color:#4EBAA9"/>
	<stop  offset="1" style="stop-color:#5CC2B1"/>
</linearGradient>
<path id="path4460" sodipodi:nodetypes="ccccccccc" inkscape:connector-curvature="0" fill="url(#path4460_1_)" d="M33.084,166.586
	c-4.726,0-7.182-1.783-9.54-5.924L2.008,120.738c-1.484-2.861-1.508-3.813-1.508-5.875l33.848,1.492l7.747,7.746h67.894
	l-56.373,34.922C50.868,160.648,40.417,166.586,33.084,166.586z"/>
<linearGradient id="path4458_1_" gradientUnits="userSpaceOnUse" x1="-4.7637" y1="-1505.1299" x2="-275.5609" y2="-2141.0933" gradientTransform="matrix(0.1741 0 0 -0.1741 66.0761 -247.7963)">
	<stop  offset="0" style="stop-color:#236736"/>
	<stop  offset="0.4928" style="stop-color:#6BA443"/>
	<stop  offset="1" style="stop-color:#86C146"/>
</linearGradient>
<path id="path4458" sodipodi:nodetypes="cccccccccccccc" inkscape:connector-curvature="0" fill="url(#path4458_1_)" d="
	M42.125,124.102H12.848c-8.843,0-12.348-4.625-12.348-9.238c0-2.92,0.939-4.512,2.238-7.756L45.405,5.25l0.458-0.894l0.591-0.917
	l1.228-1.197l1.803-0.963l2.611-0.575l4.492,0.117l29.649,11.02L76.213,43.456L42.125,124.102z"/>
<linearGradient id="path4456_1_" gradientUnits="userSpaceOnUse" x1="54.7275" y1="-1444.1411" x2="452.7213" y2="-2391.9409" gradientTransform="matrix(0.1741 0 0 -0.1741 66.0761 -247.7963)">
	<stop  offset="0" style="stop-color:#29A5E3"/>
	<stop  offset="0.5155" style="stop-color:#356EB9"/>
	<stop  offset="1" style="stop-color:#394DA5"/>
</linearGradient>
<path id="path4456" sodipodi:nodetypes="ccccccccc" inkscape:connector-curvature="0" fill="url(#path4456_1_)" d="M128.094,166.58
	L60.747,7.146c-1.16-2.715-3.02-6.218-7.833-6.218c-4.302,0-6.351,2.083-7.508,4.321c0.599-1.614,2.409-4.75,7.657-4.75h46.481
	c4.284,0,6.338,2.522,7.275,4.832l68.105,161.249H128.094z"/>
<g id="g3741" transform="translate(736.1471,50.6673)">
	<path id="path3743" inkscape:connector-curvature="0" fill="#FFFFFF" d="M101.402-8.867c-9.804,0-18.138,2.965-18.18,9.473
		c-0.051,7.62,4.731,10.263,22.785,16.133c19.947,6.559,30.541,13.228,30.431,29.454c-0.103,18.291-14.238,28.723-34.883,28.723
		c-14.612,0-27.712-4.74-37.703-13.524l6.219-15.054c9.065,7.595,20.05,12.98,31.918,13.031c10.39,0.051,17.78-5.004,17.78-12.488
		c0-6.261-3.618-10.424-21.128-15.971C78.558,24.324,66.426,17.46,66.529,1.106c0.118-16.269,15.376-25.52,34.56-25.427
		c19.19,0.093,29.997,7.111,31.637,8.062l-6.032,13.687C122.777-4.688,114.188-8.867,101.402-8.867"/>
</g>
<g id="g3745" transform="translate(746.6359,46.8288)">
	<path id="path3747" inkscape:connector-curvature="0" fill="#FFFFFF" d="M180.02,27.581l42.962-46.461h-20.584l-43.106,46.461
		l47.371,49.529h20.864L180.02,27.581z"/>
</g>
<g id="g3749" transform="translate(701.8704,42.6286)">
	<path id="path3751" inkscape:connector-curvature="0" fill="#FFFFFF" d="M-155.518,67.464c-18.86,0-32.631-15.284-32.631-34.144
		c0-18.86,13.771-34.152,32.631-34.152s32.64,15.292,32.64,34.152C-122.878,52.18-136.658,67.464-155.518,67.464 M-155.518-16.327
		c-27.415,0-49.631,22.232-49.631,49.647s22.216,49.631,49.631,49.631c27.406,0,49.639-22.216,49.639-49.631
		S-128.112-16.327-155.518-16.327"/>
</g>
<g id="g3753" transform="translate(714.0898,42.8078)">
	<path id="path3755" inkscape:connector-curvature="0" fill="#FFFFFF" d="M-63.928,65.763l-19.387,0.017V0.789h19.463
		c18.852,0,32.555,13.363,32.555,32.215S-45.085,65.763-63.928,65.763 M-63.928-14.851h-36.412v95.973l36.412-0.008
		c27.397,0,49.621-20.704,49.621-48.11C-14.307,5.589-36.53-14.851-63.928-14.851"/>
</g>
<g id="g3757" transform="translate(684.2415,46.0058)">
	<path id="path3759" inkscape:connector-curvature="0" fill="#FFFFFF" d="M-287.655,35.396c0,28.612-16.787,44.041-41.135,44.041
		c-24.34,0-41.127-15.429-41.127-44.041v-53.445h16.999v55.467c0,16.788,9.855,26.642,24.128,26.642
		c14.289,0,24.144-9.854,24.144-26.642v-55.467h16.991V35.396z"/>
</g>
<g id="g3625">
	<g id="g3631" transform="translate(755.0571,42.0247)">
		<path id="path3633" inkscape:connector-curvature="0" fill="#FFFFFF" d="M243.142,73.198c0,4.342-3.136,7.477-7.383,7.477
			c-4.23,0-7.383-3.135-7.383-7.477c0-4.341,3.152-7.484,7.383-7.484C240.006,65.714,243.142,68.857,243.142,73.198 M244.441,73.198
			c0-4.8-3.882-8.69-8.682-8.69c-4.774,0-8.674,3.891-8.674,8.69c0,4.801,3.899,8.683,8.674,8.683
			C240.559,81.881,244.441,77.999,244.441,73.198"/>
	</g>
	<g id="g3635" transform="translate(754.3766,42.2633)">
		<path id="path3637" inkscape:connector-curvature="0" fill="#FFFFFF" d="M238.04,70.932c0,1.283-1.062,1.42-2.09,1.42h-0.909
			v-2.847h1.343C237.599,69.505,238.04,70.092,238.04,70.932 M240.199,77.389l-2.099-2.947c-0.374-0.527-0.638-0.884-1.045-1.189
			c1.512-0.195,2.387-1.02,2.387-2.32c0-1.333-0.935-2.539-2.752-2.539h-2.939v8.996h1.291v-4.027c0.705,0,0.978,0.222,1.41,0.875
			l2.175,3.152H240.199z"/>
	</g>
</g>
</svg>
