<?xml version="1.0" encoding="iso-8859-1"?>
<!-- Generator: Adobe Illustrator 16.0.0, SVG Export Plug-In . SVG Version: 6.00 Build 0)  -->
<!DOCTYPE svg PUBLIC "-//W3C//DTD SVG 1.1//EN" "http://www.w3.org/Graphics/SVG/1.1/DTD/svg11.dtd">
<svg version="1.1" id="Layer_1" xmlns="http://www.w3.org/2000/svg" xmlns:xlink="http://www.w3.org/1999/xlink" x="0px" y="0px"
	 width="196.992px" height="144.227px" viewBox="0 0 196.992 144.227" style="enable-background:new 0 0 196.992 144.227;"
	 xml:space="preserve">
<path style="fill:#FFFFFF;" d="M190.547,137.392c0,1.264-1.024,2.288-2.288,2.288H10.752c-1.264,0-2.288-1.024-2.288-2.288V6.468
	c0-1.264,1.024-2.288,2.288-2.288h177.507c1.264,0,2.288,1.024,2.288,2.288V137.392z"/>
<path style="fill:#E7E7E6;" d="M190.547,6.468c0-1.264-1.024-2.288-2.288-2.288H10.752c-1.264,0-2.288,1.024-2.288,2.288V18.68
	h182.083V6.468z"/>
<path style="fill:#A5A4A4;" d="M34.308,11.393c0-0.151-0.064-0.289-0.167-0.387l-2.175-2.174c-0.208-0.209-0.548-0.209-0.756,0
	c-0.209,0.208-0.209,0.547,0,0.756l1.271,1.271h-4.232c-0.294,0-0.534,0.239-0.534,0.534s0.24,0.535,0.534,0.535h4.22l-1.258,1.257
	c-0.209,0.209-0.209,0.548,0,0.756c0.104,0.104,0.241,0.157,0.378,0.157s0.273-0.053,0.378-0.157l2.104-2.104
	C34.213,11.742,34.308,11.578,34.308,11.393z"/>
<path style="fill:#A5A4A4;" d="M15.908,11.38c0,0.151,0.064,0.288,0.167,0.386l2.175,2.175c0.209,0.209,0.547,0.209,0.756,0
	c0.208-0.208,0.208-0.547,0-0.756l-1.271-1.271h4.231c0.296,0,0.534-0.239,0.534-0.534s-0.238-0.535-0.534-0.535h-4.219l1.258-1.257
	c0.208-0.209,0.208-0.548,0-0.756c-0.104-0.104-0.241-0.157-0.378-0.157s-0.273,0.053-0.378,0.157l-2.104,2.104
	C16.003,11.031,15.908,11.194,15.908,11.38z"/>
<path style="fill:#A5A4A4;" d="M48.279,11.134c-0.029-0.062-0.093-0.101-0.161-0.101H47.33c-0.198-1.48-1.466-2.625-2.999-2.625
	c-1.67,0-3.029,1.358-3.029,3.029c0,1.67,1.359,3.029,3.029,3.029c0.295,0,0.535-0.239,0.535-0.534c0-0.296-0.24-0.535-0.535-0.535
	c-1.08,0-1.96-0.88-1.96-1.96c0-1.081,0.88-1.96,1.96-1.96c0.942,0,1.73,0.668,1.918,1.556h-1.062c-0.068,0-0.131,0.039-0.16,0.101
	c-0.03,0.062-0.021,0.137,0.022,0.188l1.465,1.812c0.034,0.042,0.085,0.066,0.139,0.066s0.105-0.024,0.139-0.066l1.466-1.812
	C48.3,11.271,48.308,11.196,48.279,11.134z"/>
<g>
	<path style="fill:#6B6B6B;" d="M69.035,48.741h2.315l1.835,4.833l1.942-4.833h2.339l1.367,9.043h-2.351l-0.659-5.205H75.8
		l-2.171,5.205h-0.936l-2.075-5.205h-0.023l-0.756,5.205H67.5L69.035,48.741z"/>
	<path style="fill:#6B6B6B;" d="M79.619,48.741h2.818l1.69,2.459l1.691-2.459h2.818l-3.334,4.701v4.342h-2.351v-4.342L79.619,48.741
		z"/>
	<path style="fill:#6B6B6B;" d="M98.049,50.732v1.511h2.579v1.991h-2.579v3.55h-2.351v-9.043h5.193v1.991H98.049z"/>
	<path style="fill:#6B6B6B;" d="M105.547,57.784h-2.351v-9.043h2.351V57.784z"/>
	<path style="fill:#6B6B6B;" d="M115.79,57.784h-2.926l-2.219-3.479h-0.024v3.479h-2.351v-9.043h3.514
		c1.787,0,3.143,0.852,3.143,2.782c0,1.247-0.695,2.327-1.979,2.555L115.79,57.784z M110.621,52.795h0.228
		c0.768,0,1.632-0.144,1.632-1.127s-0.864-1.128-1.632-1.128h-0.228V52.795z"/>
	<path style="fill:#6B6B6B;" d="M122.56,51.067c-0.432-0.359-0.983-0.6-1.559-0.6c-0.432,0-1.008,0.252-1.008,0.756
		c0,0.528,0.636,0.731,1.044,0.863l0.6,0.181c1.259,0.371,2.23,1.007,2.23,2.471c0,0.899-0.216,1.822-0.936,2.435
		c-0.707,0.6-1.655,0.852-2.566,0.852c-1.14,0-2.255-0.384-3.179-1.032l1.008-1.895c0.588,0.516,1.283,0.936,2.087,0.936
		c0.552,0,1.14-0.276,1.14-0.911c0-0.66-0.924-0.888-1.428-1.032c-1.475-0.419-2.446-0.803-2.446-2.555
		c0-1.835,1.308-3.034,3.118-3.034c0.911,0,2.027,0.288,2.83,0.744L122.56,51.067z"/>
	<path style="fill:#6B6B6B;" d="M129.688,57.784h-2.351v-7.052h-1.942v-1.991h6.236v1.991h-1.943V57.784z"/>
</g>
<g>
	<path style="fill:#7DC246;" d="M57.69,68.801L48.211,92.29L44.4,82.87l-3.81,9.42l-9.479-23.489l2.399,1.021l7.08,17.549l3.81-9.42
		l3.811,9.42l7.079-17.549L57.69,68.801z M40.591,86.681l-6.84-16.949l1.021-2.4l5.819,14.43l1.68-4.17l-2.939-7.32l2.37,1.021
		l2.55,6.3L40.591,86.681z M41.971,71.201l0.99-2.4l1.439,3.54l1.44-3.54l0.99,2.4l-2.431,6.06L41.971,71.201z M47.101,71.291
		l2.37-1.021l-2.94,7.32l1.681,4.17l5.819-14.43l1.02,2.4l-6.839,16.949l-3.66-9.09L47.101,71.291z"/>
	<path style="fill:#7DC246;" d="M74.079,90.43l1.86,1.86H62.26V68.741h13.68l-1.86,1.859H64.12V90.43H74.079z M66.22,72.701v5.55
		h7.859L72.25,80.08h-7.86v-9.239h9.689l1.86,1.86H66.22z M66.22,88.33h9.72l-1.86,1.86H64.39v-9.84h7.86l1.829,1.83H66.22V88.33z"
		/>
	<path style="fill:#7DC246;" d="M92.409,80.591c1.229,1.229,2.01,2.939,2.01,4.859c0,1.89-0.78,3.6-2.01,4.83
		c-1.261,1.26-2.971,2.01-4.86,2.01H80.68v-23.52h6.869c1.89,0,3.6,0.75,4.86,2.011c1.229,1.229,2.01,2.97,2.01,4.859
		s-0.78,3.6-2.01,4.86c-0.03,0-0.03,0.029-0.061,0.029C92.379,80.561,92.379,80.561,92.409,80.591z M92.589,85.42
		c0-2.369-1.68-4.38-3.899-4.89c2.22-0.51,3.899-2.52,3.899-4.89c0-2.79-2.25-5.04-5.04-5.04h-5.04V90.46h5.04
		C90.339,90.46,92.589,88.21,92.589,85.42z M82.779,80.41v-9.539h4.77c2.64,0,4.77,2.13,4.77,4.77c0,2.61-2.459,4.74-4.709,4.77
		H82.779z M92.318,85.42c0,2.641-2.13,4.771-4.77,4.771h-4.77v-9.54h4.83C90.219,80.711,92.318,82.811,92.318,85.42z M84.609,72.701
		v5.85h2.939c0.811,0,1.53-0.3,2.07-0.84s0.87-1.261,0.87-2.07s-0.33-1.56-0.87-2.069c-0.54-0.54-1.26-0.87-2.07-0.87H84.609z
		 M90.489,85.45c0-0.81-0.33-1.56-0.87-2.1c-0.51-0.51-1.23-0.84-2.04-0.84h-2.97v5.85h2.939c0.811,0,1.53-0.33,2.07-0.87
		C90.159,86.98,90.489,86.23,90.489,85.45z"/>
	<path style="fill:#7DC246;" d="M112.872,75.61v1.86l-1.859-1.86c0-2.76-2.25-5.01-5.01-5.01c-1.38,0-2.641,0.48-3.57,1.32
		c-0.96,0.9-1.47,2.1-1.47,3.45c0,2.64,2.49,4.56,4.979,5.279c2.4,0.72,4.8,2.55,4.8,5.04c0,2.55-2.04,4.5-4.739,4.5
		c-2.641,0-4.771-2.13-4.771-4.771l1.83-1.829v1.829c0,1.62,1.32,2.94,2.94,2.94c1.68,0,2.909-1.14,2.909-2.67
		c0-1.561-1.8-2.79-3.479-3.27c-1.53-0.45-2.97-1.261-4.05-2.25c-1.47-1.351-2.25-3.03-2.25-4.8c0-1.86,0.72-3.54,2.04-4.8
		c1.29-1.17,3-1.801,4.83-1.801C109.782,68.771,112.872,71.831,112.872,75.61z M112.872,85.69c0,1.83-0.75,3.54-2.069,4.77
		c-1.29,1.17-3,1.83-4.8,1.83c-3.811,0-6.87-3.09-6.87-6.87v-1.829l1.83,1.829c0,2.761,2.25,5.04,5.04,5.04
		c1.35,0,2.609-0.479,3.539-1.35c0.96-0.87,1.471-2.1,1.471-3.42c0-1.26-0.57-2.46-1.65-3.45c-0.87-0.81-2.069-1.47-3.33-1.83
		c-2.399-0.72-4.8-2.55-4.8-5.039c0-2.58,2.04-4.5,4.771-4.5c2.609,0,4.739,2.13,4.739,4.739v0.03l-1.83,1.83v-1.86
		c0-1.59-1.29-2.909-2.909-2.909c-1.71,0-2.94,1.109-2.94,2.67c0,1.649,2.07,2.85,3.48,3.27c1.529,0.45,2.999,1.26,4.079,2.25
		C112.092,82.24,112.872,83.891,112.872,85.69z"/>
	<path style="fill:#7DC246;" d="M119.372,70.601l-1.829-1.83h10.049l-1.829,1.83H119.372z M119.372,90.19l-1.829-1.83h3.06V72.701
		h-3.06l1.829-1.86h3.061v0.03V90.19H119.372z M125.763,90.46l1.829,1.83h-10.049l1.829-1.83H125.763z M127.592,72.701h-3.06V88.36
		h3.06l-1.829,1.83h-3.061v-19.35h3.061L127.592,72.701z"/>
	<path style="fill:#7DC246;" d="M146.204,68.771l-1.859,1.83h-10.05l-1.83-1.83H146.204z M137.354,92.29V72.701h-4.89l1.83-1.83
		h4.89V90.46L137.354,92.29z M144.345,70.871l1.859,1.83h-4.919V92.29l-1.83-1.83V70.871H144.345z"/>
	<path style="fill:#7DC246;" d="M162.809,90.43l1.86,1.86h-13.68V68.741h13.68l-1.86,1.859h-9.959V90.43H162.809z M154.949,72.701
		v5.55h7.859l-1.829,1.829h-7.86v-9.239h9.689l1.86,1.86H154.949z M154.949,88.33h9.72l-1.86,1.86h-9.689v-9.84h7.86l1.829,1.83
		h-7.859V88.33z"/>
</g>
</svg>
