<?xml version="1.0" encoding="utf-8"?>
<!-- Generator: Adobe Illustrator 15.1.0, SVG Export Plug-In . SVG Version: 6.00 Build 0)  -->
<svg version="1.2" baseProfile="tiny" id="Layer_1" xmlns="http://www.w3.org/2000/svg" xmlns:xlink="http://www.w3.org/1999/xlink"
	 x="0px" y="0px" width="191px" height="132px" viewBox="0 0 191 132" xml:space="preserve">
<path fill="#FFFFFF" d="M63.86,28.413H48.389v-0.155c-1.728-0.471-2.94-2.028-2.94-3.85c0-2.039,1.532-3.727,3.505-3.974
	c0.019-3.004,2.468-5.442,5.476-5.442c2.8,0,5.115,2.112,5.438,4.826c0.659-0.356,1.394-0.546,2.137-0.546
	c2.521,0,4.57,2.05,4.57,4.57c0,1.8-1.076,3.429-2.713,4.159v0.412H63.86z M49.279,27.413H62.86V27.31l0.333-0.118
	c1.423-0.506,2.38-1.852,2.38-3.35c0-1.969-1.602-3.57-3.57-3.57c-0.843,0-1.639,0.299-2.304,0.866L58.805,21.9l0.07-1.172
	c0.003-0.056,0.011-0.11,0.018-0.164c0.011-2.564-1.997-4.572-4.465-4.572c-2.468,0-4.475,2.008-4.475,4.476
	c0,0.072,0.011,0.141,0.021,0.209l0.068,0.73h-0.545c-0.003,0-0.006,0-0.008,0c-1.697,0-3.041,1.346-3.041,3
	c0,1.474,1.061,2.716,2.521,2.954L49.279,27.413z"/>
<path fill="#FFFFFF" d="M57.808,57.105h-9.019V56.96c-0.965-0.337-1.629-1.245-1.629-2.297c0-1.177,0.838-2.163,1.948-2.392
	c0.107-1.699,1.524-3.048,3.25-3.048c1.561,0,2.868,1.103,3.184,2.57c0.322-0.13,0.666-0.199,1.014-0.199
	c1.52,0,2.755,1.236,2.755,2.755c0,1.037-0.591,1.979-1.503,2.445V57.105z M49.524,56.105h7.308l0.309-0.109
	c0.699-0.249,1.17-0.91,1.17-1.646c0-0.968-0.787-1.755-1.755-1.755c-0.522,0-0.903,0.232-1.132,0.426l-0.887,0.757l0.074-1.274
	c0.004-1.269-1.009-2.281-2.253-2.281s-2.257,1.012-2.257,2.257l0.068,0.744h-0.544c-0.002,0-0.003,0-0.005,0
	c-0.816,0-1.461,0.646-1.461,1.439c0,0.707,0.509,1.302,1.209,1.417L49.524,56.105z"/>
<path fill="#FFFFFF" d="M121.146,47.828h-11.244v-0.146c-1.229-0.385-2.082-1.517-2.082-2.835c0-1.474,1.076-2.702,2.484-2.939
	c0.079-2.148,1.853-3.872,4.02-3.872c1.984,0,3.641,1.446,3.965,3.341c0.438-0.204,0.915-0.312,1.396-0.312
	c1.864,0,3.381,1.517,3.381,3.381c0,1.301-0.758,2.48-1.92,3.038V47.828z M110.691,46.828l9.455-0.03l0.332-0.118
	c0.949-0.337,1.588-1.235,1.588-2.233c0-1.313-1.067-2.381-2.381-2.381c-0.562,0-1.093,0.2-1.535,0.578l-0.889,0.759l0.078-1.297
	c0.006-1.714-1.35-3.069-3.017-3.069c-1.666,0-3.021,1.355-3.021,3.022c0,0.045,0.007,0.088,0.013,0.131l0.062,0.68h-0.544
	c-0.002,0-0.004,0-0.006,0c-1.12,0-2.007,0.888-2.007,1.978c0,0.971,0.699,1.79,1.662,1.947L110.691,46.828z"/>
</svg>
