<?xml version="1.0" encoding="utf-8"?>
<!-- Generator: Adobe Illustrator 16.0.0, SVG Export Plug-In . SVG Version: 6.00 Build 0)  -->
<!DOCTYPE svg PUBLIC "-//W3C//DTD SVG 1.1//EN" "http://www.w3.org/Graphics/SVG/1.1/DTD/svg11.dtd">
<svg version="1.1" id="Ground" xmlns="http://www.w3.org/2000/svg" xmlns:xlink="http://www.w3.org/1999/xlink" x="0px" y="0px"
	 width="197.586px" height="132px" viewBox="0 0 197.586 132" enable-background="new 0 0 197.586 132" xml:space="preserve">
<g>
	<path fill="#A0A09F" d="M46.489,83.744h-5.75v7.284h5.75V83.744z M45.489,90.028h-3.75v-5.284h3.75V90.028z"/>
	<path fill="#A0A09F" d="M46.489,73.822h-5.75v7.284h5.75V73.822z M45.489,80.106h-3.75v-5.284h3.75V80.106z"/>
	<path fill="#A0A09F" d="M46.489,63.9h-5.75v7.283h5.75V63.9z M45.489,70.184h-3.75V64.9h3.75V70.184z"/>
	<path fill="#A0A09F" d="M46.489,93.551h-5.75v7.516h5.75V93.551z M45.489,100.066h-3.75v-5.516h3.75V100.066z"/>
	<path fill="#A0A09F" d="M19.597,91.028h5.75v-7.284h-5.75V91.028z M20.597,84.744h3.75v5.284h-3.75V84.744z"/>
	<path fill="#A0A09F" d="M19.597,81.106h5.75v-7.284h-5.75V81.106z M20.597,74.822h3.75v5.284h-3.75V74.822z"/>
	<path fill="#A0A09F" d="M19.597,71.184h5.75V63.9h-5.75V71.184z M20.597,64.9h3.75v5.283h-3.75V64.9z"/>
	<path fill="#A0A09F" d="M19.597,101.066h5.75v-7.516h-5.75V101.066z M20.597,94.551h3.75v5.516h-3.75V94.551z"/>
	<path fill="#A0A09F" d="M37.771,83.744h-5.75v7.284h5.75V83.744z M36.771,90.028h-3.75v-5.284h3.75V90.028z"/>
	<path fill="#A0A09F" d="M37.771,73.822h-5.75v7.284h5.75V73.822z M36.771,80.106h-3.75v-5.284h3.75V80.106z"/>
	<path fill="#A0A09F" d="M37.771,63.9h-5.75v7.283h5.75V63.9z M36.771,70.184h-3.75V64.9h3.75V70.184z"/>
	<path fill="#A0A09F" d="M37.771,93.551h-5.75v7.516h5.75V93.551z M36.771,100.066h-3.75v-5.516h3.75V100.066z"/>
	<path fill="#A0A09F" d="M55.208,83.744h-5.75v7.284h5.75V83.744z M54.208,90.028h-3.75v-5.284h3.75V90.028z"/>
	<path fill="#A0A09F" d="M55.208,73.822h-5.75v7.284h5.75V73.822z M54.208,80.106h-3.75v-5.284h3.75V80.106z"/>
	<path fill="#A0A09F" d="M55.208,63.9h-5.75v7.283h5.75V63.9z M54.208,70.184h-3.75V64.9h3.75V70.184z"/>
	<path fill="#A0A09F" d="M55.208,93.551h-5.75v7.516h5.75V93.551z M54.208,100.066h-3.75v-5.516h3.75V100.066z"/>
	<path fill="#A0A09F" d="M46.489,103.558h-5.75v7.515h5.75V103.558z M45.489,110.072h-3.75v-5.515h3.75V110.072z"/>
	<path fill="#A0A09F" d="M19.597,111.072h5.75v-7.515h-5.75V111.072z M20.597,104.558h3.75v5.515h-3.75V104.558z"/>
	<path fill="#A0A09F" d="M37.771,103.558h-5.75v7.515h5.75V103.558z M36.771,110.072h-3.75v-5.515h3.75V110.072z"/>
	<path fill="#A0A09F" d="M55.208,103.558h-5.75v7.515h5.75V103.558z M54.208,110.072h-3.75v-5.515h3.75V110.072z"/>
	<path fill="#A0A09F" d="M61.266,91.028h5.75v-7.284h-5.75V91.028z M62.266,84.744h3.75v5.284h-3.75V84.744z"/>
	<path fill="#A0A09F" d="M61.266,81.106h5.75v-7.284h-5.75V81.106z M62.266,74.822h3.75v5.284h-3.75V74.822z"/>
	<path fill="#A0A09F" d="M61.266,71.184h5.75V63.9h-5.75V71.184z M62.266,64.9h3.75v5.283h-3.75V64.9z"/>
	<path fill="#A0A09F" d="M61.266,101.066h5.75v-7.516h-5.75V101.066z M62.266,94.551h3.75v5.516h-3.75V94.551z"/>
	<path fill="#A0A09F" d="M78.766,86.438h-5.75V97.01h5.75V86.438z M77.766,96.01h-3.75v-8.572h3.75V96.01z"/>
	<path fill="#A0A09F" d="M73.016,110.727h7.471v-9.215h-7.471V110.727z M74.016,102.512h5.471v7.215h-5.471V102.512z"/>
	<path fill="#A0A09F" d="M84.358,97.01h5.75V86.438h-5.75V97.01z M85.358,87.438h3.75v8.572h-3.75V87.438z"/>
	<rect x="177.567" y="117.695" fill="#A0A09F" width="4.189" height="1"/>
	<rect x="168.698" y="117.695" fill="#A0A09F" width="4.188" height="1"/>
	<rect x="159.827" y="117.695" fill="#A0A09F" width="4.189" height="1"/>
	<rect x="150.958" y="117.695" fill="#A0A09F" width="4.188" height="1"/>
	<rect x="142.086" y="117.695" fill="#A0A09F" width="4.189" height="1"/>
	<rect x="133.217" y="117.695" fill="#A0A09F" width="4.188" height="1"/>
	<rect x="124.346" y="117.695" fill="#A0A09F" width="4.189" height="1"/>
	<rect x="115.477" y="117.695" fill="#A0A09F" width="4.188" height="1"/>
	<rect x="106.606" y="117.695" fill="#A0A09F" width="4.189" height="1"/>
	<rect x="97.737" y="117.695" fill="#A0A09F" width="4.188" height="1"/>
	<rect x="88.866" y="117.695" fill="#A0A09F" width="4.189" height="1"/>
	<rect x="79.997" y="117.695" fill="#A0A09F" width="4.188" height="1"/>
	<rect x="71.125" y="117.695" fill="#A0A09F" width="4.189" height="1"/>
	<rect x="62.256" y="117.695" fill="#A0A09F" width="4.188" height="1"/>
	<rect x="53.385" y="117.695" fill="#A0A09F" width="4.189" height="1"/>
	<rect x="44.516" y="117.695" fill="#A0A09F" width="4.188" height="1"/>
	<rect x="35.646" y="117.695" fill="#A0A09F" width="4.188" height="1"/>
	<rect x="26.775" y="117.695" fill="#A0A09F" width="4.188" height="1"/>
	<rect x="17.905" y="117.695" fill="#A0A09F" width="4.188" height="1"/>
	<rect x="157.518" y="86.896" fill="#A0A09F" width="3.48" height="3.531"/>
	<polygon fill="#A0A09F" points="176.18,86.896 176.18,83.365 172.7,83.365 169.219,83.365 169.219,86.896 172.7,86.896 	"/>
	<path fill="#A0A09F" d="M28.404,115.33h1h28.668h1h11h1h21.621h91.072v-1h-3.514l-0.371-19.871h2.637V79.333h-33.814V69.099v-1.026
		V63.33v-2.205h0.088v-2.033l-6.688-15.648l-6.646,15.45l-0.041,2.231h0.236v2.205h-4.314l-2.613-2.613l-2.613,2.613h-8.752
		l-2.613-2.613l-2.613,2.613h-8.654l-2.613-2.613l-2.613,2.613h-6.4v4.742v1.026v8.856H71.073V60.941v-0.617v-4.056h-13v4.056
		H29.404v-4.056h-13v4.056v0.617v53.389h-1.73v1h1.73H28.404z M61.913,114.094v-6.875c0-1.467,1.193-2.661,2.66-2.661
		c1.469,0,2.662,1.194,2.658,2.729v6.807H61.913z M83.176,114.204v-9.56c0-1.467,1.193-2.661,2.662-2.661
		c1.467,0,2.66,1.194,2.656,2.729v9.491H83.176z M89.495,114.33l0.004-9.686c0-2.019-1.643-3.661-3.66-3.661
		c-2.02,0-3.662,1.643-3.662,3.661v9.686H71.073V83.258h20.621v31.072H89.495z M92.852,68.072V64.33h4.99v3.742v0.026h-4.99V68.072z
		 M136.653,63.33v-2.205h11.051v2.205v0.5v0.5v3.742v0.026v0.474v0.026v0.474v0.026v10.234v0.5v0.5v3.032v3.531v3.531v3.031v1
		v19.306h-11.051V94.459v-1V80.333v-1V69.099v-0.026v-0.474v-0.026v-0.474v-0.026V64.33v-0.5V63.33z M135.653,68.072v0.026h-3.902
		v-0.026V64.33h3.902V68.072z M130.75,64.33v3.742v0.026h-4.049v-0.026V64.33H130.75z M125.702,68.072v0.026h-7.93v-0.026V64.33
		h7.93V68.072z M116.772,64.33v3.742v0.026h-4.049v-0.026V64.33H116.772z M111.723,68.072v0.026h-7.832v-0.026V64.33h7.832V68.072z
		 M102.891,64.33v3.742v0.026h-4.049v-0.026V64.33H102.891z M97.842,69.099h6.049h7.832h6.049h7.93h6.049h3.902v10.234v1v13.126v1
		v19.306H92.852V69.099H97.842z M148.704,114.33V94.459h8.621l-4.889,17.764l-0.01,0.222l0.342,1.886H148.704z M158.915,94.459
		l-5.396,17.6l4.844-17.599L158.915,94.459z M153.868,114.33l6.094-19.871h0.197l4.562,17.985l0.342,1.886H153.868z M174.51,94.459
		l-4.113,12.879l-1.5,6.992h-2.816l-3.332-19.871H174.51z M176.092,94.459l-4.531,12.516l3.998-12.515L176.092,94.459z
		 M162.797,100.797l-1.607-6.337l0.545-0.001L162.797,100.797z M169.959,114.33l7.195-19.871h0.148l1.576,17.985l0.342,1.886
		H169.959z M179.038,102.799l-0.73-8.339l0.574-0.001L179.038,102.799z M160.999,83.365v-3.032h17.539v3.032h2.98v3.531h-2.98v3.531
		h2.98v3.031h-2.146h-0.834v-3.031h-3.48v3.031h-3.871v-3.031h-3.48v3.031h-5.547h-2.568h-10.887v-3.031h2.232v-3.531h-2.232v-3.531
		h2.232v-3.032h6.582v3.032H160.999z M136.417,59.194l5.688-13.221l5.688,13.221v0.931h-11.375V59.194z M128.725,62.131l1.199,1.199
		h-2.398L128.725,62.131z M114.747,62.131l1.199,1.199h-2.398L114.747,62.131z M100.866,62.131l1.199,1.199h-2.398L100.866,62.131z
		 M91.686,78.955v3.098H71.073v-3.098H91.686z M70.073,82.053v1.205v31.072h-1.842l0.004-7.111c0-2.019-1.643-3.661-3.662-3.661
		c-2.018,0-3.66,1.643-3.66,3.661v7.111h-1.84V61.324h11v16.631V82.053z M59.073,57.269h11v2.673h-11V57.269z M58.073,61.324v53.006
		H29.404V61.324H58.073z M17.404,57.269h11v2.673h-11V57.269z M17.404,61.324h11v53.006h-11V61.324z"/>
	<rect x="8.07" y="123.259" fill="#A0A09F" width="181.549" height="1"/>
	<path fill="#A0A09F" d="M100.405,77.955h-4.777v6.625h4.777V77.955z M99.405,83.58h-2.777v-4.625h2.777V83.58z"/>
	<path fill="#A0A09F" d="M100.405,85.463h-4.777v6.625h4.777V85.463z M99.405,91.088h-2.777v-4.625h2.777V91.088z"/>
	<path fill="#A0A09F" d="M100.405,92.973h-4.777v6.625h4.777V92.973z M99.405,98.598h-2.777v-4.625h2.777V98.598z"/>
	<path fill="#A0A09F" d="M100.405,100.576h-4.777v6.625h4.777V100.576z M99.405,106.201h-2.777v-4.625h2.777V106.201z"/>
	<path fill="#A0A09F" d="M100.405,72.864c0-1.317-1.072-2.388-2.389-2.388s-2.389,1.07-2.389,2.388v3.979h4.777V72.864z
		 M99.405,75.843h-2.777v-2.979c0-0.766,0.623-1.388,1.389-1.388s1.389,0.622,1.389,1.388V75.843z"/>
	<path fill="#A0A09F" d="M106.563,77.955h-4.775v6.625h4.775V77.955z M105.563,83.58h-2.775v-4.625h2.775V83.58z"/>
	<path fill="#A0A09F" d="M106.563,85.463h-4.775v6.625h4.775V85.463z M105.563,91.088h-2.775v-4.625h2.775V91.088z"/>
	<path fill="#A0A09F" d="M106.563,92.973h-4.775v6.625h4.775V92.973z M105.563,98.598h-2.775v-4.625h2.775V98.598z"/>
	<path fill="#A0A09F" d="M106.563,100.576h-4.775v6.625h4.775V100.576z M105.563,106.201h-2.775v-4.625h2.775V106.201z"/>
	<path fill="#A0A09F" d="M106.563,72.864c0-1.317-1.07-2.388-2.387-2.388c-1.318,0-2.389,1.07-2.389,2.388v3.979h4.775V72.864z
		 M105.563,75.843h-2.775v-2.979c0-0.766,0.623-1.388,1.389-1.388s1.387,0.622,1.387,1.388V75.843z"/>
	<path fill="#A0A09F" d="M112.723,77.955h-4.777v6.625h4.777V77.955z M111.723,83.58h-2.777v-4.625h2.777V83.58z"/>
	<path fill="#A0A09F" d="M112.723,85.463h-4.777v6.625h4.777V85.463z M111.723,91.088h-2.777v-4.625h2.777V91.088z"/>
	<path fill="#A0A09F" d="M112.723,92.973h-4.777v6.625h4.777V92.973z M111.723,98.598h-2.777v-4.625h2.777V98.598z"/>
	<path fill="#A0A09F" d="M112.723,100.576h-4.777v6.625h4.777V100.576z M111.723,106.201h-2.777v-4.625h2.777V106.201z"/>
	<path fill="#A0A09F" d="M112.723,72.864c0-1.317-1.072-2.388-2.389-2.388s-2.389,1.07-2.389,2.388v3.979h4.777V72.864z
		 M111.723,75.843h-2.777v-2.979c0-0.766,0.623-1.388,1.389-1.388s1.389,0.622,1.389,1.388V75.843z"/>
	<path fill="#A0A09F" d="M121.452,77.955h-4.777v6.625h4.777V77.955z M120.452,83.58h-2.777v-4.625h2.777V83.58z"/>
	<path fill="#A0A09F" d="M121.452,85.463h-4.777v6.625h4.777V85.463z M120.452,91.088h-2.777v-4.625h2.777V91.088z"/>
	<path fill="#A0A09F" d="M121.452,92.973h-4.777v6.625h4.777V92.973z M120.452,98.598h-2.777v-4.625h2.777V98.598z"/>
	<path fill="#A0A09F" d="M121.452,100.576h-4.777v6.625h4.777V100.576z M120.452,106.201h-2.777v-4.625h2.777V106.201z"/>
	<path fill="#A0A09F" d="M121.452,72.864c0-1.317-1.072-2.388-2.389-2.388s-2.389,1.07-2.389,2.388v3.979h4.777V72.864z
		 M120.452,75.843h-2.777v-2.979c0-0.766,0.623-1.388,1.389-1.388s1.389,0.622,1.389,1.388V75.843z"/>
	<path fill="#A0A09F" d="M127.61,84.58v-4.247v-1v-1.378h-4.775v1.378v1v3.032v1.215h2.857H127.61z M123.834,83.58v-0.215v-3.032v-1
		v-0.378h2.775v0.378v1v3.247h-0.918H123.834z"/>
	<path fill="#A0A09F" d="M127.61,92.088v-6.625h-1.918h-2.857v1.434v3.531v1.66h2.799H127.61z M123.834,91.088v-0.66v-3.531v-0.434
		h1.857h0.918v4.625h-0.977H123.834z"/>
	<path fill="#A0A09F" d="M127.61,94.459v-1v-0.486h-1.977h-2.799v0.486v0.501v0.499v5.139h4.775V94.459z M126.61,98.598h-2.775
		v-4.139v-0.486h2.775v0.486V98.598z"/>
	<path fill="#A0A09F" d="M127.61,100.576h-4.775v6.625h4.775V100.576z M126.61,106.201h-2.775v-4.625h2.775V106.201z"/>
	<path fill="#A0A09F" d="M127.61,72.864c0-1.317-1.07-2.388-2.387-2.388c-1.318,0-2.389,1.07-2.389,2.388v3.979h4.775V72.864z
		 M126.61,75.843h-2.775v-2.979c0-0.766,0.623-1.388,1.389-1.388s1.387,0.622,1.387,1.388V75.843z"/>
	<path fill="#A0A09F" d="M133.77,83.365v-3.032v-0.5v-0.5v-1.378h-4.777v1.378v1v4.247h4.777V83.365z M132.77,83.58h-2.777v-3.247
		v-1v-0.378h2.777v0.378v0.5v0.5v3.032V83.58z"/>
	<path fill="#A0A09F" d="M133.77,90.428v-3.531v-1.434h-4.777v6.625h4.777V90.428z M132.77,91.088h-2.777v-4.625h2.777v0.434v3.531
		V91.088z"/>
	<path fill="#A0A09F" d="M133.77,94.459v-1v-0.486h-4.777v0.486v1v5.139h4.777V94.459z M132.77,98.598h-2.777v-4.139v-0.486h2.777
		v0.486V98.598z"/>
	<path fill="#A0A09F" d="M133.77,100.576h-4.777v6.625h4.777V100.576z M132.77,106.201h-2.777v-4.625h2.777V106.201z"/>
	<path fill="#A0A09F" d="M133.77,72.864c0-1.317-1.072-2.388-2.389-2.388s-2.389,1.07-2.389,2.388v3.979h4.777V72.864z
		 M132.77,75.843h-2.777v-2.979c0-0.766,0.623-1.388,1.389-1.388s1.389,0.622,1.389,1.388V75.843z"/>
	<path fill="#A0A09F" d="M144.567,84.58v-4.247v-1v-1.378h-4.777v1.378v1v3.032v1.215h1.828H144.567z M140.79,83.58v-0.215v-3.032
		v-1v-0.378h2.777v0.378v1v3.247h-1.949H140.79z"/>
	<path fill="#A0A09F" d="M144.567,70.477h-4.777v6.366h4.777V70.477z M143.567,75.843h-2.777v-4.366h2.777V75.843z"/>
	<path fill="#A0A09F" d="M144.567,92.088v-1.66v-4.965h-2.949h-1.828v1.434v5.191h4.186H144.567z M143.567,91.088h-2.777v-4.191
		v-0.434h0.828h1.949V91.088z"/>
	<path fill="#A0A09F" d="M144.567,94.459V93.96v-0.501v-0.486h-0.592h-4.186v0.486v1v5.139h4.777V94.459z M143.567,98.598h-2.777
		v-4.139v-0.486h2.777v0.486V98.598z"/>
	<path fill="#A0A09F" d="M144.567,100.576h-4.777v6.625h4.777V100.576z M143.567,106.201h-2.777v-4.625h2.777V106.201z"/>
	<path fill="#A0A09F" d="M144.567,69.099v-0.026v-0.474v-0.026v-0.474v-0.026v-2.354c0-0.52-0.17-0.996-0.453-1.389
		c-0.137-0.19-0.303-0.356-0.49-0.5c-0.402-0.309-0.898-0.5-1.445-0.5c-0.545,0-1.043,0.191-1.445,0.5
		c-0.186,0.144-0.354,0.31-0.49,0.5c-0.281,0.393-0.453,0.869-0.453,1.389v2.354v0.026v0.474v0.026v0.474v0.026v0.599h4.777V69.099z
		 M140.79,68.572v-0.474v-0.026v-2.354c0-0.766,0.623-1.389,1.389-1.389s1.389,0.623,1.389,1.389v2.354v0.026v0.474v0.026v0.099
		h-2.777v-0.099V68.572z"/>
</g>
</svg>
