<?xml version="1.0" encoding="utf-8"?>
<!-- Generator: Adobe Illustrator 16.0.0, SVG Export Plug-In . SVG Version: 6.00 Build 0)  -->
<!DOCTYPE svg PUBLIC "-//W3C//DTD SVG 1.1//EN" "http://www.w3.org/Graphics/SVG/1.1/DTD/svg11.dtd">
<svg version="1.1" id="Ground" xmlns="http://www.w3.org/2000/svg" xmlns:xlink="http://www.w3.org/1999/xlink" x="0px" y="0px"
	 width="197.586px" height="132px" viewBox="0 0 197.586 132" enable-background="new 0 0 197.586 132" xml:space="preserve">
<g>
	<path fill="#A0A09F" d="M102.022,83.83h-5.75v10.572h5.75V83.83z M101.022,93.402h-3.75V84.83h3.75V93.402z"/>
	<path fill="#A0A09F" d="M96.272,108.119h7.471v-9.215h-7.471V108.119z M97.272,99.904h5.471v7.215h-5.471V99.904z"/>
	<path fill="#A0A09F" d="M113.364,83.83h-5.75v10.572h5.75V83.83z M112.364,93.402h-3.75V84.83h3.75V93.402z"/>
	<path fill="#A0A09F" d="M158.643,83.62h-5.75v10.572h5.75V83.62z M157.643,93.192h-3.75V84.62h3.75V93.192z"/>
	<path fill="#A0A09F" d="M152.893,107.909h7.473v-9.215h-7.473V107.909z M153.893,99.694h5.473v7.215h-5.473V99.694z"/>
	<path fill="#A0A09F" d="M169.985,83.62h-5.75v10.572h5.75V83.62z M168.985,93.192h-3.75V84.62h3.75V93.192z"/>
	<path fill="#A0A09F" d="M42.371,93.092h-5.75v7.746h5.75V93.092z M41.371,99.838h-3.75v-5.746h3.75V99.838z"/>
	<path fill="#A0A09F" d="M20.927,100.838h5.75v-7.746h-5.75V100.838z M21.927,94.092h3.75v5.746h-3.75V94.092z"/>
	<path fill="#A0A09F" d="M49.357,80.711h-5.174v9.145h5.174V80.711z M48.357,88.855h-3.174v-7.145h3.174V88.855z"/>
	<path fill="#A0A09F" d="M63.364,89.855h5.174v-9.145h-5.174V89.855z M64.364,81.711h3.174v7.145h-3.174V81.711z"/>
	<path fill="#A0A09F" d="M56.969,89.855h5.174v-9.145h-5.174V89.855z M57.969,81.711h3.174v7.145h-3.174V81.711z"/>
	<path fill="#A0A09F" d="M50.577,89.855h5.173v-9.145h-5.173V89.855z M51.577,81.711h3.173v7.145h-3.173V81.711z"/>
	<path fill="#A0A09F" d="M68.538,90.701H44.184v2.822h24.354V90.701z M67.538,92.523H45.184v-0.822h22.354V92.523z"/>
	<path fill="#A0A09F" d="M68.538,65.964H44.184v2.822h24.354V65.964z M67.538,67.786H45.184v-0.822h22.354V67.786z"/>
	<path fill="#A0A09F" d="M49.357,70.15h-5.174v8.679h5.174V70.15z M48.357,77.829h-3.174V71.15h3.174V77.829z"/>
	<path fill="#A0A09F" d="M63.364,78.829h5.174V70.15h-5.174V78.829z M64.364,71.15h3.174v6.679h-3.174V71.15z"/>
	<path fill="#A0A09F" d="M62.143,70.15h-5.174v8.679h5.174V70.15z M61.143,77.829h-3.174V71.15h3.174V77.829z"/>
	<path fill="#A0A09F" d="M55.75,70.15h-5.173v8.679h5.173V70.15z M54.75,77.829h-3.173V71.15h3.173V77.829z"/>
	<path fill="#A0A09F" d="M33.148,92.695c-0.457,0-0.871,0.213-1.174,0.557c-0.303-0.344-0.717-0.557-1.174-0.557
		c-0.923,0-1.674,0.863-1.674,1.926v6.217h2.348h0.998h2.348l0.002-6.217C34.822,93.559,34.071,92.695,33.148,92.695z
		 M31.473,99.838h-1.346v-5.217c0-0.502,0.309-0.926,0.674-0.926s0.674,0.424,0.672,0.957V99.838z M33.82,99.838h-1.346v-5.217
		c0-0.502,0.309-0.926,0.674-0.926s0.674,0.424,0.672,0.957V99.838z"/>
	<path fill="#A0A09F" d="M91.872,93.092h-5.75v7.746h5.75V93.092z M90.872,99.838h-3.75v-5.746h3.75V99.838z"/>
	<path fill="#A0A09F" d="M76.178,93.092h-5.75v7.746h5.75V93.092z M75.178,99.838h-3.75v-5.746h3.75V99.838z"/>
	<path fill="#A0A09F" d="M42.371,82.109h-5.75v7.746h5.75V82.109z M41.371,88.855h-3.75v-5.746h3.75V88.855z"/>
	<path fill="#A0A09F" d="M20.927,89.855h5.75v-7.746h-5.75V89.855z M21.927,83.109h3.75v5.746h-3.75V83.109z"/>
	<path fill="#A0A09F" d="M91.872,82.109h-5.75v7.746h5.75V82.109z M90.872,88.855h-3.75v-5.746h3.75V88.855z"/>
	<path fill="#A0A09F" d="M76.178,82.109h-5.75v7.746h5.75V82.109z M75.178,88.855h-3.75v-5.746h3.75V88.855z"/>
	<path fill="#A0A09F" d="M42.371,71.084h-5.75v7.745h5.75V71.084z M41.371,77.829h-3.75v-5.745h3.75V77.829z"/>
	<path fill="#A0A09F" d="M20.927,78.829h5.75v-7.745h-5.75V78.829z M21.927,72.084h3.75v5.745h-3.75V72.084z"/>
	<path fill="#A0A09F" d="M91.872,71.084h-5.75v7.745h5.75V71.084z M90.872,77.829h-3.75v-5.745h3.75V77.829z"/>
	<path fill="#A0A09F" d="M76.178,71.084h-5.75v7.745h5.75V71.084z M75.178,77.829h-3.75v-5.745h3.75V77.829z"/>
	<path fill="#A0A09F" d="M34.497,82.109h-5.75v7.746h5.75V82.109z M33.497,88.855h-3.75v-5.746h3.75V88.855z"/>
	<path fill="#A0A09F" d="M83.999,82.109h-5.75v7.746h5.75V82.109z M82.999,88.855h-3.75v-5.746h3.75V88.855z"/>
	<path fill="#A0A09F" d="M42.371,103.695h-5.75v5.09h5.75V103.695z M41.371,107.785h-3.75v-3.09h3.75V107.785z"/>
	<path fill="#A0A09F" d="M20.927,108.785h5.75v-5.09h-5.75V108.785z M21.927,104.695h3.75v3.09h-3.75V104.695z"/>
	<path fill="#A0A09F" d="M91.872,103.695h-5.75v5.09h5.75V103.695z M90.872,107.785h-3.75v-3.09h3.75V107.785z"/>
	<path fill="#A0A09F" d="M76.178,103.695h-5.75v5.09h5.75V103.695z M75.178,107.785h-3.75v-3.09h3.75V107.785z"/>
	<path fill="#A0A09F" d="M28.747,108.785h5.75v-5.09h-5.75V108.785z M29.747,104.695h3.75v3.09h-3.75V104.695z"/>
	<path fill="#A0A09F" d="M83.999,103.695h-5.75v5.09h5.75V103.695z M82.999,107.785h-3.75v-3.09h3.75V107.785z"/>
	<path fill="#A0A09F" d="M34.497,71.084h-5.75v7.745h5.75V71.084z M33.497,77.829h-3.75v-5.745h3.75V77.829z"/>
	<path fill="#A0A09F" d="M83.999,71.084h-5.75v7.745h5.75V71.084z M82.999,77.829h-3.75v-5.745h3.75V77.829z"/>
	<path fill="#A0A09F" d="M82.649,92.695c-0.457,0-0.871,0.213-1.174,0.557c-0.303-0.344-0.717-0.557-1.174-0.557
		c-0.922,0-1.674,0.863-1.674,1.926v6.217h2.348h0.998h2.348l0.002-6.217C84.323,93.559,83.573,92.695,82.649,92.695z
		 M80.973,99.838h-1.346v-5.217c0-0.502,0.309-0.926,0.674-0.926s0.674,0.424,0.672,0.957V99.838z M83.321,99.838h-1.346v-5.217
		c0-0.502,0.309-0.926,0.674-0.926s0.674,0.424,0.672,0.957V99.838z"/>
	<path fill="#A0A09F" d="M118.463,97.69h5.75v-7.515h-5.75V97.69z M119.463,91.176h3.75v5.515h-3.75V91.176z"/>
	<path fill="#A0A09F" d="M147.762,90.176h-5.75v7.515h5.75V90.176z M146.762,96.69h-3.75v-5.515h3.75V96.69z"/>
	<path fill="#A0A09F" d="M147.766,81.281c0-1.586-1.291-2.876-2.877-2.876s-2.877,1.29-2.877,2.876v6.045h5.75L147.766,81.281z
		 M146.762,86.326h-3.75v-5.045c0-1.034,0.842-1.876,1.877-1.876s1.877,0.842,1.873,1.929V86.326z"/>
	<path fill="#A0A09F" d="M124.213,81.281c0-1.586-1.289-2.876-2.875-2.876s-2.877,1.29-2.877,2.876v6.045h5.75L124.213,81.281z
		 M123.211,86.326h-3.75v-5.045c0-1.034,0.842-1.876,1.877-1.876c1.033,0,1.875,0.842,1.873,1.929V86.326z"/>
	<path fill="#A0A09F" d="M147.766,102.867c0-1.586-1.291-2.876-2.877-2.876s-2.877,1.29-2.877,2.876v2.045h5.75L147.766,102.867z
		 M146.762,103.912h-3.75v-1.045c0-1.034,0.842-1.876,1.877-1.876s1.877,0.842,1.873,1.929V103.912z"/>
	<path fill="#A0A09F" d="M124.213,102.867c0-1.586-1.289-2.876-2.875-2.876s-2.877,1.29-2.877,2.876v2.045h5.75L124.213,102.867z
		 M123.211,103.912h-3.75v-1.045c0-1.034,0.842-1.876,1.877-1.876c1.033,0,1.875,0.842,1.873,1.929V103.912z"/>
	<path fill="#A0A09F" d="M187.893,116.354c-0.824-0.447-1.676-0.91-3.367-0.91s-2.543,0.463-3.367,0.91
		c-0.746,0.406-1.451,0.791-2.887,0.791c-1.438,0-2.143-0.385-2.891-0.791c-0.824-0.447-1.676-0.91-3.367-0.91
		s-2.545,0.463-3.369,0.911c-0.746,0.405-1.451,0.79-2.889,0.79s-2.143-0.385-2.889-0.791c-0.824-0.447-1.676-0.91-3.367-0.91
		s-2.545,0.463-3.369,0.911c-0.746,0.405-1.451,0.79-2.889,0.79s-2.143-0.385-2.891-0.791c-0.824-0.447-1.676-0.91-3.369-0.91
		c-1.691,0-2.543,0.463-3.367,0.91c-0.746,0.406-1.451,0.791-2.889,0.791s-2.145-0.385-2.891-0.791
		c-0.826-0.447-1.678-0.91-3.369-0.91s-2.545,0.463-3.369,0.91c-0.746,0.406-1.451,0.791-2.889,0.791s-2.145-0.385-2.891-0.791
		c-0.826-0.447-1.678-0.91-3.369-0.91s-2.545,0.463-3.367,0.91c-0.748,0.406-1.455,0.791-2.893,0.791s-2.143-0.385-2.891-0.791
		c-0.824-0.447-1.678-0.91-3.369-0.91s-2.545,0.463-3.367,0.91c-0.748,0.406-1.455,0.791-2.893,0.791s-2.145-0.385-2.893-0.791
		c-0.824-0.447-1.676-0.91-3.369-0.91c-1.691,0-2.545,0.463-3.369,0.91c-0.748,0.406-1.453,0.791-2.893,0.791
		c-1.438,0-2.143-0.385-2.891-0.791c-0.824-0.447-1.678-0.91-3.369-0.91c-1.693,0-2.545,0.463-3.371,0.91
		c-0.746,0.406-1.453,0.791-2.891,0.791s-2.145-0.385-2.893-0.791c-0.824-0.447-1.676-0.91-3.369-0.91
		c-1.691,0-2.543,0.463-3.367,0.91c-0.746,0.406-1.451,0.791-2.889,0.791s-2.143-0.385-2.891-0.79
		c-0.824-0.448-1.676-0.911-3.369-0.911s-2.545,0.463-3.369,0.91c-0.748,0.406-1.455,0.791-2.893,0.791
		c-1.438,0-2.145-0.385-2.893-0.791c-0.824-0.447-1.677-0.91-3.369-0.91s-2.545,0.463-3.369,0.91
		c-0.748,0.406-1.454,0.791-2.893,0.791s-2.146-0.385-2.894-0.791c-0.824-0.447-1.677-0.91-3.37-0.91
		c-1.692,0-2.545,0.463-3.37,0.91c-0.747,0.406-1.453,0.791-2.891,0.791c-1.439,0-2.146-0.385-2.895-0.791
		c-0.824-0.447-1.678-0.91-3.371-0.91c-1.694,0-2.548,0.463-3.373,0.91c-0.749,0.406-1.456,0.791-2.896,0.791
		c-1.441,0-2.148-0.385-2.897-0.791c-0.825-0.447-1.679-0.91-3.373-0.91v1c1.44,0,2.147,0.383,2.896,0.789
		c0.825,0.448,1.679,0.912,3.374,0.912c1.694,0,2.548-0.464,3.373-0.912c0.749-0.406,1.456-0.789,2.896-0.789
		c1.439,0,2.146,0.383,2.895,0.789c0.824,0.448,1.678,0.912,3.371,0.912c1.691,0,2.544-0.464,3.368-0.912
		c0.748-0.406,1.454-0.789,2.893-0.789s2.146,0.383,2.894,0.789c0.824,0.448,1.677,0.912,3.37,0.912
		c1.692,0,2.545-0.464,3.369-0.912c0.748-0.406,1.454-0.789,2.893-0.789s2.145,0.383,2.893,0.789
		c0.824,0.448,1.677,0.912,3.369,0.912c1.692,0,2.545-0.464,3.37-0.912c0.748-0.406,1.453-0.789,2.893-0.789
		c1.438,0,2.145,0.383,2.893,0.789c0.822,0.448,1.676,0.912,3.367,0.912s2.543-0.464,3.367-0.912
		c0.746-0.406,1.453-0.789,2.889-0.789c1.439,0,2.145,0.383,2.893,0.789c0.824,0.448,1.678,0.912,3.369,0.912
		c1.693,0,2.545-0.464,3.369-0.912c0.748-0.406,1.453-0.789,2.893-0.789c1.438,0,2.145,0.383,2.893,0.789
		c0.824,0.448,1.676,0.912,3.367,0.912c1.693,0,2.545-0.464,3.369-0.912c0.748-0.406,1.455-0.789,2.893-0.789
		c1.439,0,2.145,0.383,2.893,0.789c0.824,0.448,1.678,0.912,3.369,0.912c1.693,0,2.545-0.464,3.369-0.912
		c0.748-0.406,1.453-0.789,2.891-0.789s2.145,0.383,2.893,0.789c0.824,0.448,1.676,0.912,3.367,0.912
		c1.693,0,2.545-0.464,3.369-0.912c0.748-0.406,1.453-0.789,2.891-0.789s2.143,0.383,2.891,0.789
		c0.824,0.448,1.676,0.912,3.369,0.912c1.691,0,2.543-0.464,3.367-0.912c0.748-0.406,1.453-0.789,2.891-0.789
		s2.143,0.383,2.891,0.789c0.824,0.448,1.676,0.912,3.369,0.912c1.691,0,2.543-0.464,3.367-0.912
		c0.746-0.406,1.453-0.789,2.889-0.789c1.438,0,2.145,0.383,2.891,0.789c0.826,0.448,1.678,0.912,3.369,0.912
		s2.543-0.464,3.367-0.912c0.748-0.406,1.453-0.789,2.891-0.789c1.436,0,2.143,0.383,2.889,0.789
		c0.824,0.448,1.676,0.912,3.367,0.912s2.543-0.464,3.367-0.912c0.748-0.406,1.453-0.789,2.891-0.789s2.143,0.383,2.889,0.789
		c0.824,0.448,1.678,0.912,3.369,0.912c1.689,0,2.541-0.464,3.365-0.912c0.746-0.406,1.451-0.789,2.889-0.789
		c1.436,0,2.143,0.383,2.889,0.789c0.824,0.448,1.676,0.912,3.367,0.912v-1C189.344,117.145,188.639,116.76,187.893,116.354z"/>
	<path fill="#A0A09F" d="M179.87,119.824c-1.609,0-2.457,0.486-3.203,0.916c-0.699,0.404-1.361,0.785-2.705,0.785
		c-1.346,0-2.006-0.381-2.707-0.785c-0.748-0.43-1.594-0.916-3.205-0.916c-1.613,0-2.459,0.486-3.207,0.916
		c-0.701,0.404-1.363,0.785-2.709,0.785c-1.344,0-2.006-0.381-2.707-0.785c-0.746-0.43-1.592-0.916-3.203-0.916
		s-2.459,0.486-3.205,0.916c-0.701,0.404-1.363,0.785-2.707,0.785c-1.346,0-2.008-0.381-2.709-0.784
		c-0.746-0.431-1.594-0.917-3.207-0.917c-1.611,0-2.457,0.486-3.205,0.916c-0.701,0.404-1.361,0.785-2.707,0.785
		s-2.008-0.381-2.709-0.785c-0.746-0.43-1.594-0.916-3.205-0.916c-1.613,0-2.459,0.486-3.207,0.917
		c-0.73,0.421-1.361,0.784-2.707,0.784s-2.008-0.381-2.709-0.785c-0.746-0.43-1.594-0.916-3.205-0.916
		c-1.613,0-2.459,0.486-3.207,0.916c-0.701,0.404-1.363,0.785-2.707,0.785c-1.346,0-2.008-0.381-2.709-0.784
		c-0.746-0.431-1.594-0.917-3.207-0.917c-1.611,0-2.459,0.486-3.207,0.917c-0.701,0.403-1.363,0.784-2.707,0.784
		c-1.346,0-2.008-0.381-2.709-0.785c-0.748-0.43-1.596-0.916-3.207-0.916c-1.613,0-2.461,0.486-3.209,0.917
		c-0.701,0.403-1.363,0.784-2.709,0.784s-2.008-0.381-2.709-0.785c-0.746-0.43-1.594-0.916-3.207-0.916
		c-1.611,0-2.459,0.486-3.207,0.916c-0.701,0.404-1.363,0.785-2.709,0.785s-2.008-0.381-2.709-0.784
		c-0.746-0.431-1.594-0.917-3.207-0.917c-1.611,0-2.459,0.486-3.205,0.916c-0.701,0.404-1.361,0.785-2.707,0.785
		s-2.008-0.381-2.709-0.785c-0.746-0.43-1.594-0.916-3.205-0.916c-1.613,0-2.461,0.486-3.209,0.917
		c-0.701,0.403-1.363,0.784-2.709,0.784s-2.008-0.381-2.708-0.784c-0.747-0.431-1.595-0.917-3.208-0.917s-2.461,0.486-3.208,0.917
		c-0.701,0.403-1.363,0.784-2.709,0.784c-1.347,0-2.01-0.381-2.711-0.785c-0.748-0.43-1.595-0.916-3.208-0.916
		c-1.612,0-2.459,0.486-3.206,0.916c-0.701,0.404-1.363,0.785-2.709,0.785c-1.347,0-2.009-0.381-2.711-0.785
		c-0.748-0.43-1.596-0.916-3.21-0.916c-1.615,0-2.463,0.486-3.212,0.916c-0.702,0.404-1.365,0.785-2.713,0.785
		s-2.011-0.381-2.713-0.785c-0.749-0.43-1.597-0.916-3.212-0.916v1c1.349,0,2.012,0.381,2.714,0.783
		c0.748,0.43,1.597,0.918,3.211,0.918s2.463-0.488,3.211-0.918c0.702-0.402,1.365-0.783,2.714-0.783c1.348,0,2.01,0.381,2.712,0.783
		c0.748,0.43,1.596,0.918,3.209,0.918c1.612,0,2.46-0.488,3.207-0.918c0.701-0.402,1.363-0.783,2.708-0.783
		c1.346,0,2.009,0.381,2.71,0.783c0.748,0.43,1.596,0.918,3.209,0.918c1.612,0,2.46-0.488,3.207-0.918
		c0.701-0.402,1.364-0.783,2.71-0.783s2.009,0.381,2.71,0.783c0.747,0.43,1.595,0.918,3.207,0.918c1.613,0,2.461-0.488,3.207-0.918
		c0.701-0.402,1.365-0.783,2.711-0.783c1.344,0,2.006,0.381,2.707,0.783c0.748,0.43,1.596,0.918,3.207,0.918
		s2.459-0.488,3.205-0.918c0.732-0.42,1.363-0.783,2.707-0.783c1.346,0,2.008,0.381,2.709,0.783c0.748,0.43,1.596,0.918,3.207,0.918
		c1.613,0,2.461-0.488,3.207-0.918c0.701-0.402,1.363-0.783,2.709-0.783s2.008,0.381,2.709,0.783
		c0.748,0.43,1.596,0.918,3.207,0.918c1.613,0,2.461-0.488,3.207-0.918c0.701-0.402,1.365-0.783,2.711-0.783
		s2.008,0.381,2.709,0.783c0.746,0.43,1.594,0.918,3.207,0.918c1.611,0,2.459-0.488,3.205-0.918
		c0.701-0.402,1.363-0.783,2.709-0.783s2.008,0.381,2.709,0.783c0.748,0.43,1.594,0.918,3.207,0.918
		c1.611,0,2.459-0.488,3.205-0.918c0.701-0.402,1.363-0.783,2.709-0.783c1.344,0,2.006,0.381,2.707,0.783
		c0.748,0.43,1.596,0.918,3.207,0.918s2.459-0.488,3.205-0.918c0.701-0.402,1.363-0.783,2.709-0.783
		c1.344,0,2.006,0.381,2.707,0.783c0.748,0.43,1.596,0.918,3.207,0.918s2.459-0.488,3.205-0.918
		c0.701-0.402,1.363-0.783,2.707-0.783c1.346,0,2.008,0.381,2.709,0.783c0.748,0.43,1.594,0.918,3.207,0.918
		c1.611,0,2.457-0.488,3.205-0.918c0.701-0.402,1.361-0.783,2.707-0.783c1.344,0,1.975,0.363,2.705,0.783
		c0.746,0.43,1.594,0.918,3.205,0.918c1.613,0,2.461-0.488,3.207-0.918c0.701-0.402,1.363-0.783,2.709-0.783
		c1.344,0,2.006,0.381,2.707,0.783c0.746,0.43,1.594,0.918,3.205,0.918s2.457-0.488,3.205-0.918c0.73-0.42,1.359-0.783,2.703-0.783
		c1.346,0,2.006,0.381,2.707,0.783c0.746,0.43,1.594,0.918,3.205,0.918v-1c-1.344,0-1.975-0.363-2.707-0.784
		C182.329,120.311,181.481,119.824,179.87,119.824z"/>
	<path fill="#A0A09F" d="M135.989,81.281c0-1.586-1.289-2.876-2.875-2.876s-2.877,1.29-2.877,2.876v6.045h5.75L135.989,81.281z
		 M134.987,86.326h-3.75v-5.045c0-1.034,0.842-1.876,1.877-1.876c1.033,0,1.875,0.842,1.873,1.929V86.326z"/>
	<path fill="#A0A09F" d="M93.329,112.622v0.101h22.621v-0.101h35.207h32.668v-1h-11.252V79.976h0.08v-5.304h-21.854l-2.82-6.248
		h-8.113v-2.896h0.074l-0.074-0.431v-0.569h-0.1l-2.068-11.864h-9.207l-2.068,11.864h-0.1v0.569l-0.076,0.431h0.076v2.896h-8.115
		l-2.914,6.459H94.329v-9.837l-0.557,0.065l-19.727,0.02c-0.834,0-1.512-0.678-1.512-1.512c0-0.104,0.012-0.209,0.033-0.311
		l0.131-0.606H58.985c-0.234-1.229-1.316-2.159-2.611-2.159c-1.297,0-2.379,0.931-2.613,2.159H39.54l0.127,0.603
		c0.022,0.105,0.033,0.211,0.033,0.314c0,0.834-0.678,1.512-1.512,1.512H18.416v46.491h-4.583v1h4.583H93.329z M50.311,106.06
		h-4.451v-5.703c0-1.454,1.627-2.625,2.237-3.013c0.609,0.357,2.216,1.457,2.214,3.072V106.06z M58.631,106.06h-5.318v-6.716
		c0-1.759,1.988-3.156,2.674-3.586c0.682,0.396,2.648,1.704,2.645,3.654V106.06z M66.086,106.06h-4.451v-5.703
		c0-1.454,1.627-2.625,2.238-3.013c0.609,0.357,2.215,1.457,2.213,3.072V106.06z M45.184,107.219v-0.159h6.127h1.003h7.318h1.004
		h5.98v0.159v0.533H45.184V107.219z M67.616,108.752h0.229v0.691h-23.89v-0.691h0.229H67.616z M68.844,110.443h0.584v0.691H42.371
		v-0.691h0.583H68.844z M126.323,69.424v5.648h-10.018l2.549-5.648H126.323z M127.323,68.424v-2.896h2.746v2.896v0.5v0.5v4h6.051v-4
		v-0.5v-0.5v-2.896h2.746v2.896v0.5v0.5v5.648v0.5v0.5v15.09h-2.783l-3.34-2.583l-2.988,2.583h-2.432v-15.09v-0.5v-0.5v-5.648v-0.5
		V68.424z M136.858,53.664l1.893,10.864h-2.639l-0.008-0.261h-0.064c-0.297-1.367-1.512-2.379-2.945-2.379
		c-1.436,0-2.648,1.012-2.945,2.379h-0.08v0.261h-2.633l1.895-10.864H136.858z M135.106,65.528l0.006,2.896l0.002,0.5v0.5l0.006,3
		h-4.051v-3v-0.5v-0.5v-2.896v-0.495v-0.005l0.014-0.231c0.006-0.092,0.023-0.18,0.041-0.269c0.184-0.938,0.996-1.64,1.971-1.64
		c0.973,0,1.787,0.702,1.969,1.64c0.018,0.089,0.037,0.177,0.043,0.269v0.231V65.528z M163.055,111.387v-9.561
		c0-1.467,1.193-2.66,2.66-2.66c1.469,0,2.662,1.193,2.658,2.729v9.491H163.055z M165.715,98.166c-2.018,0-3.66,1.643-3.66,3.66
		v9.686h-10.898v-4.617v-26.66h20.416v31.277h-2.199l0.004-9.686C169.377,99.809,167.735,98.166,165.715,98.166z M149.952,79.234
		v0.741v26.919h-9.398h-0.688v-0.444v-1.585V92.162v-0.986V76.072h10.086V79.234z M126.635,107.895h12.918v1.03h-12.918V107.895z
		 M127.323,92.176h2.789l0.016-0.014l0.578-0.5l0.578-0.5l1.494-1.291l1.67,1.291l0.646,0.5l0.646,0.5l0.016,0.014h3.109v12.689
		h-2.115l0.004-7.29c0-2.019-1.643-3.661-3.66-3.661c-2.02,0-3.662,1.643-3.662,3.661v7.29h-2.109V92.176z M149.952,111.389h-8.514
		v-2.464h-0.885v-1.03h9.398V111.389z M140.438,109.925v1.03H125.75v-1.03H140.438z M135.75,104.865h-5.318v-7.29
		c0-1.468,1.193-2.661,2.662-2.661c1.467,0,2.66,1.193,2.656,2.73V104.865z M127.323,106.45v-0.5v-0.085h2.609h0.5h5.318h0.5h2.615
		v0.085v0.5v0.444h-11.543V106.45z M125.635,108.925h-0.885v2.464h-8.719v-3.494h9.604V108.925z M139.866,75.072v-5.648h7.467
		l2.549,5.648H139.866z M126.323,76.072v15.104v0.986v12.703v1.585v0.444h-0.688h-9.604V80.186v-4.113H126.323z M94.329,80.445
		h20.621v31.177h-2.199l0.004-9.585c0-2.019-1.643-3.661-3.66-3.661c-2.02,0-3.662,1.643-3.662,3.661v9.585H94.329V80.445z
		 M106.432,111.597v-9.56c0-1.467,1.193-2.661,2.662-2.661c1.467,0,2.66,1.194,2.656,2.729v9.491H106.432z M171.653,75.672v3.304
		h-20.496v-2.903h0.273l-0.18-0.4H171.653z M114.842,75.883l-0.086,0.189h0.275v3.113H94.329v-3.303H114.842z M19.416,66.131h18.772
		c1.357,0,2.467-1.082,2.511-2.429h14.014v-0.5c0-0.915,0.744-1.659,1.66-1.659c0.914,0,1.658,0.744,1.658,1.659v0.5h13.502
		c0.045,1.347,1.154,2.429,2.512,2.429h19.283v8.752v4.562v0.74v31.437h-22.9v-2.179h-1.584v-1.691h-1.229v-1.692h-0.527
		l0.002-5.703c0-2.552-2.887-3.98-3.01-4.04l-0.23-0.111l-0.227,0.122c-0.121,0.066-2.988,1.651-2.988,4.029v5.703h-1.002
		l0.002-6.716c0-2.909-3.303-4.543-3.443-4.611l-0.23-0.111l-0.225,0.122c-0.141,0.076-3.423,1.892-3.423,4.601v6.716h-1.003
		l0.003-5.703c0-2.552-2.887-3.98-3.01-4.04l-0.23-0.111l-0.227,0.122c-0.121,0.066-2.987,1.651-2.987,4.029v5.703h-0.676v1.692
		h-1.229v1.691h-1.583v2.179H19.416V66.131z"/>
</g>
</svg>
