<?xml version="1.0" encoding="utf-8"?>
<!-- Generator: Adobe Illustrator 16.0.0, SVG Export Plug-In . SVG Version: 6.00 Build 0)  -->
<!DOCTYPE svg PUBLIC "-//W3C//DTD SVG 1.1//EN" "http://www.w3.org/Graphics/SVG/1.1/DTD/svg11.dtd">
<svg version="1.1" id="Layer_1" xmlns="http://www.w3.org/2000/svg" xmlns:xlink="http://www.w3.org/1999/xlink" x="0px" y="0px"
	 width="197.587px" height="132px" viewBox="-8.271 0 197.587 132" enable-background="new -8.271 0 197.587 132"
	 xml:space="preserve">
<g>
	<polygon fill="#A0A09F" points="54.614,83.91 51.909,86.25 57.636,86.25 	"/>
	<polygon fill="#A0A09F" points="112.57,59.685 109.865,62.023 115.594,62.023 	"/>
	<polygon fill="#A0A09F" points="122.385,59.685 119.68,62.023 125.408,62.023 	"/>
	<polygon fill="#A0A09F" points="132.199,59.685 129.494,62.023 135.223,62.023 	"/>
	<path fill="#A0A09F" d="M49.678,86.801h-5.75v10.572h5.75V86.801z M48.678,96.373h-3.75v-8.572h3.75V96.373z"/>
	<path fill="#A0A09F" d="M57.442,86.801h-5.75v10.572h5.75V86.801z M56.442,96.373h-3.75v-8.572h3.75V96.373z"/>
	<path fill="#A0A09F" d="M43.928,111.682h21.336V99.461H43.928V111.682z M44.928,100.461h19.336v10.221H44.928V100.461z"/>
	<path fill="#A0A09F" d="M65.206,86.801h-5.75v10.572h5.75V86.801z M64.206,96.373h-3.75v-8.572h3.75V96.373z"/>
	<path fill="#A0A09F" d="M14.936,91.797c0-1.527-1.241-2.768-2.767-2.768c-1.526,0-2.769,1.24-2.769,2.768v5.791h5.533
		L14.936,91.797z M13.934,96.588h-3.533v-4.791c0-0.975,0.793-1.768,1.769-1.768c0.974,0,1.767,0.793,1.765,1.816V96.588z"/>
	<path fill="#A0A09F" d="M18.958,89.029c-1.526,0-2.769,1.24-2.769,2.768v5.791h5.531L21.718,91.9l-0.496-0.061l0.503-0.043
		C21.725,90.27,20.484,89.029,18.958,89.029z M20.721,96.588H17.19v-4.791c0-0.975,0.793-1.768,1.769-1.768
		c0.974,0,1.767,0.793,1.763,1.816V96.588z"/>
	<path fill="#A0A09F" d="M25.748,89.029c-1.526,0-2.769,1.24-2.769,2.768v5.791h5.532l0.003-5.791
		C28.514,90.27,27.273,89.029,25.748,89.029z M27.511,96.588h-3.532v-4.791c0-0.975,0.793-1.768,1.769-1.768
		c0.974,0,1.767,0.793,1.764,1.816V96.588z"/>
	<path fill="#A0A09F" d="M9.428,80.902v5.791h5.533l0.002-5.791c0-1.527-1.241-2.768-2.767-2.768
		C10.67,78.135,9.428,79.375,9.428,80.902z M13.961,80.951v4.742h-3.533v-4.791c0-0.975,0.793-1.768,1.769-1.768
		C13.17,79.135,13.963,79.928,13.961,80.951z"/>
	<path fill="#A0A09F" d="M16.217,80.902v5.791h5.531l0.004-5.791c0-1.527-1.24-2.768-2.766-2.768
		C17.459,78.135,16.217,79.375,16.217,80.902z M17.217,80.902c0-0.975,0.794-1.768,1.77-1.768c0.974,0,1.766,0.793,1.762,1.816
		v4.742h-3.531V80.902z"/>
	<path fill="#A0A09F" d="M23.007,86.693h5.532l0.003-5.791c0-1.527-1.241-2.768-2.767-2.768c-1.526,0-2.769,1.24-2.769,2.768V86.693
		z M24.007,80.902c0-0.975,0.793-1.768,1.769-1.768c0.974,0,1.767,0.793,1.764,1.816v4.742h-3.532V80.902z"/>
	<path fill="#A0A09F" d="M2.077,90.672c0-0.99-0.806-1.795-1.795-1.795c-0.99,0-1.796,0.805-1.796,1.795v6.916h3.59L2.077,90.672z
		 M1.076,96.588h-1.59v-5.916c0-0.439,0.357-0.795,0.796-0.795s0.795,0.355,0.794,0.822V96.588z"/>
	<path fill="#A0A09F" d="M7.201,90.672c0-0.99-0.806-1.795-1.795-1.795s-1.795,0.805-1.795,1.795v6.916H7.2L7.201,90.672z
		 M6.2,96.588H4.611v-5.916c0-0.439,0.356-0.795,0.795-0.795s0.795,0.355,0.794,0.822V96.588z"/>
	<path fill="#A0A09F" d="M32.565,88.877c-0.99,0-1.796,0.805-1.796,1.795v6.916h3.59l0.001-6.916
		C34.36,89.682,33.554,88.877,32.565,88.877z M33.359,96.588h-1.59v-5.916c0-0.439,0.357-0.795,0.796-0.795s0.795,0.355,0.794,0.822
		V96.588z"/>
	<path fill="#A0A09F" d="M39.287,90.672c0-0.99-0.806-1.795-1.795-1.795c-0.99,0-1.796,0.805-1.796,1.795v6.916h3.59L39.287,90.672z
		 M38.286,96.588h-1.59v-5.916c0-0.439,0.357-0.795,0.796-0.795s0.795,0.355,0.794,0.822V96.588z"/>
	<path fill="#A0A09F" d="M2.077,79.822c0-0.99-0.806-1.797-1.795-1.797c-0.99,0-1.796,0.807-1.796,1.797v6.914h3.59L2.077,79.822z
		 M1.076,85.736h-1.59v-5.914c0-0.439,0.357-0.797,0.796-0.797s0.795,0.357,0.794,0.824V85.736z"/>
	<path fill="#A0A09F" d="M7.202,79.822c0-0.99-0.806-1.797-1.795-1.797s-1.795,0.807-1.795,1.797v6.914h3.589L7.202,79.822z
		 M6.201,85.736H4.612v-5.914c0-0.439,0.356-0.797,0.795-0.797s0.795,0.357,0.794,0.824V85.736z"/>
	<path fill="#A0A09F" d="M32.565,78.025c-0.99,0-1.796,0.807-1.796,1.797v6.914h3.59l0.001-6.914
		C34.36,78.832,33.554,78.025,32.565,78.025z M33.359,85.736h-1.59v-5.914c0-0.439,0.357-0.797,0.796-0.797s0.795,0.357,0.794,0.824
		V85.736z"/>
	<path fill="#A0A09F" d="M39.287,79.822c0-0.99-0.806-1.797-1.795-1.797c-0.99,0-1.796,0.807-1.796,1.797v6.914h3.59L39.287,79.822z
		 M38.286,85.736h-1.59v-5.914c0-0.439,0.357-0.797,0.796-0.797s0.795,0.357,0.794,0.824V85.736z"/>
	<path fill="#A0A09F" d="M2.077,68.107c0-0.99-0.806-1.797-1.795-1.797c-0.99,0-1.796,0.807-1.796,1.797v6.914h3.59L2.077,68.107z
		 M1.076,74.021h-1.59v-5.914c0-0.439,0.357-0.797,0.796-0.797s0.795,0.357,0.794,0.824V74.021z"/>
	<path fill="#A0A09F" d="M7.661,68.107c0-0.99-0.806-1.797-1.795-1.797s-1.795,0.807-1.795,1.797v6.914h3.588L7.661,68.107z
		 M6.659,74.021H5.071v-5.914c0-0.439,0.356-0.797,0.795-0.797s0.795,0.357,0.793,0.824V74.021z"/>
	<path fill="#A0A09F" d="M12.909,68.107c0-0.99-0.806-1.797-1.795-1.797c-0.991,0-1.797,0.807-1.797,1.797v6.914h3.59L12.909,68.107
		z M11.907,74.021h-1.59v-5.914c0-0.439,0.357-0.797,0.797-0.797c0.438,0,0.795,0.357,0.793,0.824V74.021z"/>
	<path fill="#A0A09F" d="M18.157,68.107c0-0.99-0.806-1.797-1.795-1.797s-1.795,0.807-1.795,1.797v6.914h3.59V68.107z
		 M17.157,74.021h-1.59v-5.914c0-0.439,0.356-0.797,0.795-0.797s0.795,0.357,0.795,0.824V74.021z"/>
	<path fill="#A0A09F" d="M23.405,68.107c0-0.99-0.806-1.797-1.795-1.797s-1.795,0.807-1.795,1.797v6.914h3.59V68.107z
		 M22.405,74.021h-1.59v-5.914c0-0.439,0.356-0.797,0.795-0.797s0.795,0.357,0.795,0.824V74.021z"/>
	<path fill="#A0A09F" d="M28.653,68.107c0-0.99-0.806-1.797-1.795-1.797s-1.795,0.807-1.795,1.797v6.914h3.59V68.107z
		 M27.653,74.021h-1.59v-5.914c0-0.439,0.356-0.797,0.795-0.797s0.795,0.357,0.795,0.824V74.021z"/>
	<path fill="#A0A09F" d="M33.901,68.107c0-0.99-0.806-1.797-1.795-1.797c-0.991,0-1.797,0.807-1.797,1.797v6.914h3.59L33.901,68.107
		z M32.899,74.021h-1.59v-5.914c0-0.439,0.357-0.797,0.797-0.797c0.438,0,0.795,0.357,0.793,0.824V74.021z"/>
	<path fill="#A0A09F" d="M39.287,68.107c0-0.99-0.806-1.797-1.795-1.797c-0.99,0-1.796,0.807-1.796,1.797v6.914h3.59L39.287,68.107z
		 M38.286,74.021h-1.59v-5.914c0-0.439,0.357-0.797,0.796-0.797s0.795,0.357,0.794,0.824V74.021z"/>
	<path fill="#A0A09F" d="M75.542,86.018h-5.75V96.59h5.75V86.018z M74.542,95.59h-3.75v-8.572h3.75V95.59z"/>
	<path fill="#A0A09F" d="M77.263,101.092h-7.472v9.215h7.472V101.092z M76.263,109.307h-5.472v-7.215h5.472V109.307z"/>
	<path fill="#A0A09F" d="M86.883,86.018h-5.75V96.59h5.75V86.018z M85.883,95.59h-3.75v-8.572h3.75V95.59z"/>
	<path fill="#A0A09F" d="M172.705,86.018h-5.75V96.59h5.75V86.018z M171.705,95.59h-3.75v-8.572h3.75V95.59z"/>
	<path fill="#A0A09F" d="M174.426,101.092h-7.471v9.215h7.471V101.092z M173.426,109.307h-5.471v-7.215h5.471V109.307z"/>
	<path fill="#A0A09F" d="M184.047,86.018h-5.75V96.59h5.75V86.018z M183.047,95.59h-3.75v-8.572h3.75V95.59z"/>
	<path fill="#A0A09F" d="M186.625,81.633V77.07h-21.527V66.242h0.152l-0.152-0.566v-0.689h-0.186l-3.932-14.645h-7.188v-3.775h0.092
		l-0.092-0.14v-0.491h-0.318l-8.273-12.768l-7.406,12.768h-0.576v4.406h-28.477v-3.775h0.092l-0.092-0.142v-0.49h-0.316
		l-8.275-12.768l-2.869,4.949l-3.867-18.708l-5.092,27.545h0.238V77.07H68.327v-0.217H58.96l-4.767-3.688l-4.265,3.688h-8.115
		V61.771h2.767L35.494,53.8l-3.991,3.912l-2.276-9.313h-2.831v-9.997h-1v0.056l-0.234,0.029c-0.029,0.003-2.907,0.359-5.39,0.359
		c-1.711,0-3.604-0.623-3.622-0.629L15.491,38v7.599l0.347,0.112c0.087,0.028,2.133,0.678,4.079,0.678
		c1.821,0,5.214-0.351,5.357-0.366l0.121-0.013v2.389h-2.947l-3.127,12.793H9.595L1.168,53.8l-8.133,7.972h2.632v53.18H30.58h8.702
		h1.704h0.828h26.414v-0.041H88.56v0.037h3.608h1.679h5.359h9.535h2.295h5.75h3.035h5.75h3.037h5.75h2.859h16.574h1.877h5.75h3.678
		v-0.037h21.535V81.633H186.625z M19.917,45.389c-0.694,0-1.413-0.095-2.037-0.21l0.189-5.484c0.539,0.087,1.124,0.152,1.702,0.152
		c1.109,0,2.27-0.067,3.242-0.144l0.07,5.515C22.019,45.306,20.772,45.389,19.917,45.389z M185.625,78.07v3.303h-20.527V78.07
		H185.625z M152.793,113.947h-14.574V66.242v-0.256v-0.744v-0.256v-8.285h14.574v8.285v0.256v0.744v0.256V113.947z M107.742,113.947
		h-8.535h-0.5h-0.5h-3.359h-1h-0.68V56.701h3.088h1.037h0.914h0.5h0.5h8.535v8.285v0.256v0.744v0.256V113.947z M96.527,39.414
		l-3.782,6.521h-0.577v0.017h-2.646l3.946-21.34L96.527,39.414z M106.994,45.566H98.82h-0.51h-0.512h-3.684l2.717-4.683l0.375-0.649
		l0.377-0.649l2.613-4.506L106.994,45.566z M138.219,50.341v-3.406h14.574v3.406v1v4.129v0.23h-4.682v-0.23v-4.129v-1v-1.837h-5.75
		v1.837v1v4.129v0.23h-4.143v-0.23v-4.129V50.341z M143.361,51.341v-1v-0.837h3.75v0.837v1v3.448h-3.75V51.341z M102.266,50.341v1
		v3.448h-3.059h-0.5h-0.191v-2.647v-1.8v-0.837h0.191h0.5h3.059V50.341z M107.742,50.341v1v4.129v0.23h-4.477v-0.23v-4.129v-1
		v-1.837h-4.059h-0.5h-0.5h-0.691v3.503v3.463v0.23h-0.99h-3.357v-0.23v-7.875v-0.5v-0.143v-0.017h5.936h0.104h8.535V50.341z
		 M89.56,47.595h2.608v7.875v1.23v57.246H89.56V47.595z M160.213,51.341l3.664,13.645h-10.084v-8.285v-1.23v-4.129H160.213z
		 M152.045,45.566h-12.879l6.082-10.487L152.045,45.566z M137.219,51.341v4.129v1.23v8.285h-28.477v-8.285v-1.23v-4.129H137.219z
		 M88.462,78.07v3.303H68.327V78.07H88.462z M54.229,74.457l3.097,2.396h-5.868L54.229,74.457z M41.986,77.854h6.786l-0.043,0.037
		h11.572l-0.048-0.037h6.596v3.303H41.986V77.854z M41.924,60.771H32.25H29.81l0.1-0.098l1.038-1.018l0.83-0.814l3.753-3.679
		L41.924,60.771z M23.233,49.399h5.208l2.23,9.127l-2.19,2.147h-8.004L23.233,49.399z M-4.515,60.771l5.721-5.608l6.394,5.608
		H-4.515z M-0.514,113.883v-9.328c0-2.047,1.665-3.713,3.712-3.713s3.713,1.666,3.708,3.805v9.236H-0.514z M31.58,113.951v-8.49
		c0-1.85,1.504-3.355,3.354-3.355s3.354,1.506,3.349,3.439v8.406H31.58z M40.814,113.951h-1.532l0.005-8.49
		c0-2.4-1.953-4.355-4.354-4.355s-4.354,1.955-4.354,4.355v8.49H7.906l0.005-9.396c0-2.6-2.114-4.713-4.713-4.713
		s-4.712,2.113-4.712,4.713v9.396h-1.818V62.192h44.146V113.951z M41.986,82.674h24.863v31.277H41.986V82.674z M79.953,113.783
		v-9.559c0-1.469,1.193-2.662,2.661-2.662s2.661,1.193,2.657,2.73v9.49H79.953z M88.47,113.91h-2.199l0.004-9.686
		c0-2.02-1.643-3.662-3.661-3.662s-3.661,1.643-3.661,3.662v9.686H68.228V82.633H88.47V113.91z M115.787,113.947h-3.75v-5.283h3.75
		V113.947z M124.572,113.947h-3.75v-5.283h3.75V113.947z M133.359,113.947h-3.75v-5.283h3.75V113.947z M134.359,113.947v-6.283
		h-5.75v6.283h-3.037v-6.283h-5.75v6.283h-3.035v-6.283h-5.75v6.283h-2.295V66.242h28.477v47.705H134.359z M160.42,113.947h-3.75
		v-5.283h3.75V113.947z M155.67,107.664v6.283h-1.877V66.242h10.305V77.07h-0.086v4.562v0.74v31.574h-2.592v-6.283H155.67z
		 M177.115,113.783v-9.559c0-1.469,1.193-2.662,2.662-2.662c1.467,0,2.66,1.193,2.656,2.73v9.49H177.115z M185.633,113.91h-2.199
		l0.004-9.686c0-2.02-1.643-3.662-3.66-3.662c-2.02,0-3.662,1.643-3.662,3.662v9.686h-11.018V82.633h20.535V113.91z"/>
	<path fill="#A0A09F" d="M175.639,116.699c-1.689,0-2.541,0.463-3.365,0.912c-0.746,0.406-1.451,0.789-2.889,0.789
		s-2.143-0.383-2.889-0.789c-0.824-0.449-1.676-0.912-3.367-0.912c-1.693,0-2.545,0.463-3.369,0.912
		c-0.748,0.406-1.453,0.789-2.891,0.789c-1.436,0-2.143-0.383-2.889-0.789c-0.824-0.449-1.676-0.912-3.367-0.912
		s-2.543,0.463-3.367,0.912c-0.746,0.406-1.453,0.789-2.889,0.789c-1.438,0-2.145-0.383-2.893-0.789
		c-0.824-0.449-1.676-0.912-3.367-0.912s-2.543,0.463-3.367,0.912c-0.748,0.406-1.453,0.789-2.891,0.789s-2.143-0.383-2.891-0.789
		c-0.824-0.449-1.676-0.912-3.369-0.912c-1.691,0-2.543,0.463-3.367,0.912c-0.748,0.406-1.453,0.789-2.891,0.789
		s-2.143-0.383-2.891-0.789c-0.824-0.449-1.676-0.912-3.369-0.912c-1.691,0-2.543,0.463-3.367,0.912
		c-0.748,0.406-1.453,0.789-2.891,0.789s-2.145-0.383-2.891-0.789c-0.826-0.449-1.678-0.912-3.371-0.912
		c-1.691,0-2.543,0.463-3.367,0.912c-0.748,0.406-1.454,0.789-2.891,0.789c-1.438,0-2.144-0.383-2.891-0.789
		c-0.825-0.449-1.678-0.912-3.37-0.912s-2.545,0.463-3.369,0.912c-0.748,0.406-1.454,0.789-2.893,0.789s-2.145-0.383-2.893-0.789
		c-0.824-0.449-1.677-0.912-3.369-0.912s-2.545,0.463-3.37,0.912c-0.747,0.406-1.453,0.789-2.891,0.789
		c-1.438,0-2.145-0.383-2.893-0.789c-0.824-0.449-1.677-0.912-3.369-0.912c-1.691,0-2.543,0.463-3.367,0.912
		c-0.747,0.406-1.452,0.789-2.89,0.789s-2.143-0.383-2.89-0.789c-0.824-0.449-1.677-0.912-3.369-0.912s-2.545,0.463-3.369,0.912
		c-0.748,0.406-1.454,0.789-2.893,0.789c-1.439,0-2.146-0.383-2.894-0.789c-0.824-0.449-1.677-0.912-3.369-0.912
		s-2.545,0.463-3.369,0.912c-0.748,0.406-1.454,0.789-2.893,0.789s-2.146-0.383-2.894-0.789c-0.824-0.449-1.677-0.912-3.37-0.912
		c-1.692,0-2.545,0.463-3.37,0.912c-0.747,0.406-1.453,0.789-2.891,0.789c-1.439,0-2.146-0.383-2.895-0.789
		c-0.824-0.449-1.678-0.912-3.371-0.912c-1.694,0-2.548,0.463-3.373,0.912c-0.749,0.406-1.456,0.789-2.896,0.789
		c-1.441,0-2.148-0.383-2.897-0.789c-0.825-0.449-1.679-0.912-3.373-0.912v1c1.44,0,2.147,0.385,2.896,0.791
		c0.825,0.447,1.679,0.91,3.374,0.91c1.694,0,2.548-0.463,3.373-0.91c0.749-0.406,1.456-0.791,2.896-0.791
		c1.439,0,2.146,0.385,2.895,0.791c0.824,0.447,1.678,0.91,3.371,0.91c1.691,0,2.544-0.463,3.368-0.91
		c0.748-0.406,1.454-0.791,2.893-0.791s2.146,0.385,2.894,0.791c0.824,0.447,1.677,0.91,3.37,0.91c1.692,0,2.545-0.463,3.369-0.91
		c0.748-0.406,1.454-0.791,2.893-0.791s2.145,0.385,2.893,0.791c0.824,0.447,1.677,0.91,3.37,0.91c1.692,0,2.545-0.463,3.369-0.91
		c0.748-0.406,1.454-0.791,2.893-0.791c1.438,0,2.144,0.385,2.892,0.791c0.823,0.447,1.676,0.91,3.367,0.91s2.544-0.463,3.368-0.91
		c0.746-0.406,1.452-0.791,2.889-0.791c1.438,0,2.145,0.385,2.893,0.791c0.824,0.447,1.677,0.91,3.369,0.91s2.544-0.463,3.368-0.91
		c0.748-0.406,1.454-0.791,2.893-0.791s2.145,0.385,2.893,0.791c0.824,0.447,1.677,0.91,3.369,0.91s2.545-0.463,3.369-0.91
		c0.748-0.406,1.454-0.791,2.893-0.791s2.145,0.385,2.893,0.791c0.824,0.447,1.676,0.91,3.369,0.91c1.691,0,2.545-0.463,3.369-0.91
		c0.746-0.406,1.451-0.791,2.889-0.791c1.439,0,2.145,0.385,2.893,0.791c0.824,0.447,1.676,0.91,3.369,0.91
		c1.691,0,2.545-0.463,3.369-0.91c0.746-0.406,1.451-0.791,2.889-0.791s2.145,0.385,2.893,0.791c0.824,0.447,1.676,0.91,3.367,0.91
		s2.545-0.463,3.369-0.91c0.746-0.406,1.451-0.791,2.889-0.791s2.145,0.385,2.891,0.791c0.826,0.447,1.678,0.91,3.369,0.91
		s2.545-0.463,3.369-0.91c0.746-0.406,1.451-0.791,2.889-0.791s2.143,0.385,2.891,0.791c0.824,0.447,1.676,0.91,3.369,0.91
		c1.691,0,2.543-0.463,3.367-0.91c0.746-0.406,1.451-0.791,2.889-0.791s2.143,0.385,2.889,0.791c0.824,0.447,1.676,0.91,3.367,0.91
		s2.545-0.463,3.367-0.91c0.748-0.406,1.455-0.791,2.893-0.791c1.436,0,2.143,0.385,2.889,0.791c0.824,0.447,1.676,0.91,3.367,0.91
		s2.543-0.463,3.367-0.91c0.746-0.406,1.451-0.791,2.887-0.791c1.438,0,2.143,0.385,2.889,0.791c0.824,0.447,1.676,0.91,3.367,0.91
		v-1c-1.436,0-2.143-0.383-2.889-0.789C178.182,117.162,177.33,116.699,175.639,116.699z"/>
	<path fill="#A0A09F" d="M170.984,121.08c-1.611,0-2.457,0.488-3.203,0.918c-0.701,0.402-1.363,0.783-2.707,0.783
		s-2.006-0.381-2.707-0.783c-0.748-0.43-1.594-0.918-3.205-0.918c-1.613,0-2.459,0.488-3.207,0.918
		c-0.701,0.402-1.363,0.783-2.707,0.783c-1.346,0-2.006-0.381-2.707-0.783c-0.746-0.43-1.594-0.918-3.205-0.918
		s-2.457,0.488-3.205,0.918c-0.701,0.402-1.361,0.783-2.707,0.783c-1.344,0-2.006-0.381-2.707-0.783
		c-0.748-0.43-1.596-0.918-3.207-0.918s-2.459,0.488-3.205,0.918c-0.701,0.402-1.363,0.783-2.707,0.783
		c-1.346,0-2.008-0.381-2.709-0.783c-0.748-0.43-1.594-0.918-3.207-0.918c-1.611,0-2.459,0.488-3.205,0.918
		c-0.732,0.42-1.363,0.783-2.707,0.783c-1.346,0-2.008-0.381-2.709-0.783c-0.746-0.43-1.594-0.918-3.205-0.918
		c-1.613,0-2.459,0.488-3.207,0.918c-0.701,0.402-1.363,0.783-2.707,0.783c-1.346,0-2.008-0.381-2.709-0.783
		c-0.748-0.43-1.596-0.918-3.207-0.918c-1.613,0-2.461,0.488-3.207,0.918c-0.701,0.402-1.364,0.783-2.709,0.783
		s-2.007-0.381-2.708-0.783c-0.747-0.43-1.595-0.918-3.207-0.918c-1.613,0-2.461,0.488-3.208,0.918
		c-0.701,0.402-1.363,0.783-2.709,0.783s-2.008-0.381-2.709-0.783c-0.747-0.43-1.595-0.918-3.207-0.918s-2.46,0.488-3.207,0.918
		c-0.701,0.402-1.363,0.783-2.709,0.783s-2.008-0.381-2.709-0.783c-0.747-0.43-1.595-0.918-3.208-0.918
		c-1.611,0-2.458,0.488-3.204,0.918c-0.701,0.402-1.362,0.783-2.707,0.783c-1.346,0-2.008-0.381-2.709-0.783
		c-0.747-0.43-1.594-0.918-3.206-0.918c-1.613,0-2.461,0.488-3.208,0.918c-0.701,0.402-1.363,0.783-2.709,0.783
		s-2.008-0.381-2.709-0.783c-0.747-0.43-1.595-0.918-3.208-0.918s-2.461,0.488-3.208,0.918c-0.701,0.402-1.363,0.783-2.709,0.783
		c-1.347,0-2.01-0.381-2.711-0.783c-0.748-0.43-1.595-0.918-3.208-0.918c-1.612,0-2.459,0.488-3.206,0.918
		c-0.701,0.402-1.363,0.783-2.709,0.783c-1.347,0-2.009-0.381-2.711-0.783c-0.748-0.43-1.596-0.918-3.21-0.918
		c-1.615,0-2.463,0.488-3.212,0.918c-0.702,0.402-1.365,0.783-2.713,0.783s-2.011-0.381-2.713-0.783
		c-0.749-0.43-1.597-0.918-3.212-0.918v1c1.349,0,2.012,0.381,2.714,0.785c0.748,0.43,1.597,0.916,3.211,0.916
		s2.463-0.486,3.211-0.916c0.702-0.404,1.365-0.785,2.714-0.785c1.348,0,2.01,0.381,2.712,0.785c0.748,0.43,1.596,0.916,3.209,0.916
		c1.612,0,2.46-0.486,3.207-0.916c0.701-0.404,1.363-0.785,2.708-0.785c1.346,0,2.009,0.381,2.71,0.785
		c0.748,0.43,1.596,0.916,3.209,0.916c1.612,0,2.46-0.486,3.207-0.916c0.701-0.404,1.364-0.785,2.71-0.785s2.009,0.381,2.71,0.785
		c0.747,0.43,1.595,0.916,3.207,0.916s2.46-0.486,3.207-0.916c0.701-0.404,1.364-0.785,2.71-0.785c1.345,0,2.007,0.381,2.708,0.785
		c0.747,0.43,1.595,0.916,3.207,0.916c1.611,0,2.459-0.486,3.205-0.916c0.731-0.422,1.362-0.785,2.706-0.785
		c1.346,0,2.009,0.381,2.71,0.785c0.747,0.43,1.595,0.916,3.207,0.916s2.46-0.486,3.207-0.916c0.701-0.404,1.363-0.785,2.709-0.785
		s2.008,0.381,2.709,0.785c0.747,0.43,1.595,0.916,3.207,0.916s2.46-0.486,3.207-0.916c0.701-0.404,1.364-0.785,2.71-0.785
		s2.008,0.381,2.709,0.785c0.747,0.43,1.595,0.916,3.207,0.916c1.613,0,2.459-0.486,3.207-0.916
		c0.701-0.404,1.363-0.785,2.709-0.785s2.008,0.381,2.709,0.785c0.746,0.43,1.594,0.916,3.207,0.916
		c1.611,0,2.459-0.486,3.205-0.916c0.701-0.404,1.363-0.785,2.709-0.785c1.344,0,2.006,0.381,2.707,0.785
		c0.748,0.43,1.594,0.916,3.207,0.916c1.611,0,2.457-0.486,3.205-0.916c0.701-0.404,1.363-0.785,2.707-0.785
		c1.346,0,2.008,0.381,2.709,0.785c0.746,0.43,1.594,0.916,3.207,0.916c1.611,0,2.457-0.486,3.205-0.916
		c0.701-0.404,1.361-0.785,2.707-0.785s2.008,0.381,2.709,0.785c0.746,0.43,1.594,0.916,3.205,0.916s2.459-0.486,3.205-0.916
		c0.701-0.404,1.363-0.785,2.707-0.785s1.975,0.363,2.707,0.785c0.746,0.43,1.594,0.916,3.205,0.916s2.459-0.486,3.205-0.916
		c0.701-0.404,1.363-0.785,2.709-0.785c1.344,0,1.975,0.363,2.707,0.785c0.746,0.43,1.594,0.916,3.205,0.916
		s2.459-0.486,3.205-0.916c0.73-0.422,1.361-0.785,2.705-0.785s2.006,0.381,2.707,0.785c0.746,0.43,1.592,0.916,3.203,0.916v-1
		c-1.344,0-1.975-0.363-2.705-0.783C173.441,121.568,172.596,121.08,170.984,121.08z"/>
	<path fill="#A0A09F" d="M25.836,52.335c-1.93,0-3.499,1.569-3.499,3.498c0,1.93,1.569,3.5,3.499,3.5s3.499-1.57,3.499-3.5
		C29.335,53.904,27.766,52.335,25.836,52.335z M25.836,58.333c-1.378,0-2.499-1.121-2.499-2.5c0-1.377,1.121-2.498,2.499-2.498
		s2.499,1.121,2.499,2.498C28.335,57.212,27.214,58.333,25.836,58.333z"/>
	<path fill="#A0A09F" d="M18.659,99.701c-6.051,0-8.982,2.742-9.104,2.859l-0.154,0.148v6.896h19.406v-6.938l-0.205-0.15
		C28.444,102.402,24.672,99.701,18.659,99.701z M27.807,108.605H10.401v-5.455c0.649-0.527,3.354-2.449,8.258-2.449
		c4.91,0,8.303,1.947,9.148,2.488V108.605z"/>
	<polygon fill="#A0A09F" points="20.982,41.807 20.473,40.811 19.994,41.821 18.888,41.782 19.701,42.768 19.328,43.406 
		19.998,43.367 19.998,44 20.998,44 20.998,43.354 21.656,43.376 21.302,42.744 22.092,41.734 	"/>
	<polygon fill="#A0A09F" points="96.428,64.986 96.428,65.242 96.428,65.572 97.773,65.572 97.773,65.242 97.773,64.986 
		97.773,64.572 96.428,64.572 	"/>
	<polygon fill="#A0A09F" points="96.428,59.463 96.428,59.924 96.428,60.463 97.773,60.463 97.773,59.463 96.551,59.463 	"/>
	<rect x="96.428" y="74.793" fill="#A0A09F" width="1.346" height="1"/>
	<rect x="96.428" y="69.684" fill="#A0A09F" width="1.346" height="1"/>
	<rect x="96.428" y="86.072" fill="#A0A09F" width="1.346" height="1"/>
	<rect x="96.428" y="80.963" fill="#A0A09F" width="1.346" height="1"/>
	<rect x="96.428" y="96.293" fill="#A0A09F" width="1.346" height="1"/>
	<rect x="96.428" y="91.184" fill="#A0A09F" width="1.346" height="1"/>
	<rect x="96.428" y="106.572" fill="#A0A09F" width="1.346" height="1"/>
	<rect x="96.428" y="101.463" fill="#A0A09F" width="1.346" height="1"/>
	<rect x="96.428" y="111.684" fill="#A0A09F" width="1.346" height="1"/>
	<polygon fill="#A0A09F" points="102.545,64.986 102.545,65.242 102.545,65.572 103.891,65.572 103.891,65.242 103.891,64.986 
		103.891,64.572 102.545,64.572 	"/>
	<rect x="102.545" y="59.463" fill="#A0A09F" width="1.346" height="1"/>
	<rect x="102.545" y="74.793" fill="#A0A09F" width="1.346" height="1"/>
	<rect x="102.545" y="69.684" fill="#A0A09F" width="1.346" height="1"/>
	<rect x="102.545" y="86.072" fill="#A0A09F" width="1.346" height="1"/>
	<rect x="102.545" y="80.963" fill="#A0A09F" width="1.346" height="1"/>
	<rect x="102.545" y="96.293" fill="#A0A09F" width="1.346" height="1"/>
	<rect x="102.545" y="91.184" fill="#A0A09F" width="1.346" height="1"/>
	<rect x="102.545" y="106.572" fill="#A0A09F" width="1.346" height="1"/>
	<rect x="102.545" y="101.463" fill="#A0A09F" width="1.346" height="1"/>
	<rect x="102.545" y="111.684" fill="#A0A09F" width="1.346" height="1"/>
	<polygon fill="#A0A09F" points="141.271,64.986 141.271,65.242 141.271,65.572 142.617,65.572 142.617,65.242 142.617,64.986 
		142.617,64.572 141.271,64.572 	"/>
	<rect x="141.271" y="59.463" fill="#A0A09F" width="1.346" height="1"/>
	<rect x="141.271" y="74.793" fill="#A0A09F" width="1.346" height="1"/>
	<rect x="141.271" y="69.684" fill="#A0A09F" width="1.346" height="1"/>
	<rect x="141.271" y="86.072" fill="#A0A09F" width="1.346" height="1"/>
	<rect x="141.271" y="80.963" fill="#A0A09F" width="1.346" height="1"/>
	<rect x="141.271" y="96.293" fill="#A0A09F" width="1.346" height="1"/>
	<rect x="141.271" y="91.184" fill="#A0A09F" width="1.346" height="1"/>
	<rect x="141.271" y="106.572" fill="#A0A09F" width="1.346" height="1"/>
	<rect x="141.271" y="101.463" fill="#A0A09F" width="1.346" height="1"/>
	<rect x="141.271" y="111.684" fill="#A0A09F" width="1.346" height="1"/>
	<polygon fill="#A0A09F" points="147.389,64.986 147.389,65.242 147.389,65.572 148.734,65.572 148.734,65.242 148.734,64.986 
		148.734,64.572 147.389,64.572 	"/>
	<rect x="147.389" y="59.463" fill="#A0A09F" width="1.346" height="1"/>
	<rect x="147.389" y="74.793" fill="#A0A09F" width="1.346" height="1"/>
	<rect x="147.389" y="69.684" fill="#A0A09F" width="1.346" height="1"/>
	<rect x="147.389" y="86.072" fill="#A0A09F" width="1.346" height="1"/>
	<rect x="147.389" y="80.963" fill="#A0A09F" width="1.346" height="1"/>
	<rect x="147.389" y="96.293" fill="#A0A09F" width="1.346" height="1"/>
	<rect x="147.389" y="91.184" fill="#A0A09F" width="1.346" height="1"/>
	<rect x="147.389" y="106.572" fill="#A0A09F" width="1.346" height="1"/>
	<rect x="147.389" y="101.463" fill="#A0A09F" width="1.346" height="1"/>
	<rect x="147.389" y="111.684" fill="#A0A09F" width="1.346" height="1"/>
	<rect x="112.443" y="73.793" fill="#A0A09F" width="1.346" height="1"/>
	<rect x="112.443" y="68.684" fill="#A0A09F" width="1.346" height="1"/>
	<rect x="112.443" y="85.072" fill="#A0A09F" width="1.346" height="1"/>
	<rect x="112.443" y="79.963" fill="#A0A09F" width="1.346" height="1"/>
	<rect x="112.443" y="95.293" fill="#A0A09F" width="1.346" height="1"/>
	<rect x="112.443" y="90.184" fill="#A0A09F" width="1.346" height="1"/>
	<rect x="112.443" y="105.572" fill="#A0A09F" width="1.346" height="1"/>
	<rect x="112.443" y="100.463" fill="#A0A09F" width="1.346" height="1"/>
	<rect x="119.52" y="73.793" fill="#A0A09F" width="1.346" height="1"/>
	<rect x="119.52" y="68.684" fill="#A0A09F" width="1.346" height="1"/>
	<rect x="119.52" y="85.072" fill="#A0A09F" width="1.346" height="1"/>
	<rect x="119.52" y="79.963" fill="#A0A09F" width="1.346" height="1"/>
	<rect x="119.52" y="95.293" fill="#A0A09F" width="1.346" height="1"/>
	<rect x="119.52" y="90.184" fill="#A0A09F" width="1.346" height="1"/>
	<rect x="119.52" y="105.572" fill="#A0A09F" width="1.346" height="1"/>
	<rect x="119.52" y="100.463" fill="#A0A09F" width="1.346" height="1"/>
	<rect x="126.596" y="73.793" fill="#A0A09F" width="1.346" height="1"/>
	<rect x="126.596" y="68.684" fill="#A0A09F" width="1.346" height="1"/>
	<rect x="126.596" y="85.072" fill="#A0A09F" width="1.346" height="1"/>
	<rect x="126.596" y="79.963" fill="#A0A09F" width="1.346" height="1"/>
	<rect x="126.596" y="95.293" fill="#A0A09F" width="1.346" height="1"/>
	<rect x="126.596" y="90.184" fill="#A0A09F" width="1.346" height="1"/>
	<rect x="126.596" y="105.572" fill="#A0A09F" width="1.346" height="1"/>
	<rect x="126.596" y="100.463" fill="#A0A09F" width="1.346" height="1"/>
	<rect x="133.674" y="73.793" fill="#A0A09F" width="1.346" height="1"/>
	<rect x="133.674" y="68.684" fill="#A0A09F" width="1.346" height="1"/>
	<rect x="133.674" y="85.072" fill="#A0A09F" width="1.346" height="1"/>
	<rect x="133.674" y="79.963" fill="#A0A09F" width="1.346" height="1"/>
	<rect x="133.674" y="95.293" fill="#A0A09F" width="1.346" height="1"/>
	<rect x="133.674" y="90.184" fill="#A0A09F" width="1.346" height="1"/>
	<rect x="133.674" y="105.572" fill="#A0A09F" width="1.346" height="1"/>
	<rect x="133.674" y="100.463" fill="#A0A09F" width="1.346" height="1"/>
	<rect x="156.168" y="73.793" fill="#A0A09F" width="1.346" height="1"/>
	<rect x="156.168" y="68.684" fill="#A0A09F" width="1.346" height="1"/>
	<rect x="156.168" y="85.072" fill="#A0A09F" width="1.346" height="1"/>
	<rect x="156.168" y="79.963" fill="#A0A09F" width="1.346" height="1"/>
	<rect x="156.168" y="95.293" fill="#A0A09F" width="1.346" height="1"/>
	<rect x="156.168" y="90.184" fill="#A0A09F" width="1.346" height="1"/>
	<rect x="156.168" y="105.572" fill="#A0A09F" width="1.346" height="1"/>
	<rect x="156.168" y="100.463" fill="#A0A09F" width="1.346" height="1"/>
	<rect x="160.607" y="73.793" fill="#A0A09F" width="1.346" height="1"/>
	<rect x="160.607" y="68.684" fill="#A0A09F" width="1.346" height="1"/>
	<rect x="160.607" y="85.072" fill="#A0A09F" width="1.346" height="1"/>
	<rect x="160.607" y="79.963" fill="#A0A09F" width="1.346" height="1"/>
	<rect x="160.607" y="95.293" fill="#A0A09F" width="1.346" height="1"/>
	<rect x="160.607" y="90.184" fill="#A0A09F" width="1.346" height="1"/>
	<rect x="160.607" y="105.572" fill="#A0A09F" width="1.346" height="1"/>
	<rect x="160.607" y="100.463" fill="#A0A09F" width="1.346" height="1"/>
</g>
</svg>
