<?xml version="1.0" encoding="utf-8"?>
<!-- Generator: Adobe Illustrator 16.0.0, SVG Export Plug-In . SVG Version: 6.00 Build 0)  -->
<!DOCTYPE svg PUBLIC "-//W3C//DTD SVG 1.1//EN" "http://www.w3.org/Graphics/SVG/1.1/DTD/svg11.dtd">
<svg version="1.1" id="Ground" xmlns="http://www.w3.org/2000/svg" xmlns:xlink="http://www.w3.org/1999/xlink" x="0px" y="0px"
	 width="197.586px" height="132px" viewBox="0 0 197.586 132" enable-background="new 0 0 197.586 132" xml:space="preserve">
<g>
	<rect x="145.628" y="38.69" fill="#A0A09F" width="23.965" height="9.484"/>
	<rect x="145.847" y="55.335" fill="#A0A09F" width="3.51" height="1"/>
	<rect x="145.847" y="51.154" fill="#A0A09F" width="3.51" height="1"/>
	<rect x="145.847" y="63.697" fill="#A0A09F" width="3.51" height="1"/>
	<rect x="145.847" y="59.515" fill="#A0A09F" width="3.51" height="1"/>
	<rect x="145.847" y="72.926" fill="#A0A09F" width="3.51" height="1"/>
	<rect x="145.847" y="68.744" fill="#A0A09F" width="3.51" height="1"/>
	<rect x="145.847" y="81.287" fill="#A0A09F" width="3.51" height="1"/>
	<rect x="145.847" y="77.107" fill="#A0A09F" width="3.51" height="1"/>
	<rect x="145.847" y="89.699" fill="#A0A09F" width="3.51" height="1"/>
	<rect x="145.847" y="85.518" fill="#A0A09F" width="3.51" height="1"/>
	<rect x="145.847" y="98.061" fill="#A0A09F" width="3.51" height="1"/>
	<rect x="145.847" y="93.879" fill="#A0A09F" width="3.51" height="1"/>
	<rect x="155.964" y="55.335" fill="#A0A09F" width="3.51" height="1"/>
	<rect x="155.964" y="51.154" fill="#A0A09F" width="3.51" height="1"/>
	<rect x="155.964" y="63.697" fill="#A0A09F" width="3.51" height="1"/>
	<rect x="155.964" y="59.515" fill="#A0A09F" width="3.51" height="1"/>
	<rect x="155.964" y="72.926" fill="#A0A09F" width="3.51" height="1"/>
	<rect x="155.964" y="68.744" fill="#A0A09F" width="3.51" height="1"/>
	<rect x="155.964" y="81.287" fill="#A0A09F" width="3.51" height="1"/>
	<rect x="155.964" y="77.107" fill="#A0A09F" width="3.51" height="1"/>
	<rect x="155.964" y="89.699" fill="#A0A09F" width="3.51" height="1"/>
	<rect x="155.964" y="85.518" fill="#A0A09F" width="3.51" height="1"/>
	<rect x="155.964" y="98.061" fill="#A0A09F" width="3.51" height="1"/>
	<rect x="155.964" y="93.879" fill="#A0A09F" width="3.51" height="1"/>
	<rect x="161.025" y="55.335" fill="#A0A09F" width="3.51" height="1"/>
	<rect x="161.025" y="51.154" fill="#A0A09F" width="3.51" height="1"/>
	<rect x="161.025" y="63.697" fill="#A0A09F" width="3.51" height="1"/>
	<rect x="161.025" y="59.515" fill="#A0A09F" width="3.51" height="1"/>
	<rect x="161.025" y="72.926" fill="#A0A09F" width="3.51" height="1"/>
	<rect x="161.025" y="68.744" fill="#A0A09F" width="3.51" height="1"/>
	<rect x="161.025" y="81.287" fill="#A0A09F" width="3.51" height="1"/>
	<rect x="161.025" y="77.107" fill="#A0A09F" width="3.51" height="1"/>
	<rect x="161.025" y="89.699" fill="#A0A09F" width="3.51" height="1"/>
	<rect x="161.025" y="85.518" fill="#A0A09F" width="3.51" height="1"/>
	<rect x="161.025" y="98.061" fill="#A0A09F" width="3.51" height="1"/>
	<rect x="161.025" y="93.879" fill="#A0A09F" width="3.51" height="1"/>
	<rect x="166.083" y="55.335" fill="#A0A09F" width="3.51" height="1"/>
	<rect x="166.083" y="51.154" fill="#A0A09F" width="3.51" height="1"/>
	<rect x="166.083" y="63.697" fill="#A0A09F" width="3.51" height="1"/>
	<rect x="166.083" y="59.515" fill="#A0A09F" width="3.51" height="1"/>
	<rect x="166.083" y="72.926" fill="#A0A09F" width="3.51" height="1"/>
	<rect x="166.083" y="68.744" fill="#A0A09F" width="3.51" height="1"/>
	<rect x="166.083" y="81.287" fill="#A0A09F" width="3.51" height="1"/>
	<rect x="166.083" y="77.107" fill="#A0A09F" width="3.51" height="1"/>
	<rect x="166.083" y="89.699" fill="#A0A09F" width="3.51" height="1"/>
	<rect x="166.083" y="85.518" fill="#A0A09F" width="3.51" height="1"/>
	<rect x="166.083" y="98.061" fill="#A0A09F" width="3.51" height="1"/>
	<rect x="166.083" y="93.879" fill="#A0A09F" width="3.51" height="1"/>
	<rect x="150.906" y="55.335" fill="#A0A09F" width="3.51" height="1"/>
	<rect x="150.906" y="51.154" fill="#A0A09F" width="3.51" height="1"/>
	<rect x="150.906" y="63.697" fill="#A0A09F" width="3.51" height="1"/>
	<rect x="150.906" y="59.515" fill="#A0A09F" width="3.51" height="1"/>
	<rect x="150.906" y="72.926" fill="#A0A09F" width="3.51" height="1"/>
	<rect x="150.906" y="68.744" fill="#A0A09F" width="3.51" height="1"/>
	<rect x="150.906" y="81.287" fill="#A0A09F" width="3.51" height="1"/>
	<rect x="150.906" y="77.107" fill="#A0A09F" width="3.51" height="1"/>
	<rect x="150.906" y="89.699" fill="#A0A09F" width="3.51" height="1"/>
	<rect x="150.906" y="85.518" fill="#A0A09F" width="3.51" height="1"/>
	<rect x="150.906" y="98.061" fill="#A0A09F" width="3.51" height="1"/>
	<rect x="150.906" y="93.879" fill="#A0A09F" width="3.51" height="1"/>
	<path fill="#A0A09F" d="M76.361,77.09h-5.75v10.572h5.75V77.09z M75.361,86.662h-3.75V78.09h3.75V86.662z"/>
	<path fill="#A0A09F" d="M70.611,101.379h7.473v-9.215h-7.473V101.379z M71.611,93.164h5.473v7.215h-5.473V93.164z"/>
	<path fill="#A0A09F" d="M87.703,77.09h-5.75v10.572h5.75V77.09z M86.703,86.662h-3.75V78.09h3.75V86.662z"/>
	<path fill="#A0A09F" d="M130.66,77.09h-5.75v10.572h5.75V77.09z M129.66,86.662h-3.75V78.09h3.75V86.662z"/>
	<path fill="#A0A09F" d="M132.38,92.164h-7.471v9.215h7.471V92.164z M131.38,100.379h-5.471v-7.215h5.471V100.379z"/>
	<path fill="#A0A09F" d="M142.001,77.09h-5.75v10.572h5.75V77.09z M141.001,86.662h-3.75V78.09h3.75V86.662z"/>
	<path fill="#A0A09F" d="M33.839,106.143h27.532h7.26h20.598h9.564h7.637h16.201h20.893h28.176h12.016v-1h-12.016V36.808h-6.664
		v-4.782h-6.924v-7.294h-1v7.294h-6.924v4.782h-6.664v31.333H122.63V54.433h-16.201v-2.52h-7.637v2.52h-2.391v-6.301h-7.174v6.301v1
		v12.708H67.669v0.393h-1.463c0.307-0.309,0.498-0.734,0.498-1.205c0-0.941-0.764-1.704-1.703-1.704
		c-0.941,0-1.705,0.763-1.705,1.704c0,0.471,0.191,0.896,0.498,1.205h-3.051v2.703h0.627v2.266
		c-3.74-0.623-7.566-0.988-11.459-1.082c1.591,0.416,2.772,1.852,2.772,3.574c0,1.051-0.443,1.996-1.146,2.67
		c3.339,0.162,6.621,0.549,9.833,1.131v25.348H33.839V79.943c3.268-0.629,6.609-1.051,10.015-1.24
		c-0.731-0.676-1.194-1.637-1.194-2.709c0-1.695,1.146-3.109,2.698-3.551c-3.917,0.133-7.761,0.547-11.519,1.215v-2.422h0.627
		v-2.703h-3.052c0.308-0.309,0.498-0.734,0.498-1.205c0-0.941-0.763-1.704-1.703-1.704c-0.941,0-1.704,0.763-1.704,1.704
		c0,0.471,0.19,0.896,0.498,1.205h-3.052v2.703h0.627v33.906H15.136v1h11.442H33.839z M80.773,104.855v-9.561
		c0-1.467,1.193-2.66,2.66-2.66c1.469,0,2.662,1.193,2.658,2.73v9.49H80.773z M83.433,91.635c-2.018,0-3.66,1.643-3.66,3.66v9.686
		H68.669V73.703h20.559v31.277h-2.137l0.004-9.686C87.095,93.277,85.453,91.635,83.433,91.635z M67.669,70.236h-5.926v-0.703h5.926
		V70.236z M62.371,71.236h5.26v33.906h-5.26V71.236z M99.792,54.433v-1.52h5.637v1.52v1v49.709h-5.637V55.433V54.433z
		 M143.523,104.98h-2.135l0.004-9.686c0-2.018-1.643-3.66-3.66-3.66c-2.02,0-3.662,1.643-3.662,3.66v9.686h-11.104V73.703h20.557
		V104.98z M135.07,104.855v-9.561c0-1.467,1.193-2.66,2.662-2.66c1.467,0,2.66,1.193,2.656,2.73v9.49H135.07z M144.523,37.808h5.664
		h14.848h5.664v67.335h-26.111V72.703h-0.008v-4.562h-0.057V37.808z M122.966,69.141h20.557v3.305h-20.557V69.141z M121.63,55.433
		v49.709h-15.201v-4.686h7.303v-1h-7.303v-3.041h7.303v-1h-7.303v-3.041h7.303v-1h-7.303v-3.088h7.303v-1h-7.303v-3.041h7.303v-1
		h-7.303v-3.041h7.303v-1h-7.303v-3.039h7.303v-1h-7.303v-3.879h7.303v-1h-7.303v-3.041h7.303v-1h-7.303v-3.042h7.303v-1h-7.303
		v-3.041h7.303v-1h-7.303v-2.73H121.63z M90.228,49.132h5.174v5.301h-5.174V49.132z M90.228,55.433h6.174h2.391v2.73h-2.891v1h2.891
		v3.041h-2.891v1h2.891v3.042h-2.891v1h2.891v3.041h-2.891v1h2.891v3.879h-2.891v1h2.891v3.039h-2.891v1h2.891v3.041h-2.891v1h2.891
		v3.041h-2.891v1h2.891v3.088h-2.891v1h2.891v3.041h-2.891v1h2.891v3.041h-2.891v1h2.891v4.686h-8.502V72.703h-0.008v-4.562h-0.055
		V55.433z M89.228,72.445H68.669v-1.209h0.588v-2.096h19.971V72.445z M33.466,70.236h-6.515v-0.703h6.515V70.236z M27.578,71.236
		h5.261v33.906h-5.261V71.236z"/>
	<rect x="8.02" y="114.07" fill="#A0A09F" width="181.548" height="1"/>
	<rect x="175.498" y="108.387" fill="#A0A09F" width="4.189" height="1"/>
	<rect x="166.628" y="108.387" fill="#A0A09F" width="4.188" height="1"/>
	<rect x="157.757" y="108.387" fill="#A0A09F" width="4.189" height="1"/>
	<rect x="148.888" y="108.387" fill="#A0A09F" width="4.188" height="1"/>
	<rect x="140.017" y="108.387" fill="#A0A09F" width="4.189" height="1"/>
	<rect x="131.148" y="108.387" fill="#A0A09F" width="4.188" height="1"/>
	<rect x="122.277" y="108.387" fill="#A0A09F" width="4.189" height="1"/>
	<rect x="113.408" y="108.387" fill="#A0A09F" width="4.188" height="1"/>
	<rect x="104.537" y="108.387" fill="#A0A09F" width="4.189" height="1"/>
	<rect x="95.667" y="108.387" fill="#A0A09F" width="4.188" height="1"/>
	<rect x="86.796" y="108.387" fill="#A0A09F" width="4.189" height="1"/>
	<rect x="77.927" y="108.387" fill="#A0A09F" width="4.188" height="1"/>
	<rect x="69.056" y="108.387" fill="#A0A09F" width="4.189" height="1"/>
	<rect x="60.187" y="108.387" fill="#A0A09F" width="4.188" height="1"/>
	<rect x="51.316" y="108.387" fill="#A0A09F" width="4.189" height="1"/>
	<rect x="42.446" y="108.387" fill="#A0A09F" width="4.188" height="1"/>
	<rect x="33.576" y="108.387" fill="#A0A09F" width="4.188" height="1"/>
	<rect x="24.706" y="108.387" fill="#A0A09F" width="4.188" height="1"/>
	<rect x="15.836" y="108.387" fill="#A0A09F" width="4.188" height="1"/>
</g>
</svg>
