<?xml version="1.0" encoding="utf-8"?>
<!-- Generator: Adobe Illustrator 16.0.0, SVG Export Plug-In . SVG Version: 6.00 Build 0)  -->
<!DOCTYPE svg PUBLIC "-//W3C//DTD SVG 1.1//EN" "http://www.w3.org/Graphics/SVG/1.1/DTD/svg11.dtd">
<svg version="1.1" id="Layer_1" xmlns="http://www.w3.org/2000/svg" xmlns:xlink="http://www.w3.org/1999/xlink" x="0px" y="0px"
	 width="197.587px" height="132px" viewBox="-8.271 0 197.587 132" enable-background="new -8.271 0 197.587 132"
	 xml:space="preserve">
<g>
	<rect x="89.037" y="82.338" fill="#A0A09F" width="5.268" height="3.868"/>
	<rect x="89.037" y="90.095" fill="#A0A09F" width="5.268" height="3.868"/>
	<rect x="89.037" y="97.852" fill="#A0A09F" width="5.268" height="3.869"/>
	<rect x="89.037" y="105.609" fill="#A0A09F" width="5.268" height="3.868"/>
	<rect x="83.541" y="82.338" fill="#A0A09F" width="2.964" height="3.868"/>
	<rect x="83.541" y="90.095" fill="#A0A09F" width="2.964" height="3.868"/>
	<rect x="83.541" y="97.852" fill="#A0A09F" width="2.964" height="3.869"/>
	<rect x="83.541" y="105.609" fill="#A0A09F" width="2.964" height="3.868"/>
	<path fill="#A0A09F" d="M105.382,85.9h-5.75v10.572h5.75V85.9z M104.382,95.473h-3.75V86.9h3.75V95.473z"/>
	<path fill="#A0A09F" d="M107.104,100.975h-7.472v9.215h7.472V100.975z M106.104,109.189h-5.472v-7.215h5.472V109.189z"/>
	<path fill="#A0A09F" d="M116.724,85.9h-5.75v10.572h5.75V85.9z M115.724,95.473h-3.75V86.9h3.75V95.473z"/>
	<path fill="#A0A09F" d="M173.087,117.68c-1.69,0-2.542,0.463-3.366,0.912c-0.746,0.406-1.451,0.789-2.888,0.789
		c-1.438,0-2.143-0.383-2.89-0.789c-0.824-0.449-1.676-0.912-3.367-0.912c-1.692,0-2.545,0.463-3.369,0.912
		c-0.747,0.406-1.452,0.789-2.89,0.789c-1.437,0-2.143-0.383-2.889-0.789c-0.824-0.449-1.676-0.912-3.367-0.912
		s-2.544,0.463-3.368,0.912c-0.746,0.406-1.452,0.789-2.889,0.789c-1.438,0-2.144-0.383-2.892-0.789
		c-0.824-0.449-1.676-0.912-3.368-0.912c-1.691,0-2.543,0.463-3.367,0.912c-0.747,0.406-1.452,0.789-2.89,0.789
		s-2.144-0.383-2.891-0.789c-0.825-0.449-1.677-0.912-3.369-0.912c-1.691,0-2.544,0.463-3.368,0.912
		c-0.747,0.406-1.452,0.789-2.89,0.789s-2.144-0.383-2.891-0.789c-0.825-0.449-1.677-0.912-3.369-0.912
		c-1.691,0-2.544,0.463-3.367,0.912c-0.748,0.406-1.454,0.789-2.892,0.789s-2.144-0.383-2.891-0.789
		c-0.825-0.449-1.678-0.912-3.37-0.912c-1.691,0-2.544,0.463-3.367,0.912c-0.748,0.406-1.454,0.789-2.892,0.789
		s-2.144-0.383-2.891-0.789c-0.825-0.449-1.678-0.912-3.37-0.912s-2.545,0.463-3.369,0.912c-0.748,0.406-1.454,0.789-2.893,0.789
		s-2.145-0.383-2.893-0.789c-0.824-0.449-1.677-0.912-3.369-0.912s-2.545,0.463-3.37,0.912c-0.747,0.406-1.453,0.789-2.891,0.789
		c-1.438,0-2.145-0.383-2.893-0.789c-0.824-0.449-1.677-0.912-3.369-0.912c-1.691,0-2.543,0.463-3.367,0.912
		c-0.747,0.406-1.452,0.789-2.89,0.789s-2.143-0.383-2.89-0.789c-0.824-0.449-1.677-0.912-3.369-0.912s-2.545,0.463-3.369,0.912
		c-0.748,0.406-1.454,0.789-2.893,0.789c-1.439,0-2.146-0.383-2.894-0.789c-0.824-0.449-1.677-0.912-3.369-0.912
		s-2.545,0.463-3.369,0.912c-0.748,0.406-1.454,0.789-2.893,0.789s-2.146-0.383-2.894-0.789c-0.824-0.449-1.677-0.912-3.37-0.912
		c-1.692,0-2.545,0.463-3.37,0.912c-0.747,0.406-1.453,0.789-2.891,0.789c-1.439,0-2.146-0.383-2.895-0.789
		c-0.824-0.449-1.678-0.912-3.371-0.912c-1.694,0-2.548,0.463-3.373,0.912c-0.749,0.406-1.456,0.789-2.896,0.789
		c-1.441,0-2.148-0.383-2.897-0.789c-0.825-0.449-1.679-0.912-3.373-0.912v1c1.44,0,2.147,0.385,2.896,0.791
		c0.825,0.447,1.679,0.91,3.374,0.91c1.694,0,2.548-0.463,3.373-0.91c0.749-0.406,1.456-0.791,2.896-0.791
		c1.439,0,2.146,0.385,2.895,0.791c0.824,0.447,1.678,0.91,3.371,0.91c1.691,0,2.544-0.463,3.368-0.91
		c0.748-0.406,1.454-0.791,2.893-0.791s2.146,0.385,2.894,0.791c0.824,0.447,1.677,0.91,3.37,0.91c1.692,0,2.545-0.463,3.369-0.91
		c0.748-0.406,1.454-0.791,2.893-0.791s2.145,0.385,2.893,0.791c0.824,0.447,1.677,0.91,3.37,0.91c1.692,0,2.545-0.463,3.369-0.91
		c0.748-0.406,1.454-0.791,2.893-0.791c1.438,0,2.144,0.385,2.892,0.791c0.823,0.447,1.676,0.91,3.367,0.91s2.544-0.463,3.368-0.91
		c0.746-0.406,1.452-0.791,2.889-0.791c1.438,0,2.145,0.385,2.893,0.791c0.824,0.447,1.677,0.91,3.369,0.91s2.544-0.463,3.368-0.91
		c0.748-0.406,1.454-0.791,2.893-0.791s2.145,0.385,2.893,0.791c0.824,0.447,1.677,0.91,3.369,0.91s2.545-0.463,3.369-0.91
		c0.748-0.406,1.454-0.791,2.893-0.791s2.145,0.385,2.893,0.791c0.824,0.447,1.676,0.91,3.368,0.91s2.545-0.463,3.369-0.91
		c0.747-0.406,1.452-0.791,2.89-0.791c1.438,0,2.145,0.385,2.893,0.791c0.824,0.447,1.676,0.91,3.368,0.91s2.545-0.463,3.369-0.91
		c0.747-0.406,1.452-0.791,2.89-0.791s2.144,0.385,2.892,0.791c0.824,0.447,1.676,0.91,3.368,0.91c1.691,0,2.544-0.463,3.368-0.91
		c0.747-0.406,1.452-0.791,2.89-0.791s2.144,0.385,2.891,0.791c0.825,0.447,1.677,0.91,3.369,0.91c1.691,0,2.544-0.463,3.368-0.91
		c0.746-0.406,1.452-0.791,2.889-0.791c1.438,0,2.144,0.385,2.891,0.791c0.825,0.447,1.677,0.91,3.369,0.91
		c1.691,0,2.543-0.463,3.367-0.91c0.747-0.406,1.452-0.791,2.89-0.791c1.437,0,2.143,0.385,2.889,0.791
		c0.824,0.447,1.676,0.91,3.367,0.91s2.544-0.463,3.367-0.91c0.748-0.406,1.454-0.791,2.892-0.791c1.437,0,2.143,0.385,2.889,0.791
		c0.824,0.447,1.677,0.91,3.368,0.91c1.69,0,2.542-0.463,3.366-0.91c0.746-0.406,1.451-0.791,2.888-0.791s2.143,0.385,2.889,0.791
		c0.824,0.447,1.676,0.91,3.367,0.91v-1c-1.437,0-2.143-0.383-2.889-0.789C175.63,118.143,174.778,117.68,173.087,117.68z"/>
	<path fill="#A0A09F" d="M168.432,122.061c-1.61,0-2.457,0.488-3.203,0.918c-0.7,0.402-1.362,0.783-2.706,0.783
		c-1.345,0-2.007-0.381-2.708-0.783c-0.747-0.43-1.594-0.918-3.205-0.918c-1.612,0-2.459,0.488-3.206,0.918
		c-0.701,0.402-1.363,0.783-2.708,0.783s-2.006-0.381-2.707-0.783c-0.746-0.43-1.593-0.918-3.204-0.918s-2.458,0.488-3.205,0.918
		c-0.701,0.402-1.362,0.783-2.707,0.783s-2.007-0.381-2.708-0.783c-0.747-0.43-1.595-0.918-3.207-0.918
		c-1.611,0-2.458,0.488-3.205,0.918c-0.701,0.402-1.362,0.783-2.707,0.783c-1.346,0-2.008-0.381-2.709-0.783
		c-0.747-0.43-1.594-0.918-3.206-0.918s-2.459,0.488-3.206,0.918c-0.731,0.42-1.362,0.783-2.707,0.783s-2.007-0.381-2.708-0.783
		c-0.747-0.43-1.594-0.918-3.206-0.918s-2.459,0.488-3.206,0.918c-0.701,0.402-1.363,0.783-2.708,0.783
		c-1.346,0-2.008-0.381-2.709-0.783c-0.747-0.43-1.595-0.918-3.207-0.918s-2.46,0.488-3.207,0.918
		c-0.701,0.402-1.363,0.783-2.708,0.783c-1.346,0-2.008-0.381-2.709-0.783c-0.747-0.43-1.595-0.918-3.207-0.918
		c-1.613,0-2.461,0.488-3.208,0.918c-0.701,0.402-1.363,0.783-2.709,0.783s-2.008-0.381-2.709-0.783
		c-0.747-0.43-1.595-0.918-3.207-0.918s-2.46,0.488-3.207,0.918c-0.701,0.402-1.363,0.783-2.709,0.783s-2.008-0.381-2.709-0.783
		c-0.747-0.43-1.595-0.918-3.208-0.918c-1.611,0-2.458,0.488-3.204,0.918c-0.701,0.402-1.362,0.783-2.707,0.783
		c-1.346,0-2.008-0.381-2.709-0.783c-0.747-0.43-1.594-0.918-3.206-0.918c-1.613,0-2.461,0.488-3.208,0.918
		c-0.701,0.402-1.363,0.783-2.709,0.783s-2.008-0.381-2.709-0.783c-0.747-0.43-1.595-0.918-3.208-0.918s-2.461,0.488-3.208,0.918
		c-0.701,0.402-1.363,0.783-2.709,0.783c-1.347,0-2.01-0.381-2.711-0.783c-0.748-0.43-1.595-0.918-3.208-0.918
		c-1.612,0-2.459,0.488-3.206,0.918c-0.701,0.402-1.363,0.783-2.709,0.783c-1.347,0-2.009-0.381-2.711-0.783
		c-0.748-0.43-1.596-0.918-3.21-0.918c-1.615,0-2.463,0.488-3.212,0.918c-0.702,0.402-1.365,0.783-2.713,0.783
		s-2.011-0.381-2.713-0.783c-0.749-0.43-1.597-0.918-3.212-0.918v1c1.349,0,2.012,0.381,2.714,0.785
		c0.748,0.43,1.597,0.916,3.211,0.916s2.463-0.486,3.211-0.916c0.702-0.404,1.365-0.785,2.714-0.785c1.348,0,2.01,0.381,2.712,0.785
		c0.748,0.43,1.596,0.916,3.209,0.916c1.612,0,2.46-0.486,3.207-0.916c0.701-0.404,1.363-0.785,2.708-0.785
		c1.346,0,2.009,0.381,2.71,0.785c0.748,0.43,1.596,0.916,3.209,0.916c1.612,0,2.46-0.486,3.207-0.916
		c0.701-0.404,1.364-0.785,2.71-0.785s2.009,0.381,2.71,0.785c0.747,0.43,1.595,0.916,3.207,0.916s2.46-0.486,3.207-0.916
		c0.701-0.404,1.364-0.785,2.71-0.785c1.345,0,2.007,0.381,2.708,0.785c0.747,0.43,1.595,0.916,3.207,0.916
		c1.611,0,2.459-0.486,3.205-0.916c0.731-0.422,1.362-0.785,2.706-0.785c1.346,0,2.009,0.381,2.71,0.785
		c0.747,0.43,1.595,0.916,3.207,0.916s2.46-0.486,3.207-0.916c0.701-0.404,1.363-0.785,2.709-0.785s2.008,0.381,2.709,0.785
		c0.747,0.43,1.595,0.916,3.207,0.916s2.46-0.486,3.207-0.916c0.701-0.404,1.364-0.785,2.71-0.785s2.008,0.381,2.709,0.785
		c0.747,0.43,1.595,0.916,3.207,0.916s2.459-0.486,3.206-0.916c0.701-0.404,1.363-0.785,2.709-0.785s2.008,0.381,2.709,0.785
		c0.747,0.43,1.595,0.916,3.207,0.916s2.459-0.486,3.206-0.916c0.701-0.404,1.363-0.785,2.708-0.785s2.007,0.381,2.708,0.785
		c0.747,0.43,1.594,0.916,3.206,0.916c1.611,0,2.458-0.486,3.205-0.916c0.701-0.404,1.363-0.785,2.708-0.785
		s2.007,0.381,2.708,0.785c0.747,0.43,1.595,0.916,3.207,0.916c1.611,0,2.458-0.486,3.205-0.916
		c0.701-0.404,1.362-0.785,2.707-0.785c1.346,0,2.008,0.381,2.709,0.785c0.747,0.43,1.594,0.916,3.206,0.916
		c1.611,0,2.458-0.486,3.205-0.916c0.701-0.404,1.362-0.785,2.707-0.785c1.344,0,1.975,0.363,2.706,0.785
		c0.746,0.43,1.594,0.916,3.205,0.916c1.612,0,2.459-0.486,3.206-0.916c0.701-0.404,1.363-0.785,2.708-0.785
		s1.976,0.363,2.707,0.785c0.747,0.43,1.594,0.916,3.206,0.916c1.611,0,2.458-0.486,3.205-0.916c0.73-0.422,1.36-0.785,2.704-0.785
		c1.345,0,2.006,0.381,2.707,0.785c0.746,0.43,1.593,0.916,3.204,0.916v-1c-1.344,0-1.975-0.363-2.706-0.783
		C170.89,122.549,170.043,122.061,168.432,122.061z"/>
	<path fill="#A0A09F" d="M187.155,104.122h-1.973l-5.742-6.247v-0.037h-0.034l-5.148-5.602l-10.802,11.886h-0.574v-42.03
		l-13.508-11.591v-0.046h0.403v-7.792h-4.21v-2.241l-5.319-4.565l-5.32,4.565v2.241h-3.273v6.792v1v0.18l-13.352,11.458v14.861
		H97.689v-0.617H75.617v-7.587H58.115v-4.064c1.206,0.938,1.803,1.582,1.816,1.597l0.871,0.965v-5.441l-0.128-0.143
		c-0.14-0.154-3.492-3.821-10.958-6.63c-7.428-2.795-12.078-2.989-12.272-2.996l-0.518-0.019v4.949l0.482,0.018
		c0.019,0.001,0.805,0.038,2.204,0.259v13.292H23.112v-8.588H10.373v14.388H-7.283v38.457h17.656h0.846h10.894h1h16.501h1h16.502h1
		h16.502h1h21.072h1h21.621v-0.127h1.14h5.562h1h4.642h0.921h0.235h4.406h1h4.595h0.967h4.596h1h4.562h1h5.562h2.384v-0.041h7.317
		v-0.068h8.241v0.109h3.698h0.908h3.698v-2.617v-1v-1.619v-1v-1.03c0.905-0.21,1.584-1.019,1.584-1.987v-0.221L187.155,104.122z
		 M10.219,82.338h-12.65v3.868h12.65v3.889h-12.65v3.868h12.65v3.889h-12.65v3.869h12.65v3.889h-12.65v3.868h12.65v4.315H-6.283
		V77.336h16.502V82.338z M22.112,70.536v5.8v1v36.457H11.373V62.948h10.739V70.536z M39.613,82.338h-8.25v3.868h8.25v3.889h-8.25
		v3.868h8.25v3.889h-8.25v3.869h8.25v3.889h-8.25v3.868h8.25v4.315H23.112v-4.315h5.053v-3.868h-5.053v-3.889h5.053v-3.869h-5.053
		v-3.889h5.053v-3.868h-5.053v-3.889h5.053v-3.868h-5.053v-5.002h16.501V82.338z M39.613,76.336H23.112v-4.8h16.501V76.336z
		 M42.694,113.793h-2.081v-5.75h2.081V113.793z M42.694,107.043h-2.081v-3.442h2.081V107.043z M42.694,102.475h-2.081v-3.443h2.081
		V102.475z M42.694,98.031h-2.081v-3.568h2.081V98.031z M42.694,93.463h-2.081v-3.568h2.081V93.463z M42.694,88.895h-2.081v-3.568
		h2.081V88.895z M42.694,84.326h-2.081v-3.652h2.081V84.326z M42.694,79.674h-2.081v-2.338v-1v-0.23h2.081V79.674z M42.694,75.105
		h-2.081v-3.569h2.081V75.105z M42.694,70.536h-2.081v-4.089h2.081V70.536z M42.694,65.447h-2.081v-3.569h2.081V65.447z
		 M42.694,60.878h-2.081v-3.462c0.614,0.115,1.312,0.262,2.081,0.445V60.878z M46.475,113.793h-2.78v-5.75h2.78V113.793z
		 M46.475,107.043h-2.78v-3.442h2.78V107.043z M46.475,102.475h-2.78v-3.443h2.78V102.475z M46.475,98.031h-2.78v-3.568h2.78V98.031
		z M46.475,93.463h-2.78v-3.568h2.78V93.463z M46.475,88.895h-2.78v-3.568h2.78V88.895z M46.475,84.326h-2.78v-3.652h2.78V84.326z
		 M46.475,79.674h-2.78v-3.568h2.78V79.674z M46.475,75.105h-2.78v-3.569h2.78V75.105z M46.475,70.536h-2.78v-4.089h2.78V70.536z
		 M46.475,65.447h-2.78v-3.569h2.78V65.447z M46.475,60.878h-2.78V58.11c0.854,0.222,1.782,0.488,2.78,0.806V60.878z
		 M50.256,113.793h-2.781v-5.75h2.781V113.793z M50.256,107.043h-2.781v-3.442h2.781V107.043z M50.256,102.475h-2.781v-3.443h2.781
		V102.475z M50.256,98.031h-2.781v-3.568h2.781V98.031z M50.256,93.463h-2.781v-3.568h2.781V93.463z M50.256,88.895h-2.781v-3.568
		h2.781V88.895z M50.256,84.326h-2.781v-3.652h2.781V84.326z M50.256,79.674h-2.781v-3.568h2.781V79.674z M50.256,75.105h-2.781
		v-3.569h2.781V75.105z M50.256,70.536h-2.781v-4.089h2.781V70.536z M50.256,65.447h-2.781v-3.569h2.781V65.447z M50.256,60.878
		h-2.781v-1.632c0.61,0.207,1.236,0.426,1.891,0.672c0.308,0.116,0.598,0.235,0.891,0.353V60.878z M54.036,113.793h-2.78v-5.75h2.78
		V113.793z M54.036,107.043h-2.78v-3.442h2.78V107.043z M54.036,102.475h-2.78v-3.443h2.78V102.475z M54.036,98.031h-2.78v-3.568
		h2.78V98.031z M54.036,93.463h-2.78v-3.568h2.78V93.463z M54.036,88.895h-2.78v-3.568h2.78V88.895z M54.036,84.326h-2.78v-3.652
		h2.78V84.326z M54.036,79.674h-2.78v-3.568h2.78V79.674z M54.036,75.105h-2.78v-3.569h2.78V75.105z M54.036,70.536h-2.78v-4.089
		h2.78V70.536z M54.036,65.447h-2.78v-3.569h2.465c0.104,0.055,0.215,0.11,0.315,0.165V65.447z M51.256,60.878v-0.186
		c0.142,0.062,0.286,0.124,0.425,0.186H51.256z M57.115,113.793h-2.079v-5.75h2.079V113.793z M57.115,107.043h-2.079v-3.442h2.079
		V107.043z M57.115,102.475h-2.079v-3.443h2.079V102.475z M57.115,98.031h-2.079v-3.568h2.079V98.031z M57.115,93.463h-2.079v-3.568
		h2.079V93.463z M57.115,88.895h-2.079v-3.568h2.079V88.895z M57.115,84.326h-2.079v-3.652h2.079V84.326z M57.115,79.674h-2.079
		v-3.568h2.079V79.674z M57.115,75.105h-2.079v-3.569h2.079V75.105z M57.115,68.749v1.787h-2.079v-4.089h2.079V68.749z
		 M57.115,65.447h-2.079v-2.839c0.796,0.468,1.482,0.919,2.079,1.339V65.447z M57.615,63.066c-0.159-0.111-0.327-0.224-0.5-0.339
		c-0.41-0.274-0.862-0.558-1.349-0.848c-0.239-0.143-0.474-0.284-0.73-0.429c-0.043-0.024-0.078-0.047-0.121-0.071
		c-0.118-0.066-0.256-0.133-0.379-0.2c-0.161-0.087-0.332-0.175-0.5-0.263c-0.023-0.012-0.047-0.025-0.07-0.037
		c-0.824-0.428-1.722-0.854-2.71-1.272c-0.161-0.068-0.334-0.135-0.5-0.203s-0.329-0.136-0.5-0.203
		c-0.184-0.072-0.35-0.147-0.539-0.218c-0.778-0.293-1.526-0.557-2.242-0.796c-0.17-0.057-0.333-0.108-0.5-0.162
		c-0.167-0.054-0.337-0.111-0.5-0.162c-2.388-0.749-4.368-1.2-5.861-1.471c-0.174-0.032-0.339-0.061-0.5-0.087
		c-0.176-0.029-0.341-0.056-0.5-0.08c-0.749-0.114-1.32-0.176-1.687-0.207v-2.943c1.403,0.132,5.568,0.685,11.438,2.894
		c1.982,0.746,3.669,1.56,5.075,2.349c0.032,0.018,0.064,0.036,0.096,0.053c0.173,0.098,0.336,0.194,0.5,0.291
		c2.776,1.634,4.331,3.099,4.767,3.538v2.572c-0.408-0.362-0.979-0.828-1.688-1.347C57.956,63.307,57.791,63.188,57.615,63.066z
		 M74.617,76.336v37.457H58.115V69.749h16.502V76.336z M96.689,81.515v0.741v31.537H75.617v-4.315h5.053v-3.868h-5.053v-3.889h5.053
		v-3.869h-5.053v-3.889h5.053v-3.868h-5.053v-3.889h5.053v-3.868h-5.053v-5.002h21.072V81.515z M115.111,113.666h-5.318v-9.559
		c0-1.468,1.193-2.662,2.661-2.662s2.661,1.194,2.657,2.73V113.666z M118.303,113.793h-2.191l0.004-9.686
		c0-2.02-1.643-3.662-3.661-3.662s-3.661,1.643-3.661,3.662v9.686H97.689V82.515h20.613V113.793z M118.303,81.256H97.689v-3.303
		h20.613V81.256z M126.013,113.666h-4.562v-7.654h4.562V113.666z M126.013,105.012h-4.562v-4.11h4.562V105.012z M126.013,99.901
		h-4.562v-4.11h4.562V99.901z M126.013,94.791h-4.562v-4.109h4.562V94.791z M126.013,89.682h-4.562v-4.17h4.562V89.682z
		 M126.013,84.512h-4.562v-4.11h4.562V84.512z M126.013,79.401h-4.562v-4.11h4.562V79.401z M126.013,74.291h-4.562v-4.109h4.562
		V74.291z M126.013,69.182h-4.562v-3.176l4.562-3.7V69.182z M131.575,113.666h-4.562v-7.654h4.562V113.666z M131.575,105.012h-4.562
		v-4.11h4.562V105.012z M131.575,99.901h-4.562v-4.11h4.562V99.901z M131.575,94.791h-4.562v-4.109h4.562V94.791z M131.575,89.682
		h-4.562v-4.17h4.562V89.682z M131.575,84.512h-4.562v-4.11h4.562V84.512z M131.575,79.401h-4.562v-4.11h4.562V79.401z
		 M131.575,74.291h-4.562v-4.109h4.562V74.291z M131.575,69.182h-4.562v-5.17h4.562V69.182z M131.575,63.012h-4.562v-2.805v-0.226
		l4.562-3.7V63.012z M131.811,54.803l-0.156,0.126l-5.642,4.575v1.514l-5.562,4.511v48.137h-1.14h-0.008v-31.41v-0.741v-4.562
		V62.552l12.352-10.6l0.156-0.134V54.803z M135.928,40.882l4.32-3.708l4.319,3.708v1.781h-8.64V40.882z M137.217,113.666h-4.406
		v-7.654h4.406V113.666z M137.217,105.012h-4.406v-4.11h4.406V105.012z M137.217,99.901h-4.406v-4.11h4.406V99.901z M137.217,94.791
		h-4.406v-4.109h4.406V94.791z M137.217,89.682h-4.406v-4.17h4.406V89.682z M137.217,84.512h-4.406v-4.11h4.406V84.512z
		 M137.217,79.401h-4.406v-4.11h4.406V79.401z M137.217,74.291h-4.406v-4.109h4.406V74.291z M137.217,69.182h-4.406v-5.17h4.406
		V69.182z M137.217,63.012h-4.406v-4.11h4.406V63.012z M137.217,57.901h-4.406v-4.11h4.406V57.901z M137.217,52.792h-4.406v-2.336
		h4.406V52.792z M142.778,113.666h-4.562v-7.654h4.562V113.666z M142.778,105.012h-4.562v-4.11h4.562V105.012z M142.778,99.901
		h-4.562v-4.11h4.562V99.901z M142.778,94.791h-4.562v-4.109h4.562V94.791z M142.778,89.682h-4.562v-4.17h4.562V89.682z
		 M142.778,84.512h-4.562v-4.11h4.562V84.512z M142.778,79.401h-4.562v-4.11h4.562V79.401z M142.778,74.291h-4.562v-4.109h4.562
		V74.291z M142.778,69.182h-4.562v-5.17h4.562V69.182z M142.778,63.012h-4.562v-4.11h4.562V63.012z M142.778,57.901h-4.562v-4.11
		h4.562V57.901z M142.778,52.792h-4.562v-2.336h4.562V52.792z M148.374,113.666h-4.562v-7.654h4.562V113.666z M148.374,105.012
		h-4.562v-4.11h4.562V105.012z M148.374,99.901h-4.562v-4.11h4.562V99.901z M148.374,94.791h-4.562v-4.109h4.562V94.791z
		 M148.374,89.682h-4.562v-4.17h4.562V89.682z M148.374,84.512h-4.562v-4.11h4.562V84.512z M148.374,79.401h-4.562v-4.11h4.562
		V79.401z M148.374,74.291h-4.562v-4.109h4.562V74.291z M148.374,69.182h-4.562v-5.17h4.562V69.182z M148.374,63.012h-4.562v-4.11
		h4.562V63.012z M148.374,54.183v3.719h-4.562v-4.11h4.562V54.183z M148.374,52.792h-4.562v-2.336h4.562V52.792z M148.777,49.455
		h-4.999h-0.967h-4.595h-1h-4.562v-5.792h2.273h10.64h3.21V49.455z M183.824,104.122h-4.384v-2.142v-1v-1.628L183.824,104.122z
		 M178.44,100.98h-3.562v-2.143h3.562V100.98z M170.199,98.838h3.562v2.143h-3.562V98.838z M170.199,101.98h3.562v2.142h-3.562
		V101.98z M174.878,101.98h3.562v2.142h-3.562V101.98z M174.262,93.719l3.786,4.119h-3.286h-0.884h-3.36L174.262,93.719z
		 M169.199,99.289v1.691v1v2.142h-4.393L169.199,99.289z M153.936,113.666h-4.562v-7.654h4.562V113.666z M153.936,105.012h-4.562
		v-4.11h4.562V105.012z M153.936,99.901h-4.562v-4.11h4.562V99.901z M153.936,94.791h-4.562v-4.109h4.562V94.791z M153.936,89.682
		h-4.562v-4.17h4.562V89.682z M153.936,84.512h-4.562v-4.11h4.562V84.512z M153.936,79.401h-4.562v-4.11h4.562V79.401z
		 M153.936,74.291h-4.562v-4.109h4.562V74.291z M153.936,69.182h-4.562v-5.17h4.562V69.182z M153.936,60.207v2.805h-4.562v-6.73
		l4.562,3.7V60.207z M159.498,113.666h-4.562v-7.654h4.562V113.666z M159.498,105.012h-4.562v-4.11h4.562V105.012z M159.498,99.901
		h-4.562v-4.11h4.562V99.901z M159.498,94.791h-4.562v-4.109h4.562V94.791z M159.498,89.682h-4.562v-4.17h4.562V89.682z
		 M159.498,84.512h-4.562v-4.11h4.562V84.512z M159.498,79.401h-4.562v-4.11h4.562V79.401z M159.498,74.291h-4.562v-4.109h4.562
		V74.291z M159.498,69.182h-4.562v-6.876l4.562,3.7V69.182z M154.936,61.018v-1.514l-5.562-4.511v-3.175l12.508,10.734v41.57h-0.32
		l-1.063,1.063V65.529L154.936,61.018z M161.882,113.666h-1.384v-8.061c0.078,0.815,0.631,1.486,1.384,1.737V113.666z
		 M169.199,113.557h-3.147v0.068h-3.148v-6.207c0.349-0.065,0.672-0.221,0.939-0.45c0.724,0.624,1.913,0.624,2.641,0
		c0.724,0.624,1.914,0.624,2.64,0.001c0.023,0.021,0.052,0.034,0.076,0.053V113.557z M178.44,108.43v1v1.619v1v1.508h-8.241v-6.141
		c0.557,0.062,1.14-0.083,1.563-0.448c0.727,0.624,1.916,0.624,2.641,0c0.727,0.624,1.916,0.624,2.641,0
		c0.383,0.329,0.893,0.479,1.396,0.462V108.43z M182.047,113.557h-2.606v-1.508h2.606V113.557z M182.047,111.049h-2.606v-1.619
		h2.606V111.049z M182.047,108.43h-2.606v-1.29c0.085-0.052,0.168-0.105,0.244-0.171c0.638,0.549,1.636,0.613,2.362,0.193V108.43z
		 M185.745,113.557h-2.606v-1.508h2.606V113.557z M185.745,111.049h-2.606v-1.619h2.606V111.049z M185.745,108.43h-2.606v-1.061
		c0.629,0.15,1.333,0.022,1.827-0.401c0.226,0.194,0.492,0.328,0.779,0.407V108.43z M186.745,106.334
		c-0.141,0.07-0.292,0.121-0.459,0.121c-0.014,0-0.027-0.004-0.041-0.005c-0.173-0.007-0.337-0.054-0.48-0.139
		c-0.148-0.087-0.276-0.212-0.37-0.368l-0.079-0.132l-0.349-0.583l-0.351,0.583l-0.079,0.132c-0.101,0.167-0.244,0.288-0.407,0.368
		c-0.301,0.147-0.668,0.147-0.969,0c-0.04-0.021-0.076-0.048-0.114-0.073c-0.114-0.076-0.218-0.17-0.293-0.295l-0.079-0.132
		l-0.349-0.583l-0.351,0.583l-0.079,0.132c-0.101,0.167-0.244,0.288-0.407,0.368c-0.301,0.147-0.669,0.147-0.97,0
		c-0.163-0.08-0.307-0.2-0.406-0.367l-0.079-0.133l-0.35-0.583l-0.35,0.583l-0.079,0.133c-0.179,0.297-0.492,0.45-0.815,0.472
		c-0.374,0.025-0.762-0.129-0.968-0.473l-0.43-0.715l-0.428,0.715c-0.386,0.642-1.399,0.641-1.783,0l-0.43-0.715l-0.428,0.715
		c-0.386,0.642-1.399,0.641-1.783,0l-0.43-0.715l-0.428,0.715c-0.238,0.396-0.714,0.545-1.135,0.453
		c-0.188-0.041-0.361-0.133-0.5-0.271c-0.055-0.054-0.106-0.111-0.147-0.181l-0.093-0.155l-0.3-0.5l-0.036-0.061l-0.036,0.061
		l-0.3,0.5l-0.093,0.155c-0.091,0.151-0.219,0.265-0.363,0.345c-0.322,0.178-0.732,0.178-1.055,0
		c-0.145-0.08-0.273-0.193-0.364-0.346l-0.093-0.154l-0.299-0.5l-0.036-0.061l-0.036,0.061l-0.301,0.5l-0.093,0.154
		c-0.092,0.152-0.22,0.266-0.365,0.346c-0.321,0.177-0.731,0.176-1.054,0c-0.145-0.08-0.273-0.193-0.364-0.346l-0.093-0.154
		l-0.299-0.5l-0.036-0.061l-0.036,0.061l-0.301,0.5l-0.093,0.154c-0.087,0.145-0.205,0.259-0.34,0.346
		c-0.054,0.034-0.111,0.061-0.171,0.084c-0.007,0.003-0.015,0.006-0.021,0.01c-0.114,0.043-0.233,0.072-0.359,0.072
		c-0.042,0-0.078-0.016-0.119-0.021c-0.008,0-0.015-0.002-0.021-0.004c-0.178-0.024-0.341-0.086-0.479-0.188
		c-0.007-0.005-0.015-0.007-0.021-0.013c-0.196-0.154-0.339-0.372-0.386-0.627l0.386-0.386l0.094-0.094h0.406h0.165h0.335h6.317
		h4.679h0.884h4.679h6.661h0.667l0.541,0.493C187.246,105.936,187.029,106.191,186.745,106.334z"/>
</g>
</svg>
