<?xml version="1.0" encoding="utf-8"?>
<!-- Generator: Adobe Illustrator 16.0.0, SVG Export Plug-In . SVG Version: 6.00 Build 0)  -->
<!DOCTYPE svg PUBLIC "-//W3C//DTD SVG 1.1//EN" "http://www.w3.org/Graphics/SVG/1.1/DTD/svg11.dtd">
<svg version="1.1" id="Ground" xmlns="http://www.w3.org/2000/svg" xmlns:xlink="http://www.w3.org/1999/xlink" x="0px" y="0px"
	 width="197.586px" height="132px" viewBox="0 0 197.586 132" enable-background="new 0 0 197.586 132" xml:space="preserve">
<g>
	<path fill="#A0A09F" d="M104.772,87.576h3.618v-4.815h-3.618V87.576z M105.727,83.716h1.708v2.905h-1.708V83.716z"/>
	<path fill="#A0A09F" d="M99.401,87.576h3.619v-4.815h-3.619V87.576z M100.356,83.716h1.709v2.905h-1.709V83.716z"/>
	<path fill="#A0A09F" d="M88.663,87.576h3.619v-4.815h-3.619V87.576z M89.618,83.716h1.708v2.905h-1.708V83.716z"/>
	<path fill="#A0A09F" d="M68.2,91.849h-3.619v4.814H68.2V91.849z M67.245,95.708h-1.708v-2.904h1.708V95.708z"/>
	<path fill="#A0A09F" d="M60.951,91.849h-3.619v4.814h3.619V91.849z M59.996,95.708h-1.708v-2.904h1.708V95.708z"/>
	<path fill="#A0A09F" d="M53.693,91.849h-3.618v4.814h3.618V91.849z M52.738,95.708H51.03v-2.904h1.708V95.708z"/>
	<path fill="#A0A09F" d="M68.2,84.308h-3.619v4.815H68.2V84.308z M67.245,88.168h-1.708v-2.905h1.708V88.168z"/>
	<path fill="#A0A09F" d="M60.951,84.308h-3.619v4.815h3.619V84.308z M59.996,88.168h-1.708v-2.905h1.708V88.168z"/>
	<path fill="#A0A09F" d="M53.693,84.308h-3.618v4.815h3.618V84.308z M52.738,88.168H51.03v-2.905h1.708V88.168z"/>
	<path fill="#A0A09F" d="M46.44,91.849h-3.619v4.814h3.619V91.849z M45.485,95.708h-1.708v-2.904h1.708V95.708z"/>
	<path fill="#A0A09F" d="M46.44,84.308h-3.619v4.815h3.619V84.308z M45.485,88.168h-1.708v-2.905h1.708V88.168z"/>
	<path fill="#A0A09F" d="M71.833,96.663h3.619v-4.814h-3.619V96.663z M72.789,92.804h1.709v2.904h-1.709V92.804z"/>
	<path fill="#A0A09F" d="M71.833,89.123h3.619v-4.815h-3.619V89.123z M72.789,85.263h1.709v2.905h-1.709V85.263z"/>
	<path fill="#A0A09F" d="M94.033,87.576h3.619v-4.815h-3.619V87.576z M94.988,83.716h1.709v2.905h-1.709V83.716z"/>
	<path fill="#A0A09F" d="M83.292,87.576h3.619v-4.815h-3.619V87.576z M84.248,83.716h1.709v2.905h-1.709V83.716z"/>
	<path fill="#A0A09F" d="M104.772,96.663h3.618v-6.632h-3.618V96.663z M105.727,90.986h1.708v4.722h-1.708V90.986z"/>
	<path fill="#A0A09F" d="M99.401,96.663h3.619v-6.632h-3.619V96.663z M100.356,90.986h1.709v4.722h-1.709V90.986z"/>
	<path fill="#A0A09F" d="M88.663,96.663h3.619v-6.632h-3.619V96.663z M89.618,90.986h1.708v4.722h-1.708V90.986z"/>
	<path fill="#A0A09F" d="M94.033,96.663h3.619v-6.632h-3.619V96.663z M94.988,90.986h1.709v4.722h-1.709V90.986z"/>
	<path fill="#A0A09F" d="M83.292,96.663h3.619v-6.632h-3.619V96.663z M84.248,90.986h1.709v4.722h-1.709V90.986z"/>
	<path fill="#A0A09F" d="M176.24,85.321h-5.492v10.097h5.492V85.321z M175.285,94.463h-3.582v-8.187h3.582V94.463z"/>
	<path fill="#A0A09F" d="M177.884,99.718h-7.137v8.801h7.137V99.718z M176.929,107.563h-5.227v-6.891h5.227V107.563z"/>
	<path fill="#A0A09F" d="M187.072,85.321h-5.492v10.097h5.492V85.321z M186.117,94.463h-3.582v-8.187h3.582V94.463z"/>
	<path fill="#A0A09F" d="M168.894,76.774v-3.862h-5.365v6.062l-1.043,1.045l1.043,1.044v16.837h-1.812l-0.859-1.026l0.002-0.001
		l-1.479-1.766l-0.433-0.518l-0.285-0.34l-0.381-0.455l-0.623-0.744l-0.2-0.238l-0.933-1.113l-0.822-0.982v-0.001l-1.912-2.283
		l-1.289-1.539l-0.664-0.796v-0.001l-0.619-0.736l-0.004-0.007l-1.291-1.54l-1.911,2.283l0.001,0.001l-1.954,2.335l0,0l-0.034,0.041
		l-0.074,0.088l-0.515,0.615l-1.707,2.037l-0.871,1.042l-1.595,1.903l-0.983,1.175l-2.147,2.566h-1.811V47.584h-4.41h-0.19h-0.765
		h-0.961v-6.061h-13.044v6.061h-0.771h-0.955h-4.409v28.544H73.563v-3.217h-2.537V61.593h-0.019v-2.017l0.005-0.046
		c0.008-0.06,0.013-0.12,0.013-0.183c0-7.738-4.053-12.92-8.728-14.546V38.86c0-1.671-0.821-3.1-1.979-3.691
		c0.241-0.334,0.39-0.766,0.39-1.243c0-0.846-0.459-1.557-1.089-1.804v-3.308h-0.478h-0.478v3.308
		c-0.628,0.248-1.087,0.958-1.087,1.804c0,0.478,0.149,0.909,0.39,1.243c-1.158,0.591-1.979,2.02-1.979,3.691v5.941
		c-4.622,1.607-8.627,6.695-8.718,14.289h-0.01v0.257v2.245v0.955v10.364h-2.25v3.217H6.271v4.705h0.527v17.271H5.965v1.864h0.832
		v12.483h27.239h50.211h26.57h0.954h3.455h0.955h0.771h0.955h0.772h0.955h0.771h0.955h0.772h0.955h0.771h0.955h0.772h0.955h0.772
		h0.955h0.771h0.955h0.961h0.765h0.19h3.455h0.955h27.206h0.955h3.455h0.955h20.649V81.84h0.076v-5.065H168.894z M188.588,111.497
		h-2.101l0.004-9.208c0-1.929-1.569-3.497-3.498-3.497c-1.927,0-3.495,1.568-3.495,3.497v9.208h-10.604v-29.41h19.694V111.497z
		 M185.533,111.418h-5.079v-9.129c0-1.401,1.14-2.542,2.54-2.542c1.403,0,2.543,1.141,2.539,2.607V111.418z M164.484,97.899V82.018
		l1.728,1.728l1.728-1.727v29.479h-3.455V97.899z M164.484,73.867h3.455v2.907v1.244l-1.728-1.727l-1.728,1.727V73.867z
		 M188.665,80.885h-19.594l0.867-0.866l-1.044-1.045v-1.244h19.771V80.885z M164.006,79.847l0.478-0.478l1.728-1.727l1.728,1.727
		l0.478,0.478l0.171,0.172l-0.171,0.172l-0.478,0.478l-1.728,1.727l-1.728-1.728l-0.478-0.478l-0.17-0.171L164.006,79.847z
		 M135.368,111.497h-3.455V48.54h3.455v49.36V111.497z M136.323,98.854h1.468h1.246h0.875h0.002h0.115v1.349v1.325v9.969h-3.706
		V98.854z M142.193,94.538l0.666,0.795l-0.666,0.797l-0.666-0.797L142.193,94.538z M143.482,92.999L143.482,92.999L143.482,92.999
		l0.666,0.795l-0.666,0.796l-0.666-0.796L143.482,92.999z M144.761,91.469l0.01-0.01l0.666,0.796l-0.666,0.795l-0.666-0.795
		L144.761,91.469z M146.911,88.902l0.438-0.523l0.665,0.797l-0.665,0.796l-0.666-0.796L146.911,88.902z M149.259,86.096l0.665-0.794
		l0.668,0.795l-0.668,0.796L149.259,86.096z M153.168,89.176l-0.666,0.796l-0.666-0.796l0.666-0.796L153.168,89.176z
		 M157.659,94.538l0.666,0.795l-0.666,0.797l-0.666-0.797L157.659,94.538z M159.614,96.873l-0.666,0.796l-0.668-0.796l0.668-0.796
		L159.614,96.873z M148.637,99.157L148.637,99.157L148.637,99.157z M149.926,88.381l0.664,0.795l-0.664,0.795l-0.666-0.795
		L149.926,88.381z M151.215,86.84l0.664,0.797l-0.666,0.795l-0.666-0.795L151.215,86.84z M147.972,99.952L147.972,99.952
		L147.972,99.952z M144.534,97.899l0.237-0.283l0.236,0.283H144.534z M151.881,96.873l-0.668,0.796l-0.664-0.795l0.666-0.797
		L151.881,96.873z M147.97,96.873l0.667-0.796l0.666,0.796l-0.666,0.796L147.97,96.873z M147.972,93.794l0.665-0.796l0.666,0.796
		l-0.667,0.795L147.972,93.794z M149.259,95.333l0.665-0.795l0.668,0.795l-0.666,0.797l0,0l0,0L149.259,95.333z M151.215,94.59
		l-0.668-0.796l0.666-0.796l0.668,0.796L151.215,94.59z M149.924,93.05l-0.664-0.795l0.666-0.796l0.666,0.795L149.924,93.05z
		 M148.014,95.333l-0.665,0.796l-0.666-0.796l0.666-0.795L148.014,95.333z M146.726,96.873l-0.666,0.796l-0.666-0.796l0.666-0.796
		L146.726,96.873z M147.349,97.616l0.234,0.283h-0.472L147.349,97.616z M149.926,97.617l0.235,0.282h-0.472L149.926,97.617z
		 M152.502,97.616l0.237,0.283h-0.472L152.502,97.616z M155.081,97.616l0.237,0.283h-0.475L155.081,97.616z M157.659,97.616
		l0.235,0.283h-0.473L157.659,97.616z M156.37,97.668l-0.666-0.796l0.666-0.795l0.666,0.796L156.37,97.668z M155.081,96.128
		L155.081,96.128L155.081,96.128l-0.666-0.795l0.666-0.794l0.666,0.794L155.081,96.128z M154.458,96.872l-0.666,0.797l-0.666-0.797
		l0.666-0.795L154.458,96.872z M152.502,96.129l-0.261-0.313l-0.403-0.482l0.666-0.794l0.403,0.48l0.263,0.313L152.502,96.129z
		 M152.504,93.05l-0.668-0.796l0,0l0,0l0.666-0.795l0.666,0.797L152.504,93.05z M151.879,90.715l-0.666,0.795l-0.666-0.795
		l0.666-0.795L151.879,90.715z M147.972,90.715l0.665-0.795l0.666,0.795l0,0l0,0l-0.666,0.795L147.972,90.715L147.972,90.715
		L147.972,90.715z M148.014,92.255l-0.665,0.795l-0.666-0.794l0.666-0.797L148.014,92.255z M146.726,93.794l-0.666,0.795v0.001
		v-0.001l-0.666-0.795l0.666-0.795L146.726,93.794z M144.105,95.333l0.666-0.794l0.666,0.794l-0.666,0.796L144.105,95.333
		L144.105,95.333L144.105,95.333z M144.148,96.872l-0.666,0.797l-0.666-0.796l0.666-0.796L144.148,96.872z M142.193,97.617
		l0.237,0.282h-0.473L142.193,97.617z M153.792,94.589l-0.664-0.795L153.792,93l0.666,0.794L153.792,94.589z M154.458,90.716
		l-0.666,0.795l-0.666-0.796l0.666-0.796L154.458,90.716z M146.726,90.715L146.726,90.715L146.726,90.715l-0.666,0.796l0,0l0,0
		l-0.666-0.796l0.666-0.796L146.726,90.715z M140.904,96.077l0.666,0.797l-0.666,0.795l-0.666-0.796L140.904,96.077z
		 M141.892,103.755v-1.109v-0.379v-1.212v-0.719v-0.77v-0.001v-0.711h0.004h0.594l0,0h0.738l0,0h0.358v0.176v0.001v0.25v0.001v1.34
		v0.001v0.249v1.238v0.25v1.342v0.001v1.486v0.588v5.72h-1.694V103.755z M145.45,108.005v-0.371v-1.117v-0.475v-1.455v-0.032v-0.001
		v-1.455v-0.135v-1.456l0,0v-0.032v-1.455v-0.137v-0.001v-1.028h0.356h0.506l0,0h0.74h0.091v0.109v0.001v0.487v1v0.488l0,0v1.103
		v0.489v0.999l0,0v0.487v1.104v0.486l0,0v1v0.488v1.442v0.147v1.34v1.47h-1.693V108.005z M149.009,111.028v-1.487v-0.704v-0.888
		v-0.601v-0.887v-0.001v-0.703v-0.887v-0.601v-0.888v-0.704v-0.887v-0.602v-0.886v-0.704v-0.746h0.619h0.593h0.479v0.915v0.365
		v1.226v0.263v1.225v0.366v0.001v1.224v0.001v0.262v1.226v0.365v0.001v1.225v0.264l0,0v1.226v0.365v1.486v0.639h-1.691V111.028z
		 M152.566,110.196v-0.189v-1.487v-1.591v-0.149v-1.34l0,0v-0.147v-1.442v-0.001v-0.149v-1.337v-0.149v-1.442v-0.148v-1.34l0,0
		v-0.148v-0.001v-0.278h0.233h0.74l0,0h0.506h0.215v0.859v0.475l0,0v1.118l0,0v0.37v1.116v0.001v0.475v1.116v0.371v1.117v0.812
		v0.778v0.71v0.001v3.322h-1.694V110.196z M156.124,105.947v-0.927v-1.488v-0.001v-1.001v-0.59v-0.899v-0.587v-0.001V99.45v-0.589
		v-0.007h0.498h0.74l0,0h0.455v0.164v0.379v1.108v0.379v1.552v0.039v1.448v7.573h-1.693V105.947z M159.68,101.698L159.68,101.698
		v-0.075v-1.414v-0.175v-0.001v-1.179h0.26h0.875h1.246h1.468v12.643h-3.849V101.698z M160.471,97.899H160l0.237-0.283
		L160.471,97.899z M156.37,94.59l-0.666-0.796l0.666-0.796l0.461,0.551l0.205,0.245L156.37,94.59z M155.081,93.05l-0.263-0.313
		l-0.403-0.48l0.666-0.797l0.666,0.796L155.081,93.05z M148.212,87.348l0.424-0.508l0,0l0,0l0.667,0.797l-0.666,0.795l-0.665-0.796
		L148.212,87.348z M139.617,97.616l0.235,0.283h-0.473L139.617,97.616z M129.997,111.497V48.54h0.771v62.958H129.997z
		 M116.182,48.54h0.771v62.958h-0.771V48.54z M117.908,42.479h11.134v5.105h-0.771h-0.955h-0.772h-0.955h-0.772h-0.955h-0.771
		h-0.955h-0.772h-0.955h-0.771h-0.955h-0.772V42.479z M117.908,48.54h0.772v62.958h-0.772V48.54z M119.635,48.54h0.771v62.958
		h-0.771V48.54z M121.362,48.54h0.772v62.958h-0.772V48.54z M123.089,48.54h0.771v62.958h-0.771V48.54z M124.815,48.54h0.772v62.958
		h-0.772V48.54z M126.542,48.54h0.772v62.958h-0.772V48.54z M128.27,48.54h0.771v62.958h-0.771V48.54z M110.818,111.497h-26.57
		v-2.408h-2.289v-2.409h-2.255v-2.482h-0.826v-4.229h31.94V111.497z M45.963,76.129v-2.262h1.295h5.057l-6.353,2.493V76.129z
		 M56.942,38.86c0-1.671,0.987-3.03,2.199-3.03c1.214,0,2.201,1.359,2.201,3.03v5.333c-0.263-0.064-0.528-0.103-0.792-0.144v-4.603
		h-0.478h-0.478v4.508c-0.151-0.007-0.302-0.027-0.454-0.027c-0.157,0-0.313,0.021-0.47,0.028v-4.509h-0.478h-0.478v4.606
		c-0.257,0.041-0.517,0.078-0.774,0.141V38.86z M58.532,33.926c0-0.206,0.056-0.393,0.132-0.552
		c0.114-0.232,0.286-0.397,0.478-0.397c0.194,0,0.364,0.165,0.478,0.397c0.079,0.159,0.134,0.346,0.134,0.552
		c0,0.506-0.285,0.949-0.612,0.949C58.817,34.875,58.532,34.432,58.532,33.926z M59.142,45.207c1.328,0,2.55,0.293,3.666,0.802
		h-0.409V59.09h-0.843c-0.224-1.133-1.226-1.991-2.423-1.991s-2.199,0.858-2.421,1.991h-0.86V46.008h-0.376
		C56.592,45.5,57.815,45.207,59.142,45.207z M69.291,59.09c-0.224-1.133-1.226-1.991-2.423-1.991c-1.198,0-2.198,0.858-2.421,1.991
		h-1.093V46.283c4.141,2.232,6.613,7.612,6.708,12.808H69.291z M54.896,46.299V59.09H53.82c-0.224-1.133-1.225-1.991-2.423-1.991
		c-1.197,0-2.199,0.858-2.422,1.991h-0.759C48.296,53.939,50.758,48.548,54.896,46.299z M48.214,60.045h1.669v-0.478
		c0-0.168,0.035-0.327,0.085-0.478c0.202-0.6,0.762-1.036,1.429-1.036c0.666,0,1.228,0.437,1.429,1.036
		c0.05,0.151,0.084,0.31,0.084,0.478v0.478h4.709v-0.478c0-0.168,0.034-0.327,0.084-0.478c0.201-0.6,0.763-1.036,1.429-1.036
		c0.668,0,1.228,0.437,1.429,1.036c0.051,0.151,0.084,0.31,0.084,0.478v0.478h4.71v-0.478c0-0.168,0.034-0.327,0.086-0.478
		c0.2-0.6,0.761-1.036,1.427-1.036c0.667,0,1.227,0.437,1.429,1.036c0.05,0.151,0.086,0.31,0.086,0.478v0.478h1.669v1.547H48.214
		V60.045z M48.214,62.548h21.857v10.364h-6.452l-3.505-1.36h1.349v-5.915c0-1.34-1.091-2.431-2.433-2.431s-2.433,1.09-2.433,2.431
		v5.915h1.617l-3.466,1.36h-6.535V62.548z M110.818,77.084h0.478h0.05v2.795h-0.05h-0.478H81.571l-7.2-2.795H110.818z
		 M60.507,65.637v4.96h-2.955v-4.96c0-0.813,0.662-1.476,1.478-1.476C59.845,64.161,60.507,64.823,60.507,65.637z M77.922,99.969
		v4.229h-1.312V83.445v-0.238h1.312v0.238v14.659V99.969z M81.004,109.089H37.281v-1.454h1.28h4.876h2.377h4.876h2.377h4.876h2.378
		h4.875h2.378h4.876h2.376h4.876h1.3V109.089z M39.517,105.152h2.616h0.35v1.527h-0.35h-2.616V105.152z M40.344,99.969v-1.864
		V83.445v-0.238h1.312v0.238v20.752h-1.312V99.969z M56.146,73.39l1.216-0.478l1.798-0.705l1.819,0.705l1.229,0.478l1.231,0.478
		l9.168,3.558l0.478,0.186l0.478,0.185l5.368,2.084h-5.368h-0.478h-0.478H45.963h-0.478h-0.478h-5.396l5.396-2.117l0.478-0.188
		l0.478-0.188l8.966-3.52L56.146,73.39z M70.668,83.445v20.752h-1.312V83.445v-0.238h1.312V83.445z M54.023,82.252v-1.287h2.966
		v1.287H54.023z M54.852,83.445v-0.238h1.309v0.238v20.752h-1.309V83.445z M61.277,82.252v-1.287h2.964v1.287H61.277z
		 M62.104,83.445v-0.238h1.311v0.238v20.752h-1.311V83.445z M68.53,82.252v-1.287h2.966v1.287H68.53z M49.736,82.252H46.77v-1.287
		h2.966V82.252z M47.597,83.207h1.312v0.238v20.752h-1.312V83.445V83.207z M49.864,99.417V83.445h0.827v-2.54h2.377v2.54h0.829
		v15.961c-0.456-0.621-1.184-1.029-2.013-1.029C51.05,98.377,50.317,98.789,49.864,99.417z M57.116,99.422V83.445h0.829v-2.54h2.378
		v2.54h0.827v15.954c-0.455-0.617-1.181-1.022-2.007-1.022C58.306,98.377,57.569,98.792,57.116,99.422z M64.37,99.417V83.445h0.827
		v-2.54h2.378v2.54h0.826v15.961c-0.453-0.621-1.183-1.029-2.011-1.029C65.557,98.377,64.824,98.789,64.37,99.417z M46.77,105.152
		h0.357h2.259h0.35v1.527h-0.35h-2.259H46.77V105.152z M54.023,105.152h0.358h2.263h0.345v1.527h-0.345h-2.263h-0.358V105.152z
		 M61.277,105.152h0.362h2.253h0.349v1.527h-0.349h-2.253h-0.362V105.152z M68.53,105.152h0.358h2.257h0.351v1.527h-0.351h-2.257
		H68.53V105.152z M75.656,99.407c-0.455-0.622-1.185-1.03-2.013-1.03c-0.834,0-1.567,0.412-2.02,1.04V83.445h0.828v-2.54h2.376v2.54
		h0.828V99.407z M75.783,82.252v-1.287h2.966v1.287H75.783z M43.438,80.905h2.377v2.54h0.828v15.962
		c-0.455-0.622-1.184-1.03-2.013-1.03c-0.833,0-1.566,0.412-2.019,1.04V83.445h0.827V80.905z M42.482,82.252h-2.966v-1.287h2.966
		V82.252z M76.141,106.68h-0.358v-1.527h0.358h2.608v1.527H76.141z M78.877,98.104V83.445h0.826v-2.54h31.114v17.199H78.877z
		 M36.999,79.879H7.225v-2.795h36.893L36.999,79.879z M72.608,76.129V76.4l-6.529-2.533h4.947h1.582V76.129z M7.752,80.905h30.809
		v2.54h0.827v14.659H7.752V80.905z M7.752,99.969h31.636v4.229h-0.827v2.482h-2.235v2.409h-2.29v2.408H7.752V99.969z
		 M34.991,111.497v-1.453h1.335h45.633h1.333v1.453H34.991z M111.772,99.969h0.528v-1.864h-0.528V80.834h0.528v-4.705h-0.528V48.54
		h3.455v62.958h-3.455V99.969z"/>
	<polygon fill="#A0A09F" points="13.184,121.12 13.184,121.598 186.576,121.598 186.576,121.12 186.576,120.643 13.184,120.643 	"/>
	<polygon fill="#A0A09F" points="177.138,115.214 173.137,115.214 173.137,115.691 173.137,116.169 177.138,116.169 
		177.138,115.691 	"/>
	<polygon fill="#A0A09F" points="168.667,115.214 164.667,115.214 164.667,115.691 164.667,116.169 168.667,116.169 
		168.667,115.691 	"/>
	<polygon fill="#A0A09F" points="160.196,115.214 156.194,115.214 156.194,115.691 156.194,116.169 160.196,116.169 
		160.196,115.691 	"/>
	<polygon fill="#A0A09F" points="151.723,115.214 147.723,115.214 147.723,115.691 147.723,116.169 151.723,116.169 
		151.723,115.691 	"/>
	<polygon fill="#A0A09F" points="143.252,115.214 139.251,115.214 139.251,115.691 139.251,116.169 143.252,116.169 
		143.252,115.691 	"/>
	<polygon fill="#A0A09F" points="134.78,115.214 130.781,115.214 130.781,115.691 130.781,116.169 134.78,116.169 134.78,115.691 	
		"/>
	<polygon fill="#A0A09F" points="126.309,115.214 122.308,115.214 122.308,115.691 122.308,116.169 126.309,116.169 
		126.309,115.691 	"/>
	<polygon fill="#A0A09F" points="117.836,115.214 113.837,115.214 113.837,115.691 113.837,116.169 117.836,116.169 
		117.836,115.691 	"/>
	<polygon fill="#A0A09F" points="109.365,115.214 105.365,115.214 105.365,115.691 105.365,116.169 109.365,116.169 
		109.365,115.691 	"/>
	<polygon fill="#A0A09F" points="100.894,115.214 96.893,115.214 96.893,115.691 96.893,116.169 100.894,116.169 100.894,115.691 	
		"/>
	<polygon fill="#A0A09F" points="92.422,115.214 88.422,115.214 88.422,115.691 88.422,116.169 92.422,116.169 92.422,115.691 	"/>
	<polygon fill="#A0A09F" points="83.951,115.214 79.95,115.214 79.95,115.691 79.95,116.169 83.951,116.169 83.951,115.691 	"/>
	<polygon fill="#A0A09F" points="75.479,115.214 71.479,115.214 71.479,115.691 71.479,116.169 75.479,116.169 75.479,115.691 	"/>
	<polygon fill="#A0A09F" points="67.008,115.214 63.007,115.214 63.007,115.691 63.007,116.169 67.008,116.169 67.008,115.691 	"/>
	<polygon fill="#A0A09F" points="58.536,115.214 54.536,115.214 54.536,115.691 54.536,116.169 58.536,116.169 58.536,115.691 	"/>
	<polygon fill="#A0A09F" points="50.064,115.214 46.064,115.214 46.064,115.691 46.064,116.169 50.064,116.169 50.064,115.691 	"/>
	<polygon fill="#A0A09F" points="41.593,115.214 37.592,115.214 37.592,115.691 37.592,116.169 41.593,116.169 41.593,115.691 	"/>
	<polygon fill="#A0A09F" points="33.121,115.214 29.121,115.214 29.121,115.691 29.121,116.169 33.121,116.169 33.121,115.691 	"/>
	<polygon fill="#A0A09F" points="24.65,115.214 20.649,115.214 20.649,115.691 20.649,116.169 24.65,116.169 24.65,115.691 	"/>
	<path fill="#A0A09F" d="M51.361,63.206c-1.341,0-2.433,1.09-2.433,2.431v5.915h4.864v-5.915
		C53.792,64.296,52.701,63.206,51.361,63.206z M52.837,70.597h-2.954v-4.96c0-0.813,0.663-1.476,1.478-1.476
		c0.814,0,1.477,0.662,1.477,1.476V70.597z"/>
	<path fill="#A0A09F" d="M69.131,65.637c0-1.34-1.091-2.431-2.433-2.431s-2.431,1.09-2.431,2.431v5.915h4.863V65.637z
		 M68.176,70.597h-2.953v-4.96c0-0.813,0.662-1.476,1.476-1.476c0.815,0,1.478,0.662,1.478,1.476V70.597z"/>
	<path fill="#A0A09F" d="M86.911,103.277c0-0.997-0.811-1.81-1.809-1.81c-0.996,0-1.81,0.812-1.81,1.81v4.338h3.619V103.277z
		 M84.248,103.277c0-0.472,0.384-0.854,0.854-0.854c0.472,0,0.854,0.383,0.854,0.854v3.383h-1.709V103.277z"/>
	<path fill="#A0A09F" d="M92.282,103.277c0-0.997-0.812-1.81-1.81-1.81s-1.809,0.812-1.809,1.81v4.338h3.619V103.277z
		 M89.618,103.277c0-0.472,0.382-0.854,0.854-0.854c0.47,0,0.854,0.383,0.854,0.854v3.383h-1.708V103.277z"/>
	<path fill="#A0A09F" d="M97.652,103.277c0-0.997-0.813-1.81-1.81-1.81c-0.998,0-1.81,0.812-1.81,1.81v4.338h3.619V103.277z
		 M94.988,103.277c0-0.472,0.382-0.854,0.854-0.854c0.47,0,0.854,0.383,0.854,0.854v3.383h-1.709V103.277z"/>
	<path fill="#A0A09F" d="M103.02,103.277c0-0.997-0.812-1.81-1.81-1.81s-1.81,0.812-1.81,1.81v4.338h3.619V103.277z
		 M100.356,103.277c0-0.472,0.385-0.854,0.854-0.854c0.473,0,0.854,0.383,0.854,0.854v3.383h-1.709V103.277z"/>
	<path fill="#A0A09F" d="M108.39,103.277c0-0.997-0.812-1.81-1.809-1.81c-0.998,0-1.81,0.812-1.81,1.81v4.338h3.618V103.277z
		 M105.727,103.277c0-0.472,0.382-0.854,0.854-0.854c0.47,0,0.854,0.383,0.854,0.854v3.383h-1.708V103.277z"/>
	<path fill="#A0A09F" d="M9.875,87.576h3.619v-4.815H9.875V87.576z M10.83,83.716h1.709v2.905H10.83V83.716z"/>
	<path fill="#A0A09F" d="M15.245,87.576h3.619v-4.815h-3.619V87.576z M16.2,83.716h1.708v2.905H16.2V83.716z"/>
	<path fill="#A0A09F" d="M25.984,87.576h3.619v-4.815h-3.619V87.576z M26.939,83.716h1.708v2.905h-1.708V83.716z"/>
	<path fill="#A0A09F" d="M20.614,87.576h3.619v-4.815h-3.619V87.576z M21.569,83.716h1.709v2.905h-1.709V83.716z"/>
	<path fill="#A0A09F" d="M31.354,87.576h3.619v-4.815h-3.619V87.576z M32.309,83.716h1.708v2.905h-1.708V83.716z"/>
	<path fill="#A0A09F" d="M9.875,96.663h3.619v-6.632H9.875V96.663z M10.83,90.986h1.709v4.722H10.83V90.986z"/>
	<path fill="#A0A09F" d="M15.245,96.663h3.619v-6.632h-3.619V96.663z M16.2,90.986h1.708v4.722H16.2V90.986z"/>
	<path fill="#A0A09F" d="M25.984,96.663h3.619v-6.632h-3.619V96.663z M26.939,90.986h1.708v4.722h-1.708V90.986z"/>
	<path fill="#A0A09F" d="M20.614,96.663h3.619v-6.632h-3.619V96.663z M21.569,90.986h1.709v4.722h-1.709V90.986z"/>
	<path fill="#A0A09F" d="M31.354,96.663h3.619v-6.632h-3.619V96.663z M32.309,90.986h1.708v4.722h-1.708V90.986z"/>
	<path fill="#A0A09F" d="M34.973,103.277c0-0.997-0.812-1.81-1.81-1.81c-0.998,0-1.809,0.812-1.809,1.81v4.338h3.619V103.277z
		 M32.309,103.277c0-0.472,0.383-0.854,0.854-0.854c0.471,0,0.854,0.383,0.854,0.854v3.383h-1.708V103.277z"/>
	<path fill="#A0A09F" d="M27.794,101.468c-0.998,0-1.81,0.812-1.81,1.81v4.338h3.619v-4.338
		C29.603,102.28,28.791,101.468,27.794,101.468z M26.939,103.277c0-0.472,0.383-0.854,0.854-0.854c0.471,0,0.854,0.383,0.854,0.854
		v3.383h-1.708V103.277z"/>
	<path fill="#A0A09F" d="M22.423,101.468c-0.997,0-1.81,0.812-1.81,1.81v4.338h3.619v-4.338
		C24.233,102.28,23.421,101.468,22.423,101.468z M21.569,103.277c0-0.472,0.384-0.854,0.854-0.854c0.471,0,0.854,0.383,0.854,0.854
		v3.383h-1.709V103.277z"/>
	<path fill="#A0A09F" d="M17.054,101.468c-0.997,0-1.81,0.812-1.81,1.81v4.338h3.619v-4.338
		C18.863,102.28,18.052,101.468,17.054,101.468z M16.2,103.277c0-0.472,0.383-0.854,0.854-0.854c0.471,0,0.854,0.383,0.854,0.854
		v3.383H16.2V103.277z"/>
	<path fill="#A0A09F" d="M11.685,101.468c-0.997,0-1.81,0.812-1.81,1.81v4.338h3.619v-4.338
		C13.494,102.28,12.683,101.468,11.685,101.468z M10.83,103.277c0-0.472,0.383-0.854,0.854-0.854s0.854,0.383,0.854,0.854v3.383
		H10.83V103.277z"/>
	<path fill="#A0A09F" d="M119.249,46.675l0.336-0.337l0.532-0.532h2.146c0.205,0,0.377-0.131,0.444-0.312l0.847,0.847l0.379,0.38
		c0.091,0.091,0.214,0.14,0.337,0.14c0.062,0,0.125-0.012,0.184-0.036c0.035-0.015,0.068-0.034,0.099-0.055
		c0.065,0.033,0.138,0.051,0.214,0.051h2.209c0.655,0,1.319-0.375,1.319-1.089c0-0.33-0.11-0.56-0.233-0.712
		c0.142-0.188,0.233-0.43,0.233-0.733c0-0.273-0.1-0.516-0.286-0.703c-0.361-0.361-0.923-0.38-1.037-0.38h-0.002h-2.699
		c-0.263,0-0.478,0.213-0.478,0.478v1.55l-1.888-1.888c-0.187-0.187-0.488-0.187-0.675,0L118.574,46
		c-0.187,0.187-0.187,0.489,0,0.675S119.062,46.862,119.249,46.675z M121.072,44.851l0.496-0.496l0.496,0.496H121.072z
		 M124.748,45.539c0.019,0.003,0.036,0.011,0.055,0.011h2.244c0.003,0,0.007-0.002,0.013-0.002c0.004,0,0.008,0.002,0.01,0.001
		c0.041-0.007,0.187,0.011,0.24,0.061c0.024,0.023,0.03,0.079,0.03,0.122c0,0.089-0.278,0.132-0.364,0.134h-2.209
		c-0.005,0-0.011,0-0.019,0V45.539z M127.001,44.595h-2.199c-0.019,0-0.036,0.009-0.055,0.011v-0.448h2.22
		c0.157,0.001,0.342,0.061,0.372,0.128C127.339,44.521,127.128,44.581,127.001,44.595z"/>
</g>
</svg>
