<?xml version="1.0" encoding="utf-8"?>
<!-- Generator: Adobe Illustrator 16.0.0, SVG Export Plug-In . SVG Version: 6.00 Build 0)  -->
<!DOCTYPE svg PUBLIC "-//W3C//DTD SVG 1.1//EN" "http://www.w3.org/Graphics/SVG/1.1/DTD/svg11.dtd">
<svg version="1.1" id="Layer_1" xmlns="http://www.w3.org/2000/svg" xmlns:xlink="http://www.w3.org/1999/xlink" x="0px" y="0px"
	 width="197.586px" height="132px" viewBox="0 0 197.586 132" enable-background="new 0 0 197.586 132" xml:space="preserve">
<g id="Ground">
	<rect x="8.723" y="114.57" fill="#A0A09F" width="181.548" height="1"/>
	<rect x="14.235" y="105.406" fill="#A0A09F" width="170.523" height="1"/>
</g>
<g id="Wheels">
	<path fill="#A0A09F" d="M134.951,100.312c-0.318,0.025-0.657,0.043-1.02,0.055c0.015,0.149,0.045,0.294,0.045,0.446
		c0,0.192-0.033,0.375-0.057,0.561c-0.28,2.26-2.19,4.021-4.523,4.021c-2.33,0-4.238-1.754-4.524-4.007
		c-0.023-0.19-0.058-0.378-0.058-0.574c0-0.146,0.029-0.283,0.043-0.426h-1.278c0.014,0.143,0.043,0.28,0.043,0.426
		c0,0.196-0.034,0.384-0.058,0.574c-0.286,2.253-2.193,4.007-4.523,4.007s-4.236-1.754-4.522-4.007
		c-0.023-0.188-0.058-0.373-0.058-0.567c0-0.003,0-0.005,0-0.007s0-0.004,0-0.007c0-0.144,0.029-0.279,0.043-0.419h-1.087
		c0.014,0.14,0.043,0.275,0.043,0.419c0,0.003,0.001,0.005,0.001,0.007s-0.001,0.004-0.001,0.007c0,0.194-0.034,0.379-0.058,0.567
		c-0.286,2.253-2.192,4.007-4.522,4.007s-4.237-1.754-4.523-4.007c-0.023-0.19-0.058-0.378-0.058-0.574
		c0-0.146,0.029-0.283,0.043-0.426h-1.021c-0.011,0.141-0.021,0.282-0.021,0.426c0,0.194,0.01,0.386,0.029,0.574
		c0.289,2.809,2.668,5.007,5.552,5.007c2.258,0,4.203-1.351,5.081-3.284c0.877,1.934,2.822,3.284,5.08,3.284
		c2.344,0,4.352-1.455,5.178-3.508c0.825,2.053,2.833,3.508,5.178,3.508c2.906,0,5.297-2.233,5.555-5.073
		c0.015-0.168,0.025-0.337,0.025-0.508C134.977,100.645,134.966,100.479,134.951,100.312z"/>
	<path fill="#A0A09F" d="M88.821,100.388c0.013,0.143,0.043,0.28,0.043,0.426c0,0.196-0.034,0.384-0.058,0.574
		c-0.286,2.252-2.193,4.006-4.521,4.006s-4.236-1.754-4.522-4.006c-0.024-0.19-0.058-0.378-0.058-0.574
		c0-0.146,0.03-0.283,0.043-0.426h-0.301l0,0l-0.531-0.077c-0.143,0.009-0.306,0.015-0.456,0.023
		c0.017,0.159,0.048,0.315,0.048,0.479c0,0.196-0.034,0.384-0.058,0.574c-0.286,2.253-2.194,4.007-4.523,4.007
		c-2.319,0-4.22-1.738-4.52-3.977c-0.027-0.2-0.061-0.397-0.061-0.604c0-0.136,0.028-0.264,0.04-0.397
		c-0.365-0.007-0.725-0.016-1.083-0.024c0.013,0.141,0.042,0.277,0.042,0.422c0,0.198-0.034,0.388-0.059,0.579
		c-0.289,2.25-2.194,4.001-4.521,4.001c-2.516,0-4.562-2.04-4.577-4.553c0-0.009-0.003-0.018-0.003-0.027
		c0-0.334,0.041-0.657,0.108-0.971c-0.357-0.045-0.691-0.091-0.997-0.138c-0.065,0.323-0.099,0.658-0.106,0.999
		c0,0.036-0.005,0.072-0.005,0.109c0,3.077,2.503,5.58,5.58,5.58c2.258,0,4.203-1.351,5.08-3.284
		c0.877,1.935,2.822,3.285,5.081,3.285c2.347,0,4.355-1.457,5.179-3.513c0.824,2.055,2.833,3.512,5.178,3.512
		c2.883,0,5.262-2.197,5.55-5.006c0.02-0.188,0.03-0.38,0.03-0.574c0-0.144-0.011-0.285-0.021-0.426H88.821z"/>
</g>
<g id="Body">
	<path fill="#A0A09F" d="M135.806,75.953l0.506-0.859l0.418-4.213l-0.338-0.142c-0.679-0.283-2.903-0.443-3.345-0.473l-14.963-0.936
		l-3.705-6.005h-8.761l-2.547,5.987H78.934c-0.065,0.002-6.618,0.143-10.433,0.339c-3.801,0.195-7.969,2.999-9.694,6.522
		c-1.347,2.745-4.736,12.461-4.736,12.804v10.645l0.258,0.143c0.139,0.077,1.498,0.765,6.425,1.251
		c2.152,0.212,7.197,0.438,12.308,0.438c2.09,0,3.898-0.039,5.384-0.115v0.049h54.633c5.025,0,6.621-1.271,6.687-1.324l0.182-0.15
		v-12.21C139.947,85.34,136.479,77.457,135.806,75.953z M138.947,99.402c-0.518,0.281-2.181,0.985-5.868,0.985H79.446v-0.109
		l-0.531,0.032c-1.559,0.096-3.528,0.144-5.854,0.144c-4.894,0-10.051-0.22-12.209-0.434c-3.592-0.354-5.21-0.821-5.782-1.026V89.06
		c0.006-0.018,0.02-0.058,0.027-0.082h83.849V99.402z M78.945,70.313h24.789l2.547-5.987h7.54l3.684,5.97l15.479,0.969
		c0.777,0.052,2.026,0.171,2.683,0.305l-0.272,3.114l-0.477,0.811l-0.121-0.283H60.579c1.861-2.532,5.032-4.409,7.974-4.561
		C72.353,70.455,78.89,70.314,78.945,70.313z M136.758,87.535c-0.012,0.009-0.025,0.019-0.041,0.027h-8.484
		c-0.115,0-0.209-0.094-0.209-0.21V76.976c0-0.116,0.095-0.21,0.211-0.21h4.413c0.248,0.094,0.311,0.331,0.315,0.351l0.048,0.136
		c0.196,0.384,2.426,6.201,3.896,10.066C136.907,87.319,136.93,87.408,136.758,87.535z M125.083,76.976v10.377
		c0,0.118-0.092,0.21-0.21,0.21h-15.891c-0.116,0-0.211-0.094-0.211-0.21V76.976c0-0.116,0.095-0.21,0.211-0.21h15.891
		C124.991,76.766,125.083,76.857,125.083,76.976z M106.098,76.976v10.377c0,0.118-0.092,0.21-0.209,0.21H89.997
		c-0.115,0-0.209-0.094-0.209-0.21V76.976c0-0.116,0.094-0.21,0.209-0.21h15.892C106.006,76.766,106.098,76.857,106.098,76.976z
		 M87.112,76.976v10.377c0,0.116-0.094,0.21-0.209,0.21H71.012c-0.119,0-0.211-0.092-0.211-0.21V76.976
		c0-0.118,0.093-0.21,0.211-0.21h15.891C87.018,76.766,87.112,76.859,87.112,76.976z M68.067,76.976v10.377
		c0,0.116-0.094,0.21-0.21,0.21h-8.484c-0.016-0.01-0.031-0.02-0.045-0.029c-0.08-0.06-0.168-0.148-0.126-0.263
		c1.451-3.816,3.68-9.633,3.878-10.018l0.046-0.128c0.006-0.028,0.069-0.266,0.314-0.359h4.415
		C67.974,76.766,68.067,76.857,68.067,76.976z"/>
	<path fill="#A0A09F" d="M89.921,97.354h4.902l2.186,1.387l2.186-1.387h4.904l2.898-3.377h-6.045l1.606-2.295h-11.1l1.606,2.295
		h-6.044L89.921,97.354z M99.033,94.978h5.79l-1.182,1.377h-4.736l-1.895,1.203l-1.896-1.203H90.38l-1.182-1.377h5.788l-1.606-2.295
		h7.26L99.033,94.978z"/>
</g>
</svg>
