<?xml version="1.0" encoding="utf-8"?>
<!-- Generator: Adobe Illustrator 16.0.0, SVG Export Plug-In . SVG Version: 6.00 Build 0)  -->
<!DOCTYPE svg PUBLIC "-//W3C//DTD SVG 1.1//EN" "http://www.w3.org/Graphics/SVG/1.1/DTD/svg11.dtd">
<svg version="1.1" id="Ground" xmlns="http://www.w3.org/2000/svg" xmlns:xlink="http://www.w3.org/1999/xlink" x="0px" y="0px"
	 width="197.586px" height="132px" viewBox="0 0 197.586 132" enable-background="new 0 0 197.586 132" xml:space="preserve">
<g>
	<polygon fill="#A0A09F" points="93.494,68.893 107.373,68.893 107.373,67.893 94.494,67.893 93.08,67.893 86.212,67.893 
		86.212,68.893 92.08,68.893 	"/>
	<polygon fill="#A0A09F" points="96.917,65.469 106.66,65.469 107.373,65.469 107.373,64.768 107.373,64.469 107.074,64.469 
		105.66,64.469 97.917,64.469 96.503,64.469 86.212,64.469 86.212,65.469 95.503,65.469 	"/>
	<polygon fill="#A0A09F" points="107.373,75.736 107.373,74.736 87.65,74.736 86.236,74.736 86.212,74.736 86.212,74.759 
		86.212,75.736 86.65,75.736 	"/>
	<polygon fill="#A0A09F" points="90.072,72.313 107.373,72.313 107.373,71.313 91.072,71.313 89.658,71.313 86.212,71.313 
		86.212,72.313 88.658,72.313 	"/>
	<rect x="86.212" y="82.291" fill="#A0A09F" width="21.16" height="1"/>
	<rect x="86.212" y="78.868" fill="#A0A09F" width="21.16" height="1"/>
	<rect x="86.212" y="89.136" fill="#A0A09F" width="21.16" height="1"/>
	<rect x="86.212" y="85.714" fill="#A0A09F" width="21.16" height="1"/>
	<rect x="86.212" y="96.021" fill="#A0A09F" width="21.16" height="1"/>
	<rect x="86.212" y="92.598" fill="#A0A09F" width="21.16" height="1"/>
	<rect x="86.212" y="102.866" fill="#A0A09F" width="21.16" height="1"/>
	<rect x="86.212" y="99.443" fill="#A0A09F" width="21.16" height="1"/>
	<path fill="#A0A09F" d="M83.779,109.716h25.748h72.602h1.154v-1h-1.154v-7.323v-1v-6.246v-0.266h-0.033
		c-0.279-1.701-3.207-3.097-7.701-4.166l0.096-0.096l-34.133-34.133c-2.924-2.924-7.682-2.924-10.605,0l-15.83,15.829l-2.961-2.961
		v-8.351H82.779v18.188L71.832,89.14v-4.504l-0.908,1.285c-0.037,0.051-3.475,4.841-7.166,5.256v-6.543l-0.908,1.287
		c-0.035,0.051-3.469,4.843-7.166,5.256v-6.543l-0.908,1.287c-0.035,0.051-3.468,4.843-7.166,5.256v-6.541l-0.908,1.285
		c-0.036,0.051-3.475,4.842-7.167,5.256v-6.544l-0.908,1.288c-0.038,0.053-3.782,5.297-7.666,5.297h-0.5v5.799h-2.107h-6.279h-6.28
		v5.99v5.709h-3.79v1h3.79H83.779z M23.073,104.007h5.279v4.671h-5.279V104.007z M83.779,77.192V61.004h26.182v6.351v1.414v25.112
		v0.205c-0.002,0.021-0.008,0.04-0.008,0.061h0.008v6.246v1v7.271h-0.434H83.779v-5.656v-5.99v-18.41V77.192z M181.087,93.881
		h-70.094c0.609-1.944,7.826-3.988,19.053-5.025c0.428-0.039,0.861-0.077,1.301-0.113c4.381-0.364,9.322-0.578,14.693-0.578
		C166.074,88.164,180.224,91.123,181.087,93.881z M138.541,108.663h-27.58v-7.271h27.58V108.663z M82.779,103.007h-5.281v-4.99
		h5.281V103.007z M43.138,104.007h4.354v4.671h-4.354V104.007z M70.218,103.007h-4.711v-4.99h4.711V103.007z M70.218,108.678h-4.711
		v-4.671h4.711V108.678z M48.491,104.007h2.588v4.671h-2.588V104.007z M48.491,98.017h2.588v4.99h-2.588V98.017z M64.507,103.007
		h-7.074v-4.99h7.074V103.007z M56.433,103.007H52.08v-4.99h4.354V103.007z M52.08,104.007h4.354v4.671H52.08V104.007z
		 M57.433,104.007h7.074v4.671h-7.074V104.007z M43.138,98.017h4.354v4.99h-4.354V98.017z M76.498,108.678h-5.279v-4.671h5.279
		V108.678z M71.218,103.007v-4.99h5.279v4.99H71.218z M78.906,96.978h-7.074v-4.783c3-0.277,5.715-2.964,7.074-4.55V96.978z
		 M35.063,98.017h7.074v4.99h-7.074V98.017z M42.138,104.007v4.671h-7.074v-4.671H42.138z M34.063,108.678h-4.711v-4.671h4.711
		V108.678z M77.498,104.007h5.281v4.709h-5.281V104.007z M139.541,101.393h13.008v7.323h-13.008V101.393z M181.128,108.663h-27.58
		v-7.271h27.58V108.663z M152.548,100.393h-13.008h-28.58v-5.512h70.168v5.512H152.548z M130.458,56.193
		c2.533-2.535,6.656-2.533,9.191,0l4.844,4.843c-0.635,0.172-1.062,0.533-1.402,0.861c-0.412,0.397-0.738,0.711-1.42,0.711
		s-1.008-0.313-1.42-0.711c-0.459-0.441-1.029-0.99-2.113-0.99c-1.086,0-1.656,0.549-2.113,0.99
		c-0.414,0.397-0.738,0.711-1.422,0.711c-0.682,0-1.008-0.313-1.42-0.711c-0.459-0.441-1.029-0.99-2.115-0.99
		c-1.088,0-1.658,0.549-2.117,0.99c-0.414,0.397-0.74,0.711-1.424,0.711s-1.012-0.313-1.424-0.711
		c-0.232-0.223-0.441-0.471-0.686-0.664L130.458,56.193z M124.615,62.036c0.301,0.127,0.535,0.333,0.795,0.582
		c0.459,0.441,1.029,0.99,2.117,0.99c1.086,0,1.658-0.549,2.117-0.99c0.412-0.397,0.74-0.711,1.424-0.711
		c0.682,0,1.008,0.313,1.422,0.711c0.459,0.441,1.029,0.99,2.113,0.99c1.086,0,1.656-0.549,2.115-0.99
		c0.412-0.397,0.738-0.711,1.42-0.711s1.008,0.313,1.42,0.711c0.457,0.441,1.027,0.99,2.113,0.99s1.654-0.55,2.113-0.991
		c0.412-0.396,0.736-0.71,1.418-0.71c0.064,0,0.119,0.011,0.178,0.016l27.443,27.444c-7.021-1.447-17.068-2.203-26.783-2.203
		c-5.285,0-10.668,0.225-15.609,0.661l-15.803-15.803L124.615,62.036z M129.136,87.946c-8.596,0.839-15.65,2.342-18.176,4.456
		V69.769L129.136,87.946z M82.779,79.606v17.41h-2.873V84.636l-0.908,1.285c-0.037,0.051-3.475,4.842-7.166,5.256v-0.623
		L82.779,79.606z M70.832,87.645v3.573v5.76h-7.074v-4.783C66.757,91.916,69.472,89.23,70.832,87.645z M62.757,87.645v3.573l0,0
		v5.76h-7.074v-4.783C58.683,91.917,61.4,89.23,62.757,87.645z M54.683,87.645v3.573v5.76h-7.074v-4.783
		C50.608,91.917,53.326,89.23,54.683,87.645z M46.609,87.645v3.573v5.76h-7.075v-4.783C42.534,91.917,45.251,89.23,46.609,87.645z
		 M31.46,92.194c3-0.277,5.716-2.964,7.074-4.55v3.573v5.76H31.46V92.194z M34.063,98.017v4.99h-4.711v-4.99H34.063z M28.353,98.017
		v4.99h-5.279v-4.99H28.353z M16.793,98.017h5.28v4.99h-5.28V98.017z M16.793,104.007h5.28v4.709h-5.28V104.007z"/>
	<path fill="#A0A09F" d="M185.589,113.82c-0.824-0.448-1.676-0.911-3.367-0.911c-1.689,0-2.541,0.463-3.365,0.911
		c-0.746,0.406-1.451,0.79-2.889,0.79c-1.436,0-2.143-0.384-2.889-0.79c-0.824-0.448-1.676-0.911-3.367-0.911
		s-2.545,0.463-3.367,0.911c-0.748,0.406-1.455,0.79-2.893,0.79c-1.436,0-2.143-0.384-2.889-0.79
		c-0.824-0.448-1.676-0.911-3.367-0.911s-2.543,0.463-3.367,0.911c-0.746,0.406-1.451,0.79-2.889,0.79s-2.145-0.384-2.893-0.79
		c-0.824-0.448-1.676-0.911-3.367-0.911s-2.545,0.463-3.369,0.911c-0.746,0.406-1.451,0.79-2.889,0.79s-2.143-0.384-2.891-0.79
		c-0.824-0.448-1.676-0.911-3.369-0.911c-1.691,0-2.543,0.463-3.367,0.911c-0.748,0.406-1.453,0.79-2.891,0.79
		s-2.143-0.384-2.891-0.79c-0.824-0.448-1.676-0.911-3.369-0.911c-1.691,0-2.545,0.463-3.369,0.911
		c-0.746,0.406-1.451,0.79-2.889,0.79c-1.439,0-2.145-0.384-2.893-0.79c-0.824-0.448-1.676-0.911-3.369-0.911
		c-1.691,0-2.545,0.463-3.369,0.911c-0.746,0.406-1.451,0.79-2.889,0.79c-1.439,0-2.145-0.384-2.893-0.79
		c-0.824-0.448-1.678-0.911-3.369-0.911c-1.693,0-2.545,0.463-3.369,0.911c-0.748,0.406-1.455,0.79-2.893,0.79
		c-1.439,0-2.145-0.384-2.893-0.79c-0.824-0.448-1.676-0.911-3.369-0.911c-1.691,0-2.543,0.463-3.367,0.911
		c-0.748,0.406-1.455,0.79-2.893,0.79c-1.439,0-2.145-0.384-2.893-0.79c-0.824-0.448-1.678-0.911-3.369-0.911
		s-2.545,0.463-3.369,0.911c-0.746,0.406-1.451,0.79-2.889,0.79s-2.143-0.384-2.891-0.79c-0.824-0.448-1.676-0.911-3.367-0.911
		c-1.693,0-2.545,0.463-3.369,0.911c-0.748,0.406-1.455,0.79-2.893,0.79c-1.438,0-2.145-0.384-2.893-0.79
		c-0.824-0.448-1.677-0.911-3.37-0.911c-1.692,0-2.545,0.463-3.369,0.911c-0.748,0.406-1.454,0.79-2.893,0.79
		s-2.146-0.384-2.894-0.79c-0.824-0.448-1.677-0.911-3.37-0.911c-1.692,0-2.544,0.463-3.368,0.911
		c-0.748,0.406-1.454,0.79-2.893,0.79c-1.439,0-2.146-0.384-2.895-0.79c-0.824-0.448-1.678-0.911-3.371-0.911
		c-1.694,0-2.548,0.463-3.373,0.911c-0.749,0.406-1.456,0.79-2.896,0.79s-2.147-0.384-2.896-0.79
		c-0.825-0.448-1.679-0.911-3.374-0.911v1c1.441,0,2.148,0.384,2.897,0.79c0.825,0.448,1.679,0.911,3.373,0.911
		s2.548-0.463,3.373-0.911c0.749-0.406,1.456-0.79,2.896-0.79c1.439,0,2.146,0.384,2.895,0.79c0.824,0.448,1.678,0.911,3.371,0.911
		c1.692,0,2.545-0.463,3.37-0.911c0.747-0.406,1.453-0.79,2.891-0.79c1.438,0,2.146,0.384,2.894,0.79
		c0.824,0.448,1.677,0.911,3.37,0.911c1.692,0,2.545-0.463,3.369-0.911c0.748-0.406,1.454-0.79,2.893-0.79
		c1.439,0,2.146,0.384,2.894,0.79c0.824,0.448,1.677,0.911,3.369,0.911c1.692,0,2.545-0.463,3.37-0.911
		c0.748-0.406,1.453-0.79,2.893-0.79c1.438,0,2.143,0.384,2.889,0.79c0.824,0.448,1.678,0.911,3.369,0.911s2.543-0.463,3.367-0.911
		c0.748-0.406,1.453-0.79,2.891-0.79s2.145,0.384,2.893,0.79c0.824,0.448,1.676,0.911,3.369,0.911c1.691,0,2.545-0.463,3.369-0.911
		c0.748-0.406,1.453-0.79,2.891-0.79s2.145,0.384,2.891,0.79c0.826,0.448,1.678,0.911,3.371,0.911c1.691,0,2.545-0.463,3.369-0.911
		c0.748-0.406,1.453-0.79,2.893-0.79c1.438,0,2.145,0.384,2.891,0.79c0.826,0.448,1.678,0.911,3.371,0.911
		c1.691,0,2.543-0.463,3.367-0.911c0.748-0.406,1.453-0.79,2.891-0.79s2.145,0.384,2.891,0.79c0.826,0.448,1.678,0.911,3.371,0.911
		c1.691,0,2.543-0.463,3.367-0.911c0.748-0.406,1.453-0.79,2.891-0.79s2.145,0.384,2.893,0.79c0.824,0.448,1.676,0.911,3.367,0.911
		s2.545-0.463,3.369-0.911c0.746-0.406,1.451-0.79,2.889-0.79s2.145,0.384,2.891,0.79c0.826,0.448,1.678,0.911,3.369,0.911
		s2.543-0.463,3.367-0.911c0.748-0.406,1.453-0.79,2.891-0.79s2.143,0.384,2.891,0.79c0.824,0.448,1.676,0.911,3.369,0.911
		c1.691,0,2.543-0.463,3.367-0.911c0.746-0.406,1.453-0.79,2.889-0.79c1.438,0,2.143,0.384,2.889,0.79
		c0.824,0.448,1.676,0.911,3.367,0.911c1.693,0,2.545-0.463,3.369-0.911c0.748-0.406,1.453-0.79,2.891-0.79s2.143,0.384,2.889,0.79
		c0.824,0.448,1.676,0.911,3.367,0.911s2.543-0.463,3.367-0.911c0.746-0.406,1.451-0.79,2.887-0.79c1.438,0,2.143,0.384,2.889,0.79
		c0.824,0.448,1.676,0.911,3.367,0.911v-1C187.042,114.61,186.335,114.227,185.589,113.82z"/>
	<path fill="#A0A09F" d="M177.568,117.29c-1.611,0-2.459,0.487-3.205,0.917c-0.73,0.421-1.361,0.784-2.705,0.784
		c-1.346,0-2.006-0.381-2.707-0.784c-0.748-0.43-1.594-0.917-3.205-0.917c-1.613,0-2.459,0.487-3.207,0.917
		c-0.701,0.403-1.363,0.784-2.707,0.784s-1.975-0.363-2.707-0.784c-0.746-0.43-1.594-0.917-3.205-0.917s-2.457,0.487-3.205,0.917
		c-0.701,0.403-1.361,0.784-2.707,0.784s-2.008-0.381-2.709-0.784c-0.746-0.43-1.594-0.917-3.205-0.917s-2.459,0.487-3.205,0.917
		c-0.701,0.403-1.363,0.784-2.707,0.784c-1.346,0-2.008-0.381-2.709-0.784c-0.746-0.43-1.594-0.917-3.207-0.917
		c-1.611,0-2.457,0.487-3.205,0.917c-0.701,0.403-1.363,0.784-2.707,0.784c-1.346,0-2.008-0.381-2.709-0.784
		c-0.746-0.43-1.594-0.917-3.205-0.917c-1.613,0-2.459,0.487-3.207,0.917c-0.701,0.403-1.363,0.784-2.709,0.784
		s-2.008-0.381-2.709-0.784c-0.746-0.43-1.594-0.917-3.205-0.917c-1.613,0-2.459,0.487-3.207,0.917
		c-0.701,0.403-1.363,0.784-2.709,0.784s-2.008-0.381-2.709-0.784c-0.746-0.43-1.594-0.917-3.207-0.917
		c-1.611,0-2.459,0.487-3.207,0.917c-0.701,0.403-1.363,0.784-2.709,0.784s-2.008-0.381-2.709-0.784
		c-0.748-0.43-1.596-0.917-3.207-0.917c-1.613,0-2.461,0.487-3.207,0.917c-0.701,0.403-1.363,0.784-2.709,0.784
		s-2.01-0.381-2.711-0.784c-0.746-0.43-1.594-0.917-3.207-0.917c-1.611,0-2.459,0.487-3.205,0.917
		c-0.73,0.421-1.361,0.784-2.705,0.784c-1.346,0-2.008-0.381-2.709-0.784c-0.746-0.43-1.594-0.917-3.207-0.917
		c-1.611,0-2.459,0.487-3.207,0.917c-0.701,0.403-1.363,0.784-2.709,0.784s-2.009-0.381-2.71-0.784
		c-0.747-0.43-1.595-0.917-3.207-0.917s-2.46,0.487-3.207,0.917c-0.701,0.403-1.364,0.784-2.71,0.784s-2.009-0.381-2.71-0.784
		c-0.748-0.43-1.596-0.917-3.209-0.917c-1.612,0-2.46,0.487-3.207,0.917c-0.701,0.403-1.363,0.784-2.708,0.784
		c-1.347,0-2.01-0.381-2.712-0.784c-0.748-0.43-1.596-0.917-3.209-0.917c-1.614,0-2.463,0.487-3.211,0.917
		c-0.702,0.403-1.365,0.784-2.714,0.784s-2.012-0.381-2.714-0.784c-0.748-0.43-1.597-0.917-3.211-0.917v1
		c1.348,0,2.011,0.381,2.713,0.784c0.749,0.43,1.597,0.917,3.212,0.917s2.463-0.487,3.212-0.917
		c0.702-0.403,1.365-0.784,2.713-0.784c1.347,0,2.009,0.381,2.711,0.784c0.748,0.43,1.596,0.917,3.21,0.917
		c1.612,0,2.459-0.487,3.206-0.917c0.701-0.403,1.363-0.784,2.709-0.784c1.347,0,2.009,0.381,2.711,0.784
		c0.748,0.43,1.595,0.917,3.208,0.917s2.461-0.487,3.208-0.917c0.701-0.403,1.363-0.784,2.709-0.784s2.008,0.381,2.709,0.784
		c0.747,0.43,1.595,0.917,3.208,0.917s2.461-0.487,3.207-0.917c0.701-0.403,1.363-0.784,2.709-0.784s2.008,0.381,2.709,0.784
		c0.748,0.43,1.594,0.917,3.207,0.917c1.611,0,2.457-0.487,3.203-0.917c0.701-0.403,1.363-0.784,2.707-0.784
		c1.346,0,2.008,0.381,2.709,0.784c0.748,0.43,1.596,0.917,3.209,0.917c1.611,0,2.459-0.487,3.207-0.917
		c0.701-0.403,1.363-0.784,2.709-0.784s2.008,0.381,2.709,0.784c0.746,0.43,1.594,0.917,3.207,0.917s2.461-0.487,3.207-0.917
		c0.701-0.403,1.363-0.784,2.709-0.784s2.008,0.381,2.709,0.784c0.748,0.43,1.596,0.917,3.207,0.917
		c1.613,0,2.461-0.487,3.207-0.917c0.701-0.403,1.363-0.784,2.709-0.784c1.344,0,2.006,0.381,2.707,0.784
		c0.748,0.43,1.596,0.917,3.207,0.917c1.613,0,2.461-0.487,3.207-0.917c0.701-0.403,1.363-0.784,2.709-0.784
		c1.344,0,2.006,0.381,2.707,0.784c0.748,0.43,1.594,0.917,3.207,0.917c1.611,0,2.459-0.487,3.205-0.917
		c0.732-0.421,1.363-0.784,2.707-0.784c1.346,0,2.008,0.381,2.709,0.784c0.748,0.43,1.594,0.917,3.207,0.917
		c1.611,0,2.457-0.487,3.205-0.917c0.701-0.403,1.361-0.784,2.707-0.784c1.344,0,2.006,0.381,2.707,0.784
		c0.748,0.43,1.596,0.917,3.207,0.917s2.459-0.487,3.205-0.917c0.701-0.403,1.363-0.784,2.707-0.784
		c1.346,0,2.006,0.381,2.707,0.784c0.746,0.43,1.594,0.917,3.205,0.917s2.459-0.487,3.205-0.917
		c0.701-0.403,1.363-0.784,2.709-0.784c1.344,0,2.006,0.381,2.707,0.784c0.746,0.43,1.594,0.917,3.205,0.917
		s2.457-0.487,3.203-0.917c0.732-0.421,1.363-0.784,2.707-0.784s1.975,0.363,2.705,0.784c0.748,0.43,1.594,0.917,3.205,0.917v-1
		c-1.344,0-2.006-0.381-2.707-0.784C180.025,117.777,179.179,117.29,177.568,117.29z"/>
</g>
</svg>
