<?xml version="1.0" encoding="utf-8"?>
<!-- Generator: Adobe Illustrator 16.0.0, SVG Export Plug-In . SVG Version: 6.00 Build 0)  -->
<!DOCTYPE svg PUBLIC "-//W3C//DTD SVG 1.1//EN" "http://www.w3.org/Graphics/SVG/1.1/DTD/svg11.dtd">
<svg version="1.1" id="Ground" xmlns="http://www.w3.org/2000/svg" xmlns:xlink="http://www.w3.org/1999/xlink" x="0px" y="0px"
	 width="197.586px" height="132px" viewBox="0 0 197.586 132" enable-background="new 0 0 197.586 132" xml:space="preserve">
<g>
	<path fill="#A0A09F" d="M135.869,99.1h4.662v-8.379h-4.662V99.1z M136.869,91.721h2.662V98.1h-2.662V91.721z"/>
	<path fill="#A0A09F" d="M135.869,109.674h4.662v-7.333h-4.662V109.674z M136.869,103.341h2.662v5.333h-2.662V103.341z"/>
	<path fill="#A0A09F" d="M144.611,99.1h4.662v-8.379h-4.662V99.1z M145.611,91.721h2.662V98.1h-2.662V91.721z"/>
	<path fill="#A0A09F" d="M89.423,99.1h4.662v-8.379h-4.662V99.1z M90.423,91.721h2.662V98.1h-2.662V91.721z"/>
	<path fill="#A0A09F" d="M89.423,109.674h4.662v-7.333h-4.662V109.674z M90.423,103.341h2.662v5.333h-2.662V103.341z"/>
	<path fill="#A0A09F" d="M98.166,99.1h4.662v-8.379h-4.662V99.1z M99.166,91.721h2.662V98.1h-2.662V91.721z"/>
	<rect x="7.019" y="120.555" fill="#A0A09F" width="181.549" height="1"/>
	<rect x="172.357" y="115.722" fill="#A0A09F" width="4.188" height="1"/>
	<rect x="163.486" y="115.722" fill="#A0A09F" width="4.189" height="1"/>
	<rect x="154.617" y="115.722" fill="#A0A09F" width="4.188" height="1"/>
	<rect x="145.746" y="115.722" fill="#A0A09F" width="4.189" height="1"/>
	<rect x="136.876" y="115.722" fill="#A0A09F" width="4.188" height="1"/>
	<rect x="128.005" y="115.722" fill="#A0A09F" width="4.189" height="1"/>
	<rect x="119.136" y="115.722" fill="#A0A09F" width="4.188" height="1"/>
	<rect x="110.265" y="115.722" fill="#A0A09F" width="4.189" height="1"/>
	<rect x="101.396" y="115.722" fill="#A0A09F" width="4.188" height="1"/>
	<rect x="92.525" y="115.722" fill="#A0A09F" width="4.189" height="1"/>
	<rect x="83.656" y="115.722" fill="#A0A09F" width="4.188" height="1"/>
	<rect x="74.785" y="115.722" fill="#A0A09F" width="4.189" height="1"/>
	<rect x="65.916" y="115.722" fill="#A0A09F" width="4.188" height="1"/>
	<rect x="57.044" y="115.722" fill="#A0A09F" width="4.189" height="1"/>
	<rect x="48.175" y="115.722" fill="#A0A09F" width="4.188" height="1"/>
	<rect x="39.305" y="115.722" fill="#A0A09F" width="4.188" height="1"/>
	<rect x="30.435" y="115.722" fill="#A0A09F" width="4.188" height="1"/>
	<rect x="21.564" y="115.722" fill="#A0A09F" width="4.188" height="1"/>
	<rect x="12.694" y="115.722" fill="#A0A09F" width="4.188" height="1"/>
	<rect x="49.854" y="103.394" fill="#A0A09F" width="25.292" height="0.909"/>
	<rect x="22.175" y="103.394" fill="#A0A09F" width="20.976" height="0.909"/>
	<path fill="#A0A09F" d="M87.156,113.222h1.314h8.016h5.871h2.465h28.779h9.33h5.871h1.465h1h24.127h6.945v-1h-6.877l-0.068-0.17
		V83.995l0.277-0.115l-0.277-0.662V56.365l0.113-0.271l-0.113-0.048v-0.702l0.277-0.115l-0.277-0.662V27.954l0.113-0.271
		l-0.113-0.047V26.99h-25.127v57.054h-15.666v-0.393v-1.857v-1v-1.856v-1V76.08v-1v-1.857v-1v-2.856h-30.695v2.856v1v1.857v1v1.857
		v1v1.856v1v1.857v0.393H87.914l-0.447-23.402h1.508l3.219-3.151h1.012V52h0.479l0.424-0.766l-2.422-3.865l-0.424-0.234h-2.119
		l-1.051-2.246h-7.17l-1.051,2.246h-2.117l-0.424,0.234l-2.422,3.865L75.332,52h0.479v5.49h1.012l3.219,3.151h1.508L81.13,82.56
		c-3.186,1.215-23.545,8.803-34.899,8.803c-12.31,0-28.633-4.036-28.796-4.077l-0.621,0.485v2.713L17.2,90.97
		c0.019,0.005,0.259,0.061,0.675,0.153c0.048,1.129,0.223,4.554,0.698,7.467c0.456,2.799,1.558,6.284,2.032,7.72h-0.933l-0.5,0.5
		v2.282l0.5,0.5h2.207v2.63h-8.633v1h67.297H87.156z M78.029,48.135h12.955L92.779,51H76.236L78.029,48.135z M92.205,52v4.49H76.81
		V52H92.205z M81.564,112.222l0.5-26.232l0.186-0.265v-2.867l-0.123-0.084l0.418-21.98h3.926l0.686,35.959v15.47H81.564z
		 M48.798,106.31V94.96c9.954-0.831,26.247-6.338,31.459-8.172c-0.062,1.69-0.334,6.135-1.514,10.288
		c-1.25,4.397-2.74,8.172-3.172,9.233H48.798z M97.486,112.222v-7.255c0-1.067,0.869-1.937,1.936-1.937
		c1.068,0,1.938,0.869,1.936,1.989v7.202H97.486z M102.357,112.222l0.002-7.255c0-1.619-1.316-2.937-2.938-2.937
		c-1.619,0-2.936,1.317-2.936,2.937v7.255h-8.035l-0.295-15.479V88.36h15.666v23.861H102.357z M111.492,81.794h15.672v1.857h-15.672
		V81.794z M111.492,78.938h15.672v1.856h-15.672V78.938z M133.601,86.508h-5.438v-1.856h5.438V86.508z M174.394,98.017h-4.414
		l4.414-11.141V98.017z M151.267,70.605h4.738l-4.738,11.357V70.605z M151.267,42.195h4.639l-4.639,11.117V42.195z M157.57,69.605
		l5-11.986v11.986H157.57z M162.57,70.605v11.359l-4.738-11.359H162.57z M162.255,83.812h-4.742V72.443L162.255,83.812z
		 M162.449,84.812l-4.936,12.453V84.812H162.449z M162.57,87.222v10.795h-4.277L162.57,87.222z M163.57,85.858l4.818,12.158h-4.818
		V85.858z M163.57,70.605h4.736l-4.736,11.359V70.605z M163.57,69.605V58.398l4.676,11.207H163.57z M162.57,53.314l-4.639-11.119
		h4.639V53.314z M163.57,42.195h4.637l-4.637,11.119V42.195z M157.513,43.793l4.842,11.607h-4.842V43.793z M156.513,55.4h-5.033
		l5.033-12.064V55.4z M161.994,56.4l-4.48,10.74V56.4H161.994z M156.513,83.812h-4.932l4.932-11.825V83.812z M156.513,84.812v10.628
		l-4.961-10.628H156.513z M162.57,99.017v10.166l-4.029-10.166H162.57z M163.57,99.017h4.877l-4.877,12.308V99.017z M168.625,95.899
		l-4.395-11.088h4.395V95.899z M169.625,84.812h4.512l-4.512,11.384V84.812z M163.884,83.812l4.74-11.368v11.368H163.884z
		 M163.82,56.4h4.805v11.518L163.82,56.4z M163.783,55.4l4.842-11.607V55.4H163.783z M163.57,41.195V29.988l4.676,11.207H163.57z
		 M162.57,41.195h-5l5-11.986V41.195z M156.513,56.4v11.977L151.519,56.4H156.513z M151.267,86.565l5.246,11.239v0.212h-5.246V87.34
		V86.565z M151.267,99.017h5.246v0.361l-5.246,11.239V99.017z M156.513,101.743v10.479h-4.891L156.513,101.743z M157.513,99.601
		l0.1-0.211l4.957,12.509v0.323h-5.057V99.601z M168.625,101.281v10.94h-4.334L168.625,101.281z M169.625,100.209l4.762,12.013
		h-4.762V100.209z M174.394,83.812h-4.77V71.986l4.77,11.434V83.812z M169.625,56.4h4.67l-4.67,11.197V56.4z M174.394,55.4h-4.77
		V43.336l4.77,11.433V55.4z M168.625,39.508L163.82,27.99h4.805V39.508z M169.625,27.99h4.67l-4.67,11.196V27.99z M157.513,38.73
		V27.99h4.48L157.513,38.73z M156.513,39.966l-4.994-11.976h4.994V39.966z M155.943,41.195h-4.676V29.989L155.943,41.195z
		 M155.943,69.605h-4.676V58.399L155.943,69.605z M133.601,88.36v1.005h-5.438v-1.857h5.438V88.36z M133.601,92.223h-5.438v-1.857
		h5.438V92.223z M133.601,95.079h-5.438v-1.856h5.438V95.079z M133.601,97.937h-5.438v-1.857h5.438V97.937z M133.601,100.795h-5.438
		v-1.858h5.438V100.795z M133.601,103.649h-5.438v-1.854h5.438V103.649z M133.601,106.508h-5.438v-1.858h5.438V106.508z
		 M133.601,109.363h-5.438v-1.855h5.438V109.363z M127.164,89.365h-15.672v-1.857h15.672V89.365z M127.164,92.223h-15.672v-1.857
		h15.672V92.223z M127.164,95.079h-15.672v-1.856h15.672V95.079z M127.164,97.937h-15.672v-1.857h15.672V97.937z M127.164,100.795
		h-15.672v-1.858h15.672V100.795z M127.164,103.649h-15.672v-1.854h15.672V103.649z M127.164,106.508h-15.672v-1.858h15.672V106.508
		z M127.164,109.363h-15.672v-1.855h15.672V109.363z M127.164,112.221h-15.672v-1.857h15.672V112.221z M110.492,92.223h-5.586
		v-1.857h5.586V92.223z M110.492,95.079h-5.586v-1.856h5.586V95.079z M110.492,97.937h-5.586v-1.857h5.586V97.937z M110.492,100.795
		h-5.586v-1.858h5.586V100.795z M110.492,103.649h-5.586v-1.854h5.586V103.649z M110.492,106.508h-5.586v-1.858h5.586V106.508z
		 M110.492,109.363h-5.586v-1.855h5.586V109.363z M104.906,110.363h5.586v1.857h-5.586V110.363z M110.492,89.365h-5.586v-1.857
		h5.586V89.365z M133.601,112.221h-5.438v-1.857h5.438V112.221z M127.164,84.651v1.856h-15.672v-1.856H127.164z M110.492,86.508
		h-5.586v-1.856h5.586V86.508z M143.931,112.222v-7.255c0-1.067,0.869-1.937,1.936-1.937c1.068,0,1.938,0.869,1.936,1.989v7.202
		H143.931z M148.802,112.222l0.002-7.255c0-1.619-1.316-2.937-2.938-2.937c-1.619,0-2.936,1.317-2.936,2.937v7.255h-8.33v-1.858v-1
		v-1.855v-1v-1.858v-1v-1.854v-1v-1.858v-1v-1.857v-1v-1.856v-1v-1.857v-1V88.36h15.666v23.861H148.802z M170.228,99.017h4.166
		v10.512L170.228,99.017z M170.134,70.605h4.26V80.82L170.134,70.605z M174.394,69.605h-4.523l4.523-10.844V69.605z M170.234,42.195
		h4.16v9.975L170.234,42.195z M174.394,41.195h-4.523l4.523-10.844V41.195z M150.261,87.34h-15.66v-0.832v-1.464h15.66V87.34z
		 M133.601,83.651h-5.438v-1.857h5.438V83.651z M133.601,80.794h-5.438v-1.856h5.438V80.794z M133.601,77.938h-5.438h-0.424
		l1.463-1.857h4.398V77.938z M133.601,75.08h-3.611l1.465-1.857h2.146V75.08z M132.244,72.223l1.357-1.723v1.723H132.244z
		 M104.906,70.5l1.357,1.723h-1.357V70.5z M104.906,73.223h2.145l1.465,1.857h-3.609V73.223z M104.906,76.08h4.398l1.463,1.857
		h-0.275h-5.586V76.08z M104.906,78.938h5.586v1.856h-5.586V78.938z M104.906,81.794h5.586v1.857h-5.586V81.794z M103.816,85.044
		v2.296h-15.66v-2.296H103.816z M17.814,88.405c3.121,0.738,17.354,3.957,28.417,3.957c11.292,0,30.625-7.106,34.877-8.724
		l-0.033,1.798c-3.273,1.177-22.121,7.814-32.813,8.562l-0.465,0.499v11.812h-2.479V94.555l-0.486-0.5
		c-10.272-0.271-24.504-3.4-27.019-3.97V88.405z M19.56,98.429c-0.435-2.663-0.613-5.771-0.673-7.082
		c4.356,0.947,16.3,3.377,25.433,3.693v11.27H21.66C21.281,105.181,20.037,101.356,19.56,98.429z M20.173,107.31h24.646h3.479H77.23
		v1.282H20.173V107.31z M75.523,112.222v-2.63h2.207l0.5-0.5v-2.282l-0.5-0.5h-1.08c0.57-1.433,1.914-4.939,3.057-8.96
		c0.666-2.349,1.051-4.79,1.271-6.798l-0.414,21.67H75.523z"/>
	<polygon fill="#A0A09F" points="84.931,34.481 84.082,34.481 83.927,44.886 85.083,44.886 	"/>
</g>
</svg>
