<?xml version="1.0" encoding="utf-8"?>
<!-- Generator: Adobe Illustrator 16.0.0, SVG Export Plug-In . SVG Version: 6.00 Build 0)  -->
<!DOCTYPE svg PUBLIC "-//W3C//DTD SVG 1.1//EN" "http://www.w3.org/Graphics/SVG/1.1/DTD/svg11.dtd">
<svg version="1.1" id="Layer_1" xmlns="http://www.w3.org/2000/svg" xmlns:xlink="http://www.w3.org/1999/xlink" x="0px" y="0px"
	 width="325.5px" height="247px" viewBox="0 0 325.5 247" enable-background="new 0 0 325.5 247" xml:space="preserve">
<g>
	<path fill="#BDCCD4" d="M115.026,53.208c1.068,1.068,1.068,2.138,0,3.206l-12.703,12.703c-1.015,1.016-1.016,2.191-0.001,3.207
		l11.917,11.917c1.069,1.068,1.069,2.137,0.001,3.206l-5.984,5.985c-1.07,1.069-2.139,1.069-3.207,0L83.941,72.323
		c-1.015-1.016-1.015-2.191,0-3.207l21.894-21.894c1.069-1.068,2.191-1.015,3.206,0L115.026,53.208z"/>
</g>
<g>
	<path fill="#BDCCD4" d="M285.113,191.689c-1.068-1.068-1.068-2.137,0-3.205l12.703-12.703c1.016-1.017,1.016-2.19,0.001-3.207
		l-11.918-11.916c-1.068-1.068-1.068-2.138,0-3.206l5.984-5.984c1.07-1.069,2.139-1.069,3.207,0l21.107,21.106
		c1.017,1.017,1.015,2.19,0,3.207l-21.894,21.894c-1.068,1.069-2.19,1.015-3.205,0L285.113,191.689z"/>
</g>
<path fill="none" d="M163.5,147.014c-10.408,0-11,6.61-11,17.44v20.255c0,10.831,0.592,17.439,11,17.439s11-6.608,11-17.439v-20.255
	C174.5,153.624,173.908,147.014,163.5,147.014z"/>
<path fill="none" d="M227.671,149.5h-7.597c-2.672,0-4.574,1.451-4.574,4.264v41.635c0,2.673,1.902,4.102,4.574,4.102h7.597
	c6.751,0,9.829-1.007,9.829-9.445c0-0.141,0-30.805,0-30.944C237.5,150.391,234.422,149.5,227.671,149.5z"/>
<path fill="none" d="M240.447,82.146c-0.562,0.421-0.706,1.125-0.424,1.829l8.477,15.756V71.467
	C246.5,75.957,244.117,79.515,240.447,82.146z"/>
<path fill="none" d="M107.615,156.858c-0.704-6.188-3.321-9.845-10.916-9.845c-10.41,0-11.199,6.61-11.199,17.44v20.255
	c0,10.831,0.789,17.439,11.199,17.439c7.735,0,9.888-3.655,10.731-10.125c0.423-2.955,2.499-4.782,5.312-4.078l14.757,3.303v-33.33
	l-14.454,3.303C110.092,161.782,108.038,159.812,107.615,156.858z"/>
<path fill="none" d="M120.085,44.5H88.116c-2.674,0-4.616,1.904-4.616,4.718v4.503c0,2.674,0,29.832,0,32.647v4.503
	c0,2.673,1.942,4.629,4.616,4.629H119.5V54.848C119.5,51.561,119.726,48.5,120.085,44.5z"/>
<path fill="#FF931E" d="M62.559,119.372c-2.459-0.13-4.059-1.743-4.059-4.298V95.5H30.972c-2.673,0-4.472-1.956-4.472-4.629V25.015
	c0-2.814-1.156-4.515-3.971-4.515H6.769c-2.673,0-4.269,1.701-4.269,4.515v90.059c0,2.674,1.595,4.426,4.269,4.426h55.583
	C62.487,119.5,62.43,119.379,62.559,119.372z"/>
<path fill="#7AC943" d="M66.5,99.314v15.76c0,2.68-1.254,4.169-3.805,4.298c0.114,0.006,0.255,0.128,0.373,0.128h59.102
	c0.331,0,0.575-0.125,0.867-0.164c-2.206-0.298-3.537-2.034-3.537-4.825V95.5H88.116c-2.674,0-4.616-1.956-4.616-4.629v-4.503
	c0-2.815,0-29.973,0-32.647v-4.503c0-2.814,1.942-4.718,4.616-4.718h31.969c0.699-6,2.415-11.75,6.415-16.438v-3.047
	c0-2.814-1.516-4.515-4.33-4.515H63.068c-2.674,0-4.568,1.701-4.568,4.515V95.5h3.852C65.167,95.5,66.5,96.5,66.5,99.314z"/>
<path fill="#797308" d="M62.521,119.27c2.551-0.129,3.979-1.517,3.979-4.196v-15.76c0-2.814-1.333-3.814-4.148-3.814H58.5v19.574
	C58.5,117.629,60.062,119.14,62.521,119.27z"/>
<path fill="#3FA9F5" d="M280.5,158.26v-4.504c0-2.814,1.933-4.256,4.605-4.256h34.055c2.812,0,4.34-1.513,4.34-4.186v-15.761
	c0-2.815-1.527-4.054-4.34-4.054h-59.102c-2.675,0-4.559,1.238-4.559,4.054v5.229c5,5.544,7,13.595,7,24.328v30.804
	c0,10.734-2,18.815-7,24.393v5.306c0,2.673,1.884,3.888,4.559,3.888h59.102c2.812,0,4.34-1.074,4.34-3.888v-15.761
	c0-2.815-1.527-4.352-4.34-4.352h-34.055c-2.673,0-4.605-1.419-4.605-4.092v-4.502C280.5,188.091,280.5,160.932,280.5,158.26z"/>
<path fill="#3FA9F5" d="M122.17,44.5h-2.084c-0.359,4-0.585,7.061-0.585,10.348V95.5h2.67c2.814,0,4.33,1,4.33,3.814v15.76
	c0,2.484-1.154,3.97-3.345,4.262c0.241,0.032,0.431,0.164,0.694,0.164h15.76c2.815,0,3.891-1.611,3.891-4.426v-12.242
	c0-2.814,1.879-4.332,4.553-4.332h12.102c2.814,0,4.346,1.517,4.346,4.332v12.242c0,2.815,1.424,4.426,4.098,4.426h15.76
	c0.15,0,0.138-0.126,0.28-0.136c-2.336-0.172-4.138-2.026-4.138-4.431V26.912c-5-5.255-13.064-8.651-26.486-8.651
	c-14.377,0-22.514,3.896-27.514,9.801v12.714C126.5,43.45,124.984,44.5,122.17,44.5z"/>
<path fill="#1D8540" d="M126.5,115.074v-15.76c0-2.814-1.516-3.814-4.33-3.814h-2.67v19.011c0,2.791,1.385,4.424,3.591,4.722
	C125.282,118.941,126.5,117.558,126.5,115.074z"/>
<path fill="#1D8540" d="M122.17,44.5c2.814,0,4.33-1.05,4.33-3.724V28.062c-4,4.688-5.716,10.438-6.415,16.438H122.17z"/>
<path fill="#FF931E" d="M188.5,114.511c0,2.93-1.237,4.683-3.759,4.853c0.124,0.009,0.28,0.136,0.408,0.136h15.761
	c2.532,0,4.59-2.034,4.59-4.566V92.7c0-2.533,1.601-4.2,4.133-4.2h5.631c0.422,0,0.843,0.2,1.125,0.623l14.634,28.346
	c0.562,1.266,1.829,2.031,3.235,2.031h16.043c0.443,0,0.855-0.152,1.254-0.229c-1.943-0.403-3.055-1.945-3.055-4.197V99.731
	l-8.475-15.756c-0.283-0.704-0.142-1.408,0.42-1.829c3.671-2.632,6.055-6.189,8.055-10.679V37.681
	c-4-11.458-14.695-17.181-32.534-17.181h-30.816c-2.533,0-4.649,2.123-4.649,4.656v1.756c7,7.141,8,17.721,8,27.936V114.511z"/>
<path fill="#3E611D" d="M184.598,119.262c2.521-0.17,3.902-1.82,3.902-4.75V54.848c0-10.214-1-20.794-8-27.936v88.021
	C180.5,117.338,182.262,119.09,184.598,119.262z"/>
<path fill="#FF7BAC" d="M248.5,71.467v28.264l6.441,11.965c1.77,3.287,0.128,6.893-3.386,7.574c0.365,0.075,0.75,0.229,1.173,0.229
	h15.76c2.814,0,4.012-1.752,4.012-4.426V69.622c0-1.407,1.229-1.688,1.794-0.422l19.19,46.961c0.984,2.251,2.585,3.339,4.976,3.339
	h20.688c2.812,0,4.353-1.752,4.353-4.426V25.015c0-2.814-1.541-4.515-4.353-4.515h-15.761c-2.675,0-3.887,1.701-3.887,4.515v45.452
	c0,1.407-1.293,1.688-1.855,0.422l-19.223-47.005c-0.984-2.251-2.615-3.383-5.01-3.383h-20.684c-2.675,0-4.229,1.701-4.229,4.515
	v12.666c2,4.631,2.638,10.242,2.638,16.885C251.138,61.211,250.5,66.835,248.5,71.467z"/>
<path fill="#F95D1C" d="M251.138,54.566c0-6.643-0.638-12.254-2.638-16.885v33.786C250.5,66.835,251.138,61.211,251.138,54.566z"/>
<path fill="#F95D1C" d="M254.941,111.696L248.5,99.731v15.342c0,2.251,1.109,3.691,3.053,4.094
	C255.066,118.487,256.711,114.983,254.941,111.696z"/>
<path fill="#FF931E" d="M127.5,191.248l-14.735-3.303c-2.813-0.704-4.965,1.123-5.389,4.078c-0.843,6.47-2.99,10.125-10.726,10.125
	c-10.41,0-11.15-6.608-11.15-17.439v-20.255c0-10.83,0.789-17.44,11.199-17.44c7.595,0,10.169,3.657,10.873,9.845
	c0.423,2.954,2.499,4.924,5.453,4.362l14.475-3.303v-0.917c0-3.312,0.455-8.611,2.291-14.058
	c-3.293-9.826-11.657-20.123-33.093-20.123c-33.336,0-35.198,24.897-35.198,34.18v35.162c0,9.283,1.959,34.182,35.295,34.182
	c21.454,0,29.722-10.315,33.009-20.098c-1.844-5.456-2.305-10.767-2.305-14.084V191.248z"/>
<path fill="#FF7BAC" d="M163.113,122.821c-21.443,0-29.857,10.301-33.168,20.123c1.31,3.906,1.822,7.739,1.982,10.82
	c0.141,1.972-1.311,3.518-3.279,3.938l-1.148,0.217v33.33l1.159,0.213c1.969,0.422,3.333,1.969,3.192,4.079
	c-0.16,3.034-0.602,6.829-1.904,10.707c3.316,9.814,11.719,20.098,33.144,20.098c14.852,0,23.41-4.947,28.41-11.249v-81.026
	C186.5,127.768,177.967,122.821,163.113,122.821z M174.5,184.709c0,10.831-0.592,17.439-11,17.439s-11-6.608-11-17.439v-20.255
	c0-10.83,0.592-17.44,11-17.44s11,6.61,11,17.44V184.709z"/>
<path fill="#FF931E" d="M128.659,191.461l-1.159-0.213v0.915c0,3.317,0.456,8.628,2.3,14.084c1.303-3.878,1.793-7.673,1.953-10.707
	C131.894,193.43,130.627,191.883,128.659,191.461z"/>
<path fill="#F95D1C" d="M128.659,191.461l-1.159-0.213v0.915c0,3.317,0.456,8.628,2.3,14.084c1.303-3.878,1.793-7.673,1.953-10.707
	C131.894,193.43,130.627,191.883,128.659,191.461z"/>
<path fill="#FF931E" d="M127.5,157.918l1.159-0.217c1.969-0.42,3.333-1.966,3.192-3.938c-0.16-3.081-0.799-6.914-2.109-10.82
	c-1.835,5.446-2.242,10.746-2.242,14.058V157.918z"/>
<path fill="#F95D1C" d="M127.5,157.918l1.159-0.217c1.969-0.42,3.333-1.966,3.192-3.938c-0.16-3.081-0.799-6.914-2.109-10.82
	c-1.835,5.446-2.242,10.746-2.242,14.058V157.918z"/>
<path fill="#7AC943" d="M227.249,125.5h-31.366c-2.813,0-4.383,1.399-4.383,4.212v4.357c6,7.842,7,17.785,7,22.932v35.162
	c0,5.146-1,15.09-7,22.933v4.496c0,2.674,1.71,3.908,4.383,3.908h31.366c14.138,0,23.251-2.787,28.251-9.193v-79.524
	C250.5,128.412,241.387,125.5,227.249,125.5z M237.5,190.055c0,8.438-3.078,9.445-9.829,9.445h-7.597
	c-2.672,0-4.574-1.429-4.574-4.102v-41.635c0-2.812,1.902-4.264,4.574-4.264h7.597c6.751,0,9.829,0.891,9.829,9.61
	C237.5,159.25,237.5,189.914,237.5,190.055z"/>
<path fill="#3FA9F5" d="M262.5,159.11c0-10.733-2-18.784-7-24.328v79.524c5-5.577,7-13.658,7-24.393V159.11z"/>
<path fill="#1D8540" d="M262.5,159.11c0-10.733-2-18.784-7-24.328v79.524c5-5.577,7-13.658,7-24.393V159.11z"/>
<path fill="#FF7BAC" d="M198.5,157.001c0-5.146-1-15.09-7-22.932v81.026c6-7.843,7-17.786,7-22.933V157.001z"/>
<path fill="#767F3F" d="M198.5,157.001c0-5.146-1-15.09-7-22.932v81.026c6-7.843,7-17.786,7-22.933V157.001z"/>
<g>
	<g>
		<path fill="#BDCCD4" d="M8.25,9.213L4.283,3.242H2.5v8.202h1.555V5.487l4.008,6.036h1.743V3.242H8.25V9.213z M19.273,3.242
			l-3.056,8.202h1.648l0.684-1.942h3.378l0.697,1.942h1.649l-3.016-8.202H19.273z M18.979,8.177l1.273-3.557l1.259,3.557H18.979z
			 M29.185,4.646h2.801v6.798h1.622V4.646h2.801V3.242h-7.224V4.646z M44.658,3.242h-1.622v8.202h1.622V3.242z M55.885,3.045
			c-2.479,0-4.315,1.785-4.315,4.318c0,2.689,1.822,4.278,4.302,4.278c2.479,0,4.302-1.798,4.302-4.331
			C60.174,4.62,58.352,3.045,55.885,3.045z M55.898,10.302c-1.635,0-2.681-1.193-2.681-2.992c0-1.745,1.032-2.926,2.627-2.926
			c1.635,0,2.694,1.181,2.694,2.979C58.539,9.109,57.493,10.302,55.898,10.302z M72.806,9.213l-3.968-5.971h-1.782v8.202h1.554
			V5.487l4.007,6.036h1.742V3.242h-1.554V9.213z M83.828,3.242l-3.055,8.202h1.648l0.684-1.942h3.377l0.697,1.942h1.648
			l-3.016-8.202H83.828z M83.534,8.177l1.273-3.557l1.26,3.557H83.534z M96.835,3.242h-1.635v8.202h5.415V10.04h-3.78V3.242z
			 M117.131,3.242h-1.636v8.202h5.416V10.04h-3.78V3.242z M127.645,11.444h5.71v-1.352h-4.102V8.005h3.365V6.654h-3.365v-2.06h4.102
			V3.242h-5.71V11.444z M141.752,9.502h3.377l0.698,1.942h1.648l-3.016-8.202h-1.983l-3.056,8.202h1.648L141.752,9.502z
			 M143.454,4.62l1.26,3.557h-2.534L143.454,4.62z M160.026,5.735c0-1.509-1.126-2.493-3.244-2.493c0.027,0-2.936,0-2.936,0v8.202
			h1.635V8.518l1.207-0.079l1.864,3.005h1.862l-2.197-3.347C159.356,7.717,160.026,6.903,160.026,5.735z M156.689,7.231
			l-1.219,0.026V4.582c0,0,1.045,0,1.059,0c1.167,0,1.823,0.406,1.823,1.259C158.351,6.732,157.695,7.179,156.689,7.231z
			 M172.739,9.213l-3.968-5.971h-1.783v8.202h1.556V5.487l4.007,6.036h1.743V3.242h-1.555V9.213z M191.974,11.444h1.621V4.646h2.802
			V3.242h-7.225v1.404h2.802V11.444z M206.777,3.045c-2.479,0-4.315,1.785-4.315,4.318c0,2.689,1.821,4.278,4.301,4.278
			c2.481,0,4.304-1.798,4.304-4.331C211.066,4.62,209.244,3.045,206.777,3.045z M206.791,10.302c-1.635,0-2.681-1.193-2.681-2.992
			c0-1.745,1.032-2.926,2.627-2.926c1.635,0,2.693,1.181,2.693,2.979C209.431,9.109,208.385,10.302,206.791,10.302z M230.487,10.263
			c-1.689,0-2.747-1.142-2.747-2.953c0-1.785,1.085-2.887,2.722-2.887c0.803,0,1.526,0.223,2.198,0.656l0.508-1.391
			c-0.724-0.393-1.729-0.643-2.706-0.643c-2.614,0-4.37,1.693-4.37,4.318c0,2.689,1.756,4.278,4.329,4.278
			c0.951,0,1.997-0.25,2.668-0.643l-0.31-1.47C232.163,9.948,231.346,10.263,230.487,10.263z M247.999,7.311
			c0-2.69-1.824-4.265-4.288-4.265c-2.48,0-4.317,1.785-4.317,4.318c0,2.689,1.823,4.278,4.303,4.278
			C246.175,11.641,247.999,9.843,247.999,7.311z M243.724,10.302c-1.636,0-2.682-1.193-2.682-2.992c0-1.745,1.033-2.926,2.628-2.926
			c1.635,0,2.693,1.181,2.693,2.979C246.363,9.109,245.318,10.302,243.724,10.302z M262.237,7.284c0-2.441-1.66-4.042-4.517-4.042
			c-0.629,0-2.841,0-2.841,0v8.202c0,0,2.373,0,2.734,0C260.59,11.444,262.237,9.817,262.237,7.284z M256.515,4.594h1.113
			c1.916,0,2.976,0.918,2.976,2.769c0,1.823-1.127,2.729-2.896,2.729h-1.193V4.594z M269.106,11.444h5.71v-1.352h-4.102V8.005h3.364
			V6.654h-3.364v-2.06h4.102V3.242h-5.71V11.444z M297.391,7.284c0-2.441-1.663-4.042-4.518-4.042c-0.63,0-2.842,0-2.842,0v8.202
			c0,0,2.372,0,2.733,0C295.74,11.444,297.391,9.817,297.391,7.284z M292.859,10.093h-1.192V4.594h1.11
			c1.919,0,2.977,0.918,2.977,2.769C295.754,9.187,294.628,10.093,292.859,10.093z M306.336,3.242l-3.057,8.202h1.649l0.683-1.942
			h3.378l0.697,1.942h1.648l-3.016-8.202H306.336z M306.04,8.177l1.273-3.557l1.26,3.557H306.04z M319.141,11.444h1.622V8.268
			l2.909-5.026h-1.755l-1.945,3.543l-1.982-3.543h-1.77l2.921,5.013V11.444z M5.741,237.574c-1.147-0.3-1.895-0.561-1.895-1.227
			c0-0.562,0.427-0.966,1.4-0.966c0.787,0,1.72,0.274,2.455,0.703l0.399-1.345c-0.8-0.442-1.733-0.717-2.867-0.717
			c-1.854,0-2.987,0.966-2.987,2.416c0,1.605,1.387,2.128,2.587,2.454c1.228,0.326,1.854,0.575,1.854,1.253
			c0,0.654-0.641,1.085-1.547,1.085c-1,0-1.88-0.327-2.654-0.783l-0.374,1.371c0.787,0.47,1.894,0.757,3.001,0.757
			c1.96,0,3.174-1.058,3.174-2.546C8.288,238.476,6.995,237.915,5.741,237.574z M14.576,242.38h5.682v-1.345h-4.081v-2.076h3.347
			v-1.345h-3.347v-2.05h4.081v-1.346h-5.682V242.38z M29.32,234.219c-0.013,0-2.694,0-2.694,0v8.161h1.627v-2.533l0.947-0.014
			c2.24-0.012,3.561-1.005,3.561-2.886C32.761,235.354,31.628,234.219,29.32,234.219z M29.267,238.502l-1.04,0.026v-2.976
			c0,0,0.88,0,0.987,0c1.281,0,1.921,0.494,1.921,1.447S30.507,238.476,29.267,238.502z M38.289,235.615h2.788v6.765h1.613v-6.765
			h2.788v-1.396h-7.188V235.615z M51.512,242.38h5.682v-1.345h-4.081v-2.076h3.347v-1.345h-3.347v-2.05h4.081v-1.346h-5.682V242.38z
			 M70.177,234.219l-2.147,6.425l-2.147-6.425h-2.254l-0.28,8.161h1.534l0.079-6.541l2.188,6.424h1.708l2.173-6.424l0.067,6.541
			h1.573l-0.266-8.161H70.177z M83.893,238.148c0.96-0.313,1.494-0.9,1.494-1.775c0-1.241-0.774-2.154-3.028-2.154h-3.187v8.161
			h3.241c2.413,0,3.241-0.992,3.241-2.337C85.653,239.077,84.986,238.385,83.893,238.148z M80.771,235.499c0,0,1.468,0,1.534,0
			c0.947,0,1.454,0.391,1.454,1.084c0,0.705-0.547,1.135-1.587,1.135c-0.027,0-1.401,0-1.401,0V235.499z M82.385,241.1
			c-0.093,0-1.614,0-1.614,0v-2.22c0,0,1.468,0,1.494,0c1.027,0,1.747,0.289,1.747,1.097C84.012,240.722,83.479,241.1,82.385,241.1z
			 M91.875,242.38h5.681v-1.345h-4.081v-2.076h3.348v-1.345h-3.348v-2.05h4.081v-1.346h-5.681V242.38z M110.072,236.699
			c0-1.501-1.12-2.48-3.227-2.48c0.026,0-2.921,0-2.921,0v8.161h1.627v-2.911l1.2-0.078l1.854,2.989h1.854l-2.188-3.33
			C109.405,238.672,110.072,237.862,110.072,236.699z M106.75,238.188l-1.213,0.027v-2.663c0,0,1.041,0,1.054,0
			c1.161,0,1.814,0.403,1.814,1.252C108.405,237.691,107.751,238.136,106.75,238.188z M123.225,235.615h2.787v6.765h1.614v-6.765
			h2.788v-1.396h-7.189V235.615z M144.53,240.435l-1.761-6.216h-1.866l-1.735,6.216l-1.453-6.216h-1.734l2.294,8.161h1.653
			l1.881-6.307l1.84,6.307h1.68l2.294-8.161h-1.654L144.53,240.435z M153.736,242.38h5.681v-1.345h-4.082v-2.076h3.348v-1.345
			h-3.348v-2.05h4.082v-1.346h-5.681V242.38z M171.507,240.16l-3.947-5.941h-1.774v8.161h1.548v-5.929l3.987,6.007h1.734v-8.239
			h-1.548V240.16z M179.088,235.615h2.788v6.765h1.613v-6.765h2.787v-1.396h-7.188V235.615z M195.353,237.745l-1.975-3.526h-1.76
			l2.906,4.988v3.173h1.615v-3.16l2.894-5.001h-1.748L195.353,237.745z M213.024,242.38h1.615v-3.252h3.2v-1.37h-3.2v-2.155h3.933
			v-1.384h-5.548V242.38z M224.755,242.38h1.614v-8.161h-1.614V242.38z M239.261,236.699c0-1.501-1.12-2.48-3.228-2.48
			c0.027,0-2.921,0-2.921,0v8.161h1.628v-2.911l1.2-0.078l1.854,2.989h1.852l-2.187-3.33
			C238.594,238.672,239.261,237.862,239.261,236.699z M235.94,238.188l-1.215,0.027v-2.663c0,0,1.041,0,1.054,0
			c1.161,0,1.813,0.403,1.813,1.252C237.593,237.691,236.94,238.136,235.94,238.188z M248.83,237.574
			c-1.147-0.3-1.895-0.561-1.895-1.227c0-0.562,0.427-0.966,1.4-0.966c0.786,0,1.721,0.274,2.454,0.703l0.401-1.345
			c-0.801-0.442-1.734-0.717-2.869-0.717c-1.854,0-2.986,0.966-2.986,2.416c0,1.605,1.387,2.128,2.587,2.454
			c1.227,0.326,1.854,0.575,1.854,1.253c0,0.654-0.64,1.085-1.548,1.085c-1,0-1.879-0.327-2.652-0.783l-0.375,1.371
			c0.787,0.47,1.895,0.757,3.002,0.757c1.961,0,3.173-1.058,3.173-2.546C251.376,238.476,250.084,237.915,248.83,237.574z
			 M256.811,235.615h2.789v6.765h1.613v-6.765h2.788v-1.396h-7.19V235.615z M269.476,240.475c-0.653,0-1.106,0.416-1.174,0.979
			c0.826,0.352,1.081,0.586,1.081,0.927c0,0.444-0.507,0.94-1.347,1.515l0.693,0.614c1.066-0.628,2.107-1.463,2.107-2.599
			C270.837,241.114,270.223,240.475,269.476,240.475z M286.631,241.062c1.733-1.059,2.854-1.854,2.854-3.108
			c0-1.175-0.974-1.972-2.507-1.972c-1.014,0-1.961,0.354-2.642,0.849l0.429,1.201c0.652-0.443,1.279-0.718,1.906-0.718
			c0.732,0,1.146,0.366,1.146,0.888c0,0.862-1.427,1.686-3.4,3.017v1.162h5.376l-0.014-1.318H286.631z M298.828,235.981
			c-1.96,0-3.28,1.332-3.28,3.304c0,1.973,1.293,3.291,3.267,3.291c1.987,0,3.32-1.332,3.32-3.304
			C302.135,237.3,300.802,235.981,298.828,235.981z M298.828,241.31c-1.04,0-1.746-0.81-1.746-2.024
			c0-1.227,0.706-2.037,1.746-2.037c1.054,0,1.762,0.811,1.762,2.037C300.59,240.5,299.882,241.31,298.828,241.31z M307.878,238.098
			l1.547-0.418v4.7h1.56v-6.41l-3.146,0.809L307.878,238.098z M320.902,240.134c0.92-0.34,1.68-1.084,1.68-2.05
			c0-1.254-1.094-2.103-2.747-2.103c-1.079,0-1.96,0.366-2.64,0.861l0.426,1.188c0.6-0.43,1.254-0.731,1.907-0.731
			c0.866,0,1.361,0.38,1.361,1.045c0,0.94-1.202,1.332-2.469,1.593v1.189c0.387-0.065,0.787-0.092,1.146-0.079
			c1.054,0.025,1.668,0.417,1.668,1.188c0,0.861-0.68,1.318-1.693,1.307c-0.786,0-1.573-0.236-2.134-0.589l-0.228,1.319
			c0.642,0.339,1.521,0.549,2.441,0.549c1.786,0,3.24-0.967,3.24-2.625C322.862,241.244,322.21,240.344,320.902,240.134z"/>
	</g>
</g>
</svg>
