<?xml version="1.0" encoding="utf-8"?>
<!-- Generator: Adobe Illustrator 15.1.0, SVG Export Plug-In . SVG Version: 6.00 Build 0)  -->
<!DOCTYPE svg PUBLIC "-//W3C//DTD SVG 1.1//EN" "http://www.w3.org/Graphics/SVG/1.1/DTD/svg11.dtd">
<svg version="1.1" id="Layer_1" xmlns="http://www.w3.org/2000/svg" xmlns:xlink="http://www.w3.org/1999/xlink" x="0px" y="0px"
	 width="309.686px" height="49.008px" viewBox="0 0 309.686 49.008" enable-background="new 0 0 309.686 49.008"
	 xml:space="preserve">
<g>
	<path fill="#FFFFFF" d="M50.691,34.449c-0.145,0-0.436,0.031-0.871,0.094c-0.689,0.157-1.144,0.234-1.36,0.234
		c-0.943,0-1.433-0.934-1.469-2.801V14.89c0-5.165,0.125-9.156,0.377-11.978c0.036-0.184,0.054-0.458,0.054-0.824
		c0-1.062-0.414-1.593-1.24-1.593c-0.359,0-0.898,0.064-1.616,0.192C43.848,0.816,43.309,0.88,42.95,0.88
		c-0.396,0-0.88-0.043-1.455-0.128L40.202,0.56c-0.288-0.044-0.629-0.064-1.024-0.064c-1.437,0-2.155,0.613-2.155,1.841
		c0,1.19,0.61,1.785,1.832,1.785c0.25,0,0.574-0.036,0.97-0.11c0.826-0.146,1.293-0.22,1.401-0.22c0.754,0,1.257,0.424,1.509,1.269
		c0.072,0.368,0.125,1.103,0.162,2.205v18.36l-0.055,3.86c-0.036,2.39-0.135,3.869-0.299,4.438s-0.572,0.854-1.223,0.854
		c-0.146,0-0.671-0.088-1.577-0.264c-0.109,0-0.272-0.021-0.49-0.065h-0.381c-1.232,0-1.849,0.56-1.849,1.677
		c0,1.3,0.752,1.949,2.255,1.949h0.269c0.536,0,1.377-0.074,2.523-0.221c1.145-0.146,2.004-0.221,2.577-0.221
		c0.68,0,1.646,0.074,2.899,0.221c1.252,0.146,2.166,0.221,2.739,0.221c1.467,0,2.202-0.596,2.202-1.786
		C52.487,35.062,51.889,34.449,50.691,34.449z M67.168,34.449c-0.145,0-0.435,0.031-0.871,0.094
		c-0.689,0.157-1.143,0.234-1.36,0.234c-0.943,0-1.433-0.934-1.469-2.801V14.89c0-5.165,0.125-9.156,0.377-11.978
		c0.036-0.184,0.054-0.458,0.054-0.824c0-1.062-0.414-1.593-1.239-1.593c-0.359,0-0.898,0.064-1.617,0.192
		c-0.719,0.129-1.258,0.192-1.616,0.192c-0.396,0-0.881-0.043-1.455-0.128L56.679,0.56c-0.288-0.044-0.629-0.064-1.024-0.064
		c-1.437,0-2.155,0.613-2.155,1.841c0,1.19,0.61,1.785,1.832,1.785c0.251,0,0.574-0.036,0.97-0.11
		c0.826-0.146,1.293-0.22,1.401-0.22c0.754,0,1.257,0.424,1.509,1.269c0.072,0.368,0.125,1.103,0.162,2.205v18.36l-0.055,3.86
		c-0.036,2.39-0.135,3.869-0.299,4.438s-0.572,0.854-1.223,0.854c-0.146,0-0.671-0.088-1.577-0.264c-0.109,0-0.272-0.021-0.49-0.065
		h-0.381c-1.232,0-1.849,0.56-1.849,1.677c0,1.3,0.752,1.949,2.255,1.949h0.269c0.536,0,1.377-0.074,2.523-0.221
		c1.145-0.146,2.004-0.221,2.577-0.221c0.68,0,1.646,0.074,2.899,0.221s2.166,0.221,2.739,0.221c1.467,0,2.202-0.596,2.202-1.786
		C68.964,35.062,68.365,34.449,67.168,34.449z M90.575,26.702c-0.757,0-1.334,0.366-1.729,1.099
		c-0.072,0.184-0.288,0.916-0.648,2.197c-0.433,1.613-1.234,2.876-2.404,3.792c-1.171,0.915-2.549,1.373-4.134,1.373
		c-2.522,0-4.494-0.979-5.917-2.938c-1.423-1.959-2.134-4.66-2.134-8.104c0-3.332,0.757-6.006,2.271-8.021
		c1.514-2.015,3.516-3.022,6.004-3.022c1.623,0,2.947,0.367,3.976,1.099c1.027,0.733,1.631,1.74,1.812,3.022
		c-1.796,0.22-2.694,1.062-2.694,2.526c0,0.807,0.296,1.484,0.889,2.034c0.593,0.549,1.337,0.823,2.236,0.823
		c1.149,0,2.092-0.439,2.829-1.318c0.736-0.879,1.104-1.996,1.104-3.352c0-2.453-0.952-4.478-2.856-6.071
		c-1.904-1.593-4.293-2.39-7.166-2.39c-3.844,0-6.924,1.364-9.241,4.093s-3.475,6.365-3.475,10.906
		c0,4.285,1.122,7.746,3.368,10.384c2.244,2.638,5.199,3.956,8.864,3.956c3.376,0,6.124-1.154,8.244-3.461
		c0.79-0.842,1.473-1.904,2.047-3.188c0.574-1.281,0.862-2.381,0.862-3.297c0-0.621-0.199-1.135-0.594-1.537
		C91.691,26.904,91.187,26.702,90.575,26.702z M123.098,23.186c-1.382,0-2.074,0.847-2.074,2.539c0,1.803-0.215,3.238-0.645,4.306
		c-0.645,1.618-1.765,2.925-3.359,3.918c-1.595,0.993-3.396,1.489-5.402,1.489c-3.691,0-6.566-1.401-8.626-4.209
		c-2.061-2.808-3.09-6.725-3.09-11.75c0-4.917,1.002-8.77,3.009-11.558c2.007-2.788,4.783-4.184,8.33-4.184
		c2.723,0,4.927,0.817,6.61,2.451c1.684,1.635,2.49,3.761,2.418,6.376v1.962c-0.036,1.562,0.646,2.342,2.048,2.342
		c1.293,0,1.939-0.824,1.939-2.472v-0.55l-0.215-2.088c-0.108-1.025-0.162-2.033-0.162-3.021c0-0.695,0.089-1.96,0.27-3.791
		c0.071-1.465,0.107-2.344,0.107-2.638c0-1.538-0.593-2.308-1.776-2.308c-1.115,0-1.672,0.638-1.672,1.913
		c0-0.075,0.035,0.3,0.107,1.125c0,0.038,0.036,0.169,0.108,0.394V4.67C118.509,1.558,115.259,0,111.271,0
		c-4.85,0-8.756,1.832-11.72,5.494c-2.963,3.664-4.445,8.48-4.445,14.45c0,5.787,1.446,10.421,4.338,13.9
		c2.891,3.48,6.762,5.219,11.611,5.219c4.203,0,7.633-1.244,10.292-3.734c2.658-2.49,3.987-5.695,3.987-9.615
		C125.334,24.028,124.589,23.186,123.098,23.186z M140.454,9.45c-3.844,0-6.906,1.328-9.187,3.983
		c-2.281,2.656-3.421,6.218-3.421,10.686c0,4.47,1.131,8.031,3.395,10.688c2.263,2.655,5.28,3.982,9.052,3.982
		c3.879,0,6.986-1.354,9.322-4.066c2.334-2.709,3.502-6.299,3.502-10.768c0-4.469-1.132-8.003-3.395-10.604
		C147.458,10.75,144.369,9.45,140.454,9.45z M146.562,32.225c-1.496,1.959-3.559,2.938-6.19,2.938c-2.559,0-4.55-0.979-5.974-2.938
		c-1.423-1.959-2.135-4.66-2.135-8.104v-0.714c0.144-3.296,0.937-5.842,2.378-7.637c1.441-1.794,3.424-2.692,5.946-2.692
		c5.478,0,8.217,3.663,8.217,10.988C148.806,27.545,148.057,30.266,146.562,32.225z M183.625,34.449
		c-0.22,0-0.622,0.027-1.207,0.082c-0.257,0.055-0.623,0.083-1.099,0.083c-0.694,0-1.135-0.294-1.316-0.882
		c-0.184-0.586-0.293-2.09-0.329-4.513V14.638c0-0.953,0.035-2.348,0.106-4.183c0.109-2.604,0.162-4.017,0.162-4.237
		c0.035-1.833,0.072-2.806,0.107-2.917V2.696c0-1.468-0.503-2.201-1.508-2.201c-0.324,0-0.791,0.046-1.4,0.137
		c-0.611,0.092-1.078,0.138-1.401,0.138c-0.036,0-0.63-0.055-1.777-0.165c-0.755-0.073-1.274-0.109-1.562-0.109
		c-1.797,0-2.694,0.613-2.694,1.841c0,1.19,0.664,1.785,1.993,1.785c0.287,0,0.691-0.063,1.213-0.192
		c0.52-0.129,0.924-0.192,1.212-0.192c0.826,0,1.329,0.568,1.509,1.703c0.071,0.33,0.107,1.228,0.107,2.692v5.549
		c-1.76-2.82-4.418-4.23-7.975-4.23c-3.664,0-6.593,1.328-8.783,3.983c-2.19,2.656-3.287,6.199-3.287,10.631
		c0,4.396,1.111,7.948,3.332,10.659c2.222,2.711,5.16,4.065,8.813,4.065c3.618,0,6.377-1.3,8.276-3.899V36.1
		c0,1.317,0.484,1.978,1.453,1.978c0.324,0,0.701-0.056,1.133-0.165c0.718-0.073,1.132-0.109,1.238-0.109
		c0.358,0,0.908,0.047,1.645,0.137c0.734,0.092,1.284,0.139,1.645,0.139c1.615,0,2.424-0.613,2.424-1.842
		C185.655,35.045,184.979,34.449,183.625,34.449z M175.522,28.845c-0.219,1.904-0.979,3.435-2.287,4.589
		c-1.307,1.152-2.938,1.729-4.898,1.729c-2.578,0-4.609-0.997-6.098-2.994c-1.489-1.996-2.232-4.733-2.232-8.214
		c0-3.37,0.717-6.025,2.15-7.967c1.433-1.941,3.421-2.912,5.962-2.912c1.887,0,3.557,0.604,5.008,1.813
		c1.233,1.025,2.015,2.454,2.342,4.285c0.181,0.879,0.271,2.547,0.271,5C175.74,26.08,175.667,27.637,175.522,28.845z M198.699,9.45
		c-3.808,0-6.896,1.393-9.269,4.176c-2.371,2.783-3.557,6.41-3.557,10.878c0,4.36,1.113,7.829,3.341,10.412
		c2.228,2.582,5.228,3.873,8.999,3.873c3.018,0,5.711-0.926,8.082-2.773c2.371-1.849,3.557-3.966,3.557-6.347
		c0-1.392-0.666-2.088-2-2.088c-0.937,0-1.529,0.438-1.781,1.317l-0.486,1.595c-0.396,1.354-1.252,2.473-2.566,3.353
		c-1.315,0.877-2.765,1.317-4.35,1.317c-2.414,0-4.432-0.92-6.052-2.763c-1.621-1.84-2.433-4.142-2.433-6.903
		c0-0.294,0.072-0.506,0.217-0.635c0.144-0.128,0.449-0.193,0.918-0.193h17.182c0.863,0,1.387-0.154,1.566-0.465
		c0.181-0.311,0.271-1.158,0.271-2.546c0-3.54-1.096-6.46-3.287-8.759C204.86,10.6,202.075,9.45,198.699,9.45z M204.892,21.043
		h-12.923c-0.794,0-1.19-0.256-1.19-0.77c0-1.831,0.83-3.488,2.488-4.973c1.657-1.482,3.496-2.225,5.517-2.225
		c1.946,0,3.64,0.714,5.082,2.143c1.44,1.429,2.163,3.114,2.163,5.055C206.026,20.787,205.647,21.043,204.892,21.043z M237.94,2.417
		c-2.19-0.951-4.922-1.428-8.188-1.428c-1.114,0-2.013,0.037-2.694,0.109l-3.502,0.385c-1.007,0.11-2.013,0.165-3.018,0.165
		c-1.223,0-2.371-0.073-3.449-0.22l-2.855-0.385c-0.287-0.036-0.521-0.055-0.699-0.055c-1.616,0-2.426,0.632-2.426,1.895
		c0,1.154,0.558,1.731,1.672,1.731c0.322,0,0.808-0.043,1.453-0.132c0.433-0.059,0.81-0.088,1.133-0.088
		c1.832,0,2.748,1.374,2.748,4.121v22.031c0,2.747-0.916,4.121-2.748,4.121c-0.504,0-0.881-0.037-1.133-0.11
		c-0.574-0.108-1.06-0.164-1.453-0.164c-0.469,0-0.862,0.174-1.187,0.521c-0.323,0.35-0.485,0.777-0.485,1.291
		c0,1.281,0.772,1.923,2.317,1.923h0.431c0.181-0.037,0.306-0.055,0.377-0.055l2.588-0.386c0.754-0.109,1.724-0.164,2.908-0.164
		c1.365,0,2.676,0.055,3.935,0.164l3.718,0.33c0.826,0.072,1.635,0.109,2.426,0.109c3.914,0,7.256-0.824,10.021-2.473
		c2.298-1.354,4.111-3.471,5.441-6.346c1.328-2.875,1.994-6.106,1.994-9.698c0-4.065-0.836-7.637-2.507-10.713
		C243.088,5.824,240.815,3.663,237.94,2.417z M238.966,30.83c-1.939,2.376-5.064,3.562-9.376,3.562c-2.479,0-3.987-0.072-4.526-0.22
		c-1.615-0.364-2.424-1.388-2.424-3.069V7.905c0-1.534,0.313-2.467,0.942-2.796c0.628-0.329,2.36-0.494,5.2-0.494
		c2.227,0,4.13,0.238,5.711,0.713c2.479,0.731,4.427,2.367,5.847,4.908c1.418,2.541,2.128,5.641,2.128,9.296
		C242.468,24.213,241.3,27.979,238.966,30.83z M278.229,33.295v-3.406c0-1.759-0.584-2.637-1.75-2.637
		c-1.098,0-1.646,0.581-1.646,1.745v2.674c0,2.328-0.629,3.492-1.886,3.492c-1.006,0-1.617-0.64-1.832-1.919
		c-0.072-0.328-0.107-1.37-0.107-3.125V19.045c0-6.396-3.27-9.595-9.807-9.595c-2.839,0-5.254,0.733-7.248,2.197
		c-1.993,1.466-2.99,3.225-2.99,5.274c0,0.953,0.314,1.759,0.943,2.418c0.628,0.659,1.408,0.989,2.344,0.989
		c0.789,0,1.445-0.238,1.967-0.715c0.521-0.476,0.781-1.08,0.781-1.812c0-0.88-0.252-1.502-0.755-1.868
		c-0.323-0.22-0.483-0.403-0.483-0.55c0-0.402,0.27-0.787,0.807-1.153c1.402-0.915,2.91-1.374,4.527-1.374
		c1.831,0,3.26,0.432,4.283,1.291c1.023,0.861,1.535,2.043,1.535,3.545c0,1.574-0.458,2.655-1.374,3.24
		c-0.916,0.587-2.883,1.045-5.899,1.374c-2.119,0.257-3.529,0.467-4.229,0.632s-1.535,0.522-2.505,1.071
		c-2.553,1.429-3.826,3.663-3.826,6.702c0,2.455,0.87,4.415,2.613,5.88c1.742,1.464,4.068,2.197,6.978,2.197
		c3.915,0,6.789-1.373,8.621-4.12c0.683,2.602,2.497,3.9,5.442,3.9C276.325,38.568,278.157,36.812,278.229,33.295z M266.699,27.637
		c-0.037,2.344-0.746,4.184-2.13,5.521c-1.383,1.338-3.277,2.006-5.685,2.006c-1.688,0-3.026-0.403-4.015-1.209
		c-0.989-0.807-1.48-1.904-1.48-3.297c0-2.674,2.039-4.211,6.117-4.614c2.253-0.22,3.818-0.476,4.695-0.771
		c0.877-0.292,1.708-0.806,2.496-1.539L266.699,27.637L266.699,27.637z M307.369,10.385c-0.611,0-1.509,0.082-2.694,0.247
		c-1.185,0.165-2.084,0.247-2.693,0.247c-0.576,0-1.113-0.036-1.616-0.11l-1.94-0.274c-0.503-0.073-0.861-0.109-1.076-0.109
		c-1.546,0-2.317,0.623-2.317,1.867c0,1.173,0.593,1.759,1.778,1.759c0.18,0,0.557-0.036,1.131-0.11
		c0.252-0.073,0.594-0.11,1.023-0.11c0.826,0,1.239,0.312,1.239,0.935c0,0.294-0.09,0.696-0.271,1.209L293.36,34.23l-6.196-18.569
		c-0.146-0.439-0.216-0.805-0.216-1.099c0-0.513,0.251-0.77,0.755-0.77c0.215,0,0.556,0.037,1.022,0.11
		c0.467,0.074,0.809,0.11,1.023,0.11c1.365,0,2.048-0.604,2.048-1.813s-0.755-1.812-2.264-1.812c-0.359,0-1.097,0.062-2.209,0.188
		c-1.474,0.168-2.854,0.252-4.148,0.252c-0.181,0-0.396-0.019-0.646-0.056h-0.432l-2.156-0.32c-0.287-0.043-0.699-0.063-1.238-0.063
		c-1.652,0-2.479,0.623-2.479,1.867c0,1.173,0.627,1.759,1.885,1.759c0.181,0,0.549-0.046,1.104-0.138
		c0.558-0.091,0.943-0.138,1.159-0.138c0.789,0,1.49,0.824,2.102,2.473l0.646,1.758l5.927,15.274
		c0.97,2.491,1.455,4.194,1.455,5.108c0,1.795-0.764,3.416-2.29,4.862c-1.527,1.446-3.242,2.171-5.146,2.171
		c-1.508,0-2.531-0.404-3.07-1.209c1.042-0.33,1.562-1.081,1.562-2.253c0-0.733-0.27-1.347-0.809-1.841s-1.223-0.741-2.048-0.741
		c-1.042,0-1.886,0.356-2.532,1.071c-0.646,0.714-0.97,1.639-0.97,2.773c0,1.611,0.745,2.984,2.235,4.121
		c1.49,1.135,3.332,1.702,5.522,1.702c3.664,0,6.717-1.593,9.16-4.778c1.437-1.869,2.964-4.873,4.579-9.012l7.328-18.68
		c0.719-1.868,1.418-2.803,2.103-2.803c0.179,0,0.502,0.055,0.97,0.165c0.18,0.074,0.448,0.11,0.809,0.11
		c1.186,0,1.777-0.595,1.777-1.785C309.686,10.998,308.913,10.385,307.369,10.385z"/>
</g>
<g>
	<path fill="#F95D1C" d="M25.622,20.587l5.422-5.526c0.515-0.523,0.529-1.357,0.034-1.862l-0.448-0.457
		c-0.495-0.506-1.313-0.49-1.828,0.034l-5.422,5.526l-5.231-5.332l5.422-5.526C24.084,6.92,24.1,6.085,23.604,5.58l-0.448-0.457
		c-0.495-0.504-1.313-0.489-1.827,0.035l-5.422,5.526l-5.795-5.907C9.597,4.253,8.779,4.238,8.283,4.742L7.835,5.199
		c-0.496,0.505-0.48,1.34,0.034,1.863l5.795,5.907l-5.231,5.332l-5.795-5.907c-0.514-0.523-1.332-0.539-1.828-0.034l-0.448,0.457
		c-0.495,0.505-0.48,1.338,0.034,1.862l5.796,5.907l-5.796,5.907c-0.514,0.524-0.529,1.358-0.034,1.862l0.448,0.457
		c0.496,0.506,1.314,0.489,1.828-0.035l5.795-5.906l5.232,5.333l-5.796,5.907c-0.514,0.523-0.529,1.357-0.034,1.863l0.448,0.457
		c0.496,0.504,1.313,0.488,1.828-0.035l5.795-5.907l5.422,5.526c0.514,0.523,1.332,0.539,1.827,0.034l0.448-0.457
		c0.496-0.505,0.48-1.339-0.033-1.862l-5.422-5.526l5.231-5.332l5.421,5.526c0.515,0.523,1.333,0.539,1.828,0.033l0.448-0.455
		c0.495-0.506,0.48-1.34-0.034-1.863L25.622,20.587z M15.906,25.919l-5.231-5.333l5.231-5.332l5.231,5.332L15.906,25.919z"/>
</g>
</svg>
