<?xml version="1.0" encoding="utf-8"?>
<!-- Generator: Adobe Illustrator 16.0.0, SVG Export Plug-In . SVG Version: 6.00 Build 0)  -->
<!DOCTYPE svg PUBLIC "-//W3C//DTD SVG 1.1//EN" "http://www.w3.org/Graphics/SVG/1.1/DTD/svg11.dtd">
<svg version="1.1" id="Layer_1" xmlns="http://www.w3.org/2000/svg" xmlns:xlink="http://www.w3.org/1999/xlink" x="0px" y="0px"
	 width="28.949px" height="25.218px" viewBox="0 0 28.949 25.218" enable-background="new 0 0 28.949 25.218" xml:space="preserve">
<path fill="#878787" d="M28.926,21.032c-0.062-0.191-0.232-0.328-0.434-0.345c-0.05-0.005-5.061-0.467-7.86-3.51
	c-1.181-1.282-1.551-2.549-1.941-3.889c-0.503-1.724-1.073-3.678-3.494-5.762c-2.369-2.039-4.643-3.031-6.951-3.031
	c-1.656,0-3.365,0.502-5.223,1.531C1.284,2.519,0.999,0.459,0.996,0.436C0.963,0.184,0.748-0.001,0.501-0.001
	c-0.021,0-0.043,0.002-0.064,0.005C0.163,0.038-0.03,0.288,0.004,0.562c0.013,0.104,0.314,2.324,2.229,6.119
	c-1.003,1.094-1.552,2.996-1.424,5.188c0.112,1.905,1.117,8.386,9.373,11.775c2.542,1.043,5.12,1.572,7.661,1.572
	c6.607,0,10.76-3.503,10.934-3.652C28.929,21.434,28.987,21.224,28.926,21.032z M27.155,21.499c-1.551,0.997-4.87,2.718-9.312,2.718
	c-2.41,0-4.86-0.504-7.282-1.498c-7.715-3.167-8.65-9.15-8.753-10.908c-0.099-1.688,0.265-3.237,0.924-4.176
	c0.093,0.173,0.184,0.343,0.283,0.521c0.876,1.571,1.919,3.194,3.099,4.824c5.466,7.555,11.046,9.284,11.281,9.354
	c0.269,0.074,0.543-0.072,0.621-0.336c0.079-0.265-0.071-0.543-0.335-0.622c-0.055-0.017-5.507-1.726-10.757-8.982
	c-1.157-1.599-2.179-3.188-3.036-4.726C3.745,7.413,3.61,7.164,3.481,6.92C3.487,6.916,3.493,6.91,3.5,6.906
	c1.709-0.948,3.261-1.41,4.745-1.41c2.059,0,4.119,0.913,6.299,2.789c2.196,1.891,2.677,3.539,3.187,5.284
	c0.406,1.392,0.826,2.831,2.165,4.286C22.084,20.233,25.371,21.157,27.155,21.499z"/>
</svg>
