<?xml version="1.0" encoding="utf-8"?>
<!-- Generator: Adobe Illustrator 16.0.0, SVG Export Plug-In . SVG Version: 6.00 Build 0)  -->
<!DOCTYPE svg PUBLIC "-//W3C//DTD SVG 1.1//EN" "http://www.w3.org/Graphics/SVG/1.1/DTD/svg11.dtd">
<svg version="1.1" id="Layer_1" xmlns="http://www.w3.org/2000/svg" xmlns:xlink="http://www.w3.org/1999/xlink" x="0px" y="0px"
	 width="428.747px" height="66.575px" viewBox="0 0 428.747 66.575" enable-background="new 0 0 428.747 66.575"
	 xml:space="preserve">
<g>
	<g>
		<path fill="#FFFFFF" d="M8.41,13.116c0-2.305,1.83-4.202,4.203-4.202h0.881c2.033,0,3.186,1.017,4.338,2.44l23.723,30.704V12.913
			c0-2.236,1.83-4.066,4.066-4.066c2.305,0,4.135,1.83,4.135,4.066v39.854c0,2.305-1.762,4.135-4.066,4.135H45.35
			c-1.966,0-3.186-1.017-4.338-2.508L16.611,22.808v30.095c0,2.236-1.829,4.066-4.066,4.066c-2.305,0-4.135-1.83-4.135-4.066V13.116
			z"/>
		<path fill="#FFFFFF" d="M72.795,51.208l17.623-39.312c0.948-2.102,2.644-3.389,5.016-3.389h0.406c2.372,0,3.999,1.287,4.948,3.389
			l17.622,39.312c0.34,0.61,0.475,1.221,0.475,1.763c0,2.236-1.694,3.999-3.931,3.999c-1.966,0-3.321-1.152-4.067-2.914l-3.863-8.88
			H83.979l-3.999,9.15c-0.678,1.694-2.101,2.644-3.863,2.644c-2.169,0-3.863-1.694-3.863-3.863
			C72.253,52.496,72.457,51.886,72.795,51.208z M103.838,37.788l-8.337-19.182l-8.337,19.182H103.838z"/>
		<path fill="#FFFFFF" d="M139.69,51.343c-0.949-0.678-1.627-1.83-1.627-3.186c0-2.169,1.762-3.863,3.931-3.863
			c1.152,0,1.898,0.339,2.44,0.746c3.932,3.117,8.134,4.88,13.285,4.88c5.15,0,8.404-2.44,8.404-5.965V43.82
			c0-3.389-1.897-5.219-10.709-7.252c-10.1-2.44-15.793-5.423-15.793-14.166v-0.136c0-8.134,6.778-13.759,16.199-13.759
			c5.965,0,10.777,1.559,15.047,4.405c0.949,0.542,1.83,1.694,1.83,3.321c0,2.169-1.762,3.863-3.931,3.863
			c-0.813,0-1.491-0.203-2.169-0.61c-3.66-2.372-7.185-3.592-10.913-3.592c-4.88,0-7.727,2.508-7.727,5.626v0.135
			c0,3.66,2.169,5.287,11.319,7.456c10.031,2.44,15.183,6.032,15.183,13.895v0.136c0,8.879-6.981,14.166-16.945,14.166
			C151.077,57.308,144.976,55.275,139.69,51.343z"/>
		<path fill="#FFFFFF" d="M195.74,33.043v-0.136c0-13.488,10.099-24.536,24.468-24.536c7.321,0,12.133,2.169,16.268,5.354
			c0.881,0.678,1.627,1.83,1.627,3.321c0,2.305-1.83,4.066-4.135,4.066c-1.152,0-1.966-0.406-2.508-0.813
			c-3.253-2.644-6.778-4.27-11.319-4.27c-9.015,0-15.657,7.455-15.657,16.741v0.136c0,9.285,6.575,16.81,15.657,16.81
			c5.016,0,8.405-1.627,11.861-4.542c0.61-0.542,1.491-0.948,2.508-0.948c2.102,0,3.932,1.762,3.932,3.863
			c0,1.288-0.61,2.305-1.355,2.982c-4.474,3.931-9.557,6.371-17.217,6.371C206.042,57.444,195.74,46.667,195.74,33.043z"/>
		<path fill="#FFFFFF" d="M261.414,52.428V13.387c0-2.372,1.83-4.202,4.202-4.202h27.586c2.033,0,3.728,1.694,3.728,3.728
			c0,2.102-1.694,3.728-3.728,3.728H269.75v12.336h20.401c2.033,0,3.728,1.694,3.728,3.796c0,2.033-1.694,3.66-3.728,3.66H269.75
			v12.742h23.79c2.033,0,3.728,1.694,3.728,3.729c0,2.101-1.694,3.728-3.728,3.728h-27.925
			C263.244,56.63,261.414,54.8,261.414,52.428z"/>
		<path fill="#FFFFFF" d="M320.377,13.116c0-2.305,1.83-4.202,4.202-4.202h0.881c2.033,0,3.186,1.017,4.338,2.44l23.723,30.704
			V12.913c0-2.236,1.83-4.066,4.067-4.066c2.304,0,4.134,1.83,4.134,4.066v39.854c0,2.305-1.762,4.135-4.066,4.135h-0.339
			c-1.966,0-3.186-1.017-4.338-2.508l-24.4-31.586v30.095c0,2.236-1.83,4.066-4.067,4.066c-2.304,0-4.134-1.83-4.134-4.066V13.116z"
			/>
		<path fill="#FFFFFF" d="M399.132,16.912H387.61c-2.169,0-3.863-1.763-3.863-3.863c0-2.102,1.694-3.863,3.863-3.863h31.518
			c2.102,0,3.796,1.762,3.796,3.863c0,2.101-1.694,3.863-3.796,3.863h-11.59v35.923c0,2.305-1.898,4.135-4.202,4.135
			c-2.305,0-4.203-1.83-4.203-4.135V16.912z"/>
	</g>
</g>
</svg>
