<?xml version="1.0" encoding="utf-8"?>
<!-- Generator: Adobe Illustrator 15.1.0, SVG Export Plug-In . SVG Version: 6.00 Build 0)  -->
<svg version="1.2" baseProfile="tiny" id="Layer_1" xmlns="http://www.w3.org/2000/svg" xmlns:xlink="http://www.w3.org/1999/xlink"
	 x="0px" y="0px" width="649.5px" height="494px" viewBox="-161.75 -123.5 649.5 494" xml:space="preserve">
<g>
	<path fill="#BDCCD4" d="M67.16-17.517c2.137,2.136,2.137,4.276,0,6.412L41.755,14.302c-2.03,2.031-2.032,4.382-0.003,6.414
		L65.586,44.55c2.139,2.136,2.139,4.273,0.003,6.412L53.62,62.932c-2.14,2.138-4.277,2.138-6.414,0L4.99,20.714
		c-2.03-2.032-2.03-4.383,0-6.414l43.788-43.788c2.138-2.137,4.382-2.03,6.412,0L67.16-17.517z"/>
</g>
<path fill="none" d="M318.003,40.359c-1.125,0.842-1.412,2.25-0.848,3.658l16.953,31.512V19.001
	C330.108,27.981,325.343,35.098,318.003,40.359z"/>
<path fill="none" d="M77.278-34.933H13.341c-5.349,0-9.232,3.808-9.232,9.436v9.007c0,5.348,0,59.663,0,65.294v9.006
	c0,5.346,3.884,9.258,9.232,9.258h62.768v-81.304C76.108-20.811,76.561-26.933,77.278-34.933z"/>
<path fill="#FF931E" d="M-37.773,114.812c-4.918-0.26-8.118-3.486-8.118-8.596V67.067h-55.056c-5.347,0-8.944-3.912-8.944-9.258
	V-73.902c0-5.628-2.312-9.03-7.942-9.03h-31.52c-5.346,0-8.538,3.402-8.538,9.03v180.118c0,5.348,3.19,8.852,8.538,8.852h111.166
	C-37.918,115.067-38.031,114.825-37.773,114.812z"/>
<path fill="#7AC943" d="M-29.892,74.695v31.521c0,5.359-2.508,8.338-7.61,8.596c0.229,0.012,0.511,0.256,0.746,0.256H81.448
	c0.662,0,1.15-0.25,1.734-0.328c-4.412-0.596-7.074-4.068-7.074-9.65V67.067H13.341c-5.349,0-9.232-3.912-9.232-9.258v-9.006
	c0-5.631,0-59.946,0-65.294v-9.007c0-5.628,3.884-9.436,9.232-9.436h63.938c1.398-12,4.83-23.5,12.83-32.876v-6.094
	c0-5.628-3.032-9.03-8.66-9.03H-36.756c-5.348,0-9.136,3.402-9.136,9.03v140.97h7.704C-32.558,67.067-29.892,69.067-29.892,74.695z"
	/>
<path fill="#797308" d="M-37.85,114.607c5.102-0.258,7.958-3.034,7.958-8.392V74.695c0-5.628-2.666-7.628-8.296-7.628h-7.704v39.148
	C-45.892,111.325-42.768,114.348-37.85,114.607z"/>
<path fill="#3FA9F5" d="M81.448-34.933H77.28c-0.718,8-1.17,14.122-1.17,20.696v81.304h5.34c5.628,0,8.66,2,8.66,7.628v31.521
	c0,4.968-2.308,7.939-6.69,8.523c0.482,0.064,0.862,0.328,1.389,0.328h31.52c5.63,0,7.782-3.222,7.782-8.852V81.731
	c0-5.628,3.758-8.664,9.106-8.664h24.204c5.628,0,8.691,3.034,8.691,8.664v24.484c0,5.63,2.848,8.852,8.195,8.852h31.52
	c0.301,0,0.277-0.252,0.562-0.271c-4.672-0.345-8.277-4.053-8.277-8.862V-70.108c-10-10.51-26.129-17.303-52.972-17.303
	c-28.754,0-45.028,7.793-55.028,19.603v25.428C90.108-37.032,87.076-34.933,81.448-34.933z"/>
<path fill="#1D8540" d="M90.108,106.216V74.695c0-5.628-3.032-7.628-8.66-7.628h-5.34v38.021c0,5.582,2.77,8.849,7.182,9.444
	C87.673,113.949,90.108,111.184,90.108,106.216z"/>
<path fill="#1D8540" d="M81.448-34.933c5.628,0,8.66-2.1,8.66-7.448v-25.428c-8,9.376-11.432,20.876-12.83,32.876H81.448z"/>
<path fill="#FF931E" d="M214.108,105.089c0,5.86-2.473,9.366-7.518,9.707c0.248,0.018,0.561,0.271,0.814,0.271h31.523
	c5.062,0,9.18-4.068,9.18-9.132V61.468c0-5.066,3.203-8.4,8.266-8.4h11.262c0.844,0,1.688,0.4,2.25,1.246l29.27,56.691
	c1.123,2.532,3.656,4.062,6.469,4.062h32.086c0.887,0,1.711-0.304,2.508-0.458c-3.887-0.806-6.109-3.89-6.109-8.394V75.529
	l-16.949-31.512c-0.566-1.408-0.285-2.816,0.84-3.658c7.342-5.264,12.109-12.378,16.109-21.358V-48.57
	c-8-22.916-29.391-34.362-65.068-34.362h-61.631c-5.066,0-9.299,4.246-9.299,9.312v3.512c14,14.281,16,35.441,16,55.872v119.325
	H214.108z"/>
<path fill="#3E611D" d="M206.304,114.592c5.043-0.341,7.805-3.641,7.805-9.5V-14.236c0-20.429-2-41.588-16-55.872v176.042
	C198.108,110.743,201.632,114.247,206.304,114.592z"/>
<path fill="#FF7BAC" d="M334.108,19.001v56.528l12.883,23.93c3.539,6.574,0.254,13.786-6.773,15.148
	c0.73,0.149,1.5,0.458,2.348,0.458h31.52c5.627,0,8.023-3.504,8.023-8.852V15.312c0-2.814,2.457-3.376,3.588-0.844l38.381,93.922
	c1.967,4.502,5.168,6.678,9.951,6.678h41.377c5.623,0,8.705-3.504,8.705-8.852V-73.902c0-5.628-3.082-9.03-8.705-9.03h-31.523
	c-5.35,0-7.773,3.402-7.773,9.03v90.903c0,2.814-2.586,3.377-3.711,0.845l-38.445-94.011c-1.969-4.502-5.23-6.766-10.02-6.766
	h-41.367c-5.352,0-8.459,3.402-8.459,9.03v25.332c4,9.262,5.275,20.483,5.275,33.77C339.386-1.511,338.108,9.737,334.108,19.001z"/>
<path fill="#F95D1C" d="M339.386-14.801c0-13.286-1.277-24.508-5.277-33.77v67.571C338.108,9.737,339.386-1.511,339.386-14.801z"/>
<path fill="#F95D1C" d="M346.991,99.459l-12.883-23.93v30.685c0,4.502,2.219,7.382,6.105,8.188
	C347.241,113.041,350.53,106.033,346.991,99.459z"/>
</svg>

